<svg width="20" height="20" viewBox="0 0 20 20" fill="none" xmlns="http://www.w3.org/2000/svg">
<g clip-path="url(#clip0_11265_28698)">
<circle cx="10" cy="9.99995" r="9.375" transform="rotate(45 10 9.99995)" fill="url(#paint0_radial_11265_28698)"/>
<path d="M16.6291 16.6293C20.2903 12.9682 20.2903 7.03227 16.6292 3.37109L10 10.0002L16.6291 16.6293Z" fill="url(#paint1_radial_11265_28698)"/>
<path d="M3.37085 3.37109L9.99998 10.0002L3.37085 16.6293C-0.290323 12.9682 -0.290312 7.03226 3.37085 3.37109Z" fill="url(#paint2_radial_11265_28698)"/>
<path d="M13.867 13.8671C13.3592 14.3749 12.7563 14.7777 12.0928 15.0526C11.4293 15.3274 10.7182 15.4688 10 15.4688C9.28183 15.4688 8.5707 15.3274 7.9072 15.0526C7.2437 14.7777 6.64083 14.3749 6.13301 13.8671L10 10.0001L13.867 13.8671Z" fill="url(#paint3_radial_11265_28698)"/>
<path d="M6.13301 6.13292C6.64083 5.62509 7.2437 5.22227 7.9072 4.94744C8.5707 4.67261 9.28184 4.53116 10 4.53116C10.7182 4.53116 11.4293 4.67261 12.0928 4.94744C12.7563 5.22227 13.3592 5.6251 13.867 6.13292L10 9.99991L6.13301 6.13292Z" fill="url(#paint4_radial_11265_28698)"/>
<path d="M13.8671 6.13301C14.3749 6.64083 14.7777 7.2437 15.0526 7.9072C15.3274 8.5707 15.4688 9.28183 15.4688 10C15.4688 10.7182 15.3274 11.4293 15.0526 12.0928C14.7777 12.7563 14.3749 13.3592 13.8671 13.867L10.0001 10L13.8671 6.13301Z" fill="url(#paint5_radial_11265_28698)"/>
<path d="M6.13292 13.867C5.6251 13.3592 5.22227 12.7563 4.94744 12.0928C4.67261 11.4293 4.53116 10.7182 4.53116 10C4.53116 9.28183 4.67261 8.5707 4.94744 7.9072C5.22227 7.2437 5.6251 6.64083 6.13292 6.13301L9.99991 10L6.13292 13.867Z" fill="url(#paint6_radial_11265_28698)"/>
</g>
<defs>
<radialGradient id="paint0_radial_11265_28698" cx="0" cy="0" r="1" gradientUnits="userSpaceOnUse" gradientTransform="translate(10 9.99995) rotate(90) scale(9.375)">
<stop offset="0.369792" stop-color="white"/>
<stop offset="1" stop-color="#FFD480"/>
</radialGradient>
<radialGradient id="paint1_radial_11265_28698" cx="0" cy="0" r="1" gradientUnits="userSpaceOnUse" gradientTransform="translate(10 10.0002) scale(9.29688)">
<stop offset="0.583333" stop-color="#FF4646"/>
<stop offset="1" stop-color="#FF9447"/>
</radialGradient>
<radialGradient id="paint2_radial_11265_28698" cx="0" cy="0" r="1" gradientUnits="userSpaceOnUse" gradientTransform="translate(9.99997 10.0002) rotate(-180) scale(9.45313)">
<stop offset="0.583333" stop-color="#FF4646"/>
<stop offset="1" stop-color="#FF9447"/>
</radialGradient>
<radialGradient id="paint3_radial_11265_28698" cx="0" cy="0" r="1" gradientUnits="userSpaceOnUse" gradientTransform="translate(10 10.0001) rotate(135) scale(5.46875)">
<stop stop-color="white" stop-opacity="0"/>
<stop offset="1" stop-color="white"/>
</radialGradient>
<radialGradient id="paint4_radial_11265_28698" cx="0" cy="0" r="1" gradientUnits="userSpaceOnUse" gradientTransform="translate(10 9.99991) rotate(-45) scale(5.46875)">
<stop stop-color="white" stop-opacity="0"/>
<stop offset="1" stop-color="white"/>
</radialGradient>
<radialGradient id="paint5_radial_11265_28698" cx="0" cy="0" r="1" gradientUnits="userSpaceOnUse" gradientTransform="translate(10.0001 10) rotate(45) scale(5.46875)">
<stop stop-color="#B80948" stop-opacity="0"/>
<stop offset="1" stop-color="#B80948"/>
</radialGradient>
<radialGradient id="paint6_radial_11265_28698" cx="0" cy="0" r="1" gradientUnits="userSpaceOnUse" gradientTransform="translate(9.99991 10) rotate(-135) scale(5.46875)">
<stop stop-color="#B80948" stop-opacity="0"/>
<stop offset="1" stop-color="#B80948"/>
</radialGradient>
<clipPath id="clip0_11265_28698">
<rect width="20" height="20" fill="white"/>
</clipPath>
</defs>
</svg>
