<svg width="17" height="17" viewBox="0 0 17 17" fill="none" xmlns="http://www.w3.org/2000/svg">
<path fill-rule="evenodd" clip-rule="evenodd" d="M14.344 3.49333C14.7407 3.085 14.7407 2.43167 14.344 2.035C13.9357 1.63833 13.2823 1.63833 12.8857 2.035L10.0973 4.82333V1.66167C10.0973 0.961667 9.29232 0.588333 8.75565 1.02L5.59398 4.03C4.78898 4.78833 3.72732 5.20833 2.61898 5.20833H1.80232C1.26565 5.20833 0.833984 5.64 0.833984 6.17667V10.2717H4.64898L1.13732 13.7833C0.740651 14.1917 0.740651 14.845 1.13732 15.2417C1.53398 15.6383 2.18732 15.6383 2.58398 15.2417L10.0973 7.72833L14.344 3.49333Z" fill="white"/>
<path fill-rule="evenodd" clip-rule="evenodd" d="M15.2657 5.47667L13.819 6.92333C14.274 7.355 14.589 7.95 14.589 8.62667V8.65C14.589 9.68833 13.9123 10.575 12.979 10.89C12.5473 11.03 12.2323 11.3917 12.2323 11.8467V11.905C12.2323 12.5583 12.8623 13.0367 13.4923 12.85C15.289 12.3133 16.6073 10.6333 16.6073 8.66167V8.62667C16.6073 7.39 16.094 6.27 15.2657 5.47667Z" fill="white"/>
<path fill-rule="evenodd" clip-rule="evenodd" d="M8.75565 16.245C9.29232 16.6883 10.0973 16.3033 10.0973 15.6033V10.645L6.57398 14.1683L8.75565 16.245Z" fill="white"/>
</svg>
