<svg width="17" height="17" viewBox="0 0 17 17" fill="none" xmlns="http://www.w3.org/2000/svg">
    <path fill="white" fill-rule="evenodd" clip-rule="evenodd" d="M2.6188 5.20835H1.80213C1.26547 5.20835 0.833801 5.64002 0.833801 6.17669V11.1C0.833801 11.6367 1.26547 12.0684 1.80213 12.0684H2.6188C3.72713 12.0684 4.7888 12.4884 5.5938 13.2467L8.75547 16.245C9.29214 16.6884 10.0971 16.3034 10.0971 15.6034V1.66169C10.0971 0.961686 9.29214 0.588352 8.75547 1.02002L5.5938 4.03002C4.7888 4.78835 3.72713 5.20835 2.6188 5.20835Z"/>
    <path fill="white" fill-rule="evenodd" clip-rule="evenodd" d="M12.2321 5.37169V5.43002C12.2321 5.88502 12.5471 6.23502 12.9788 6.38669C13.9121 6.70169 14.5888 7.58835 14.5888 8.62669V8.65002C14.5888 9.68835 13.9121 10.575 12.9788 10.89C12.5471 11.03 12.2321 11.3917 12.2321 11.8467V11.905C12.2321 12.5584 12.8621 13.0367 13.4921 12.85C15.2888 12.3134 16.6071 10.6334 16.6071 8.66169V8.62669C16.6071 6.64335 15.2888 4.97502 13.4921 4.43835C12.8621 4.24002 12.2321 4.71835 12.2321 5.37169Z"/>
</svg>
