<svg width="20" height="14" viewBox="0 0 20 14" fill="none" xmlns="http://www.w3.org/2000/svg">
<g clip-path="url(#clip0_11502_5534)">
<path d="M12.54 0.314941C13.09 0.314941 13.54 0.764941 13.54 1.31494V12.6849C13.54 13.2349 13.09 13.6849 12.54 13.6849C11.99 13.6849 11.54 13.2349 11.54 12.6849V1.31494C11.54 0.764941 11.99 0.314941 12.54 0.314941Z" fill="black"/>
<path d="M17.07 10.3149C17.07 10.8649 16.59 11.3149 16 11.3149H10.6501C10.0601 11.3149 9.58008 10.8649 9.58008 10.3149C9.58008 9.76494 10.0601 9.31494 10.6501 9.31494H16C16.59 9.31494 17.07 9.76494 17.07 10.3149Z" fill="black"/>
<path d="M13.5405 6.9248C13.5405 7.4748 13.0605 7.9248 12.4705 7.9248H10.8005C10.2105 7.9248 9.73047 7.4748 9.73047 6.9248C9.73047 6.3748 10.2105 5.9248 10.8005 5.9248H12.4705C13.0605 5.9248 13.5405 6.3748 13.5405 6.9248Z" fill="black"/>
<path d="M0.5 6.9248C0.5 6.3748 0.95 5.9248 1.5 5.9248H7.31C7.86 5.9248 8.31 6.3748 8.31 6.9248C8.31 7.4748 7.86 7.9248 7.31 7.9248H1.5C0.95 7.9248 0.5 7.4748 0.5 6.9248Z" fill="black"/>
<path d="M4.41016 3.01514C4.96016 3.01514 5.41016 3.46514 5.41016 4.01514V9.82514C5.41016 10.3751 4.96016 10.8251 4.41016 10.8251C3.86016 10.8251 3.41016 10.3751 3.41016 9.82514V4.01514C3.41016 3.46514 3.86016 3.01514 4.41016 3.01514Z" fill="black"/>
<path d="M11.54 1.26494V2.31494H15.93C16.93 2.31494 17.73 3.12494 17.73 4.11494C17.73 5.11494 16.92 5.91494 15.93 5.91494H11.54V7.91494H15.93C18.03 7.91494 19.73 6.21494 19.73 4.11494C19.74 2.01494 18.04 0.314941 15.94 0.314941H12.5C11.98 0.314941 11.55 0.744941 11.55 1.26494H11.54Z" fill="black"/>
</g>
<defs>
<clipPath id="clip0_11502_5534">
<rect width="19.24" height="13.37" fill="white" transform="translate(0.5 0.314941)"/>
</clipPath>
</defs>
</svg>
