<svg width="18" height="18" viewBox="0 0 18 18" fill="none" xmlns="http://www.w3.org/2000/svg">
<g clip-path="url(#clip0_17601_2490)">
<path d="M9 17.4375C13.6603 17.4375 17.4375 13.6603 17.4375 9C17.4375 4.33969 13.6603 0.5625 9 0.5625C4.33969 0.5625 0.5625 4.33969 0.5625 9C0.5625 13.6603 4.33969 17.4375 9 17.4375Z" fill="url(#paint0_linear_17601_2490)"/>
<path d="M9 17.4375C13.6603 17.4375 17.4375 13.6603 17.4375 9C17.4375 4.33969 13.6603 0.5625 9 0.5625C4.33969 0.5625 0.5625 4.33969 0.5625 9C0.5625 13.6603 4.33969 17.4375 9 17.4375Z" fill="url(#paint1_linear_17601_2490)"/>
<path d="M14.4844 3.51563V14.4844L3.65625 14.4844L3.65625 3.51562L14.4844 3.51563Z" fill="url(#paint2_radial_17601_2490)"/>
<path d="M9 3.09375C5.73778 3.09375 3.09375 5.73778 3.09375 9C3.09375 12.2622 5.73778 14.9062 9 14.9062C12.2622 14.9062 14.9063 12.2622 14.9063 9C14.9063 5.73778 12.2622 3.09375 9 3.09375Z" fill="url(#paint3_linear_17601_2490)"/>
<path d="M9 3.09375C5.73778 3.09375 3.09375 5.73778 3.09375 9C3.09375 12.2622 5.73778 14.9062 9 14.9062C12.2622 14.9062 14.9063 12.2622 14.9063 9C14.9063 5.73778 12.2622 3.09375 9 3.09375Z" fill="url(#paint4_linear_17601_2490)"/>
<path d="M9 5.0625L12.9375 9L9 12.9375L5.0625 9L9 5.0625Z" fill="url(#paint5_linear_17601_2490)"/>
<rect x="8.01562" y="1.40625" width="1.96875" height="4.5" fill="url(#paint6_linear_17601_2490)"/>
<rect x="8.01562" y="1.40625" width="1.96875" height="4.5" fill="url(#paint7_linear_17601_2490)"/>
<rect x="8.01562" y="12.0938" width="1.96875" height="4.5" fill="url(#paint8_linear_17601_2490)"/>
<rect x="8.01562" y="12.0938" width="1.96875" height="4.5" fill="url(#paint9_linear_17601_2490)"/>
<rect x="16.5938" y="8.01562" width="1.96875" height="4.5" transform="rotate(90 16.5938 8.01562)" fill="url(#paint10_linear_17601_2490)"/>
<rect x="16.5938" y="8.01562" width="1.96875" height="4.5" transform="rotate(90 16.5938 8.01562)" fill="url(#paint11_linear_17601_2490)"/>
<rect x="5.90625" y="8.01562" width="1.96875" height="4.5" transform="rotate(90 5.90625 8.01562)" fill="url(#paint12_linear_17601_2490)"/>
<rect x="5.90625" y="8.01562" width="1.96875" height="4.5" transform="rotate(90 5.90625 8.01562)" fill="url(#paint13_linear_17601_2490)"/>
</g>
<defs>
<linearGradient id="paint0_linear_17601_2490" x1="7.98047" y1="0.5625" x2="17.4375" y2="10.8867" gradientUnits="userSpaceOnUse">
<stop stop-color="#FFCA83"/>
<stop offset="1" stop-color="#FF7A00"/>
</linearGradient>
<linearGradient id="paint1_linear_17601_2490" x1="3.79687" y1="16.1953" x2="14.6484" y2="2.12109" gradientUnits="userSpaceOnUse">
<stop stop-color="#A258FF"/>
<stop offset="1" stop-color="#FF9B01" stop-opacity="0"/>
</linearGradient>
<radialGradient id="paint2_radial_17601_2490" cx="0" cy="0" r="1" gradientUnits="userSpaceOnUse" gradientTransform="translate(9.07031 9) rotate(134.63) scale(7.70652 7.70588)">
<stop offset="0.692708"/>
<stop offset="1" stop-color="#7844BA"/>
</radialGradient>
<linearGradient id="paint3_linear_17601_2490" x1="9.71367" y1="14.9062" x2="3.09375" y2="7.6793" gradientUnits="userSpaceOnUse">
<stop stop-color="#FF35A2"/>
<stop offset="1" stop-color="#FF9B01"/>
</linearGradient>
<linearGradient id="paint4_linear_17601_2490" x1="14.9063" y1="9" x2="5.04609" y2="13.8152" gradientUnits="userSpaceOnUse">
<stop stop-color="#A258FF"/>
<stop offset="1" stop-color="#FF35A2" stop-opacity="0"/>
</linearGradient>
<linearGradient id="paint5_linear_17601_2490" x1="9" y1="5.0625" x2="9" y2="12.9375" gradientUnits="userSpaceOnUse">
<stop stop-color="#FF9B01"/>
<stop offset="1" stop-color="white"/>
</linearGradient>
<linearGradient id="paint6_linear_17601_2490" x1="9" y1="1.40625" x2="9" y2="5.90625" gradientUnits="userSpaceOnUse">
<stop stop-color="white"/>
<stop offset="1" stop-color="white" stop-opacity="0"/>
</linearGradient>
<linearGradient id="paint7_linear_17601_2490" x1="9" y1="1.40625" x2="9" y2="5.90625" gradientUnits="userSpaceOnUse">
<stop stop-color="white"/>
<stop offset="1" stop-color="white" stop-opacity="0"/>
</linearGradient>
<linearGradient id="paint8_linear_17601_2490" x1="9" y1="12.0938" x2="9" y2="16.5938" gradientUnits="userSpaceOnUse">
<stop stop-color="white" stop-opacity="0"/>
<stop offset="1" stop-color="white"/>
</linearGradient>
<linearGradient id="paint9_linear_17601_2490" x1="9" y1="12.0938" x2="9" y2="16.5938" gradientUnits="userSpaceOnUse">
<stop stop-color="white" stop-opacity="0"/>
<stop offset="1" stop-color="white"/>
</linearGradient>
<linearGradient id="paint10_linear_17601_2490" x1="17.5781" y1="8.01562" x2="17.5781" y2="12.5156" gradientUnits="userSpaceOnUse">
<stop stop-color="white"/>
<stop offset="1" stop-color="white" stop-opacity="0"/>
</linearGradient>
<linearGradient id="paint11_linear_17601_2490" x1="17.5781" y1="8.01562" x2="17.5781" y2="12.5156" gradientUnits="userSpaceOnUse">
<stop stop-color="white"/>
<stop offset="1" stop-color="white" stop-opacity="0"/>
</linearGradient>
<linearGradient id="paint12_linear_17601_2490" x1="6.89062" y1="8.01562" x2="6.89062" y2="12.5156" gradientUnits="userSpaceOnUse">
<stop stop-color="white" stop-opacity="0"/>
<stop offset="1" stop-color="white"/>
</linearGradient>
<linearGradient id="paint13_linear_17601_2490" x1="6.89062" y1="8.01562" x2="6.89062" y2="12.5156" gradientUnits="userSpaceOnUse">
<stop stop-color="white" stop-opacity="0"/>
<stop offset="1" stop-color="white"/>
</linearGradient>
<clipPath id="clip0_17601_2490">
<rect width="18" height="18" fill="white"/>
</clipPath>
</defs>
</svg>
