<svg width="18" height="18" viewBox="0 0 18 18" fill="none" xmlns="http://www.w3.org/2000/svg">
<g clip-path="url(#clip0_15179_44421)">
<circle cx="9.07129" cy="8.64844" r="6.53906" fill="url(#paint0_angular_15179_44421)"/>
<path fill-rule="evenodd" clip-rule="evenodd" d="M17.4385 9C17.4385 9.73125 17.326 10.4062 17.1572 11.0813C15.4135 11.3625 14.0635 12.9375 14.0635 14.7937C14.0635 15.075 14.1197 15.4125 14.176 15.6937C12.7697 16.8187 10.9697 17.4375 9.00098 17.4375C7.14473 17.4375 5.40098 16.8188 3.99473 15.8062C4.10723 15.4688 4.10723 15.1313 4.10723 14.7937C4.10723 12.825 2.64473 11.25 0.788476 11.025C0.675976 10.4062 0.563477 9.675 0.563477 9C0.563477 4.33125 4.33223 0.5625 9.00098 0.5625C13.6697 0.5625 17.4385 4.33125 17.4385 9ZM6.46973 4.3875C6.46973 5.45625 7.31348 5.85 8.71973 5.85C10.126 5.85 12.3197 6.58125 12.3197 8.83125C12.3197 8.83125 11.1385 9.28125 11.1947 10.2938C11.1947 10.8 11.5885 11.1375 11.926 11.5875C12.376 12.0375 12.826 12.5438 12.826 13.275C15.0197 11.8688 15.0197 8.83125 15.0197 8.83125C15.1885 4.3875 10.9135 2.86875 9.22598 2.86875C7.53848 2.86875 6.46973 3.31875 6.46973 4.3875ZM11.7572 13.1625C11.7572 12.0938 10.9135 11.7 9.50723 11.7C8.10098 11.7 5.90723 10.9688 5.90723 8.71875C5.90723 8.71875 7.08848 8.26875 7.03223 7.25625C7.03223 6.75 6.63848 6.4125 6.30098 5.9625C5.85098 5.5125 5.40098 5.00625 5.40098 4.275C3.20723 5.68125 3.20723 8.71875 3.20723 8.71875C3.03848 13.1625 7.31348 14.6812 9.00098 14.6812C10.6885 14.6812 11.7572 14.2312 11.7572 13.1625ZM9.11348 10.125C9.84473 10.125 10.4635 9.50625 10.4635 8.775C10.4635 8.04375 9.84473 7.425 9.11348 7.425C8.38223 7.425 7.76348 8.04375 7.76348 8.775C7.76348 9.50625 8.38223 10.125 9.11348 10.125Z" fill="url(#paint1_linear_15179_44421)"/>
<circle cx="9.00098" cy="8.71875" r="4.64062" fill="url(#paint2_radial_15179_44421)"/>
<path d="M7.81501 8.53306C8.04634 8.79445 8.04634 9.20555 7.81501 9.46694C7.74963 9.54083 7.53904 9.70513 7.34706 9.83204C6.26931 10.5443 5.68543 11.3032 5.35072 12.4267C5.08435 13.3207 5.18475 13.9969 5.62076 14.2454C5.73479 14.3104 5.86153 14.3442 5.99009 14.3437L9.00098 14.3339L12.0119 14.3437C12.1404 14.3442 12.2672 14.3104 12.3812 14.2454C12.8172 13.9969 12.9176 13.3207 12.6512 12.4267C12.3165 11.3032 11.7326 10.5443 10.6549 9.83204C10.4629 9.70513 10.2523 9.54083 10.1869 9.46694C9.95561 9.20555 9.95561 8.79445 10.1869 8.53306C10.2523 8.45917 10.4629 8.29487 10.6549 8.16796C11.7326 7.45565 12.3165 6.69675 12.6512 5.5733C12.9176 4.67925 12.8172 4.00307 12.3812 3.75457C12.2672 3.68957 12.1404 3.65584 12.0119 3.65625L9.00098 3.66605L5.99009 3.65625C5.86153 3.65584 5.73479 3.68957 5.62076 3.75457C5.18475 4.00307 5.08435 4.67925 5.35072 5.5733C5.68543 6.69675 6.26931 7.45565 7.34706 8.16796C7.53904 8.29487 7.74963 8.45917 7.81501 8.53306Z" fill="url(#paint3_linear_15179_44421)"/>
</g>
<defs>
<radialGradient id="paint0_angular_15179_44421" cx="0" cy="0" r="1" gradientUnits="userSpaceOnUse" gradientTransform="translate(9.07129 8.64844) rotate(90) scale(6.53906)">
<stop stop-color="white"/>
<stop offset="0.25" stop-color="#EEE9FF"/>
<stop offset="0.5" stop-color="#B352FF"/>
<stop offset="0.75" stop-color="#EEE9FF"/>
<stop offset="1" stop-color="white"/>
</radialGradient>
<linearGradient id="paint1_linear_15179_44421" x1="17.4385" y1="0.5625" x2="0.563477" y2="17.4375" gradientUnits="userSpaceOnUse">
<stop stop-color="#E18AFF"/>
<stop offset="0.776442" stop-color="white"/>
</linearGradient>
<radialGradient id="paint2_radial_15179_44421" cx="0" cy="0" r="1" gradientUnits="userSpaceOnUse" gradientTransform="translate(9.00098 8.71875) rotate(90) scale(4.64062)">
<stop offset="0.405007" stop-color="white"/>
<stop offset="1" stop-color="#BAA2FF"/>
</radialGradient>
<linearGradient id="paint3_linear_15179_44421" x1="9.00098" y1="3.65625" x2="9.00098" y2="14.3438" gradientUnits="userSpaceOnUse">
<stop stop-color="#8155FF"/>
<stop offset="1"/>
</linearGradient>
<clipPath id="clip0_15179_44421">
<rect width="18" height="18" fill="white" transform="translate(0.000976562)"/>
</clipPath>
</defs>
</svg>
