<svg width="24" height="24" viewBox="0 0 24 24" fill="none" xmlns="http://www.w3.org/2000/svg">
<g clip-path="url(#clip0_14246_15110)">
<path fill-rule="evenodd" clip-rule="evenodd" d="M23.25 12C23.25 12.975 23.1 13.875 22.875 14.775C20.55 15.15 18.75 17.25 18.75 19.725C18.75 20.1 18.825 20.55 18.9 20.925C17.025 22.425 14.625 23.25 12 23.25C9.525 23.25 7.2 22.425 5.325 21.075C5.475 20.625 5.475 20.175 5.475 19.725C5.475 17.1 3.525 15 1.05 14.7C0.9 13.875 0.75 12.9 0.75 12C0.75 5.775 5.775 0.75 12 0.75C18.225 0.75 23.25 5.775 23.25 12ZM8.625 5.85C8.625 7.275 9.75 7.8 11.625 7.8C13.5 7.8 16.425 8.775 16.425 11.775C16.425 11.775 14.85 12.375 14.925 13.725C14.925 14.4 15.45 14.85 15.9 15.45C16.5 16.05 17.1 16.725 17.1 17.7C20.025 15.825 20.025 11.775 20.025 11.775C20.25 5.85 14.55 3.825 12.3 3.825C10.05 3.825 8.625 4.425 8.625 5.85ZM15.675 17.55C15.675 16.125 14.55 15.6 12.675 15.6C10.8 15.6 7.875 14.625 7.875 11.625C7.875 11.625 9.45 11.025 9.375 9.675C9.375 9 8.85 8.55 8.4 7.95C7.8 7.35 7.2 6.675 7.2 5.7C4.275 7.575 4.275 11.625 4.275 11.625C4.05 17.55 9.75 19.575 12 19.575C14.25 19.575 15.675 18.975 15.675 17.55ZM12.15 13.5C13.125 13.5 13.95 12.675 13.95 11.7C13.95 10.725 13.125 9.9 12.15 9.9C11.175 9.9 10.35 10.725 10.35 11.7C10.35 12.675 11.175 13.5 12.15 13.5Z" fill="url(#paint0_linear_14246_15110)"/>
</g>
<defs>
<linearGradient id="paint0_linear_14246_15110" x1="23.25" y1="0.75" x2="0.75" y2="23.25" gradientUnits="userSpaceOnUse">
<stop stop-color="#2BDCF4"/>
<stop offset="0.912421" stop-color="white"/>
</linearGradient>
<clipPath id="clip0_14246_15110">
<rect width="24" height="24" fill="white"/>
</clipPath>
</defs>
</svg>
