<svg width="24" height="24" viewBox="0 0 24 24" fill="none" xmlns="http://www.w3.org/2000/svg">
<path d="M12.1976 10.8194C12.173 11.2381 12.0872 11.6201 12.0004 12.002C12.3316 11.7927 12.6627 11.5833 12.9764 11.3047C14.2326 10.0484 14.7907 8.30335 14.6514 6.55913C14.4437 4.55035 13.41 2.81664 12.0293 1.42548C12.0197 1.42548 12.0092 1.42548 11.9996 1.42548C9.08932 1.42548 6.45417 2.60114 4.54175 4.50304C6.50147 4.51005 8.45769 5.00589 10.0249 6.27967C11.3574 7.41503 12.1967 9.04361 12.1967 10.8202L12.1976 10.8194Z" fill="white"/>
<path d="M13.184 12.2002C12.7652 12.1757 12.3824 12.0889 12.0004 12.0031C12.2098 12.3342 12.4192 12.6654 12.6978 12.9799C13.954 14.2361 15.6991 14.7942 17.4433 14.6549C19.4504 14.4473 21.1832 13.4153 22.5735 12.0373C22.5735 12.025 22.5735 12.0127 22.5735 12.0005C22.5735 9.09198 21.3996 6.45857 19.4994 4.54703C19.4924 6.50588 18.9966 8.4621 17.7228 10.0294C16.5874 11.3618 14.9588 12.2011 13.1822 12.2011L13.184 12.2002Z" fill="white"/>
<path d="M12.4936 15.9525C12.0495 15.1132 11.8024 14.1758 11.8024 13.1885C11.8269 12.7689 11.9137 12.3861 12.0004 12.0032C11.6684 12.2126 11.3372 12.422 11.0227 12.7014C10.3245 13.3997 9.83656 14.2372 9.5571 15.1439C8.79406 17.9175 10.0293 20.6902 11.9619 22.5737C11.975 22.5737 11.9881 22.5737 12.0004 22.5737C14.9063 22.5737 17.537 21.4015 19.4486 19.5049C16.7503 19.539 13.9154 18.4518 12.4936 15.9516V15.9525Z" fill="white"/>
<path fill-rule="evenodd" clip-rule="evenodd" d="M12.0005 12.0029C12.3316 11.7935 12.6628 11.5842 12.9764 11.3056V11.3047C14.2326 10.0484 14.7907 8.30422 14.6514 6.55913C14.4438 4.55035 13.41 2.81577 12.0294 1.42548C14.9501 1.43424 17.5914 2.62567 19.5012 4.54597C19.4933 6.50482 18.9983 8.46104 17.7246 10.0283C16.5892 11.3608 14.9606 12.2 13.184 12.2C12.7644 12.1755 12.3824 12.0896 12.0005 12.0029ZM17.4442 14.655C19.4521 14.4474 21.1841 13.4163 22.5743 12.0374L22.5752 12.0365C22.5656 14.9564 21.3715 17.5977 19.4495 19.5057C16.7512 19.5408 13.9163 18.4527 12.4945 15.9525C12.0504 15.1132 11.8033 14.1758 11.8033 13.1885C11.8287 12.7689 11.9146 12.3861 12.0013 12.0032L12.0056 12.01L12.0056 12.01C12.2135 12.3389 12.422 12.6685 12.6986 12.98C13.9549 14.2363 15.6991 14.7943 17.4442 14.655ZM9.5572 15.1446C9.83666 14.237 10.3246 13.3995 11.0228 12.7021C11.3373 12.4227 11.6685 12.2133 12.0005 12.0039C11.6177 11.9172 11.2357 11.8313 10.8161 11.8068C9.82877 11.8068 8.8914 12.0538 8.05214 12.498C5.55102 13.9198 4.46384 16.7547 4.49888 19.4538C6.40604 21.3733 9.04471 22.5647 11.962 22.5752C10.0303 20.6917 8.79503 17.919 9.5572 15.1454V15.1446ZM11.3023 11.0254C10.6049 10.3272 9.76741 9.83923 8.85982 9.55977V9.56065C6.0845 8.79761 3.30917 10.0346 1.42566 11.9689C1.43442 9.05079 2.6241 6.41125 4.54177 4.50233C6.5015 4.51022 8.45772 5.00519 10.025 6.27896C11.3574 7.41433 12.1967 9.0429 12.1967 10.8195C12.1725 11.2331 12.0876 11.6109 12.0028 11.9881L11.9996 12.0022L11.9889 11.9853C11.7831 11.6598 11.577 11.3337 11.3023 11.0254Z" fill="url(#paint0_radial_18402_2398)"/>
<path d="M8.0521 12.4962C8.89136 12.0521 9.82874 11.805 10.816 11.805C11.2357 11.8296 11.6185 11.9163 12.0005 12.0022C11.7911 11.671 11.5817 11.339 11.3031 11.0254C10.6049 10.3271 9.76741 9.83918 8.8607 9.55972C6.0845 8.79668 3.31004 10.0337 1.42566 11.9689C1.42566 11.9794 1.42566 11.9899 1.42566 12.0004C1.42566 14.908 2.59957 17.5414 4.49797 19.453C4.46293 16.7539 5.55098 13.919 8.05123 12.4971L8.0521 12.4962Z" fill="white"/>
<circle cx="12" cy="12" r="3.75" fill="url(#paint1_radial_18402_2398)"/>
<path style="mix-blend-mode:multiply" opacity="0.47" fill-rule="evenodd" clip-rule="evenodd" d="M1.42566 12.0003C1.42566 6.15965 6.15984 1.42548 12.0005 1.42548C17.8402 1.42548 22.5753 6.15965 22.5753 12.0003C22.5753 17.8409 17.8411 22.5751 12.0005 22.5751C6.15984 22.5751 1.42566 17.8409 1.42566 12.0003ZM12 20.8118C16.8667 20.8118 20.812 16.8666 20.812 11.9998C20.812 7.13313 16.8667 3.18787 12 3.18787C7.13331 3.18787 3.18805 7.13313 3.18805 11.9998C3.18805 16.8666 7.13331 20.8118 12 20.8118Z" fill="url(#paint2_linear_18402_2398)"/>
<defs>
<radialGradient id="paint0_radial_18402_2398" cx="0" cy="0" r="1" gradientUnits="userSpaceOnUse" gradientTransform="translate(12 11.9999) rotate(-90) scale(10.5744 10.5743)">
<stop stop-color="#FFBCC0"/>
<stop offset="0.671875" stop-color="#FF404B"/>
<stop offset="1" stop-color="#C0163F"/>
</radialGradient>
<radialGradient id="paint1_radial_18402_2398" cx="0" cy="0" r="1" gradientUnits="userSpaceOnUse" gradientTransform="translate(12 12) rotate(90) scale(3.75)">
<stop stop-color="white"/>
<stop offset="1" stop-color="white" stop-opacity="0"/>
</radialGradient>
<linearGradient id="paint2_linear_18402_2398" x1="1.42566" y1="22.5742" x2="22.5744" y2="1.42548" gradientUnits="userSpaceOnUse">
<stop offset="0.109375" stop-color="#D10FBE"/>
<stop offset="0.317708" stop-color="white"/>
<stop offset="0.630208" stop-color="white"/>
<stop offset="0.848958" stop-color="#EA50C8"/>
<stop offset="1" stop-color="#C222C6"/>
</linearGradient>
</defs>
</svg>
