<svg width="18" height="18" viewBox="0 0 18 18" fill="none" xmlns="http://www.w3.org/2000/svg">
<g clip-path="url(#clip0_16829_21829)">
<circle cx="9.00049" cy="9" r="8.4375" fill="url(#paint0_linear_16829_21829)"/>
<path d="M9.00049 16.0312C12.8837 16.0312 16.0317 12.8833 16.0317 9C16.0317 5.11675 12.8837 1.96875 9.00049 1.96875C5.11724 1.96875 1.96924 5.11675 1.96924 9C1.96924 12.8833 5.11724 16.0312 9.00049 16.0312Z" fill="url(#paint1_linear_16829_21829)"/>
<path d="M9.00131 1.96875V16.0312H9.00049C5.11724 16.0312 1.96924 12.8833 1.96924 9C1.96924 5.11675 5.11724 1.96875 9.00049 1.96875H9.00131Z" fill="url(#paint2_linear_16829_21829)"/>
<circle cx="9.00049" cy="9" r="7.03125" fill="url(#paint3_radial_16829_21829)"/>
<path d="M4.02979 8.1714C4.49733 6.11091 5.98036 5.03473 5.98036 5.03473L7.5126 8.1714H4.02979Z" fill="url(#paint4_linear_16829_21829)"/>
<path d="M13.9711 8.17163C13.5035 6.11114 12.0205 5.03333 12.0205 5.03333L10.4883 8.16999H13.9711V8.17163Z" fill="url(#paint5_linear_16829_21829)"/>
<path d="M9.00054 8.01245L7.8407 9.98763H9.00054H10.162L9.00054 8.01245Z" fill="url(#paint6_linear_16829_21829)"/>
<path d="M12.1732 10.8735L12.4636 11.5445L11.412 12.0055L11.0856 11.2656C11.0856 11.2656 11.0839 11.2656 11.0823 11.2656C10.6 11.3985 10.098 11.487 9.58121 11.5248V12.3877H8.37543V11.5215C7.87507 11.4821 7.38948 11.3952 6.92029 11.2656H6.91701L6.59055 12.0055L5.53898 11.5445L5.82935 10.8735C4.93363 10.4732 4.12485 9.91215 3.44568 9.2215C3.59661 10.9736 4.55631 12.4927 5.95075 13.4065L6.37236 12.578L7.41737 13.0816L7.07614 13.9708C7.67657 14.1923 8.32621 14.3137 9.00375 14.3137C9.68128 14.3137 10.3293 14.1923 10.9314 13.9708L10.5901 13.0816L11.6351 12.578L12.0567 13.4065C13.4495 12.4927 14.4109 10.9736 14.5618 9.2215C13.8826 9.91051 13.0739 10.4732 12.1781 10.8735H12.1732Z" fill="url(#paint7_linear_16829_21829)"/>
</g>
<defs>
<linearGradient id="paint0_linear_16829_21829" x1="9.00049" y1="0.5625" x2="9.00049" y2="17.4375" gradientUnits="userSpaceOnUse">
<stop stop-color="white"/>
<stop offset="1" stop-color="#FFC01E"/>
</linearGradient>
<linearGradient id="paint1_linear_16829_21829" x1="9.00049" y1="1.96875" x2="9.00049" y2="16.0312" gradientUnits="userSpaceOnUse">
<stop stop-color="#FFC326"/>
<stop offset="0.697917" stop-color="#F34E01"/>
<stop offset="1" stop-color="#CA3D00"/>
</linearGradient>
<linearGradient id="paint2_linear_16829_21829" x1="9.00131" y1="16.0329" x2="9.00131" y2="1.96875" gradientUnits="userSpaceOnUse">
<stop stop-color="#FF9900"/>
<stop offset="1" stop-color="#ED4700"/>
</linearGradient>
<radialGradient id="paint3_radial_16829_21829" cx="0" cy="0" r="1" gradientUnits="userSpaceOnUse" gradientTransform="translate(9.00049 9) rotate(90) scale(7.03125)">
<stop stop-color="white"/>
<stop offset="0.291667" stop-color="#FFD568"/>
<stop offset="1" stop-color="#F15200" stop-opacity="0"/>
</radialGradient>
<linearGradient id="paint4_linear_16829_21829" x1="4.71177" y1="6.6098" x2="7.45501" y2="8.15556" gradientUnits="userSpaceOnUse">
<stop stop-color="#981908"/>
<stop offset="1"/>
</linearGradient>
<linearGradient id="paint5_linear_16829_21829" x1="13.6423" y1="6.18805" x2="10.5482" y2="8.15703" gradientUnits="userSpaceOnUse">
<stop stop-color="#981908"/>
<stop offset="1"/>
</linearGradient>
<linearGradient id="paint6_linear_16829_21829" x1="9.00133" y1="8.01637" x2="9.10336" y2="9.98004" gradientUnits="userSpaceOnUse">
<stop stop-color="#981908"/>
<stop offset="1"/>
</linearGradient>
<linearGradient id="paint7_linear_16829_21829" x1="9.00129" y1="14.3452" x2="9.00129" y2="9.91502" gradientUnits="userSpaceOnUse">
<stop stop-color="#981908"/>
<stop offset="1"/>
</linearGradient>
<clipPath id="clip0_16829_21829">
<rect width="18" height="18" fill="white" transform="translate(0.000488281)"/>
</clipPath>
</defs>
</svg>
