<svg width="24" height="24" viewBox="0 0 24 24" fill="none" xmlns="http://www.w3.org/2000/svg">
<g clip-path="url(#clip0_12905_23588)">
<path d="M21 3V21H3V3H21Z" fill="url(#paint0_linear_12905_23588)"/>
<path d="M12 0L24 12L12 24L0 12L12 0Z" fill="url(#paint1_linear_12905_23588)"/>
<path d="M12 18.75C11.1136 18.75 10.2358 18.5754 9.41689 18.2362C8.59794 17.897 7.85382 17.3998 7.22703 16.773C6.60023 16.1462 6.10303 15.4021 5.76381 14.5831C5.42459 13.7642 5.25 12.8864 5.25 12C5.25 11.1136 5.42459 10.2358 5.76381 9.41689C6.10303 8.59794 6.60023 7.85382 7.22703 7.22703C7.85382 6.60023 8.59794 6.10303 9.41689 5.76381C10.2358 5.42459 11.1136 5.25 12 5.25L12 12L12 18.75Z" fill="url(#paint2_linear_12905_23588)"/>
<path d="M12 5.25C12.8864 5.25 13.7642 5.42459 14.5831 5.76381C15.4021 6.10303 16.1462 6.60023 16.773 7.22703C17.3998 7.85382 17.897 8.59794 18.2362 9.41689C18.5754 10.2358 18.75 11.1136 18.75 12C18.75 12.8864 18.5754 13.7642 18.2362 14.5831C17.897 15.4021 17.3998 16.1462 16.773 16.773C16.1462 17.3998 15.4021 17.897 14.5831 18.2362C13.7642 18.5754 12.8864 18.75 12 18.75L12 12L12 5.25Z" fill="url(#paint3_linear_12905_23588)"/>
<path d="M12 6C12 9.31375 9.31375 12 6 12C9.31375 12 12 14.6862 12 18C12 14.6862 14.6862 12 18 12C14.4863 12 12 9.31375 12 6Z" fill="url(#paint4_radial_12905_23588)"/>
</g>
<defs>
<linearGradient id="paint0_linear_12905_23588" x1="21" y1="21" x2="3" y2="3" gradientUnits="userSpaceOnUse">
<stop stop-color="#FF8A00"/>
<stop offset="1" stop-color="#FFEA2D"/>
</linearGradient>
<linearGradient id="paint1_linear_12905_23588" x1="12" y1="0" x2="12" y2="24" gradientUnits="userSpaceOnUse">
<stop stop-color="white"/>
<stop offset="1" stop-color="#FFEA2D"/>
</linearGradient>
<linearGradient id="paint2_linear_12905_23588" x1="12" y1="18.75" x2="12" y2="5.25" gradientUnits="userSpaceOnUse">
<stop stop-color="#FF8A00"/>
<stop offset="1" stop-color="#FF52C4"/>
</linearGradient>
<linearGradient id="paint3_linear_12905_23588" x1="12" y1="5.25" x2="12" y2="18.75" gradientUnits="userSpaceOnUse">
<stop stop-color="#FF8A00"/>
<stop offset="1" stop-color="#FF52C4"/>
</linearGradient>
<radialGradient id="paint4_radial_12905_23588" cx="0" cy="0" r="1" gradientUnits="userSpaceOnUse" gradientTransform="translate(12 12) rotate(90) scale(6)">
<stop offset="0.28125" stop-color="white"/>
<stop offset="1" stop-color="#FFEB30"/>
</radialGradient>
<clipPath id="clip0_12905_23588">
<rect width="24" height="24" fill="white"/>
</clipPath>
</defs>
</svg>
