<svg width="18" height="18" fill="none" xmlns="http://www.w3.org/2000/svg"><g clip-path="url(#a)"><circle cx="9" cy="9" r="8.438" fill="url(#b)"/><circle cx="9" cy="9" r="6.75" fill="url(#c)"/><path fill-rule="evenodd" clip-rule="evenodd" d="M8.577 15.75h.846l-.33-6.64 4.159 4.498a3.98 3.98 0 0 0-.992-3.438 4.028 4.028 0 0 0-2.224-1.225l5.293.223A4.04 4.04 0 0 0 9.737 8.13l3.9-3.562a4.04 4.04 0 0 0-3.46.985A3.99 3.99 0 0 0 9.001 7.51a3.992 3.992 0 0 0-1.177-1.956 4.043 4.043 0 0 0-3.46-.985l3.9 3.561a4.04 4.04 0 0 0-5.592 1.038l5.293-.223a4.032 4.032 0 0 0-2.224 1.225 3.979 3.979 0 0 0-.992 3.438L8.907 9.11l-.33 6.64Z" fill="url(#d)"/></g><defs><linearGradient id="b" x1="9" y1=".563" x2="9" y2="17.438" gradientUnits="userSpaceOnUse"><stop stop-color="#fff"/><stop offset="1" stop-color="#FFEB30"/></linearGradient><linearGradient id="c" x1="9" y1="2.25" x2="9" y2="15.75" gradientUnits="userSpaceOnUse"><stop stop-color="#FFEC32"/><stop offset="1" stop-color="#FF0093"/></linearGradient><linearGradient id="d" x1="9" y1="4.5" x2="9" y2="14.906" gradientUnits="userSpaceOnUse"><stop stop-color="#B00060"/><stop offset="1"/></linearGradient><clipPath id="a"><path fill="#fff" d="M0 0h18v18H0z"/></clipPath></defs></svg>