<svg xmlns="http://www.w3.org/2000/svg" width="18" height="18" fill="none"><g clip-path="url(#a)"><circle cx="9" cy="9" r="8.438" fill="url(#b)"/><circle cx="9" cy="9" r="7.031" fill="url(#c)" transform="rotate(-180 9 9)"/><path fill="url(#d)" d="M9 16.031V1.97A7.031 7.031 0 1 1 9 16.03Z"/><path fill="url(#e)" d="M9 2.953 15.047 9 9 15.047 2.953 9 9 2.953Z"/><path fill="url(#f)" d="M9 15.047V2.953L15.047 9 9 15.047Z"/><path fill="url(#g)" d="M11.25 6.75v4.5h-4.5v-4.5h4.5Z"/></g><defs><linearGradient id="b" x1="17.438" x2=".563" y1=".563" y2="17.438" gradientUnits="userSpaceOnUse"><stop offset=".142" stop-color="#fff"/><stop offset="1" stop-color="#FFE55C"/></linearGradient><linearGradient id="c" x1="9" x2="9" y1="1.969" y2="16.031" gradientUnits="userSpaceOnUse"><stop stop-color="#EB3800"/><stop offset="1" stop-color="#FFA800"/></linearGradient><linearGradient id="d" x1="9" x2="9" y1="1.969" y2="16.031" gradientUnits="userSpaceOnUse"><stop stop-color="#018F3B"/><stop offset="1" stop-color="#FFA800"/></linearGradient><linearGradient id="e" x1="9" x2="9" y1="2.953" y2="15.047" gradientUnits="userSpaceOnUse"><stop stop-color="#fff"/><stop offset="1" stop-color="#89FE51"/></linearGradient><linearGradient id="f" x1="9" x2="9" y1="15.047" y2="2.953" gradientUnits="userSpaceOnUse"><stop stop-color="#fff"/><stop offset="1" stop-color="#E9FF63"/></linearGradient><linearGradient id="g" x1="6.75" x2="11.25" y1="11.25" y2="6.75" gradientUnits="userSpaceOnUse"><stop stop-color="#00943B"/><stop offset="1" stop-color="#003A37"/></linearGradient><clipPath id="a"><path fill="#fff" d="M0 0h18v18H0z"/></clipPath></defs></svg>