<svg width="18" height="18" viewBox="0 0 18 18" fill="none" xmlns="http://www.w3.org/2000/svg">
<g clip-path="url(#clip0_17901_18421)">
<path d="M9.00049 17.7188C13.8157 17.7188 17.7192 13.8152 17.7192 9C17.7192 4.18477 13.8157 0.28125 9.00049 0.28125C4.18526 0.28125 0.281738 4.18477 0.281738 9C0.281738 13.8152 4.18526 17.7188 9.00049 17.7188Z" fill="url(#paint0_radial_17901_18421)"/>
<path d="M9.00049 16.0312C12.8837 16.0312 16.0317 12.8833 16.0317 9C16.0317 5.11675 12.8837 1.96875 9.00049 1.96875C5.11724 1.96875 1.96924 5.11675 1.96924 9C1.96924 12.8833 5.11724 16.0312 9.00049 16.0312Z" fill="url(#paint1_radial_17901_18421)"/>
<path d="M3.16455 6.60938C3.74704 6.60938 4.21924 6.13718 4.21924 5.55469C4.21924 4.9722 3.74704 4.5 3.16455 4.5C2.58206 4.5 2.10986 4.9722 2.10986 5.55469C2.10986 6.13718 2.58206 6.60938 3.16455 6.60938Z" fill="#452B8E"/>
<path d="M14.8364 6.60938C15.4189 6.60938 15.8911 6.13718 15.8911 5.55469C15.8911 4.9722 15.4189 4.5 14.8364 4.5C14.2539 4.5 13.7817 4.9722 13.7817 5.55469C13.7817 6.13718 14.2539 6.60938 14.8364 6.60938Z" fill="#452B8E"/>
<path d="M9.0708 16.875C9.65329 16.875 10.1255 16.3713 10.1255 15.75C10.1255 15.1287 9.65329 14.625 9.0708 14.625C8.48831 14.625 8.01611 15.1287 8.01611 15.75C8.01611 16.3713 8.48831 16.875 9.0708 16.875Z" fill="#452B8E"/>
<path d="M15.5428 11.1219C15.3224 10.9918 15.0723 10.9232 14.8188 10.9232C14.4378 10.9232 14.0758 11.0781 13.8084 11.343L12.2781 10.4392L14.5314 8.99976L12.3005 7.57514L13.8541 6.65747C14.1215 6.92191 14.483 7.07628 14.8636 7.07628C15.117 7.07628 15.3671 7.00767 15.5875 6.8776C15.9229 6.67939 16.1628 6.35968 16.263 5.97709C16.3631 5.59449 16.3119 5.19473 16.1181 4.85168C15.86 4.39428 15.3783 4.10983 14.8612 4.10983C14.6078 4.10983 14.3577 4.17844 14.1373 4.30851C13.5708 4.64299 13.3086 5.31194 13.4507 5.93182L11.8812 6.85854L11.789 4.14271L9.45556 5.41248V3.60954C10.057 3.42897 10.4977 2.85959 10.4977 2.18635C10.4977 1.36874 9.84733 0.703125 9.04747 0.703125C8.24762 0.703125 7.59729 1.36827 7.59729 2.18635C7.59729 2.85959 8.03798 3.42849 8.63939 3.60954V5.41343L6.30597 4.14366L6.2142 6.85902L4.68436 5.95564C4.83855 5.3291 4.57721 4.64776 4.00329 4.30899C3.78294 4.17892 3.53232 4.11031 3.27936 4.11031C2.76227 4.11031 2.28059 4.39475 2.02251 4.85216C1.83011 5.19473 1.77841 5.59401 1.87856 5.97709C1.97872 6.35968 2.21863 6.67939 2.55404 6.8776C2.77439 7.00767 3.02454 7.07628 3.27797 7.07628C3.65064 7.07628 4.00469 6.92763 4.27022 6.67367L5.79587 7.57466L3.56493 8.99976L5.81869 10.4392L4.31634 11.3263C4.0508 11.0719 3.6963 10.9232 3.32315 10.9232C3.06973 10.9232 2.81957 10.9918 2.59923 11.1219C2.26382 11.3201 2.02391 11.6398 1.92375 12.0224C1.82359 12.405 1.87484 12.8048 2.06863 13.1478C2.32671 13.6052 2.80839 13.8897 3.32548 13.8897C3.5789 13.8897 3.82906 13.8211 4.04941 13.691C4.6224 13.3527 4.8842 12.6714 4.73047 12.0453L6.21559 11.1681L6.30643 13.8563L8.63986 12.5866V14.3905C8.03845 14.571 7.59776 15.1404 7.59776 15.8136C7.59776 16.6313 8.24808 17.2969 9.04794 17.2969C9.8478 17.2969 10.4981 16.6317 10.4981 15.8136C10.4981 15.1404 10.0574 14.5715 9.45602 14.3905V12.5866L11.7894 13.8563L11.8808 11.1681L13.4055 12.0687C13.2638 12.6885 13.5261 13.357 14.0921 13.691C14.3125 13.8211 14.5626 13.8897 14.8161 13.8897C15.3331 13.8897 15.8148 13.6052 16.0729 13.1478C16.2667 12.8048 16.3179 12.405 16.2178 12.0224C16.1176 11.6398 15.8777 11.3201 15.5423 11.1219H15.5428ZM12.9918 8.99976L11.4783 9.9665L9.86457 9.01358L11.5006 8.04731L12.9913 8.99976H12.9918ZM14.5459 5.03131C14.6423 4.97413 14.7518 4.94412 14.8622 4.94412C15.0886 4.94412 15.2996 5.06847 15.4128 5.26859C15.4976 5.41867 15.5199 5.59353 15.4762 5.76077C15.4324 5.92801 15.3275 6.06809 15.1803 6.15481C15.0839 6.21198 14.9744 6.242 14.864 6.242C14.6376 6.242 14.4266 6.11764 14.3139 5.91753C14.1392 5.60783 14.2431 5.20998 14.5459 5.03131ZM11.0203 5.50729L11.0823 7.33167L9.45695 8.29174V6.35873L11.0208 5.50777L11.0203 5.50729ZM7.07741 5.50729L8.64126 6.35826V8.29126L7.01592 7.33119L7.07787 5.50729H7.07741ZM3.2789 6.242C3.16849 6.242 3.05902 6.21198 2.96259 6.15481C2.81585 6.06809 2.71103 5.92801 2.66677 5.76077C2.62299 5.59353 2.64535 5.41867 2.73013 5.26859C2.84333 5.06847 3.05389 4.94412 3.28029 4.94412C3.3907 4.94412 3.50017 4.97413 3.5966 5.03131C3.8994 5.20998 4.00375 5.60783 3.8286 5.91753C3.7154 6.11764 3.50483 6.242 3.27843 6.242H3.2789ZM5.10595 8.99976L6.59712 8.04731L8.23364 9.01358L6.61995 9.9665L5.10595 8.99976ZM7.07741 12.4922L7.01638 10.6955L8.64079 9.73637V11.6413L7.07694 12.4922H7.07741ZM9.68335 15.8132C9.68335 16.171 9.39872 16.4621 9.04887 16.4621C8.69902 16.4621 8.41439 16.171 8.41439 15.8132C8.41439 15.4553 8.69902 15.1642 9.04887 15.1642C9.39872 15.1642 9.68335 15.4553 9.68335 15.8132ZM11.0203 12.4922L9.45649 11.6413V9.7359L11.0809 10.695L11.0199 12.4918L11.0203 12.4922Z" fill="url(#paint2_radial_17901_18421)"/>
<path d="M9.00049 13.5C11.4858 13.5 13.5005 11.4853 13.5005 9C13.5005 6.51472 11.4858 4.5 9.00049 4.5C6.51521 4.5 4.50049 6.51472 4.50049 9C4.50049 11.4853 6.51521 13.5 9.00049 13.5Z" fill="url(#paint3_radial_17901_18421)"/>
<path d="M9.00049 12.2456C10.8644 12.2456 12.3755 10.795 12.3755 9.00563C12.3755 7.21622 10.8644 5.76562 9.00049 5.76562C7.13653 5.76562 5.62549 7.21622 5.62549 9.00563C5.62549 10.795 7.13653 12.2456 9.00049 12.2456Z" fill="url(#paint4_radial_17901_18421)"/>
</g>
<defs>
<radialGradient id="paint0_radial_17901_18421" cx="0" cy="0" r="1" gradientUnits="userSpaceOnUse" gradientTransform="translate(9.00049 9) rotate(90.4895) scale(9.19465 9.19467)">
<stop offset="0.703125" stop-color="#4685FF"/>
<stop offset="1"/>
</radialGradient>
<radialGradient id="paint1_radial_17901_18421" cx="0" cy="0" r="1" gradientUnits="userSpaceOnUse" gradientTransform="translate(9.00049 9) rotate(90.4895) scale(7.41504 7.41505)">
<stop offset="0.46875" stop-color="#040033"/>
<stop offset="0.958333" stop-color="#0CDDFA"/>
</radialGradient>
<radialGradient id="paint2_radial_17901_18421" cx="0" cy="0" r="1" gradientUnits="userSpaceOnUse" gradientTransform="translate(9.0708 9) rotate(90.4588) scale(8.29714 7.24244)">
<stop stop-color="#3DF3FF"/>
<stop offset="0.567708" stop-color="#44FFDD"/>
<stop offset="1" stop-color="white"/>
</radialGradient>
<radialGradient id="paint3_radial_17901_18421" cx="0" cy="0" r="1" gradientUnits="userSpaceOnUse" gradientTransform="translate(9.00049 9) rotate(90) scale(5.56579)">
<stop offset="0.411458" stop-color="#00FFD1"/>
<stop offset="1" stop-color="#356DDB" stop-opacity="0"/>
</radialGradient>
<radialGradient id="paint4_radial_17901_18421" cx="0" cy="0" r="1" gradientUnits="userSpaceOnUse" gradientTransform="translate(9.00049 9.00563) rotate(90) scale(3.24 3.375)">
<stop offset="0.338542" stop-color="white"/>
<stop offset="1" stop-color="#00FFFF" stop-opacity="0"/>
</radialGradient>
<clipPath id="clip0_17901_18421">
<rect width="18" height="18" fill="white" transform="translate(0.000488281)"/>
</clipPath>
</defs>
</svg>
