<svg width="18" height="18" viewBox="0 0 18 18" fill="none" xmlns="http://www.w3.org/2000/svg">
<g clip-path="url(#clip0_15273_11726)">
<circle cx="9.00049" cy="9" r="5.76562" fill="url(#paint0_linear_15273_11726)"/>
<path fill-rule="evenodd" clip-rule="evenodd" d="M17.1567 9C17.1567 9.70687 17.048 10.3594 16.8849 11.0119C15.1992 11.2838 13.8942 12.8063 13.8942 14.6006C13.8942 14.8725 13.9486 15.1987 14.003 15.4706C12.6436 16.5581 10.9036 17.1562 9.00049 17.1562C7.20611 17.1562 5.52049 16.5581 4.16111 15.5794C4.26986 15.2531 4.26986 14.9269 4.26986 14.6006C4.26986 12.6975 2.85611 11.175 1.06174 10.9575C0.952988 10.3594 0.844238 9.6525 0.844238 9C0.844238 4.48687 4.48736 0.84375 9.00049 0.84375C13.5136 0.84375 17.1567 4.48687 17.1567 9ZM6.55361 4.54125C6.55361 5.57437 7.36924 5.955 8.72861 5.955C10.088 5.955 12.2086 6.66188 12.2086 8.83687C12.2086 8.83687 11.0667 9.27188 11.1211 10.2506C11.1211 10.74 11.5017 11.0662 11.828 11.5013C12.263 11.9362 12.698 12.4256 12.698 13.1325C14.8186 11.7731 14.8186 8.83687 14.8186 8.83687C14.9817 4.54125 10.8492 3.07312 9.21799 3.07312C7.58674 3.07312 6.55361 3.50812 6.55361 4.54125ZM11.6649 13.0237C11.6649 11.9906 10.8492 11.61 9.48986 11.61C8.13049 11.61 6.00986 10.9031 6.00986 8.72812C6.00986 8.72812 7.15174 8.29312 7.09736 7.31437C7.09736 6.825 6.71674 6.49875 6.39049 6.06375C5.95549 5.62875 5.52049 5.13937 5.52049 4.4325C3.39986 5.79187 3.39986 8.72812 3.39986 8.72812C3.23674 13.0237 7.36924 14.4919 9.00049 14.4919C10.6317 14.4919 11.6649 14.0569 11.6649 13.0237ZM9.10924 10.0875C9.81611 10.0875 10.4142 9.48937 10.4142 8.7825C10.4142 8.07562 9.81611 7.4775 9.10924 7.4775C8.40236 7.4775 7.80424 8.07562 7.80424 8.7825C7.80424 9.48937 8.40236 10.0875 9.10924 10.0875Z" fill="url(#paint1_linear_15273_11726)"/>
<path fill-rule="evenodd" clip-rule="evenodd" d="M17.2267 11.3841L16.952 11.4284C15.4756 11.6665 14.3161 13.0085 14.3161 14.6006C14.3161 14.8278 14.3629 15.119 14.4167 15.3879L14.467 15.6397L14.2665 15.8001C12.8274 16.9514 10.9929 17.5781 9.00049 17.5781C7.11197 17.5781 5.34104 16.9488 3.91461 15.9217L3.66274 15.7404L3.76089 15.446C3.84466 15.1947 3.84799 14.9364 3.84799 14.6006C3.84799 12.9145 2.59714 11.5686 1.01097 11.3763L0.702291 11.3389L0.646668 11.033C0.537185 10.4308 0.422363 9.69264 0.422363 9C0.422363 4.25388 4.25437 0.421875 9.00049 0.421875C13.7466 0.421875 17.5786 4.25388 17.5786 9C17.5786 9.7515 17.4628 10.4397 17.2941 11.1142L17.2267 11.3841ZM12.3602 9.23057L12.3598 9.23074L12.3559 9.23232C12.351 9.23432 12.3425 9.23791 12.3307 9.2431C12.3073 9.25352 12.2716 9.27019 12.228 9.2932C12.1397 9.33982 12.0248 9.40936 11.9138 9.50146C11.6867 9.68977 11.5256 9.92638 11.5423 10.2272L11.543 10.2389V10.2506C11.543 10.3756 11.5882 10.4955 11.6995 10.6568C11.7564 10.7393 11.8243 10.824 11.906 10.9235C11.916 10.9356 11.9261 10.948 11.9365 10.9606C12.0023 11.0406 12.0755 11.1297 12.1471 11.2238C12.4413 11.519 12.7886 11.891 12.9784 12.3794C13.5952 11.7959 13.9481 11.0403 14.1487 10.3562C14.2728 9.93294 14.3351 9.54834 14.3662 9.27005C14.3817 9.13127 14.3894 9.01993 14.3931 8.94466C14.395 8.90705 14.3959 8.87853 14.3963 8.86018C14.3966 8.85101 14.3967 8.84439 14.3967 8.84046L14.3967 8.83687V8.83661L14.3967 8.83621L14.3967 8.82887L14.397 8.82087C14.4725 6.83482 13.5642 5.51837 12.4396 4.68277C11.2946 3.83205 9.94166 3.495 9.21799 3.495C8.42694 3.495 7.84071 3.6026 7.46715 3.79487C7.28594 3.88814 7.16726 3.9949 7.09303 4.10779C7.02044 4.21817 6.97549 4.35675 6.97549 4.54125C6.97549 4.92286 7.1126 5.13231 7.3484 5.27379C7.62283 5.43845 8.07281 5.53312 8.72861 5.53312C9.46836 5.53312 10.4225 5.72305 11.206 6.2251C12.0085 6.73931 12.6305 7.58476 12.6305 8.83687V9.12761L12.3604 9.23052L12.3602 9.23057ZM14.8186 8.83687C14.8186 8.83687 14.8186 11.3902 13.099 12.8371C12.9746 12.9418 12.8411 13.0408 12.698 13.1325C12.698 12.9662 12.6739 12.8118 12.6314 12.6675C12.4932 12.1983 12.1606 11.8339 11.828 11.5013C11.7568 11.4063 11.6829 11.3165 11.611 11.229C11.3537 10.916 11.1211 10.6331 11.1211 10.2506C11.0667 9.27188 12.2086 8.83687 12.2086 8.83687C12.2086 6.66187 10.088 5.955 8.72861 5.955C7.36924 5.955 6.55361 5.57438 6.55361 4.54125C6.55361 3.50812 7.58674 3.07312 9.21799 3.07312C10.8492 3.07312 14.9817 4.54125 14.8186 8.83687ZM3.39986 8.72812C3.23674 13.0237 7.36924 14.4919 9.00049 14.4919C10.6317 14.4919 11.6649 14.0569 11.6649 13.0237C11.6649 11.9906 10.8492 11.61 9.48986 11.61C8.13049 11.61 6.00986 10.9031 6.00986 8.72812C6.00986 8.72812 7.15174 8.29312 7.09736 7.31437C7.09736 6.93185 6.86481 6.649 6.60744 6.33597C6.53555 6.24853 6.46172 6.15873 6.39049 6.06375C6.05786 5.73112 5.72523 5.36669 5.58709 4.89754C5.54458 4.75315 5.52049 4.59885 5.52049 4.4325C5.37737 4.52424 5.24392 4.62316 5.11947 4.72788C3.39986 6.17482 3.39986 8.72812 3.39986 8.72812ZM5.24009 5.18558C4.62325 5.76915 4.27036 6.52474 4.06977 7.20879C3.94565 7.63206 3.88336 8.01666 3.85226 8.29495C3.83676 8.43373 3.82911 8.54507 3.82536 8.62034C3.82348 8.65795 3.82257 8.68647 3.82214 8.70482C3.82192 8.71399 3.82182 8.72061 3.82177 8.72454L3.82174 8.72859L3.82174 8.73613L3.82143 8.74413C3.74601 10.7302 4.65429 12.0466 5.77889 12.8822C6.92385 13.733 8.27682 14.07 9.00049 14.07C9.79154 14.07 10.3778 13.9624 10.7513 13.7701C10.9325 13.6769 11.0512 13.5701 11.1254 13.4572C11.198 13.3468 11.243 13.2083 11.243 13.0237C11.243 12.6421 11.1059 12.4327 10.8701 12.2912C10.5956 12.1266 10.1457 12.0319 9.48986 12.0319C8.75012 12.0319 7.796 11.8419 7.01249 11.3399C6.21002 10.8257 5.58799 9.98024 5.58799 8.72812V8.43739L5.85795 8.33455L5.85812 8.33449L5.85827 8.33443L5.86258 8.33268C5.86746 8.33068 5.87602 8.32709 5.88773 8.3219C5.91121 8.31148 5.94687 8.29481 5.99045 8.2718C6.07874 8.22518 6.19364 8.15564 6.30471 8.06354C6.53179 7.87523 6.69285 7.63861 6.67614 7.33778L6.67549 7.32608V7.31437C6.67549 7.1894 6.63024 7.06952 6.51898 6.90818C6.4621 6.82571 6.39415 6.74105 6.31243 6.64146C6.30251 6.62936 6.29237 6.61703 6.28204 6.60447C6.21623 6.52445 6.14296 6.43536 6.07139 6.34124C5.77716 6.04602 5.42989 5.67398 5.24009 5.18558ZM9.10924 9.66562C9.58312 9.66562 9.99236 9.25638 9.99236 8.7825C9.99236 8.30862 9.58312 7.89938 9.10924 7.89938C8.63536 7.89938 8.22611 8.30862 8.22611 8.7825C8.22611 9.25638 8.63536 9.66562 9.10924 9.66562ZM16.8849 11.0119C17.048 10.3594 17.1567 9.70687 17.1567 9C17.1567 4.48688 13.5136 0.84375 9.00049 0.84375C4.48736 0.84375 0.844238 4.48688 0.844238 9C0.844238 9.6525 0.952988 10.3594 1.06174 10.9575C2.85611 11.175 4.26986 12.6975 4.26986 14.6006C4.26986 14.9269 4.26986 15.2531 4.16111 15.5794C5.52049 16.5581 7.20611 17.1562 9.00049 17.1562C10.9036 17.1562 12.6436 16.5581 14.003 15.4706C13.9486 15.1987 13.8942 14.8725 13.8942 14.6006C13.8942 12.8062 15.1992 11.2838 16.8849 11.0119ZM10.4142 8.7825C10.4142 9.48937 9.81611 10.0875 9.10924 10.0875C8.40236 10.0875 7.80424 9.48937 7.80424 8.7825C7.80424 8.07562 8.40236 7.4775 9.10924 7.4775C9.81611 7.4775 10.4142 8.07562 10.4142 8.7825Z" fill="url(#paint2_linear_15273_11726)"/>
<circle cx="9.00049" cy="9" r="1.54688" fill="url(#paint3_linear_15273_11726)"/>
</g>
<defs>
<linearGradient id="paint0_linear_15273_11726" x1="14.7661" y1="3.23438" x2="3.23486" y2="14.7656" gradientUnits="userSpaceOnUse">
<stop/>
<stop offset="0.489611" stop-color="#224CB8"/>
<stop offset="0.503093"/>
<stop offset="0.818474" stop-color="#1D44A8"/>
</linearGradient>
<linearGradient id="paint1_linear_15273_11726" x1="17.1567" y1="0.84375" x2="0.844238" y2="17.1562" gradientUnits="userSpaceOnUse">
<stop offset="0.267351" stop-color="white"/>
<stop offset="0.940535" stop-color="#0EF1FF"/>
</linearGradient>
<linearGradient id="paint2_linear_15273_11726" x1="16.1489" y1="1.44308" x2="2.60093" y2="15.6038" gradientUnits="userSpaceOnUse">
<stop stop-color="#FFE68E"/>
<stop offset="0.255208" stop-color="white"/>
<stop offset="0.489583" stop-color="#CBAF4D"/>
<stop offset="1" stop-color="#FFEEB0"/>
</linearGradient>
<linearGradient id="paint3_linear_15273_11726" x1="10.5474" y1="7.45312" x2="7.45361" y2="10.5469" gradientUnits="userSpaceOnUse">
<stop stop-color="#224CB8"/>
<stop offset="1" stop-color="#04216C"/>
</linearGradient>
<clipPath id="clip0_15273_11726">
<rect width="18" height="18" fill="white" transform="translate(0.000488281)"/>
</clipPath>
</defs>
</svg>
