<svg width="18" height="18" viewBox="0 0 18 18" fill="none" xmlns="http://www.w3.org/2000/svg">
<g clip-path="url(#clip0_2910_95722)">
<path d="M13.0438 7.38597V14.1417H8.29174V7.38597H13.0438ZM14.7444 5.40262H6.59123C6.45025 5.40262 6.33558 5.51889 6.33558 5.66182V15.8658C6.33558 16.0087 6.45025 16.125 6.59123 16.125H14.7444C14.8853 16.125 15 16.0087 15 15.8658V5.66182C15 5.51889 14.8853 5.40262 14.7444 5.40262Z" fill="#F0D454"/>
<path d="M4.95616 5.14547C4.95616 4.43488 5.52479 3.85835 6.22563 3.85835H11.2159V1.875H6.39292C4.51906 1.875 3 3.41517 3 5.31508V12.2123H4.95616V5.14547Z" fill="#F0D454"/>
</g>
<defs>
<clipPath id="clip0_2910_95722">
<rect width="18" height="18" fill="white"/>
</clipPath>
</defs>
</svg>
