<svg width="40" height="40" viewBox="0 0 40 40" fill="none" xmlns="http://www.w3.org/2000/svg">
<rect x="10" y="10" width="20" height="20" fill="black"/>
<path fill-rule="evenodd" clip-rule="evenodd" d="M14.1831 28.0795C13.7528 27.5963 14.2977 27.0973 14.4599 26.6458C14.5393 26.4254 14.4899 26.1185 14.5763 25.9157C14.728 25.6406 14.8796 25.3637 15.0295 25.0886C15.3046 24.8276 15.183 24.8153 15.3329 24.5807C15.4634 24.3779 15.6203 24.2421 15.5286 23.9318C15.3452 23.3075 15.742 22.4222 15.7685 21.7679C15.6979 21.6939 15.4581 21.7168 15.4281 21.5175C15.3664 21.1119 15.5815 20.3941 15.7138 20.3254C15.772 20.2954 15.839 20.3218 15.8919 20.2901C15.8919 19.985 15.5886 18.292 15.8196 18.2074C15.9607 18.1545 16.2869 18.1263 16.3504 18.0981C16.3469 18.0257 16.2975 17.8723 16.2375 17.8635C16.137 17.8494 15.9289 17.8106 15.7649 17.7718C15.2588 17.6554 15.7279 15.6591 15.7332 15.6521C15.8725 15.4687 16.5179 15.7155 16.5973 15.4034C16.8124 15.1283 16.4315 14.0667 17.1669 12.7617C17.4156 12.3208 17.8917 11.8764 18.449 12.0651C18.6359 12.1286 18.5231 12.3966 18.8493 12.1092C18.8581 11.9416 18.7805 11.8023 18.7329 11.6648C18.4825 10.9188 18.7364 10.3315 19.2091 10.0018H10V30H13.6998C13.8427 29.3951 14.2095 28.1783 14.1813 28.0813L14.1831 28.0795Z" fill="white"/>
<path fill-rule="evenodd" clip-rule="evenodd" d="M21.1084 25.168V24.847C21.1701 24.5102 21.1507 24.355 20.9479 24.1522C20.4418 24.1592 20.3712 24.1839 20.0926 23.7519C20.0062 23.6178 19.2972 22.4998 19.2285 22.4698C18.6394 22.2123 18.7558 22.3128 18.4984 21.8561C18.4878 21.8561 18.3308 21.909 18.1915 22.1153C17.9799 22.431 17.6078 23.4556 17.5002 23.8136C17.4403 24.0146 17.5002 24.2351 17.412 24.4008C17.3468 24.5208 17.1369 24.5596 17.0911 24.6407C16.8848 25.0128 17.0399 24.9846 16.6467 25.2456C16.5761 25.3373 16.5744 25.4731 16.5215 25.5842C16.4915 25.6265 16.4615 25.667 16.4333 25.7094C16.3663 25.8522 16.5038 26.1097 16.4774 26.1996C16.4086 26.4324 16.3187 26.6687 16.2287 26.8856C16.0488 27.3142 16.0718 27.882 15.8901 28.1448C15.7984 28.277 15.578 28.1483 15.4105 28.2559C15.3999 28.3476 15.1336 28.9595 15.0807 29.1288V29.9982H21.0925C21.1278 29.7337 21.2018 29.2911 21.2318 29.2011C21.2741 29.1359 21.3147 29.0706 21.357 29.0054C21.4011 28.8749 21.3112 27.9191 21.3041 27.6616C21.0731 27.4923 21.029 26.9756 21.029 26.6916C20.962 26.4712 20.962 26.212 20.9497 25.9263C20.9426 25.7923 20.8632 25.5965 20.9144 25.4272C20.9479 25.3126 21.0784 25.2632 21.1101 25.1697L21.1084 25.168Z" fill="white"/>
<path fill-rule="evenodd" clip-rule="evenodd" d="M29.2452 13.1532V13.0368H28.0672V13.1532H27.5487V13.0738H27.3265V13.3119H25.3602C25.3285 13.3277 25.2914 13.3436 25.2385 13.3542C25.0075 13.6805 25.1468 13.6417 24.7394 13.915C24.7394 14.4617 24.7553 14.5216 24.884 15.0048C24.8876 15.0172 24.884 15.0278 24.8788 15.0384C24.8717 15.0489 24.8629 15.056 24.8523 15.0578C24.7535 15.0789 24.6125 15.116 24.5313 15.1301C24.5331 15.1477 24.5737 15.4563 24.5296 15.6873C24.4608 16.0488 23.5984 16.8424 23.3939 16.883C23.1082 16.9394 22.7908 16.6872 22.2934 16.4686C22.1559 16.4086 21.6956 16.1053 21.4558 16.0259C21.2565 15.9589 21.0555 16.4456 21.3041 16.5761C21.4205 16.6361 21.6039 16.719 21.6621 16.8689C21.8349 17.3168 21.6357 19.0415 21.2794 19.3889C21.1101 19.3889 20.969 19.232 20.8438 19.2726C20.6199 19.3942 20.761 20.0802 20.8438 20.1984C22.2211 21.6145 22.0571 22.6638 22.6426 23.4485C22.9089 23.4485 22.7343 23.7307 22.9371 24.0623C22.9918 24.2333 22.9213 24.5225 22.893 24.6319V25.0586C22.8789 25.1027 22.8631 25.1468 22.849 25.1927V25.5665C22.8084 25.7482 22.7625 25.9933 22.7237 26.1626C22.6426 26.5224 22.9583 26.801 22.7678 27.1413C22.7678 27.3512 22.7678 27.3089 22.6426 27.4799C22.6426 27.8062 22.565 28.4922 22.6426 28.7356C22.6955 28.9049 23.3075 29.6191 23.4609 29.6879C23.7078 29.799 24.034 29.8201 24.1698 29.9965H30V13.102H29.4427V13.1532H29.2452Z" fill="white"/>
<path fill-rule="evenodd" clip-rule="evenodd" d="M21.1913 10C21.2353 10.0265 21.2794 10.0564 21.3218 10.0864C21.4664 10.1446 21.551 10.1746 21.6603 10.2557C21.7309 10.6225 22.0959 11.2768 21.7309 11.7071C21.5828 11.7388 21.3993 11.8217 21.2865 11.9028C21.2847 12.051 21.3041 12.1885 21.3306 12.2767C21.3553 12.3561 21.4011 12.3878 21.2812 12.4372C21.2671 12.4425 21.2724 12.4936 21.2812 12.5112C21.5828 12.5712 21.9037 12.4548 22.1048 12.3737H22.3446V12.0704H22.4592V11.8323H22.5738V12.2432H22.8736V12.3737H27.323V12.6047H27.5205V11.76H27.6863V12.4478H28.0654V12.841H29.2435V12.7246H29.4392V12.7758H29.9965V10H21.1895H21.1913Z" fill="white"/>
<path fill-rule="evenodd" clip-rule="evenodd" d="M23.2546 14.7333C23.4027 14.7333 23.6302 14.3171 23.7113 14.1936H22.9777C22.9989 14.3806 23.1946 14.6504 23.2546 14.7333Z" fill="white"/>
<path fill-rule="evenodd" clip-rule="evenodd" d="M23.2017 13.9415V14.0473H23.8065C23.8859 13.9291 23.9688 13.6875 23.8436 13.6029C23.773 13.5552 23.2881 13.5447 23.3992 13.7633C23.4732 13.9097 23.3674 13.945 23.2017 13.9415Z" fill="white"/>
</svg>
