<svg width="21" height="21" viewBox="0 0 21 21" fill="none" xmlns="http://www.w3.org/2000/svg">
<path d="M10.7496 2.55173C13.4198 2.55173 13.7358 2.56205 14.7904 2.61008C15.7653 2.65454 16.2948 2.81728 16.6473 2.95423C17.1141 3.13563 17.4471 3.35236 17.7972 3.70207C18.1473 4.05217 18.364 4.38521 18.545 4.85201C18.682 5.2045 18.8447 5.73402 18.8892 6.70892C18.9372 7.7632 18.9475 8.07956 18.9475 10.7498C18.9475 13.42 18.9372 13.736 18.8892 14.7907C18.8447 15.7656 18.682 16.2951 18.545 16.6476C18.3636 17.1144 18.1469 17.4474 17.7972 17.7975C17.4471 18.1476 17.1141 18.3644 16.6473 18.5454C16.2948 18.6823 15.7653 18.8451 14.7904 18.8895C13.7361 18.9376 13.4198 18.9479 10.7496 18.9479C8.07942 18.9479 7.76306 18.9376 6.7088 18.8895C5.73392 18.8451 5.20441 18.6823 4.85193 18.5454C4.38514 18.364 4.05211 18.1472 3.70201 17.7975C3.35191 17.4474 3.13519 17.1144 2.95418 16.6476C2.81724 16.2951 2.6545 15.7656 2.61004 14.7907C2.56201 13.7364 2.55169 13.42 2.55169 10.7498C2.55169 8.07956 2.56201 7.7636 2.61004 6.70892C2.6545 5.73402 2.81724 5.2045 2.95418 4.85201C3.13558 4.38521 3.35231 4.05217 3.70201 3.70207C4.05211 3.35197 4.38514 3.13523 4.85193 2.95423C5.20441 2.81728 5.73392 2.65454 6.7088 2.61008C7.76346 2.56205 8.07942 2.55173 10.7496 2.55173ZM10.7496 0.75C8.03377 0.75 7.6932 0.761511 6.62663 0.810335C5.56245 0.858763 4.83566 1.02786 4.19937 1.27516C3.54165 1.53079 2.98395 1.87256 2.42824 2.42867C1.87253 2.9844 1.53038 3.5421 1.27515 4.19944C1.02785 4.83574 0.85876 5.56254 0.810334 6.62675C0.761511 7.69334 0.75 8.03391 0.75 10.7498C0.75 13.4657 0.761511 13.8063 0.810334 14.8729C0.85876 15.9371 1.02785 16.6639 1.27515 17.3002C1.53077 17.9579 1.87253 18.5156 2.42864 19.0713C2.98475 19.6274 3.54205 19.9692 4.19977 20.2248C4.83566 20.4721 5.56285 20.6412 6.62703 20.6897C7.6936 20.7385 8.03417 20.75 10.75 20.75C13.4658 20.75 13.8064 20.7385 14.873 20.6897C15.9372 20.6412 16.6643 20.4721 17.3002 20.2248C17.958 19.9692 18.5156 19.6274 19.0714 19.0713C19.6275 18.5152 19.9692 17.9579 20.2249 17.3002C20.4721 16.6643 20.6412 15.9371 20.6897 14.8729C20.7385 13.8063 20.75 13.4657 20.75 10.7498C20.75 8.03391 20.7385 7.69334 20.6897 6.62675C20.6412 5.56254 20.4721 4.83534 20.2249 4.19944C19.9692 3.5417 19.6275 2.984 19.0714 2.42828C18.5153 1.87216 17.958 1.53039 17.3002 1.27476C16.6635 1.02786 15.9368 0.858763 14.8726 0.810335C13.806 0.761511 13.4654 0.75 10.7496 0.75Z" fill="white"/>
<path d="M10.7496 5.61494C7.9135 5.61494 5.61484 7.91404 5.61484 10.7498C5.61484 13.5856 7.91389 15.8847 10.7496 15.8847C13.5853 15.8847 15.8844 13.5856 15.8844 10.7498C15.8844 7.91404 13.5857 5.61494 10.7496 5.61494ZM10.7496 14.0829C8.90862 14.0829 7.41653 12.5904 7.41653 10.7498C7.41653 8.90878 8.90901 7.41667 10.7496 7.41667C12.5902 7.41667 14.0827 8.90917 14.0827 10.7498C14.0827 12.5908 12.5906 14.0829 10.7496 14.0829Z" fill="white"/>
<path d="M16.0876 6.61167C16.7503 6.61167 17.2875 6.07442 17.2875 5.41171C17.2875 4.74899 16.7503 4.21174 16.0876 4.21174C15.4249 4.21174 14.8877 4.74899 14.8877 5.41171C14.8877 6.07442 15.4249 6.61167 16.0876 6.61167Z" fill="white"/>
</svg>
