<svg width="18" height="15" viewBox="0 0 18 15" fill="none" xmlns="http://www.w3.org/2000/svg">
<path fill-rule="evenodd" clip-rule="evenodd" d="M1.22399 6.45764C6.00554 4.34058 9.19411 2.9452 10.7894 2.27085C15.3446 0.345787 16.291 0.0111099 16.9077 0.000109525C17.0435 -0.00222388 17.3466 0.0317771 17.5435 0.193782C17.7094 0.330453 17.755 0.515459 17.777 0.64513C17.799 0.774801 17.8262 1.07048 17.8046 1.30115C17.5579 3.93657 16.4898 10.3321 15.9462 13.2839C15.7163 14.5329 15.2636 14.9516 14.8253 14.9926C13.8727 15.0816 13.1496 14.3529 12.2269 13.7385C10.7831 12.7768 9.96764 12.1785 8.56657 11.2401C6.94702 10.1558 7.99708 9.55974 8.91987 8.58571C9.16131 8.3307 13.3583 4.45191 13.4393 4.0999C13.4495 4.0559 13.459 3.8919 13.3629 3.80523C13.2668 3.71856 13.1254 3.74823 13.0234 3.77189C12.8787 3.80523 10.5725 5.35428 6.10493 8.4187C5.45049 8.87539 4.85739 9.09806 4.32629 9.08639C3.74073 9.07339 2.61423 8.75005 1.77674 8.47337C0.749639 8.13403 -0.0668592 7.95469 0.00432605 7.37834C0.0407388 7.07833 0.447512 6.77132 1.22399 6.45764Z" fill="white"/>
</svg>
