<svg width="83" height="84" viewBox="0 0 83 84" fill="none" xmlns="http://www.w3.org/2000/svg">
<path d="M39.6675 54.0479C40.4614 54.0479 41.105 53.5725 41.105 52.9861C41.105 52.3997 40.4614 51.9243 39.6675 51.9243C38.8736 51.9243 38.23 52.3997 38.23 52.9861C38.23 53.5725 38.8736 54.0479 39.6675 54.0479Z" fill="url(#paint0_linear)"/>
<path d="M56.3389 58.1485C55.3868 58.1485 54.6027 58.716 54.6027 59.4299C54.6027 60.1439 55.3868 60.7114 56.3389 60.7114C57.291 60.7114 58.0751 60.1439 58.0751 59.4299C58.0751 58.7343 57.291 58.1485 56.3389 58.1485Z" fill="url(#paint1_linear)"/>
<path d="M47.5831 54.4323C46.0523 54.4323 44.8015 55.3659 44.8015 56.5009C44.8015 57.6359 46.0523 58.5696 47.5831 58.5696C49.114 58.5696 50.3648 57.6359 50.3648 56.5009C50.3648 55.3659 49.114 54.4323 47.5831 54.4323Z" fill="url(#paint2_linear)"/>
<path d="M74.8576 43.413C74.8763 43.413 74.9137 43.413 74.9323 43.413C74.951 43.413 74.9697 43.413 74.9883 43.413C75.0257 43.413 75.0443 43.413 75.0817 43.3947C75.119 43.3947 75.175 43.3764 75.2123 43.3764C75.2497 43.3764 75.2684 43.3581 75.3057 43.3581C75.343 43.3397 75.399 43.3214 75.4364 43.3031C75.455 43.2848 75.4924 43.2848 75.5111 43.2665C75.5671 43.2299 75.6044 43.1933 75.6604 43.1567C75.6791 43.1567 75.6791 43.1384 75.6977 43.1384C79.5622 39.4405 83.128 31.9166 82.5119 24.6673C81.7465 15.7155 76.4258 8.0451 68.2862 4.16415C62.1254 1.23514 50.9987 0.905622 43.7552 5.51882C33.4873 12.0542 32.1618 24.173 32.9085 29.6649V29.6832C32.9085 29.7198 32.9272 29.7381 32.9272 29.7747C32.9272 29.8114 32.9459 29.848 32.9646 29.8846C32.9832 29.9212 32.9832 29.9395 33.0019 29.9578C33.0206 29.9944 33.0392 30.031 33.0579 30.0493C33.0766 30.0676 33.0952 30.1043 33.1139 30.1226C33.1326 30.1592 33.1512 30.1775 33.1886 30.2141C33.2072 30.2324 33.2259 30.2507 33.2446 30.2873C33.2633 30.3056 33.2633 30.3239 33.2819 30.3239C36.8477 33.3811 38.2852 40.429 38.2292 44.7859C37.8558 45.0239 37.4638 45.2802 37.1091 45.5548C37.1091 45.5548 36.8104 45.7928 36.381 46.1589L35.9889 46.4701L31.5644 40.4656C31.6577 40.1361 31.7697 39.4039 31.471 38.3055C31.2097 37.3353 30.5376 36.8044 30.0149 36.5481C29.9215 36.4932 29.8282 36.4566 29.7535 36.4199C29.7535 35.3582 29.4175 34.15 28.8947 33.2163C29.2494 32.5207 29.4175 31.6969 29.3614 30.8914C29.7162 30.4521 30.6309 29.134 30.2015 27.6695C30.2015 27.6512 30.1829 27.6146 30.1829 27.5963C29.0067 24.594 20.587 22.9831 13.2502 22.9831C11.8873 22.9831 10.5805 23.038 9.32968 23.1478H9.31101C8.43357 22.6536 7.61214 22.379 7.07074 22.379C7.0334 22.379 7.01473 22.379 6.97739 22.379C4.79313 22.379 3.1876 24.1364 2.72088 25.8755C2.45951 26.9006 2.59019 27.8526 3.07559 28.5116C1.8621 30.928 1.67542 33.8204 2.51552 36.8593C3.37429 39.9714 5.35319 43.2482 8.19087 46.3786C9.04964 47.3305 10.1138 47.8797 11.0286 47.8431C11.3833 47.8248 11.7006 47.715 11.962 47.5319C12.5034 47.1292 12.7834 46.2871 12.1674 45.3534C9.98309 42.0766 8.63893 38.5252 8.39623 35.3948C8.26555 33.7472 8.80695 31.5688 9.66572 30.2324C9.70306 30.1958 9.74039 30.1409 9.77773 30.0859C9.7964 30.0493 9.81507 30.0127 9.83374 29.9761C9.94575 29.8114 10.0764 29.6649 10.2071 29.5551C10.7298 29.7747 11.3646 29.8297 11.9247 29.7198C13.1941 29.4452 14.7997 29.2988 16.4239 29.2988C19.2616 29.2988 21.7445 29.7381 22.958 30.4521C22.6033 31.5322 22.622 32.7038 23.0513 33.7838C22.2859 34.8273 21.9685 36.2003 22.1739 37.5549C22.3606 38.7632 22.958 39.8066 23.8168 40.4107C23.8541 40.9416 24.0035 41.4359 24.2648 41.8935L24.3768 42.0583L24.4328 42.1498C24.4702 42.1864 24.5075 42.2414 24.5449 42.3146C24.5635 42.3329 24.5635 42.3512 24.5822 42.3512C24.5822 42.3695 24.6009 42.3695 24.6009 42.3695C24.8809 42.699 25.3103 43.1384 25.8143 43.3031C26.2811 43.4496 26.6358 43.5228 26.8411 43.5411L32.4045 50.9369C32.2738 51.1932 32.1431 51.4678 32.0311 51.7241C31.9938 51.7973 31.9564 51.8888 31.9191 51.962C31.6577 52.5662 31.471 53.1703 31.3217 53.7744L30.6123 52.2366C30.4256 51.8522 30.0149 51.5959 29.5855 51.6874C29.0814 51.779 28.7454 52.2366 28.82 52.7309C29.1748 54.9094 26.6544 67.7604 25.5156 71.1837C25.4223 71.44 25.4596 71.7146 25.609 71.9526C29.3428 77.8106 40.6748 83.7602 48.4971 83.9799H48.5158C48.8892 83.9799 49.2252 83.7602 49.3745 83.4307C50.42 81.0142 57.6449 73.2157 61.2853 70.2867C61.472 70.1219 61.6214 69.9023 61.6587 69.6643C61.7147 69.2432 61.4533 68.8588 61.08 68.7123C61.0426 68.694 61.0053 68.694 60.9679 68.6757C63.4883 65.2341 64.5524 60.8406 63.8616 56.3922C63.6376 54.946 63.2456 53.5547 62.6855 52.2549C62.7042 52.2 62.7228 52.1634 62.7228 52.1085C63.7123 47.1658 70.5638 42.9187 74.7643 43.4679C74.8203 43.413 74.839 43.413 74.8576 43.413ZM8.56425 43.4496C4.10238 37.9028 2.96357 32.3925 5.57722 28.5299C5.74524 28.2919 5.93193 28.2004 6.06261 28.1455C6.1933 28.2919 6.37999 28.4933 6.51067 28.6581C6.7907 29.0059 7.12674 29.372 7.46278 29.7198C6.58535 31.404 6.09995 33.674 6.2493 35.5412C6.41732 38.0675 7.22009 40.7952 8.56425 43.4496ZM8.86296 27.8343C8.82562 27.8709 8.78828 27.9075 8.75094 27.9441C8.56425 27.7244 8.35889 27.5048 8.1722 27.2851C7.59347 26.6077 7.29476 26.2782 6.88405 26.1135C6.67869 26.0402 6.43599 25.9853 6.17463 25.9853C5.72657 25.9853 5.25985 26.1135 4.83047 26.3515C5.09183 25.4178 5.89459 24.5025 6.95872 24.5025H6.99606C7.01473 24.5025 7.05207 24.5025 7.07074 24.5025C7.38811 24.5391 8.43357 25.0517 8.97497 25.4727C8.76961 26.3331 8.7136 27.1386 8.86296 27.8343ZM67.3527 6.0314C68.3048 6.48906 69.201 6.98333 70.0597 7.55083C68.5102 7.84373 66.4566 7.66067 65.5605 7.33115C63.9923 6.72704 63.0029 5.53713 62.5922 4.56689C64.3657 4.8781 65.9899 5.37237 67.3527 6.0314ZM64.7951 9.25332C65.3738 9.473 66.2886 9.65606 67.3154 9.72928C70.0224 16.228 69.1263 27.6695 63.899 34.0767C62.5922 31.4406 59.8665 29.134 56.5434 27.9624C53.1457 26.7542 49.6546 26.9373 46.7796 28.4018C46.5555 22.3241 50.2333 12.2922 61.6214 6.92841C62.3681 7.88034 63.4323 8.74074 64.7951 9.25332ZM47.2276 30.5436C49.6732 29.0791 52.7536 28.8594 55.7967 29.9212C58.7837 30.983 61.248 33.1614 62.1814 35.468C59.5678 37.2986 56.8795 40.3924 54.9192 43.9622C54.9192 43.9622 54.9192 43.9622 54.9005 43.9622C52.5296 42.8455 50.084 42.2597 47.713 42.1681C47.993 38.1407 47.9184 33.5642 47.2276 30.5436ZM35.9702 19.3584C37.5384 14.1045 40.5441 10.0222 44.894 7.25793C49.1318 4.56689 55.0872 3.70649 60.2772 4.21907C60.3332 4.51197 60.4079 4.80488 60.5199 5.11608C49.8786 10.2052 44.6513 19.8527 44.5953 27.6329C42.8964 26.681 40.8055 26.1684 38.7146 26.2599C37.2397 26.3331 35.9142 26.6993 34.8501 27.3217C34.8314 25.1432 35.1115 22.2691 35.9702 19.3584ZM35.4289 29.4818C36.2503 28.8045 37.4078 28.4018 38.8266 28.3468C41.2162 28.237 43.6992 29.1523 45.062 30.6168C45.8274 33.4177 45.8461 38.1957 45.5661 42.2597C43.7552 42.4244 41.9816 42.9004 40.3014 43.651C40.1334 39.349 38.7893 33.0516 35.4289 29.4818ZM24.1155 28.6031C22.5099 27.6512 19.7283 27.1203 16.4612 27.1203C14.6503 27.1203 12.8768 27.2851 11.4579 27.5963C11.4393 27.5963 11.3833 27.6146 11.3086 27.6146C11.1592 27.6146 11.0472 27.578 11.0286 27.5231C10.8792 27.1203 10.9539 26.3881 11.2152 25.6924C11.2712 25.5277 11.3086 25.3446 11.2899 25.1615C11.962 25.1249 12.6341 25.1249 13.3248 25.1249C20.7177 25.1249 27.4572 26.8823 28.148 28.3285C28.148 28.3652 28.1666 28.3835 28.1666 28.4201C27.8306 28.1455 27.4199 27.9624 26.9718 27.8526C25.945 27.5963 24.9182 27.8892 24.1155 28.6031ZM24.6382 38.1041C24.4889 37.8478 24.3955 37.5366 24.3395 37.2071C24.1901 36.2369 24.4889 35.2666 25.1049 34.6625C25.4596 34.3147 25.5343 33.8021 25.2916 33.3811C24.6569 32.2644 24.8809 31.0745 25.385 30.4338C25.5343 30.2324 25.8517 29.9029 26.2624 29.9029C26.3184 29.9029 26.3931 29.9029 26.4491 29.9212C26.7851 29.9944 26.9905 30.2141 27.1212 30.5619C27.3265 31.166 27.1585 32.0813 26.7665 32.5573C26.4304 32.96 26.4304 33.5275 26.7665 33.912C27.1772 34.4062 27.5879 35.4863 27.5879 36.4383C27.1212 36.5664 26.6171 36.7678 26.1691 37.0057C25.721 37.2254 25.1236 37.6099 24.6382 38.1041ZM30.9483 45.5731L28.0733 41.7654C27.9613 41.6189 27.7746 41.5091 27.5879 41.4908C27.3639 41.4725 26.6171 41.3444 26.2624 40.905C26.2437 40.8867 26.2437 40.8684 26.2251 40.8501C26.2251 40.8318 26.2064 40.8318 26.2064 40.8135C26.0384 40.5389 25.9824 40.1911 26.057 39.8432C26.0757 39.7883 26.3371 39.3673 27.2332 38.8913C27.5692 38.7265 27.8866 38.5801 28.2226 38.4886C28.5213 38.4336 28.7827 38.4703 29.0067 38.5801C29.2121 38.7082 29.5481 38.9645 29.5481 39.2757C29.5481 39.8066 29.4175 40.246 29.3428 40.4473C29.2681 40.6487 29.3054 40.8867 29.4361 41.0698L32.0311 44.4747L30.9483 45.5731ZM32.2178 47.2756L33.2446 46.2138L34.4954 47.8797C34.4021 47.9896 34.3087 48.0994 34.2714 48.1543C34.2527 48.1726 34.2527 48.1909 34.234 48.1909C34.178 48.2458 34.122 48.3191 34.0847 48.374C33.9353 48.5571 33.786 48.7401 33.6366 48.9415C33.5993 48.9781 33.5806 49.0147 33.5433 49.0696L32.2178 47.2756ZM27.4385 71.2935C28.2413 68.5842 29.8282 61.1335 30.4629 56.3006L31.2657 58.0581C31.2843 58.0947 31.303 58.113 31.3217 58.1496C31.303 61.701 29.9962 68.6757 28.6147 72.7397C28.1666 72.2638 27.7746 71.7695 27.4385 71.2935ZM30.0335 74.131C30.5003 72.7031 31.7884 68.694 32.4978 64.6483C33.1139 61.2067 33.1512 59.1564 33.1139 58.1679L35.3168 56.978L36.1196 60.6576C36.1383 60.7125 36.1569 60.7857 36.1756 60.8406C35.6902 64.0992 32.8525 72.7581 31.6391 75.4308C31.0603 75.0097 30.5376 74.5704 30.0335 74.131ZM32.9459 76.3644C34.1594 73.8747 37.1091 64.8863 37.7251 61.2251L41.795 60.0168L43.0458 64.1907C41.0482 67.2478 36.9224 75.3759 35.9142 78.1584C34.8688 77.5909 33.8793 77.0051 32.9459 76.3644ZM37.3144 78.8907C37.8745 77.0967 42.2243 68.273 44.3713 65.0145L48.4224 64.0991L49.8226 67.8336C46.7982 70.2501 42.243 76.1264 40.9549 80.465C39.7414 80.0074 38.5279 79.4765 37.3144 78.8907ZM42.4857 80.9776C43.6805 76.8587 48.4598 70.7444 51.1854 68.7856C51.2041 68.7856 51.2041 68.7856 51.2228 68.7673L54.4152 67.5224L54.8632 69.9755C51.6708 72.099 46.3688 78.012 45.1927 81.6732C44.2966 81.5085 43.4005 81.2705 42.4857 80.9776ZM58.1676 70.781L56.8421 71.8427C53.4444 75.1562 49.3745 79.6962 48.0117 82.0943C47.6197 82.076 47.209 82.0211 46.7796 81.9661C47.9744 78.6161 53.351 72.7397 56.058 71.0922C56.1514 71.0739 56.2634 71.0556 56.3567 71.0373C56.4874 71.019 56.6368 70.9823 56.7861 70.964L58.1489 70.7077C58.1676 70.6894 58.1863 70.7444 58.1676 70.781ZM58.0183 68.8954C57.5142 68.9869 57.0101 69.0785 56.5994 69.1517L56.0394 66.1312C55.9833 65.8566 55.8153 65.6369 55.5726 65.4904C55.3299 65.3623 55.0312 65.344 54.7885 65.4355L51.4281 66.7353L49.9159 62.7079C49.7479 62.2685 49.2812 62.0305 48.8331 62.1404L44.6513 63.0923L43.3258 58.6255C43.2511 58.3876 43.1018 58.2045 42.8778 58.0764C42.6537 57.9665 42.411 57.9299 42.1683 58.0031L37.7438 59.3212L36.885 55.4036C36.829 55.129 36.6237 54.8911 36.3623 54.7629C36.1009 54.6348 35.7836 54.6531 35.5222 54.7995L33.1886 56.0627C33.1699 53.0787 35.1675 49.5822 38.3599 47.2024C40.4881 45.6097 42.8778 44.6578 45.3794 44.3649C45.2114 45.9759 44.9873 47.3488 44.782 48.2825C44.7447 48.4289 44.6886 48.6669 44.5953 48.9598C44.0166 49.1429 43.6245 49.5273 43.6245 49.9666C43.6245 50.2229 43.7552 50.4426 43.9606 50.6257C43.9979 50.6623 44.0352 50.6806 44.0726 50.7172C44.0726 50.7172 44.0912 50.7172 44.0912 50.7355C44.1286 50.7721 44.1659 50.7904 44.2219 50.8087C44.2219 50.8087 44.2219 50.8087 44.2406 50.8087C44.3339 50.8637 44.4459 50.9186 44.558 50.9552C44.5766 50.9552 44.5766 50.9552 44.5953 50.9735C44.6326 50.9918 44.6886 51.0101 44.726 51.0101C44.7446 51.0101 44.7633 51.0101 44.782 51.0284C44.8193 51.0467 44.8567 51.0467 44.9127 51.0467C44.9313 51.0467 44.95 51.0467 44.9687 51.065C45.006 51.065 45.062 51.0833 45.0994 51.0833C45.118 51.0833 45.1367 51.0833 45.1554 51.0833C45.23 51.0833 45.286 51.0833 45.3607 51.0833C46.3315 51.0833 47.0969 50.5708 47.0969 49.9483C47.0969 49.6554 46.9289 49.3992 46.6489 49.1978C47.1529 47.3488 47.3956 45.445 47.4516 45.0788C47.489 44.8043 47.5076 44.5297 47.545 44.2368C49.6732 44.2917 51.8575 44.8226 54.0044 45.8111C53.4257 47.0925 52.9403 48.374 52.5856 49.6737C52.5856 49.6737 52.5669 49.7287 52.5483 49.8202C52.5483 49.8202 52.2682 50.7172 52.1189 52.017C51.6522 52.2183 51.3535 52.5661 51.3535 52.9506C51.3535 53.4449 51.8202 53.8476 52.4923 54.0124C52.5109 54.0124 52.5109 54.0124 52.5296 54.0124C52.6043 54.0307 52.6976 54.049 52.791 54.049C52.8096 54.049 52.8096 54.049 52.8283 54.049C52.9216 54.0673 53.015 54.0673 53.1083 54.0673C53.183 54.0673 53.2577 54.0673 53.3324 54.049C53.351 54.049 53.3697 54.049 53.3884 54.049C53.4444 54.049 53.5004 54.0307 53.5751 54.0307C53.5937 54.0307 53.5937 54.0307 53.6124 54.0307C53.6871 54.0123 53.7431 53.994 53.8178 53.9757H53.8364C53.8924 53.9574 53.9484 53.9391 54.0044 53.9208H54.0231C54.5085 53.7195 54.8445 53.3716 54.8445 52.9689C54.8445 52.6028 54.5832 52.2916 54.1725 52.0719C54.4525 50.2229 55.0872 48.612 55.8527 46.8912C59.0077 49.0513 61.192 52.5478 61.8081 56.6302C62.4988 61.2434 61.0986 65.7467 58.0183 68.8954ZM66.438 43.9439C64.0857 45.5182 62.3121 47.5319 61.36 49.6371C60.1652 47.7882 58.597 46.2138 56.7674 45.0239C58.6903 41.4908 61.3973 38.452 63.8803 36.8776C66.494 36.1454 69.201 36.5847 71.3105 38.1407C72.524 39.0194 73.3828 40.1727 73.7002 41.326C71.4599 41.3993 68.8276 42.3329 66.438 43.9439ZM72.58 36.4383C70.7505 35.1202 68.5289 34.4246 66.2513 34.4429C71.1799 27.5414 72.076 16.6308 69.5743 9.71098C70.4891 9.61945 71.3852 9.39977 72.1133 9.03364C76.8552 12.9146 79.8422 18.5163 80.3836 24.8137C80.869 30.5619 78.4794 36.4932 75.5484 40.1361C75.007 38.7632 73.9802 37.4634 72.58 36.4383Z" fill="url(#paint3_linear)"/>
<defs>
<linearGradient id="paint0_linear" x1="32.3733" y1="79.6668" x2="47.8371" y2="20.8122" gradientUnits="userSpaceOnUse">
<stop stop-color="white"/>
<stop offset="0.1185" stop-color="#FEFDF9"/>
<stop offset="0.2809" stop-color="#FDF9E7"/>
<stop offset="0.4689" stop-color="#FAF2CA"/>
<stop offset="0.6759" stop-color="#F7E8A2"/>
<stop offset="0.8961" stop-color="#F2DB6F"/>
<stop offset="1" stop-color="#F0D454"/>
</linearGradient>
<linearGradient id="paint1_linear" x1="45.7125" y1="98.3363" x2="61.1766" y2="39.4807" gradientUnits="userSpaceOnUse">
<stop stop-color="white"/>
<stop offset="0.1185" stop-color="#FEFDF9"/>
<stop offset="0.2809" stop-color="#FDF9E7"/>
<stop offset="0.4689" stop-color="#FAF2CA"/>
<stop offset="0.6759" stop-color="#F7E8A2"/>
<stop offset="0.8961" stop-color="#F2DB6F"/>
<stop offset="1" stop-color="#F0D454"/>
</linearGradient>
<linearGradient id="paint2_linear" x1="38.681" y1="89.0662" x2="54.1823" y2="30.0683" gradientUnits="userSpaceOnUse">
<stop stop-color="white"/>
<stop offset="0.1185" stop-color="#FEFDF9"/>
<stop offset="0.2809" stop-color="#FDF9E7"/>
<stop offset="0.4689" stop-color="#FAF2CA"/>
<stop offset="0.6759" stop-color="#F7E8A2"/>
<stop offset="0.8961" stop-color="#F2DB6F"/>
<stop offset="1" stop-color="#F0D454"/>
</linearGradient>
<linearGradient id="paint3_linear" x1="28.8719" y1="77.9964" x2="49.8535" y2="-1.8588" gradientUnits="userSpaceOnUse">
<stop stop-color="white"/>
<stop offset="0.1185" stop-color="#FEFDF9"/>
<stop offset="0.2809" stop-color="#FDF9E7"/>
<stop offset="0.4689" stop-color="#FAF2CA"/>
<stop offset="0.6759" stop-color="#F7E8A2"/>
<stop offset="0.8961" stop-color="#F2DB6F"/>
<stop offset="1" stop-color="#F0D454"/>
</linearGradient>
</defs>
</svg>
