<svg width="32" height="32" viewBox="0 0 32 32" fill="none" xmlns="http://www.w3.org/2000/svg">
<path opacity="0.5" d="M16 0C7.18545 0 0 7.18545 0 16C0 24.8145 7.18545 32 16 32C24.8145 32 32 24.8145 32 16C31.9709 7.18545 24.8145 0 16 0Z" fill="white"/>
<path d="M19.648 6.94397H12.3201C9.34696 6.94397 6.91205 9.37597 6.91205 12.352V19.68C6.91205 22.6531 9.34405 25.088 12.3201 25.088H19.648C22.6211 25.088 25.0561 22.656 25.0561 19.68V12.352C25.0561 9.37597 22.6211 6.94397 19.648 6.94397ZM23.2175 19.6771C23.2175 21.6494 21.6233 23.2465 19.648 23.2465H12.3201C10.3477 23.2465 8.7506 21.6523 8.7506 19.6771V12.352C8.7506 10.3796 10.3448 8.78252 12.3201 8.78252H19.648C21.6204 8.78252 23.2175 10.3767 23.2175 12.352V19.6771Z" fill="#110722"/>
<path d="M15.9971 11.3251C13.4022 11.3251 11.3193 13.4342 11.3193 16.0029C11.3193 18.5716 13.4284 20.6807 15.9971 20.6807C18.5659 20.6807 20.675 18.5978 20.675 16.0029C20.675 13.408 18.5659 11.3251 15.9971 11.3251ZM15.9971 18.8683C14.4291 18.8683 13.1317 17.5971 13.1317 16.0029C13.1317 14.4087 14.403 13.1374 15.9971 13.1374C17.5651 13.1374 18.8626 14.4087 18.8626 16.0029C18.8626 17.5971 17.5651 18.8683 15.9971 18.8683Z" fill="#110722"/>
<path d="M20.675 12.4858C21.3015 12.4858 21.8095 11.9778 21.8095 11.3512C21.8095 10.7247 21.3015 10.2167 20.675 10.2167C20.0484 10.2167 19.5404 10.7247 19.5404 11.3512C19.5404 11.9778 20.0484 12.4858 20.675 12.4858Z" fill="#110722"/>
</svg>
