<svg width="32" height="32" viewBox="0 0 32 32" fill="none" xmlns="http://www.w3.org/2000/svg">
<path opacity="0.5" d="M16 0C7.18545 0 0 7.18545 0 16C0 24.8145 7.18545 32 16 32C24.8145 32 32 24.8145 32 16C31.9709 7.18545 24.8145 0 16 0Z" fill="white"/>
<path d="M19.6481 6.94397H12.3201C9.34702 6.94397 6.91211 9.37597 6.91211 12.352V19.68C6.91211 22.6531 9.34411 25.088 12.3201 25.088H19.6481C22.6212 25.088 25.0561 22.656 25.0561 19.68V12.352C25.0561 9.37597 22.6212 6.94397 19.6481 6.94397ZM23.2176 19.6771C23.2176 21.6494 21.6234 23.2465 19.6481 23.2465H12.3201C10.3477 23.2465 8.75066 21.6523 8.75066 19.6771V12.352C8.75066 10.3796 10.3448 8.78252 12.3201 8.78252H19.6481C21.6205 8.78252 23.2176 10.3767 23.2176 12.352V19.6771Z" fill="#03041C"/>
<path d="M15.9972 11.3251C13.4023 11.3251 11.3194 13.4342 11.3194 16.0029C11.3194 18.5716 13.4285 20.6807 15.9972 20.6807C18.5659 20.6807 20.675 18.5978 20.675 16.0029C20.675 13.408 18.5659 11.3251 15.9972 11.3251ZM15.9972 18.8683C14.4292 18.8683 13.1317 17.5971 13.1317 16.0029C13.1317 14.4087 14.403 13.1374 15.9972 13.1374C17.5652 13.1374 18.8627 14.4087 18.8627 16.0029C18.8627 17.5971 17.5652 18.8683 15.9972 18.8683Z" fill="#03041C"/>
<path d="M20.675 12.4858C21.3016 12.4858 21.8096 11.9778 21.8096 11.3512C21.8096 10.7247 21.3016 10.2167 20.675 10.2167C20.0484 10.2167 19.5405 10.7247 19.5405 11.3512C19.5405 11.9778 20.0484 12.4858 20.675 12.4858Z" fill="#03041C"/>
</svg>
