<svg width="14" height="14" viewBox="0 0 14 14" fill="none" xmlns="http://www.w3.org/2000/svg">
<path d="M13.2953 11.6019L8.69334 6.99999L13.2953 2.39804C13.6074 2.08593 13.6074 1.58124 13.2953 1.26914L12.7308 0.704682C12.4187 0.392573 11.914 0.392573 11.6019 0.704682L6.99998 5.30663L2.39802 0.704682C2.08591 0.392573 1.58123 0.392573 1.26912 0.704682L0.704663 1.26914C0.392554 1.58124 0.392554 2.08593 0.704663 2.39804L5.30662 6.99999L0.704663 11.6019C0.392554 11.9141 0.392554 12.4187 0.704663 12.7309L1.26912 13.2953C1.58123 13.6074 2.08591 13.6074 2.39802 13.2953L6.99998 8.69335L11.6019 13.2953C11.914 13.6074 12.4187 13.6074 12.7308 13.2953L13.2953 12.7309C13.6008 12.4187 13.6008 11.9141 13.2953 11.6019Z" fill="black"/>
</svg>
