<svg width="69" height="67" viewBox="0 0 69 67" fill="none" xmlns="http://www.w3.org/2000/svg">
<path opacity="0.1" fill-rule="evenodd" clip-rule="evenodd" d="M2.45029 32.8433C3.81176 32.4661 5.82005 34.9254 7.9665 39.2063C8.84539 40.9592 9.74671 43.0306 10.637 45.3248C10.8639 44.5927 11.1098 43.8379 11.3878 43.049C12.7216 39.2861 14.6789 34.9209 17.3777 30.3266C18.7624 28.0523 20.2682 25.682 22.0525 23.369C22.9042 22.1848 23.8908 21.0634 24.84 19.8887C25.8654 18.7729 26.8456 17.5893 27.9721 16.5056C32.3479 12.0613 37.1745 8.40921 41.9843 5.83933C46.7816 3.24708 51.4601 1.63554 55.4618 0.820514C56.4556 0.593519 57.429 0.486503 58.3325 0.343763C59.24 0.214508 60.0901 0.0877635 60.9024 0.0713475C61.71 0.0320343 62.4596 0.00846831 63.1482 0.00043071C63.4913 0.00028431 63.8203 0.000146812 64.1348 4.11682e-07C64.4498 0.0157564 64.7511 0.0489254 65.0352 0.0769322C67.311 0.316278 68.549 0.733604 68.5981 1.31979C68.7104 2.59552 64.0135 3.73344 57.2416 6.58103C53.8579 8.01412 49.9947 9.977 46.0044 12.5894C42.0018 15.1843 37.9404 18.5386 34.0478 22.4879C30.1282 26.4136 26.839 30.6407 23.9711 34.5989C21.1454 38.5943 18.7855 42.372 16.8496 45.6025C16.315 46.4977 15.8142 47.3445 15.3398 48.1472C17.8353 46.6925 20.1662 45.4734 22.2123 44.5562C26.5491 42.6122 29.6352 41.9839 30.4493 43.1308C31.2633 44.2777 29.6518 46.9836 26.3855 50.436C24.7524 52.1622 22.7055 54.075 20.3413 56.0729C19.7449 56.5656 19.1339 57.0703 18.5101 57.5856L18.2733 57.7765L17.8559 58.0946C17.5347 58.3363 17.2119 58.579 16.8877 58.823C16.2314 59.3125 15.5688 59.8065 14.9005 60.305C12.2092 62.3008 9.35512 64.373 6.44768 66.4397C6.41414 66.3189 6.38007 66.196 6.34596 66.073C5.38891 62.6178 4.47648 59.1895 3.64248 55.9233C3.43711 55.1099 3.23353 54.3036 3.03189 53.5049C2.93424 53.111 2.83706 52.7188 2.74036 52.3287L2.61134 51.7284C2.45091 50.9296 2.29379 50.1474 2.14041 49.3836C1.56071 46.321 1.17499 43.5251 0.994025 41.1375C0.631997 36.3624 1.08883 33.2204 2.45029 32.8433Z" fill="#110722"/>
</svg>
