<svg width="69" height="67" viewBox="0 0 69 67" fill="none" xmlns="http://www.w3.org/2000/svg">
<path opacity="0.1" fill-rule="evenodd" clip-rule="evenodd" d="M1.97541 33.5964C3.33691 33.9735 5.34521 31.5143 7.49161 27.2334C8.37051 25.4805 9.27181 23.4091 10.1621 21.1149C10.389 21.847 10.6349 22.6018 10.9129 23.3906C12.2467 27.1536 14.204 31.5188 16.9028 36.113C18.2875 38.3874 19.7933 40.7577 21.5776 43.0707C22.4293 44.2548 23.4159 45.3763 24.3651 46.551C25.3905 47.6668 26.3707 48.8504 27.4972 49.9341C31.873 54.3784 36.6996 58.0305 41.5094 60.6004C46.3067 63.1926 50.9852 64.8042 54.9869 65.6192C55.9807 65.8462 56.9541 65.9532 57.8576 66.0959C58.7651 66.2252 59.6152 66.3519 60.4276 66.3683C61.2351 66.4077 61.9847 66.4312 62.6733 66.4393C63.0165 66.4394 63.3454 66.4395 63.6599 66.4397C63.9749 66.4239 64.2762 66.3908 64.5603 66.3628C66.8361 66.1234 68.0741 65.7061 68.1232 65.1199C68.2355 63.8442 63.5386 62.7063 56.7667 59.8587C53.383 58.4256 49.5198 56.4627 45.5295 53.8503C41.5269 51.2554 37.4655 47.9011 33.5729 43.9518C29.6533 40.0261 26.3641 35.799 23.4962 31.8408C20.6705 27.8454 18.3106 24.0677 16.3747 20.8372C15.8401 19.942 15.3393 19.0952 14.8649 18.2925C17.3604 19.7471 19.6914 20.9663 21.7374 21.8835C26.0742 23.8275 29.1603 24.4558 29.9744 23.3089C30.7884 22.162 29.1769 19.4561 25.9106 16.0037C24.2775 14.2775 22.2306 12.3647 19.8664 10.3668C19.27 9.87409 18.659 9.36943 18.0352 8.85407L17.7984 8.66318L17.381 8.34505C17.0598 8.10344 16.737 7.86064 16.4128 7.61666C15.7565 7.12723 15.0939 6.63316 14.4256 6.1347C11.7343 4.13889 8.88021 2.06668 5.97281 0C5.93921 0.120832 5.90521 0.243697 5.87111 0.36666C4.91401 3.82191 4.00161 7.25014 3.16761 10.5164C2.96221 11.3298 2.75861 12.1361 2.55701 12.9348C2.45931 13.3287 2.36221 13.7208 2.26551 14.111L2.13641 14.7113C1.97601 15.51 1.8189 16.2923 1.6655 17.0561C1.0858 20.1187 0.700104 22.9146 0.519104 25.3021C0.157104 30.0773 0.61391 33.2193 1.97541 33.5964Z" fill="#110722"/>
</svg>
