<svg width="247" height="138" viewBox="0 0 247 138" fill="none" xmlns="http://www.w3.org/2000/svg">
<path fill-rule="evenodd" clip-rule="evenodd" d="M31.6023 7.87289C31.6023 8.64816 32.5165 9.14654 34.0033 9.90334C36.4506 11.0755 37.5864 12.506 37.5772 14.3796C37.5403 17.7852 34.6313 19.991 30.1709 19.991C28.2593 19.9725 26.4216 19.5665 25.4242 19.1142L26.0153 15.4225L26.5786 15.6809C27.9638 16.2993 28.8688 16.5577 30.568 16.5577C31.7962 16.5577 33.1076 16.0501 33.126 14.9518C33.126 14.2319 32.5627 13.7058 30.9189 12.9029C29.3028 12.1184 27.1511 10.8078 27.1881 8.44511C27.2065 5.25176 30.1617 3.00903 34.3635 3.00903C36.0165 3.00903 37.3463 3.37821 38.1867 3.70123L37.6049 7.25453L37.2171 7.07917C36.4506 6.74691 35.4347 6.41466 34.0495 6.45157C32.3688 6.45157 31.6208 7.17146 31.6023 7.87289ZM18.5066 19.7512L21.1662 3.30451H25.4235L22.7638 19.7512H18.5066ZM49.0921 3.30451H45.8046C44.7887 3.30451 44.0222 3.59985 43.579 4.67045L37.2624 19.7512H41.7228C41.7228 19.7512 42.4616 17.7207 42.6186 17.2869H48.0856C48.2056 17.8684 48.5935 19.7512 48.5935 19.7512H52.5367L49.0921 3.30451ZM43.8375 13.9275C44.1885 12.9861 45.5367 9.32203 45.5367 9.32203C45.5295 9.33658 45.5824 9.19064 45.6622 8.97061L45.6626 8.96948C45.7854 8.63106 45.9715 8.11812 46.1001 7.74382L46.3956 9.16513C46.3956 9.16513 47.199 13.1061 47.3745 13.9275H43.8375ZM10.7862 14.5181L14.9511 3.30451H19.4485L12.7625 19.7327H8.26514L4.46964 5.44571C3.1583 4.67968 1.6715 4.06131 0 3.63677L0.0738783 3.30451H6.91686C7.84034 3.34143 8.59759 3.63677 8.8377 4.68891L10.3337 12.2477L10.7862 14.5181Z" fill="#3F1F78"/>
<path d="M101.393 0.5C99.2061 0.5 97.0641 1.15355 95.2523 2.33701C101.045 7.05319 101.134 15.9645 95.2523 20.6542C97.0641 21.8464 99.224 22.4912 101.393 22.4912C107.533 22.5 112.513 17.5719 112.513 11.4956C112.522 5.43697 107.533 0.5 101.393 0.5Z" fill="#3F1F78"/>
<path d="M94.5296 2.84921C88.8889 7.24744 88.8711 15.7701 94.5296 20.133C100.188 15.7701 100.161 7.24744 94.5296 2.84921Z" fill="#3F1F78"/>
<path d="M87.6572 0.508832C89.8439 0.508832 91.9859 1.15355 93.8066 2.34584C87.9875 7.05319 87.9518 15.9468 93.7977 20.663C91.9859 21.8464 89.8439 22.5 87.6572 22.5C81.5257 22.5 76.5366 17.5719 76.5366 11.4956C76.5366 5.43697 81.5257 0.5 87.6572 0.508832Z" fill="#3F1F78"/>
<path d="M131.761 15.742V11.07C131.761 9.31068 130.633 8.12637 128.818 8.11083C127.764 8.04244 126.758 8.54912 126.189 9.43501C125.67 8.57709 124.72 8.06731 123.717 8.11083C122.842 8.06731 122.008 8.48695 121.527 9.21743V8.29733H119.898V15.7389H121.542V11.6171C121.542 10.324 122.261 9.64017 123.373 9.64017C124.455 9.64017 125.002 10.3396 125.002 11.6016V15.742H126.646V11.6171C126.646 10.324 127.396 9.64017 128.477 9.64017C129.589 9.64017 130.121 10.3396 130.121 11.6016V15.742H131.761ZM156.084 8.30044H153.425V6.04373H151.781V8.30044H150.262V9.78005H151.781V13.1744C151.781 14.9027 152.453 15.9316 154.378 15.9316C155.097 15.9347 155.803 15.7327 156.413 15.3566L155.944 13.9702C155.506 14.2282 155.013 14.3743 154.503 14.3898C153.691 14.3898 153.422 13.8925 153.422 13.1434V9.78005H156.081V8.30044H156.084ZM169.969 8.11394C169.16 8.08907 168.404 8.50871 167.998 9.20499V8.30355H166.385V15.7451H168.013V11.5705C168.013 10.3396 168.544 9.65571 169.61 9.65571C169.957 9.6495 170.304 9.71477 170.629 9.84222L171.129 8.31598C170.757 8.18232 170.363 8.11394 169.969 8.11394ZM148.978 8.89104C148.056 8.34707 146.996 8.07663 145.925 8.11394C144.031 8.11394 142.809 9.01538 142.809 10.495C142.809 11.7104 143.715 12.4564 145.39 12.6895L146.156 12.7983C147.047 12.9227 147.472 13.1558 147.472 13.5754C147.472 14.1505 146.878 14.4769 145.765 14.4769C144.871 14.5017 143.993 14.2282 143.278 13.6998L142.512 14.9618C143.459 15.6208 144.596 15.9596 145.753 15.9285C147.912 15.9285 149.165 14.9152 149.165 13.5008C149.165 12.1922 148.178 11.5083 146.553 11.2752L145.787 11.1664C145.084 11.0732 144.518 10.9333 144.518 10.4359C144.518 9.89195 145.05 9.56557 145.943 9.56557C146.762 9.578 147.565 9.7987 148.275 10.2028L148.978 8.89104ZM192.589 8.11394C191.78 8.08907 191.024 8.50871 190.617 9.20499V8.30355H189.005V15.7451H190.633V11.5705C190.633 10.3396 191.164 9.65571 192.23 9.65571C192.577 9.6495 192.924 9.71477 193.249 9.84222L193.749 8.31598C193.374 8.18232 192.983 8.11394 192.589 8.11394ZM171.613 12.0212C171.613 14.2779 173.195 15.9285 175.604 15.9285C176.582 15.9782 177.542 15.6612 178.295 15.0395L177.514 13.7309C176.951 14.1567 176.264 14.3929 175.557 14.3992C174.257 14.3836 173.304 13.448 173.304 12.0181C173.304 10.5851 174.26 9.6526 175.557 9.63706C176.264 9.64639 176.951 9.87952 177.514 10.3054L178.295 8.99673C177.542 8.37815 176.579 8.06109 175.604 8.10772C173.195 8.11394 171.613 9.76451 171.613 12.0212ZM186.858 8.30044H185.23V9.20188C184.667 8.48073 183.786 8.07353 182.867 8.11083C180.77 8.11083 179.126 9.74586 179.126 12.0181C179.126 14.2904 180.77 15.9254 182.867 15.9254C183.786 15.9658 184.667 15.5586 185.23 14.8343V15.7358H186.858V8.30044ZM180.801 12.0212C180.801 10.7126 181.661 9.64017 183.07 9.64017C184.417 9.64017 185.323 10.6691 185.323 12.0212C185.323 13.3734 184.414 14.4023 183.07 14.4023C181.661 14.4023 180.801 13.3299 180.801 12.0212ZM161.157 8.11394C158.966 8.11394 157.431 9.70234 157.431 12.0212C157.431 14.3867 159.028 15.9285 161.266 15.9285C162.382 15.9689 163.475 15.5959 164.335 14.8841L163.538 13.6842C162.919 14.1785 162.153 14.452 161.363 14.4613C160.313 14.4613 159.36 13.9795 159.125 12.6398H164.682C164.697 12.4377 164.713 12.2357 164.713 12.0181C164.694 9.70234 163.254 8.11394 161.157 8.11394ZM161.125 9.55935C162.175 9.55935 162.847 10.2121 163.019 11.3653H159.138C159.31 10.2929 159.966 9.55935 161.125 9.55935ZM201.965 5.31014H200.337V9.20188C199.774 8.48073 198.893 8.07353 197.974 8.11083C195.877 8.11083 194.233 9.74586 194.233 12.0181C194.233 14.2904 195.877 15.9254 197.974 15.9254C198.893 15.9658 199.774 15.5586 200.337 14.8343V15.7358H201.965V5.31014ZM203.865 15.055C203.93 15.055 203.993 15.0675 204.052 15.0923C204.109 15.1172 204.162 15.1514 204.206 15.1949C204.249 15.2384 204.284 15.2882 204.309 15.3441C204.359 15.4622 204.359 15.5928 204.309 15.7109C204.284 15.7669 204.249 15.8166 204.206 15.8601C204.162 15.9036 204.109 15.9378 204.052 15.9627C203.993 15.9876 203.93 16 203.865 16C203.671 16.0031 203.493 15.8881 203.415 15.7109C203.365 15.5928 203.365 15.4622 203.415 15.3441C203.465 15.2291 203.555 15.139 203.671 15.0923C203.737 15.0675 203.799 15.055 203.865 15.055ZM203.865 15.8943C203.915 15.8943 203.962 15.885 204.009 15.8663C204.052 15.8477 204.093 15.8197 204.124 15.7886C204.268 15.6456 204.268 15.4125 204.124 15.2664C204.09 15.2322 204.052 15.2074 204.009 15.1887C203.965 15.1701 203.915 15.1607 203.865 15.1607C203.815 15.1607 203.765 15.1701 203.718 15.1887C203.53 15.2695 203.443 15.484 203.521 15.6736C203.54 15.7171 203.565 15.7544 203.599 15.7886C203.634 15.8228 203.674 15.8477 203.718 15.8663C203.768 15.885 203.815 15.8943 203.865 15.8943ZM203.893 15.3068C203.94 15.3037 203.987 15.3161 204.024 15.3441C204.056 15.369 204.071 15.4063 204.071 15.4467C204.071 15.4809 204.059 15.512 204.034 15.5368C204.006 15.5617 203.968 15.5773 203.931 15.5804L204.074 15.7451H203.962L203.827 15.5804H203.784V15.7451H203.69V15.3068H203.893ZM203.784 15.3876V15.5058H203.893C203.915 15.5058 203.934 15.5027 203.952 15.4902C203.968 15.4809 203.974 15.4622 203.974 15.4467C203.974 15.4281 203.968 15.4125 203.952 15.4032C203.934 15.3939 203.915 15.3876 203.893 15.3876H203.784ZM195.905 12.0212C195.905 10.7126 196.765 9.64017 198.174 9.64017C199.521 9.64017 200.427 10.6691 200.427 12.0212C200.427 13.3734 199.518 14.4023 198.174 14.4023C196.768 14.4023 195.905 13.3299 195.905 12.0212ZM140.934 8.30044H139.306V9.20188C138.743 8.48073 137.862 8.07353 136.943 8.11083C134.846 8.11083 133.202 9.74586 133.202 12.0181C133.202 14.2904 134.846 15.9254 136.943 15.9254C137.862 15.9658 138.743 15.5586 139.306 14.8343V15.7358H140.934V8.30044ZM134.877 12.0212C134.877 10.7126 135.737 9.64017 137.146 9.64017C138.493 9.64017 139.399 10.6691 139.399 12.0212C139.399 13.3734 138.493 14.4023 137.146 14.4023C135.737 14.4023 134.874 13.3299 134.877 12.0212Z" fill="#3F1F78"/>
<path d="M48.5103 57.3219V69.3859C48.5103 69.577 48.3622 69.7203 48.1647 69.7203H45.6219C45.4244 69.7203 45.2763 69.577 45.2763 69.3859V57.3219C45.2763 57.1308 45.4244 56.9875 45.6219 56.9875H48.1647C48.3622 57.0114 48.5103 57.1547 48.5103 57.3219ZM68.3588 57.0114H65.5198C65.3717 57.0114 65.2482 57.1069 65.1989 57.2502L62.9523 64.3931L60.4836 57.2502C60.4342 57.1069 60.3108 57.0352 60.1627 57.0352H58.163C58.0149 57.0352 57.8914 57.1308 57.8421 57.2502L55.3734 64.3931L53.1268 57.2502C53.0774 57.1069 52.954 57.0114 52.8059 57.0114H49.9669C49.8681 57.0114 49.7447 57.0591 49.6953 57.1547C49.6212 57.2502 49.6212 57.3458 49.6459 57.4414L53.8427 69.5292C53.8921 69.6726 54.0156 69.7442 54.1637 69.7442H56.4349C56.583 69.7442 56.7065 69.6487 56.7558 69.5292L59.1999 62.482L61.6439 69.5292C61.6933 69.6726 61.8167 69.7442 61.9648 69.7442H64.2361C64.3842 69.7442 64.5076 69.6487 64.557 69.5292L68.7538 57.4414C68.7785 57.3458 68.7785 57.2264 68.7044 57.1547C68.581 57.0591 68.4822 57.0114 68.3588 57.0114ZM72.6544 57.0114H70.1116C69.9141 57.0114 69.766 57.1547 69.766 57.3458V69.4098C69.766 69.6009 69.9141 69.7442 70.1116 69.7442H72.6544C72.8519 69.7442 73 69.6009 73 69.4098V57.3458C73 57.1547 72.8272 57.0114 72.6544 57.0114ZM43.8197 69.3142C43.9679 69.4814 43.8444 69.7203 43.6223 69.7203H40.5117C40.3882 69.7203 40.2648 69.6726 40.1907 69.577L39.6723 68.9559C38.5861 69.6248 37.3023 70.0309 35.9445 70.0309C32.1427 70.0309 29.0568 67.0448 29.0568 63.3658C29.0568 59.6869 32.1427 56.7008 35.9445 56.7008C39.7464 56.7008 42.8323 59.6869 42.8323 63.3658C42.8323 64.6797 42.4373 65.922 41.746 66.9731L43.8197 69.3142ZM37.6233 66.6386L36.2655 65.0381C36.1173 64.8709 36.2408 64.6081 36.463 64.6081H39.3267C39.4748 64.2259 39.5489 63.7958 39.5489 63.3658C39.5489 61.3831 38.0183 59.663 35.9198 59.663C33.8214 59.663 32.2908 61.3831 32.2908 63.3658C32.2908 65.3486 33.8214 67.0448 35.9198 67.0448C36.537 67.0687 37.1048 66.9014 37.6233 66.6386ZM21.1816 69.2664C21.2557 69.7681 21.0829 69.9831 20.9347 69.9831C20.7619 69.9831 20.5397 69.7681 20.2682 69.3859C19.9966 68.9798 19.8979 68.5259 20.046 68.3109C20.1201 68.1675 20.3176 68.0959 20.5397 68.1675C20.9594 68.3109 21.1322 68.9559 21.1816 69.2664ZM18.7376 70.3415C19.256 70.7715 19.4288 71.297 19.1573 71.6553C19.0091 71.8465 18.7623 71.9659 18.4413 71.9659C18.1451 71.9659 17.8488 71.8704 17.6266 71.6792C17.1576 71.2731 17.0095 70.6042 17.3304 70.2459C17.4538 70.1026 17.6513 70.0309 17.8982 70.0309C18.1698 70.0309 18.466 70.1503 18.7376 70.3415ZM17.8488 74.522C20.1201 74.522 22.5888 75.2865 25.3291 77.6276C25.6006 77.8665 25.9709 77.5798 25.724 77.2693C23.0331 73.9965 20.5644 73.3754 18.0957 72.8498C15.0592 72.2048 13.5039 70.5565 12.4177 68.7409C12.1955 68.3825 12.0967 68.4542 12.0967 68.9081C12.072 69.4814 12.1214 70.222 12.2448 70.9626C12.1214 70.9626 11.998 70.9626 11.8745 70.9626C7.55428 70.9626 4.02401 67.5703 4.02401 63.3658C4.02401 59.1853 7.52959 55.7691 11.8745 55.7691C16.2195 55.7691 19.7251 59.1614 19.7251 63.3658C19.7251 63.6525 19.7004 63.9631 19.6757 64.2497C19.1079 64.1542 17.9723 64.1303 17.1823 64.202C16.886 64.2259 16.9354 64.3692 17.1576 64.3931C19.7497 64.847 21.5272 66.3998 21.9469 69.2187C21.9469 69.2903 22.0457 69.3142 22.0703 69.2426C23.1319 67.5225 23.7491 65.5159 23.7491 63.342C23.7491 57.0114 18.4413 51.8513 11.8745 51.8513C5.30774 51.8513 0 56.9875 0 63.342C0 69.6726 5.30774 74.8326 11.8745 74.8326C13.6026 74.8565 15.3307 74.522 17.8488 74.522Z" fill="#3F1F78"/>
<path d="M195.081 58.6604L192.79 64.1386C192.79 64.2138 192.708 64.289 192.708 64.3696L192.626 64.52L192.545 64.3696C192.545 64.2944 192.468 64.2192 192.468 64.1386L190.177 58.6604H187.171L191.121 68.0916L189.462 71.6685H192.468L198 58.6604H195.081Z" fill="#3F1F78"/>
<path d="M172.949 59.1974C172.398 58.8161 171.765 58.5905 170.974 58.5153C169.632 58.365 168.367 58.8215 167.576 59.7345V58.6711H164.892V68.1023H167.576V63.1557C167.576 62.0171 167.81 61.7862 167.974 61.48C168.29 60.9483 168.923 60.6422 169.632 60.7174C170.341 60.7174 171.056 61.0235 171.373 61.5552C171.607 61.9366 171.607 62.3931 171.607 62.6939C171.607 63.5317 171.607 68.0969 171.607 68.0969H174.297V62.3931C174.291 60.8678 173.822 59.8795 172.949 59.1974Z" fill="#3F1F78"/>
<path d="M159.753 58.7409C158.411 58.2844 156.987 58.3596 155.645 58.9719C154.696 59.3532 153.986 60.0353 153.43 60.8731C152.955 61.6358 152.721 62.4683 152.721 63.4619C152.721 64.4501 152.955 65.288 153.43 66.0506C153.905 66.8133 154.537 67.345 155.328 67.8015C156.119 68.1829 157.069 68.4084 157.936 68.4084C158.411 68.4084 158.885 68.3332 159.36 68.2581C159.753 68.1829 160.151 68.0325 160.544 67.8015C161.335 67.345 161.968 66.8133 162.442 66.1258C162.917 65.3632 163.151 64.5307 163.151 63.5371C163.07 61.2491 161.804 59.4982 159.753 58.7409ZM160.462 63.4565C160.462 64.2944 160.145 64.9765 159.594 65.433C159.202 65.8143 158.645 65.9647 157.854 65.9647C157.145 65.9647 156.589 65.7338 156.114 65.433C155.563 64.9765 155.323 64.2944 155.247 63.4565C155.247 62.5435 155.563 61.7056 156.272 61.1739C156.665 60.8678 157.14 60.7174 157.772 60.7174C158.405 60.7174 158.88 60.8678 159.273 61.1739C160.145 61.7056 160.544 62.5435 160.462 63.4565Z" fill="#3F1F78"/>
<path d="M149.633 59.1974C149.158 58.8161 148.449 58.5905 147.658 58.5153C147.5 58.5153 147.342 58.5153 147.184 58.5153C146.076 58.5153 145.209 58.9719 144.418 59.8849L144.26 60.0353H143.943C143.709 59.7291 143.469 59.4284 143.152 59.2726C142.678 58.8161 142.045 58.5905 141.254 58.51C139.988 58.3596 138.962 58.7409 138.095 59.6486V58.6604H135.406V68.0916H138.095V63.0698C138.095 62.0064 138.253 61.7754 138.411 61.4747C138.728 60.943 139.361 60.6368 139.993 60.6368C140.626 60.6368 141.259 60.943 141.576 61.4747C141.81 61.856 141.81 62.3125 141.81 62.769V68.0164H144.576V62.9946C144.576 62.0816 144.734 61.7002 144.892 61.3995C145.209 60.8678 145.842 60.6368 146.474 60.6368C147.107 60.6368 147.658 61.0182 147.975 61.4747C148.133 61.7808 148.209 62.1568 148.209 62.4629C148.209 62.6133 148.209 62.6885 148.209 62.8442V68.0916H150.899V62.3877C150.899 61.856 150.822 61.3995 150.74 60.943C150.582 60.1857 150.19 59.5734 149.633 59.1974Z" fill="#3F1F78"/>
<path d="M184.487 65.2074C184.094 65.5887 183.145 66.2708 181.879 66.346C180.854 66.346 179.981 66.1204 179.43 65.5082C179.195 65.202 178.955 64.9013 178.879 64.5199H186.386V64.4447C186.462 64.0634 186.462 63.6821 186.462 63.3813C186.462 63.0752 186.386 62.6187 186.227 62.0117C185.911 60.9483 185.278 60.1105 184.411 59.423C183.462 58.7409 182.512 58.51 182.278 58.51C180.303 58.2038 178.088 59.0417 176.981 60.7926C176.19 62.0117 176.19 63.2256 176.271 63.6069C176.271 64.0634 176.353 65.5082 177.537 66.7273C178.879 68.1721 180.859 68.2473 181.487 68.3225C184.176 68.3977 185.993 66.8025 186.386 66.4212L184.487 65.2074ZM179.828 61.2491C180.221 60.943 180.696 60.7926 181.328 60.7926C181.961 60.7926 182.436 60.943 182.829 61.2491C183.221 61.5552 183.538 61.9312 183.696 62.4683H178.874C179.114 61.9366 179.43 61.5552 179.828 61.2491Z" fill="#3F1F78"/>
<path d="M116.759 52.5C110.671 52.5 105.854 57.2156 105.854 63C105.854 68.7844 110.753 73.5 116.759 73.5C122.766 73.5 127.664 68.7844 127.664 63C127.746 57.2156 122.766 52.5 116.759 52.5ZM116.759 66.8778C114.544 66.8778 112.651 65.1269 112.651 63C112.651 60.8678 114.468 59.1223 116.759 59.1223C119.05 59.1223 120.867 60.8731 120.867 63C120.791 65.1269 119.05 66.8778 116.759 66.8778Z" fill="#3F1F78"/>
<path d="M105.854 55.6204V70.9112H101.981L97 55.6204H105.854Z" fill="#3F1F78"/>
<path d="M88.6653 105.5C90.4887 105.5 92.2234 105.916 93.7803 106.662C94.0246 106.772 94.2701 106.903 94.5132 107.035L93.446 107.978L91.8458 106.333L89.0884 108.745L87.4648 107.013L82.3941 111.507L85.6402 115.036L84.3731 116.132L87.5759 119.661L86.3088 120.756L90.8908 125.776L93.6027 123.32L95.9615 125.952C95.4939 126.303 94.982 126.655 94.4267 126.96C92.7365 127.903 90.7786 128.45 88.6886 128.45C82.2609 128.45 77.0348 123.3 77.0348 116.964C77.0114 110.674 82.2387 105.5 88.6653 105.5ZM86.5297 116.263L89.3093 113.808L91.8002 116.548L89.0194 119.003L86.5297 116.263ZM88.5098 120.999L91.2672 118.522L93.7803 121.262L90.9995 123.718L88.5098 120.999ZM84.5519 111.594L87.3316 109.139L89.8225 111.879L87.0417 114.334L84.5519 111.594ZM89.6436 110.279L91.7126 108.437L93.5816 110.476L91.5127 112.339L89.6436 110.279ZM93.3362 118.719L95.4039 116.878L97.273 118.938L95.204 120.781L93.3362 118.719ZM95.1596 122.862L97.2286 121.021L99.0953 123.059L97.0275 124.922L95.1596 122.862ZM96.0047 113.392L97.3829 112.164L98.6277 113.524L97.2496 114.752L96.0047 113.392ZM94.2257 109.337L95.605 108.087L96.851 109.469L95.4717 110.696L94.2257 109.337ZM97.7616 117.448L99.1397 116.22L100.408 117.579L99.0076 118.807L97.7616 117.448ZM91.5571 114.401L93.626 112.559L95.4939 114.598L93.4262 116.439L91.5571 114.401Z" fill="#3F1F78"/>
<path d="M6.10046 113.407H5.99526L4.02567 120.865H2.4161L0 110.269H1.67035L3.3407 118.175H3.44473L5.38392 110.269H6.71179L8.78424 118.175H8.88944L10.4102 110.269H12.1565L9.73922 120.865H8.12849L6.10046 113.407Z" fill="#3F1F78"/>
<path d="M14.2745 116.354H17.6889C17.6152 114.786 16.8543 114.159 16.0489 114.159C15.1395 114.159 14.4382 114.86 14.2745 116.354ZM18.8823 119.164V120.301C18.2114 120.689 17.3172 120.988 16.243 120.988C13.738 120.988 12.7094 119.434 12.7094 117.073C12.7094 114.801 13.8572 113.157 16.0945 113.157C17.9589 113.157 19.1079 114.368 19.1079 116.804V117.358H14.2453C14.2453 119.15 14.9759 119.943 16.513 119.943C17.3172 119.941 18.0629 119.656 18.8823 119.164Z" fill="#3F1F78"/>
<path d="M22.576 119.789C23.0529 119.998 23.5754 120.029 23.9495 120.029C25.0529 120.029 25.8875 119.34 25.8875 116.921C25.8875 115.022 25.2014 114.41 24.2031 114.41C23.6058 114.41 23.1733 114.576 22.5772 114.903V119.789H22.576ZM22.5924 113.797C23.0389 113.559 23.7987 113.244 24.6052 113.244C26.4544 113.244 27.4538 114.529 27.4538 116.921C27.4538 119.716 26.1108 121.076 23.9495 121.076C23.1581 121.076 21.9355 120.822 21.0401 120.343V109.911L22.5924 109.538V113.797Z" fill="#3F1F78"/>
<path d="M34.1668 118.617H34.2416L37.4326 110.262H39.283V120.859H37.6723V113.177H37.5378L34.494 120.859H33.5402L30.4976 113.357H30.3632V120.859H29.0213V110.262H30.8261L34.1668 118.617Z" fill="#3F1F78"/>
<path d="M45.8639 117.072C45.8639 115.055 45.0445 114.203 44.0299 114.203C43.0457 114.203 42.1947 115.055 42.1947 117.072C42.1947 119.12 42.9709 119.942 44.0299 119.942C45.0877 119.941 45.8639 119.12 45.8639 117.072ZM40.6296 117.072C40.6296 114.456 42.0615 113.156 44.0299 113.156C45.9995 113.156 47.4302 114.456 47.4302 117.072C47.4302 119.627 46.0731 120.988 44.0299 120.988C41.9867 120.988 40.6296 119.627 40.6296 117.072Z" fill="#3F1F78"/>
<path d="M48.6108 114.262C49.2817 113.858 50.6996 113.155 52.4144 113.155C54.2039 113.155 54.8737 113.858 54.8737 115.396V120.808H53.3238V115.741C53.3238 114.561 52.7428 114.352 51.9819 114.352C51.3857 114.352 50.6248 114.621 50.1619 114.89V120.809H48.6108V114.262Z" fill="#3F1F78"/>
<path d="M58.156 116.354H61.5715C61.4978 114.786 60.7369 114.159 59.9315 114.159C59.0209 114.159 58.3208 114.86 58.156 116.354ZM62.7649 119.164V120.301C62.094 120.689 61.1998 120.988 60.1256 120.988C57.6218 120.988 56.592 119.434 56.592 117.073C56.592 114.801 57.7398 113.157 59.9771 113.157C61.8427 113.157 62.9905 114.368 62.9905 116.804V117.358H58.1279C58.1279 119.15 58.8585 119.943 60.3956 119.943C61.1986 119.941 61.9455 119.656 62.7649 119.164Z" fill="#3F1F78"/>
<path d="M69.1845 113.156H70.7812L68.0811 120.628C67.3341 122.691 66.4259 123.767 64.7111 123.767V122.542C65.7257 122.542 66.3511 121.734 66.71 120.628L63.8462 113.156H65.4873L67.3961 118.656H67.4861L69.1845 113.156Z" fill="#3F1F78"/>
<path d="M16.1097 127.753V127.107C16.6626 127.387 17.1886 127.528 17.6877 127.528C18.1026 127.528 18.4217 127.452 18.6438 127.298C18.8659 127.146 18.9781 126.941 18.9781 126.679C18.9781 126.42 18.887 126.224 18.7034 126.094C18.5211 125.965 18.1798 125.804 17.6807 125.614C17.5077 125.549 17.3966 125.507 17.3475 125.487C17.2984 125.467 17.2026 125.427 17.0588 125.367C16.9162 125.308 16.8215 125.262 16.7771 125.232C16.7327 125.202 16.6579 125.156 16.5515 125.097C16.4451 125.036 16.3738 124.983 16.3364 124.936C16.3002 124.888 16.2488 124.828 16.1845 124.755C16.1202 124.683 16.0769 124.612 16.0547 124.538C16.0325 124.466 16.0115 124.382 15.9916 124.287C15.9717 124.191 15.9624 124.089 15.9624 123.979C15.9624 123.554 16.119 123.212 16.4323 122.952C16.7467 122.692 17.1792 122.563 17.7333 122.563C18.2219 122.563 18.7093 122.653 19.1932 122.833V123.515C18.7245 123.284 18.2546 123.17 17.7859 123.17C17.4551 123.17 17.2084 123.239 17.0448 123.379C16.8823 123.519 16.8005 123.704 16.8005 123.934C16.8005 124.178 16.8823 124.365 17.0448 124.492C17.2073 124.62 17.4995 124.761 17.9191 124.916C18.6403 125.181 19.1371 125.421 19.4083 125.636C19.6806 125.851 19.8162 126.171 19.8162 126.596C19.8162 127.041 19.6292 127.406 19.2563 127.688C18.8835 127.97 18.3715 128.112 17.7192 128.112C17.1196 128.113 16.5842 127.993 16.1097 127.753ZM23.649 128H22.9454L22.8939 127.565C22.4685 127.916 22.0441 128.091 21.6198 128.091C21.2645 128.091 20.9886 127.995 20.7934 127.802C20.5982 127.61 20.5 127.366 20.5 127.07C20.5 126.915 20.5281 126.767 20.5854 126.624C20.6426 126.481 20.7362 126.343 20.8671 126.207C20.998 126.072 21.1955 125.964 21.4597 125.881C21.7239 125.798 22.0418 125.758 22.4123 125.758H22.8717V125.555C22.8717 125.22 22.8098 124.992 22.6859 124.868C22.562 124.746 22.3551 124.684 22.0628 124.684C21.7075 124.684 21.2703 124.831 20.7513 125.127V124.527C21.2844 124.282 21.808 124.159 22.3223 124.159C22.8215 124.159 23.1674 124.261 23.3591 124.467C23.552 124.671 23.6479 124.983 23.6479 125.396V128H23.649ZM22.8787 126.282H22.486C21.6759 126.282 21.2703 126.524 21.2703 127.01C21.2703 127.181 21.3241 127.303 21.4328 127.381C21.5415 127.459 21.6771 127.498 21.8408 127.498C22.0477 127.498 22.2475 127.448 22.4404 127.347C22.6333 127.248 22.7794 127.133 22.8776 127.002V126.282H22.8787ZM24.853 129.5V124.707C25.0704 124.542 25.3264 124.409 25.6233 124.309C25.9202 124.21 26.2113 124.159 26.4976 124.159C27.5251 124.159 28.0382 124.787 28.0382 126.042C28.0382 126.692 27.905 127.19 27.6385 127.534C27.372 127.879 26.9897 128.051 26.4894 128.051C26.1435 128.051 25.8547 127.964 25.6221 127.79V129.5H24.853ZM25.6163 124.962V127.235C25.7156 127.33 25.8395 127.401 25.9903 127.449C26.1411 127.497 26.2732 127.52 26.3866 127.52C26.6578 127.52 26.8717 127.414 27.0271 127.202C27.1826 126.988 27.2598 126.603 27.2598 126.043C27.2598 125.589 27.1803 125.254 27.019 125.045C26.8588 124.835 26.6496 124.73 26.3924 124.73C26.1025 124.73 25.8442 124.807 25.6163 124.962ZM29.8068 124.197V127.999H29.0365V124.383L29.8068 124.197ZM28.9172 123.094C28.9172 122.959 28.9675 122.841 29.0692 122.738C29.1709 122.635 29.2878 122.584 29.421 122.584C29.5543 122.584 29.6723 122.635 29.774 122.738C29.8757 122.84 29.926 122.959 29.926 123.094C29.926 123.23 29.8757 123.348 29.774 123.451C29.6723 123.552 29.5555 123.604 29.421 123.604C29.2878 123.604 29.1709 123.552 29.0692 123.451C28.9675 123.348 28.9172 123.23 28.9172 123.094ZM32.6928 127.564C33.0481 127.564 33.4409 127.434 33.871 127.175V127.745C33.4759 127.976 33.0388 128.09 32.5595 128.09C31.9564 128.09 31.5134 127.917 31.2293 127.572C30.9453 127.227 30.8027 126.745 30.8027 126.125C30.8027 125.534 30.9488 125.058 31.2398 124.7C31.5321 124.34 31.9458 124.16 32.4847 124.16C32.9593 124.16 33.3263 124.315 33.5893 124.626C33.8511 124.936 33.9821 125.39 33.9821 125.991V126.268H31.5671C31.5671 126.713 31.6583 127.041 31.8406 127.249C32.023 127.46 32.307 127.564 32.6928 127.564ZM32.4625 124.662C32.2311 124.662 32.0359 124.754 31.8769 124.939C31.7191 125.125 31.6197 125.4 31.5812 125.765H33.2784C33.2585 125.395 33.172 125.119 33.0189 124.937C32.8658 124.753 32.6799 124.662 32.4625 124.662ZM34.9628 124.716C35.5706 124.345 36.2006 124.16 36.8529 124.16C37.2924 124.16 37.6056 124.251 37.7938 124.43C37.982 124.611 38.0755 124.895 38.0755 125.284V128H37.3052V125.458C37.3052 125.183 37.2479 124.998 37.1346 124.903C37.0212 124.808 36.8552 124.761 36.6378 124.761C36.3421 124.761 36.0405 124.852 35.7342 125.031V128.001H34.9628V124.716ZM40.0124 124.34H41.1836L40.9978 124.851H40.0124V126.831C40.0124 127.331 40.2251 127.582 40.6494 127.582C40.8119 127.582 40.9779 127.547 41.1462 127.477V127.957C40.9136 128.047 40.6366 128.092 40.3163 128.092C39.9458 128.092 39.6746 127.986 39.5016 127.773C39.3286 127.561 39.2421 127.282 39.2421 126.936V123.846L40.0124 123.283V124.34ZM42.6915 124.197V127.999H41.9212V124.383L42.6915 124.197ZM41.8031 123.094C41.8031 122.959 41.8534 122.841 41.9539 122.738C42.0556 122.635 42.1725 122.584 42.3058 122.584C42.439 122.584 42.5571 122.635 42.6576 122.738C42.7593 122.84 42.8095 122.959 42.8095 123.094C42.8095 123.23 42.7593 123.348 42.6576 123.451C42.5571 123.552 42.439 123.604 42.3058 123.604C42.1725 123.604 42.0544 123.552 41.9539 123.451C41.8534 123.348 41.8031 123.23 41.8031 123.094ZM47.9375 124.459V125.058C47.5669 124.809 47.1917 124.684 46.8118 124.684C46.619 124.684 46.4612 124.721 46.3373 124.797C46.2145 124.872 46.1526 124.992 46.1526 125.156C46.1526 125.312 46.2204 125.436 46.356 125.528C46.4916 125.621 46.7055 125.714 46.9977 125.809C47.1602 125.864 47.2829 125.907 47.3636 125.937C47.4454 125.967 47.5529 126.017 47.6862 126.087C47.8194 126.157 47.92 126.227 47.9866 126.297C48.0532 126.367 48.114 126.459 48.1678 126.575C48.2215 126.69 48.2484 126.817 48.2484 126.957C48.2484 127.302 48.1117 127.577 47.8381 127.782C47.5634 127.987 47.1964 128.09 46.7382 128.09C46.2239 128.09 45.7972 127.98 45.4559 127.759V127.174C45.8908 127.434 46.2882 127.563 46.6494 127.563C47.1917 127.563 47.4641 127.383 47.4641 127.023C47.4641 126.953 47.4477 126.888 47.4162 126.829C47.3846 126.769 47.3472 126.72 47.3051 126.682C47.263 126.645 47.1952 126.603 47.1006 126.554C47.007 126.507 46.9276 126.472 46.8633 126.45C46.799 126.428 46.6985 126.392 46.5594 126.341C46.3571 126.267 46.1958 126.202 46.0778 126.147C45.9585 126.091 45.8405 126.021 45.7224 125.934C45.6032 125.846 45.5167 125.741 45.4629 125.622C45.4092 125.502 45.3811 125.36 45.3811 125.195C45.3811 124.985 45.4302 124.805 45.5296 124.655C45.6278 124.504 45.7575 124.396 45.9153 124.332C46.0731 124.267 46.218 124.221 46.349 124.197C46.4799 124.171 46.6096 124.159 46.7382 124.159C47.1578 124.159 47.5576 124.259 47.9375 124.459ZM52.031 128H51.3273L51.2747 127.565C50.8492 127.916 50.4249 128.091 50.0006 128.091C49.6452 128.091 49.3694 127.995 49.1742 127.802C48.979 127.61 48.882 127.366 48.882 127.07C48.882 126.915 48.91 126.767 48.9673 126.624C49.0246 126.481 49.1181 126.343 49.249 126.207C49.3799 126.072 49.5774 125.964 49.8416 125.881C50.1058 125.798 50.4237 125.758 50.7931 125.758H51.2525V125.555C51.2525 125.22 51.1905 124.992 51.0678 124.868C50.9439 124.746 50.7358 124.684 50.4448 124.684C50.0883 124.684 49.6511 124.831 49.1333 125.127V124.527C49.6674 124.282 50.1899 124.159 50.7043 124.159C51.2034 124.159 51.5482 124.261 51.7411 124.467C51.9339 124.671 52.0298 124.983 52.0298 125.396V128H52.031ZM51.2618 126.282H50.8691C50.059 126.282 49.6534 126.524 49.6534 127.01C49.6534 127.181 49.7084 127.303 49.8159 127.381C49.9246 127.459 50.0602 127.498 50.2238 127.498C50.4307 127.498 50.6306 127.448 50.8235 127.347C51.0164 127.248 51.1625 127.133 51.2607 127.002V126.282H51.2618ZM55.139 124.34L54.9532 124.851H53.9678V126.831C53.9678 127.331 54.1805 127.582 54.6049 127.582C54.7685 127.582 54.9333 127.547 55.1016 127.477V127.957C54.869 128.047 54.5932 128.092 54.2706 128.092C53.9012 128.092 53.6288 127.986 53.4558 127.773C53.2828 127.561 53.1963 127.282 53.1963 126.936V123.846L53.9678 123.283V124.34H55.139Z" fill="#3F1F78"/>
<path d="M139.932 131.498C138.166 131.498 136.401 131.492 134.635 131.5C132.774 131.508 131.382 130.708 130.454 129.115C128.663 126.038 126.88 122.956 125.093 119.878C124.175 118.297 124.184 116.707 125.093 115.132C126.881 112.034 128.677 108.941 130.483 105.854C131.393 104.297 132.771 103.509 134.583 103.506C138.185 103.5 141.787 103.496 145.389 103.507C147.156 103.512 148.527 104.273 149.418 105.788C151.277 108.946 153.125 112.11 154.936 115.295C155.804 116.823 155.721 118.384 154.841 119.903C153.107 122.892 151.372 125.878 149.642 128.868C149.273 129.505 148.857 130.098 148.263 130.553C147.43 131.191 146.491 131.501 145.44 131.498C143.604 131.493 141.769 131.497 139.933 131.497L139.932 131.498ZM137.917 119.03C139.428 119.036 140.94 119.06 142.451 119.038C142.895 119.032 143.008 119.17 142.99 119.592C142.961 120.245 142.998 120.903 143.006 121.559C142.998 122.685 142.994 123.812 142.978 124.937C142.973 125.193 143.086 125.268 143.321 125.267C144.314 125.262 145.308 125.261 146.301 125.268C146.546 125.271 146.637 125.185 146.635 124.935C146.62 123.324 146.618 121.713 146.612 120.101C146.611 118.774 146.609 117.446 146.608 116.119C146.61 115.722 146.612 115.325 146.614 114.928C146.619 113.278 146.616 111.627 146.638 109.977C146.643 109.647 146.498 109.618 146.233 109.621C145.289 109.632 144.346 109.643 143.403 109.617C143.038 109.607 142.973 109.739 142.977 110.064C142.991 111.732 142.973 113.4 142.99 115.067C142.994 115.447 142.936 115.608 142.49 115.6C140.814 115.57 139.136 115.574 137.459 115.598C137.06 115.604 136.967 115.495 136.973 115.108C136.995 113.424 136.982 111.738 136.982 110.053C136.982 109.836 137.051 109.608 136.669 109.617C135.674 109.64 134.678 109.63 133.681 109.621C133.449 109.619 133.331 109.67 133.335 109.937C133.353 111.169 133.355 112.402 133.363 113.635C133.324 114.816 133.298 115.998 133.377 117.179C133.366 117.23 133.345 117.28 133.345 117.332C133.341 119.85 133.342 122.369 133.333 124.887C133.332 125.191 133.46 125.274 133.741 125.271C134.667 125.26 135.593 125.252 136.518 125.275C136.881 125.284 136.994 125.179 136.989 124.81C136.971 123.212 136.981 121.613 136.981 120.015C136.981 119.394 137.293 119.066 137.915 119.031L137.917 119.03Z" fill="#3F1F78"/>
<path d="M176.865 117.484C176.865 119.606 176.855 121.727 176.873 123.849C176.876 124.214 176.782 124.32 176.413 124.306C175.645 124.276 174.874 124.279 174.106 124.305C173.778 124.315 173.697 124.217 173.7 123.898C173.717 122.368 173.698 120.837 173.715 119.307C173.718 118.976 173.644 118.857 173.287 118.863C171.818 118.882 170.348 118.883 168.88 118.863C168.517 118.857 168.45 118.982 168.453 119.308C168.469 120.822 168.448 122.335 168.469 123.847C168.474 124.216 168.367 124.318 168.003 124.306C167.217 124.278 166.429 124.288 165.642 124.302C165.373 124.308 165.282 124.237 165.282 123.956C165.29 119.625 165.289 115.295 165.283 110.964C165.283 110.696 165.362 110.601 165.64 110.606C166.462 110.622 167.284 110.627 168.106 110.604C168.436 110.595 168.467 110.74 168.465 111.007C168.456 112.468 168.469 113.929 168.453 115.39C168.45 115.715 168.514 115.835 168.874 115.83C170.343 115.808 171.813 115.81 173.282 115.829C173.624 115.833 173.72 115.741 173.716 115.399C173.696 113.955 173.72 112.512 173.699 111.069C173.694 110.708 173.785 110.589 174.16 110.605C174.911 110.634 175.665 110.635 176.415 110.605C176.792 110.589 176.875 110.712 176.872 111.07C176.855 113.209 176.864 115.348 176.864 117.487L176.865 117.484Z" fill="#3F1F78"/>
<path d="M183.978 124.527C181.111 124.524 178.853 122.228 178.851 119.314C178.849 116.412 181.112 114.106 183.979 114.09C186.801 114.074 189.122 116.431 189.127 119.317C189.133 122.204 186.835 124.529 183.979 124.527H183.978ZM184.028 116.819C183.254 116.816 182.692 117.113 182.272 117.68C181.61 118.575 181.634 120.125 182.318 121C183.023 121.901 184.376 122.077 185.261 121.385C186.35 120.533 186.492 118.515 185.543 117.501C185.115 117.042 184.599 116.806 184.028 116.82V116.819Z" fill="#3F1F78"/>
<path d="M191.749 119.308C191.749 118.682 191.738 118.056 191.754 117.431C191.76 117.158 191.712 117.02 191.389 117.025C191.012 117.029 190.511 117.203 190.285 116.94C190.051 116.666 190.232 116.173 190.21 115.778C190.208 115.743 190.21 115.708 190.21 115.673C190.216 115.326 190.108 114.915 190.26 114.651C190.422 114.37 190.87 114.58 191.189 114.525C191.836 114.415 192.133 114.107 192.182 113.449C192.188 113.38 192.182 113.31 192.188 113.24C192.224 112.813 191.993 112.244 192.284 111.997C192.53 111.788 193.084 111.935 193.502 111.933C194.3 111.931 194.699 112.321 194.699 113.103C194.699 113.914 195.102 114.319 195.909 114.319C196.495 114.319 196.788 114.61 196.788 115.192C196.788 115.696 196.777 116.201 196.792 116.705C196.799 116.952 196.718 117.045 196.465 117.038C195.975 117.024 195.485 117.043 194.996 117.03C194.771 117.024 194.693 117.095 194.696 117.323C194.708 118.367 194.68 119.411 194.715 120.453C194.743 121.304 195.309 121.775 196.25 121.667C196.782 121.606 196.817 121.799 196.795 122.212C196.767 122.732 196.764 123.256 196.797 123.776C196.819 124.133 196.675 124.245 196.347 124.319C194.679 124.695 193.049 124.163 192.291 122.965C191.938 122.406 191.789 121.784 191.768 121.134C191.748 120.526 191.764 119.917 191.764 119.308C191.759 119.308 191.755 119.308 191.751 119.308H191.749Z" fill="#3F1F78"/>
<path d="M204.958 124.406C203.331 124.409 202.09 124.017 201.152 122.906C200.641 122.302 200.411 121.581 200.289 120.815C200.254 120.598 200.302 120.515 200.546 120.5C201.303 120.453 201.301 120.441 201.522 121.167C202.157 123.263 204.139 123.798 206.106 123.239C207.563 122.825 208.333 121.362 207.942 119.907C207.771 119.269 207.32 118.872 206.793 118.548C206.014 118.069 205.137 117.827 204.262 117.59C203.433 117.366 202.643 117.06 201.907 116.61C199.967 115.423 200.179 112.815 201.549 111.629C203.706 109.759 207.598 110.18 208.69 113.226C208.724 113.323 208.756 113.423 208.781 113.523C208.988 114.346 208.956 114.362 208.113 114.332C207.787 114.321 207.81 114.123 207.77 113.93C207.521 112.737 206.841 111.893 205.638 111.613C204.348 111.314 203.125 111.497 202.168 112.522C201.255 113.503 201.43 114.979 202.528 115.74C203.391 116.338 204.399 116.573 205.388 116.851C206.215 117.083 207.002 117.393 207.726 117.863C209.833 119.232 209.344 122.343 207.831 123.453C206.905 124.133 205.876 124.425 204.958 124.405V124.406Z" fill="#3F1F78"/>
<path d="M219.234 114.808C217.857 116.245 216.539 117.635 215.202 119.006C214.965 119.247 214.96 119.366 215.2 119.61C216.615 121.055 218.01 122.518 219.41 123.978C219.478 124.048 219.587 124.097 219.576 124.268C218.946 124.321 218.403 124.371 217.879 123.777C216.67 122.405 215.362 121.119 214.089 119.805C213.963 119.674 213.863 119.5 213.615 119.43C213.615 120.908 213.619 122.361 213.61 123.815C213.61 123.972 213.716 124.221 213.508 124.273C213.263 124.336 212.984 124.314 212.728 124.276C212.585 124.255 212.637 124.073 212.637 123.96C212.635 119.629 212.641 115.297 212.626 110.966C212.625 110.522 212.891 110.623 213.138 110.612C213.411 110.601 213.629 110.574 213.625 110.993C213.605 113.549 213.615 116.107 213.615 118.663V119.244C214.143 118.826 214.51 118.368 214.914 117.948C215.737 117.095 216.56 116.241 217.377 115.383C218.065 114.66 218.06 114.657 219.234 114.812V114.808Z" fill="#3F1F78"/>
<path d="M228.816 116.177C230.333 114.624 231.914 114.235 233.548 114.969C234.901 115.577 235.625 116.669 235.738 118.096C235.894 120.054 235.765 122.023 235.799 123.986C235.807 124.463 235.466 124.268 235.25 124.294C235.005 124.323 234.787 124.343 234.792 123.948C234.813 122.175 234.823 120.402 234.794 118.63C234.774 117.386 234.232 116.417 233.061 115.888C231.921 115.375 230.836 115.554 229.871 116.314C229.145 116.886 228.813 117.677 228.809 118.596C228.805 120.352 228.795 122.108 228.819 123.863C228.824 124.257 228.682 124.331 228.339 124.305C228.048 124.282 227.778 124.371 227.783 123.883C227.807 120.979 227.794 118.077 227.796 115.174C227.796 114.982 227.718 114.749 228.072 114.742C228.362 114.735 228.52 114.796 228.566 115.11C228.615 115.45 228.72 115.781 228.816 116.178V116.177Z" fill="#3F1F78"/>
<path d="M242.818 124.404C240.997 124.386 239.706 123.461 239.365 121.977C239.327 121.814 239.133 121.506 239.488 121.497C239.765 121.491 240.149 121.257 240.335 121.732C240.954 123.319 242.651 123.94 244.119 123.118C244.743 122.768 245.098 122.236 245.078 121.505C245.059 120.789 244.574 120.436 243.98 120.19C243.365 119.934 242.709 119.825 242.063 119.682C241.654 119.592 241.26 119.461 240.874 119.296C239.101 118.543 239.267 116.609 240.074 115.689C240.958 114.681 242.154 114.477 243.379 114.701C244.57 114.918 245.494 115.59 245.848 116.833C245.897 117.008 246.086 117.297 245.78 117.332C245.502 117.362 245.068 117.583 244.912 117.139C244.37 115.59 242.891 115.438 241.787 115.722C240.852 115.964 240.318 116.815 240.555 117.645C240.689 118.118 241.067 118.331 241.469 118.506C242.112 118.786 242.806 118.893 243.487 119.04C243.949 119.14 244.401 119.278 244.816 119.501C245.614 119.93 246.069 120.577 246.063 121.512C246.056 122.557 245.584 123.341 244.717 123.895C244.113 124.283 243.436 124.432 242.82 124.402L242.818 124.404Z" fill="#3F1F78"/>
<path d="M223.447 119.513C223.447 120.971 223.428 122.429 223.458 123.886C223.467 124.315 223.261 124.315 222.956 124.303C222.675 124.293 222.429 124.36 222.433 123.902C222.455 120.988 222.454 118.072 222.433 115.157C222.43 114.722 222.64 114.733 222.94 114.747C223.211 114.758 223.471 114.676 223.461 115.141C223.427 116.597 223.448 118.055 223.448 119.513H223.447Z" fill="#3F1F78"/>
<path d="M223.018 110.926C223.427 110.934 223.771 111.292 223.768 111.708C223.765 112.135 223.434 112.463 223.004 112.465C222.549 112.468 222.205 112.117 222.224 111.671C222.242 111.261 222.608 110.917 223.018 110.926Z" fill="#3F1F78"/>
</svg>
