<svg width="648" height="30" viewBox="0 0 648 30" fill="none" xmlns="http://www.w3.org/2000/svg">
<path fill-rule="evenodd" clip-rule="evenodd" d="M28.8916 11.6839C28.8916 12.3927 29.7274 12.8483 31.0867 13.5402C33.324 14.6118 34.3624 15.9196 34.354 17.6325C34.3202 20.746 31.6608 22.7626 27.583 22.7626C25.8353 22.7457 24.1553 22.3744 23.2434 21.961L23.7838 18.5859L24.2988 18.8222C25.5652 19.3875 26.3926 19.6238 27.946 19.6238C29.0689 19.6238 30.2677 19.1597 30.2846 18.1556C30.2846 17.4975 29.7696 17.0165 28.2668 16.2825C26.7894 15.5653 24.8222 14.3671 24.856 12.2071C24.8729 9.28765 27.5745 7.2373 31.4159 7.2373C32.9272 7.2373 34.1429 7.57481 34.9112 7.87013L34.3793 11.1186L34.0247 10.9583C33.324 10.6546 32.3953 10.3508 31.1289 10.3845C29.5923 10.3845 28.9085 11.0427 28.8916 11.6839ZM16.9193 22.5433L19.3508 7.50737H23.2429L20.8114 22.5433H16.9193ZM44.8809 7.50737H41.8753C40.9466 7.50737 40.2459 7.77738 39.8407 8.75615L34.0659 22.5433H38.1437C38.1437 22.5433 38.8191 20.687 38.9626 20.2904H43.9607C44.0704 20.822 44.425 22.5433 44.425 22.5433H48.03L44.8809 7.50737ZM40.0771 17.2191C40.3979 16.3585 41.6305 13.0087 41.6305 13.0087C41.6238 13.022 41.6722 12.8887 41.7452 12.6876L41.7456 12.6864L41.7456 12.6863C41.8579 12.3769 42.028 11.908 42.1455 11.5659L42.4157 12.8653C42.4157 12.8653 43.1502 16.4682 43.3106 17.2191H40.0771ZM9.861 17.7591L13.6686 7.50737H17.7802L11.6677 22.5264H7.55616L4.08624 9.46491C2.88738 8.76458 1.52812 8.19926 0 7.81113L0.0675411 7.50737H6.32354C7.1678 7.54113 7.8601 7.81113 8.07961 8.77302L9.44732 15.6835L9.861 17.7591Z" fill="#3F1F78"/>
<path d="M94.7842 5C92.7825 5 90.8217 5.59414 89.1631 6.67001C94.4656 10.9574 94.5473 19.0586 89.1631 23.322C90.8217 24.4059 92.7989 24.992 94.7842 24.992C100.405 25 104.964 20.5199 104.964 14.996C104.972 9.48816 100.405 5 94.7842 5Z" fill="#3F1F78"/>
<path d="M88.5015 7.13565C83.3379 11.134 83.3216 18.8819 88.5015 22.8482C93.6814 18.8819 93.6569 11.134 88.5015 7.13565Z" fill="#3F1F78"/>
<path d="M82.2104 5.00803C84.2121 5.00803 86.1729 5.59414 87.8396 6.67804C82.5127 10.9574 82.48 19.0426 87.8315 23.33C86.1729 24.4059 84.2121 25 82.2104 25C76.5974 25 72.0303 20.5199 72.0303 14.996C72.0303 9.48816 76.5974 5 82.2104 5.00803Z" fill="#3F1F78"/>
<path d="M122.584 18.8564V14.6091C122.584 13.0097 121.552 11.9331 119.889 11.9189C118.925 11.8568 118.004 12.3174 117.484 13.1227C117.009 12.3428 116.139 11.8794 115.221 11.9189C114.42 11.8794 113.656 12.2609 113.215 12.9249V12.0885H111.725V18.8535H113.229V15.1065C113.229 13.9309 113.887 13.3092 114.906 13.3092C115.896 13.3092 116.396 13.9451 116.396 15.0923V18.8564H117.901V15.1065C117.901 13.9309 118.588 13.3092 119.578 13.3092C120.596 13.3092 121.082 13.9451 121.082 15.0923V18.8564H122.584ZM144.85 12.0913H142.416V10.0398H140.911V12.0913H139.521V13.4364H140.911V16.5222C140.911 18.0934 141.526 19.0287 143.288 19.0287C143.946 19.0316 144.593 18.8479 145.151 18.506L144.722 17.2456C144.321 17.4802 143.869 17.613 143.403 17.6271C142.659 17.6271 142.413 17.175 142.413 16.494V13.4364H144.847V12.0913H144.85ZM157.561 11.9218C156.82 11.8992 156.128 12.2806 155.756 12.9136V12.0941H154.28V18.8592H155.77V15.0641C155.77 13.9451 156.256 13.3234 157.232 13.3234C157.55 13.3177 157.867 13.3771 158.165 13.4929L158.622 12.1054C158.282 11.9839 157.922 11.9218 157.561 11.9218ZM138.345 12.6282C137.501 12.1337 136.531 11.8878 135.55 11.9218C133.816 11.9218 132.697 12.7413 132.697 14.0863C132.697 15.1913 133.527 15.8695 135.061 16.0814L135.761 16.1803C136.577 16.2933 136.966 16.5053 136.966 16.8868C136.966 17.4095 136.422 17.7062 135.404 17.7062C134.586 17.7289 133.782 17.4802 133.127 16.9998L132.426 18.1471C133.293 18.7462 134.334 19.0542 135.392 19.0259C137.369 19.0259 138.516 18.1047 138.516 16.8189C138.516 15.6293 137.612 15.0076 136.125 14.7956L135.424 14.6967C134.78 14.612 134.262 14.4848 134.262 14.0327C134.262 13.5381 134.749 13.2414 135.567 13.2414C136.316 13.2527 137.052 13.4534 137.701 13.8207L138.345 12.6282ZM178.268 11.9218C177.527 11.8992 176.835 12.2806 176.463 12.9136V12.0941H174.986V18.8592H176.477V15.0641C176.477 13.9451 176.963 13.3234 177.939 13.3234C178.256 13.3177 178.574 13.3771 178.871 13.4929L179.329 12.1054C178.986 11.9839 178.628 11.9218 178.268 11.9218ZM159.066 15.4738C159.066 17.5254 160.513 19.0259 162.719 19.0259C163.615 19.0711 164.493 18.7829 165.182 18.2177L164.467 17.028C163.952 17.4152 163.323 17.6299 162.676 17.6356C161.486 17.6215 160.614 16.7709 160.614 15.471C160.614 14.1683 161.489 13.3205 162.676 13.3064C163.323 13.3149 163.952 13.5268 164.467 13.914L165.182 12.7243C164.493 12.162 163.612 11.8737 162.719 11.9161C160.513 11.9218 159.066 13.4223 159.066 15.4738ZM173.021 12.0913H171.531V12.9108C171.016 12.2552 170.209 11.885 169.368 11.9189C167.448 11.9189 165.943 13.4053 165.943 15.471C165.943 17.5367 167.448 19.0231 169.368 19.0231C170.209 19.0598 171.016 18.6896 171.531 18.0312V18.8507H173.021V12.0913ZM167.477 15.4738C167.477 14.2842 168.263 13.3092 169.554 13.3092C170.787 13.3092 171.616 14.2446 171.616 15.4738C171.616 16.7031 170.784 17.6384 169.554 17.6384C168.263 17.6384 167.477 16.6635 167.477 15.4738ZM149.493 11.9218C147.488 11.9218 146.083 13.3658 146.083 15.4738C146.083 17.6243 147.545 19.0259 149.594 19.0259C150.615 19.0626 151.616 18.7235 152.403 18.0764L151.673 16.9857C151.107 17.435 150.406 17.6836 149.682 17.6921C148.721 17.6921 147.848 17.2541 147.634 16.0362H152.72C152.735 15.8525 152.749 15.6688 152.749 15.471C152.732 13.3658 151.413 11.9218 149.493 11.9218ZM149.465 13.2358C150.426 13.2358 151.041 13.8292 151.199 14.8776H147.645C147.803 13.9027 148.403 13.2358 149.465 13.2358ZM186.85 9.37286H185.36V12.9108C184.845 12.2552 184.038 11.885 183.197 11.9189C181.277 11.9189 179.773 13.4053 179.773 15.471C179.773 17.5367 181.277 19.0231 183.197 19.0231C184.038 19.0598 184.845 18.6896 185.36 18.0312V18.8507H186.85V9.37286ZM188.59 18.2319C188.65 18.2319 188.707 18.2432 188.761 18.2658C188.813 18.2884 188.861 18.3195 188.902 18.359C188.942 18.3986 188.973 18.4438 188.996 18.4947C189.042 18.602 189.042 18.7207 188.996 18.8281C188.973 18.879 188.942 18.9242 188.902 18.9637C188.861 19.0033 188.813 19.0344 188.761 19.057C188.707 19.0796 188.65 19.0909 188.59 19.0909C188.412 19.0937 188.249 18.9892 188.178 18.8281C188.132 18.7207 188.132 18.602 188.178 18.4947C188.224 18.3901 188.306 18.3081 188.412 18.2658C188.472 18.2432 188.53 18.2319 188.59 18.2319ZM188.59 18.9948C188.635 18.9948 188.678 18.9864 188.721 18.9694C188.761 18.9524 188.799 18.927 188.827 18.8987C188.959 18.7688 188.959 18.5568 188.827 18.424C188.796 18.3929 188.761 18.3703 188.721 18.3534C188.681 18.3364 188.635 18.3279 188.59 18.3279C188.544 18.3279 188.498 18.3364 188.455 18.3534C188.284 18.4268 188.203 18.6218 188.275 18.7942C188.292 18.8338 188.315 18.8677 188.347 18.8987C188.378 18.9298 188.415 18.9524 188.455 18.9694C188.501 18.9864 188.544 18.9948 188.59 18.9948ZM188.615 18.4607C188.658 18.4579 188.701 18.4692 188.736 18.4947C188.764 18.5173 188.779 18.5512 188.779 18.5879C188.779 18.619 188.767 18.6472 188.744 18.6699C188.718 18.6925 188.684 18.7066 188.65 18.7094L188.781 18.8592H188.678L188.555 18.7094H188.515V18.8592H188.43V18.4607H188.615ZM188.515 18.5342V18.6416H188.615C188.635 18.6416 188.653 18.6388 188.67 18.6275C188.684 18.619 188.69 18.602 188.69 18.5879C188.69 18.571 188.684 18.5568 188.67 18.5483C188.653 18.5399 188.635 18.5342 188.615 18.5342H188.515ZM181.303 15.4738C181.303 14.2842 182.09 13.3092 183.38 13.3092C184.613 13.3092 185.443 14.2446 185.443 15.4738C185.443 16.7031 184.61 17.6384 183.38 17.6384C182.093 17.6384 181.303 16.6635 181.303 15.4738ZM130.981 12.0913H129.49V12.9108C128.976 12.2552 128.169 11.885 127.328 11.9189C125.408 11.9189 123.903 13.4053 123.903 15.471C123.903 17.5367 125.408 19.0231 127.328 19.0231C128.169 19.0598 128.976 18.6896 129.49 18.0312V18.8507H130.981V12.0913ZM125.437 15.4738C125.437 14.2842 126.223 13.3092 127.514 13.3092C128.747 13.3092 129.576 14.2446 129.576 15.4738C129.576 16.7031 128.747 17.6384 127.514 17.6384C126.223 17.6384 125.434 16.6635 125.437 15.4738Z" fill="#3F1F78"/>
<g clip-path="url(#clip0_11502_28088)">
<path d="M257.553 9.83801V20.8053C257.553 20.979 257.417 21.1093 257.236 21.1093H254.902C254.721 21.1093 254.585 20.979 254.585 20.8053V9.83801C254.585 9.66428 254.721 9.53397 254.902 9.53397H257.236C257.417 9.55569 257.553 9.68599 257.553 9.83801ZM275.771 9.55569H273.165C273.029 9.55569 272.916 9.64256 272.87 9.77286L270.808 16.2663L268.543 9.77286C268.497 9.64256 268.384 9.57741 268.248 9.57741H266.413C266.277 9.57741 266.164 9.66428 266.118 9.77286L263.852 16.2663L261.791 9.77286C261.745 9.64256 261.632 9.55569 261.496 9.55569H258.89C258.8 9.55569 258.686 9.59912 258.641 9.68599C258.573 9.77286 258.573 9.85973 258.596 9.9466L262.448 20.9356C262.493 21.0659 262.606 21.131 262.742 21.131H264.827C264.963 21.131 265.076 21.0442 265.121 20.9356L267.364 14.529L269.608 20.9356C269.653 21.0659 269.766 21.131 269.902 21.131H271.987C272.123 21.131 272.236 21.0442 272.281 20.9356L276.133 9.9466C276.156 9.85973 276.156 9.75114 276.088 9.68599C275.974 9.59912 275.884 9.55569 275.771 9.55569ZM279.713 9.55569H277.379C277.198 9.55569 277.062 9.68599 277.062 9.85973V20.827C277.062 21.0007 277.198 21.131 277.379 21.131H279.713C279.894 21.131 280.03 21.0007 280.03 20.827V9.85973C280.03 9.68599 279.872 9.55569 279.713 9.55569ZM253.248 20.7401C253.384 20.8921 253.271 21.1093 253.067 21.1093H250.212C250.099 21.1093 249.986 21.0659 249.918 20.979L249.442 20.4144C248.445 21.0224 247.267 21.3916 246.02 21.3916C242.531 21.3916 239.699 18.677 239.699 15.3325C239.699 11.988 242.531 9.27336 246.02 9.27336C249.51 9.27336 252.342 11.988 252.342 15.3325C252.342 16.527 251.98 17.6563 251.345 18.6118L253.248 20.7401ZM247.561 18.3078L246.315 16.8527C246.179 16.7007 246.292 16.4618 246.496 16.4618H249.125C249.261 16.1143 249.329 15.7234 249.329 15.3325C249.329 13.53 247.924 11.9663 245.998 11.9663C244.072 11.9663 242.667 13.53 242.667 15.3325C242.667 17.135 244.072 18.677 245.998 18.677C246.564 18.6987 247.085 18.5467 247.561 18.3078ZM232.471 20.6967C232.539 21.1527 232.38 21.3482 232.244 21.3482C232.086 21.3482 231.882 21.1527 231.633 20.8053C231.383 20.4361 231.293 20.0234 231.429 19.828C231.497 19.6977 231.678 19.6325 231.882 19.6977C232.267 19.828 232.426 20.4144 232.471 20.6967ZM230.228 21.674C230.704 22.0649 230.862 22.5427 230.613 22.8684C230.477 23.0421 230.25 23.1507 229.956 23.1507C229.684 23.1507 229.412 23.0639 229.208 22.8901C228.778 22.5209 228.642 21.9128 228.936 21.5871C229.05 21.4568 229.231 21.3916 229.457 21.3916C229.707 21.3916 229.979 21.5002 230.228 21.674ZM229.412 25.4745C231.497 25.4745 233.762 26.1694 236.277 28.2977C236.527 28.5149 236.867 28.2543 236.64 27.972C234.17 24.9967 231.904 24.4321 229.639 23.9543C226.852 23.3679 225.424 21.8694 224.427 20.2189C224.223 19.8931 224.133 19.9583 224.133 20.3709C224.11 20.8921 224.155 21.5654 224.269 22.2386C224.155 22.2386 224.042 22.2386 223.929 22.2386C219.964 22.2386 216.724 19.1547 216.724 15.3325C216.724 11.532 219.941 8.42639 223.929 8.42639C227.917 8.42639 231.134 11.5102 231.134 15.3325C231.134 15.5931 231.111 15.8754 231.089 16.136C230.568 16.0492 229.525 16.0275 228.8 16.0926C228.528 16.1143 228.574 16.2446 228.778 16.2663C231.157 16.679 232.788 18.0906 233.173 20.6532C233.173 20.7184 233.264 20.7401 233.287 20.675C234.261 19.1113 234.827 17.2871 234.827 15.3108C234.827 9.55569 229.956 4.86475 223.929 4.86475C217.902 4.86475 213.03 9.53397 213.03 15.3108C213.03 21.0659 217.902 25.7568 223.929 25.7568C225.515 25.7785 227.101 25.4745 229.412 25.4745Z" fill="#3F1F78"/>
</g>
<path d="M393.372 10.867L391.285 16.0844C391.285 16.156 391.21 16.2276 391.21 16.3044L391.136 16.4476L391.061 16.3044C391.061 16.2327 390.991 16.1611 390.991 16.0844L388.904 10.867H386.166L389.764 19.8491L388.253 23.2558H390.991L396.03 10.867H393.372Z" fill="#3F1F78"/>
<path d="M373.212 11.3785C372.71 11.0153 372.133 10.8005 371.413 10.7289C370.19 10.5857 369.038 11.0205 368.317 11.89V10.8772H365.872V19.8593H368.317V15.1483C368.317 14.0639 368.531 13.844 368.68 13.5524C368.968 13.046 369.544 12.7545 370.19 12.8261C370.836 12.8261 371.487 13.1176 371.776 13.624C371.989 13.9872 371.989 14.422 371.989 14.7084C371.989 15.5064 371.989 19.8542 371.989 19.8542H374.439V14.422C374.434 12.9693 374.007 12.0281 373.212 11.3785Z" fill="#3F1F78"/>
<path d="M361.191 10.9437C359.969 10.5089 358.672 10.5806 357.449 11.1637C356.585 11.5268 355.939 12.1765 355.432 12.9744C354.999 13.7008 354.786 14.4936 354.786 15.4399C354.786 16.3811 354.999 17.179 355.432 17.9054C355.864 18.6317 356.441 19.1381 357.161 19.5729C357.882 19.9361 358.746 20.1509 359.536 20.1509C359.969 20.1509 360.401 20.0793 360.833 20.0077C361.191 19.9361 361.554 19.7928 361.912 19.5729C362.632 19.1381 363.209 18.6317 363.641 17.977C364.073 17.2506 364.287 16.4578 364.287 15.5115C364.212 13.3325 363.06 11.665 361.191 10.9437ZM361.837 15.4348C361.837 16.2327 361.549 16.8823 361.047 17.3171C360.689 17.6803 360.182 17.8235 359.462 17.8235C358.816 17.8235 358.309 17.6036 357.877 17.3171C357.375 16.8823 357.156 16.2327 357.087 15.4348C357.087 14.5652 357.375 13.7673 358.021 13.2609C358.379 12.9693 358.811 12.8261 359.387 12.8261C359.964 12.8261 360.396 12.9693 360.754 13.2609C361.549 13.7673 361.912 14.5652 361.837 15.4348Z" fill="#3F1F78"/>
<path d="M351.973 11.3785C351.541 11.0153 350.895 10.8005 350.174 10.7289C350.03 10.7289 349.886 10.7289 349.742 10.7289C348.733 10.7289 347.943 11.1637 347.223 12.0332L347.079 12.1765H346.79C346.577 11.8849 346.358 11.5985 346.07 11.4501C345.638 11.0153 345.061 10.8005 344.341 10.7238C343.188 10.5806 342.253 10.9437 341.463 11.8082V10.867H339.014V19.8491H341.463V15.0665C341.463 14.0537 341.607 13.8338 341.752 13.5473C342.04 13.0409 342.616 12.7494 343.193 12.7494C343.769 12.7494 344.346 13.0409 344.634 13.5473C344.847 13.9105 344.847 14.3453 344.847 14.78V19.7775H347.367V14.9949C347.367 14.1253 347.511 13.7621 347.655 13.4757C347.943 12.9693 348.52 12.7494 349.096 12.7494C349.673 12.7494 350.174 13.1125 350.463 13.5473C350.607 13.8389 350.676 14.1969 350.676 14.4885C350.676 14.6317 350.676 14.7033 350.676 14.8517V19.8491H353.126V14.4169C353.126 13.9105 353.057 13.4757 352.982 13.0409C352.838 12.3197 352.48 11.7366 351.973 11.3785Z" fill="#3F1F78"/>
<path d="M383.722 17.1023C383.364 17.4655 382.499 18.1151 381.346 18.1867C380.412 18.1867 379.617 17.9719 379.115 17.3887C378.901 17.0972 378.683 16.8107 378.613 16.4476H385.451V16.3759C385.52 16.0128 385.52 15.6496 385.52 15.3632C385.52 15.0716 385.451 14.6368 385.307 14.0588C385.018 13.046 384.442 12.2481 383.652 11.5933C382.787 10.9437 381.923 10.7238 381.709 10.7238C379.91 10.4322 377.893 11.2302 376.884 12.8977C376.163 14.0588 376.163 15.2148 376.238 15.578C376.238 16.0128 376.312 17.3887 377.391 18.5499C378.613 19.9258 380.417 19.9974 380.988 20.069C383.438 20.1406 385.093 18.6215 385.451 18.2583L383.722 17.1023ZM379.478 13.3325C379.836 13.0409 380.268 12.8977 380.844 12.8977C381.421 12.8977 381.853 13.0409 382.211 13.3325C382.569 13.624 382.857 13.9821 383.001 14.4936H378.608C378.827 13.9872 379.115 13.624 379.478 13.3325Z" fill="#3F1F78"/>
<path d="M322.029 5C316.483 5 312.095 9.49105 312.095 15C312.095 20.509 316.558 25 322.029 25C327.5 25 331.962 20.509 331.962 15C332.037 9.49105 327.5 5 322.029 5ZM322.029 18.6931C320.011 18.6931 318.287 17.0256 318.287 15C318.287 12.9693 319.942 11.3069 322.029 11.3069C324.116 11.3069 325.771 12.9744 325.771 15C325.701 17.0256 324.116 18.6931 322.029 18.6931Z" fill="#3F1F78"/>
<path d="M312.095 7.97185V22.5345H308.567L304.03 7.97185H312.095Z" fill="#3F1F78"/>
<path d="M501.271 4C502.942 4 504.531 4.38141 505.958 5.06517C506.181 5.1656 506.406 5.28632 506.629 5.40705L505.651 6.27136L504.185 4.76389L501.659 6.97435L500.171 5.38675L495.525 9.5064L498.499 12.7414L497.338 13.7457L500.273 16.9808L499.112 17.985L503.31 22.5865L505.795 20.3354L507.956 22.7478C507.528 23.0694 507.059 23.3921 506.55 23.672C505.001 24.5363 503.207 25.0374 501.292 25.0374C495.403 25.0374 490.614 20.3162 490.614 14.5085C490.593 8.74251 495.382 4 501.271 4ZM499.314 13.8664L501.861 11.6154L504.143 14.1271L501.595 16.3782L499.314 13.8664ZM501.128 18.2072L503.655 15.9369L505.958 18.4487L503.41 20.6998L501.128 18.2072ZM497.502 9.58653L500.049 7.33547L502.331 9.84721L499.783 12.0983L497.502 9.58653ZM502.167 8.38034L504.063 6.6923L505.776 8.56089L503.88 10.2692L502.167 8.38034ZM505.551 16.1175L507.445 14.4295L509.158 16.3184L507.262 18.0075L505.551 16.1175ZM507.221 19.9156L509.117 18.2275L510.828 20.0961L508.933 21.8034L507.221 19.9156ZM507.996 11.234L509.258 10.109L510.399 11.3558L509.136 12.4808L507.996 11.234ZM506.366 7.51709L507.629 6.37179L508.771 7.63782L507.507 8.76281L506.366 7.51709ZM509.605 14.9519L510.868 13.8269L512.03 15.0726L510.747 16.1976L509.605 14.9519ZM503.921 12.1592L505.816 10.4711L507.528 12.3397L505.633 14.0278L503.921 12.1592Z" fill="#3F1F78"/>
<path d="M425.62 11.2478H425.523L423.719 18.0843H422.244L420.03 8.37169H421.561L423.091 15.6185H423.187L424.963 8.37169H426.18L428.079 15.6185H428.175L429.569 8.37169H431.169L428.954 18.0843H427.478L425.62 11.2478Z" fill="#3F1F78"/>
<path d="M433.109 13.9498H436.238C436.17 12.5118 435.473 11.937 434.735 11.937C433.902 11.937 433.259 12.5801 433.109 13.9498ZM437.331 16.5256V17.5673C436.717 17.9231 435.897 18.1976 434.913 18.1976C432.618 18.1976 431.675 16.7724 431.675 14.609C431.675 12.5256 432.727 11.0192 434.777 11.0192C436.485 11.0192 437.538 12.1293 437.538 14.3622V14.8697H433.083C433.083 16.5128 433.752 17.2393 435.16 17.2393C435.897 17.2372 436.581 16.9765 437.331 16.5256Z" fill="#3F1F78"/>
<path d="M440.716 17.0983C441.153 17.2895 441.632 17.3184 441.974 17.3184C442.985 17.3184 443.75 16.687 443.75 14.469C443.75 12.7287 443.121 12.1678 442.207 12.1678C441.659 12.1678 441.263 12.3195 440.717 12.6197V17.0983H440.716ZM440.731 11.6058C441.14 11.3878 441.836 11.0983 442.575 11.0983C444.269 11.0983 445.185 12.2767 445.185 14.469C445.185 17.031 443.955 18.2778 441.974 18.2778C441.249 18.2778 440.129 18.0449 439.309 17.6058V8.04383L440.731 7.70195V11.6058Z" fill="#3F1F78"/>
<path d="M451.336 16.0235H451.405L454.328 8.36543H456.024V18.0791H454.548V11.0374H454.425L451.636 18.0791H450.762L447.974 11.202H447.851V18.0791H446.621V8.36543H448.275L451.336 16.0235Z" fill="#3F1F78"/>
<path d="M462.054 14.6079C462.054 12.7586 461.303 11.9776 460.373 11.9776C459.471 11.9776 458.692 12.7586 458.692 14.6079C458.692 16.485 459.403 17.2382 460.373 17.2382C461.342 17.2372 462.054 16.485 462.054 14.6079ZM457.258 14.6079C457.258 12.2094 458.57 11.0182 460.373 11.0182C462.178 11.0182 463.489 12.2094 463.489 14.6079C463.489 16.9498 462.245 18.1976 460.373 18.1976C458.501 18.1976 457.258 16.9498 457.258 14.6079Z" fill="#3F1F78"/>
<path d="M464.57 12.0321C465.185 11.6613 466.484 11.0171 468.056 11.0171C469.695 11.0171 470.309 11.6613 470.309 13.0716V18.0321H468.889V13.3878C468.889 12.3056 468.357 12.1143 467.659 12.1143C467.113 12.1143 466.416 12.3611 465.992 12.6079V18.0331H464.57V12.0321Z" fill="#3F1F78"/>
<path d="M473.316 13.9498H476.446C476.378 12.5118 475.681 11.937 474.943 11.937C474.109 11.937 473.467 12.5801 473.316 13.9498ZM477.539 16.5256V17.5673C476.925 17.9231 476.105 18.1976 475.121 18.1976C472.827 18.1976 471.883 16.7724 471.883 14.609C471.883 12.5256 472.935 11.0192 474.985 11.0192C476.694 11.0192 477.746 12.1293 477.746 14.3622V14.8697H473.291C473.291 16.5128 473.96 17.2393 475.368 17.2393C476.104 17.2372 476.789 16.9765 477.539 16.5256Z" fill="#3F1F78"/>
<path d="M483.421 11.0182H484.884L482.41 17.8675C481.726 19.7585 480.894 20.7447 479.323 20.7447V19.6218C480.252 19.6218 480.825 18.8814 481.154 17.8675L478.53 11.0182H480.034L481.783 16.0598H481.865L483.421 11.0182Z" fill="#3F1F78"/>
<path d="M434.791 24.3985V23.8066C435.298 24.063 435.779 24.1923 436.237 24.1923C436.617 24.1923 436.909 24.1229 437.113 23.9818C437.316 23.8419 437.419 23.6538 437.419 23.4145C437.419 23.1763 437.336 22.9968 437.168 22.8782C437 22.7596 436.688 22.6122 436.23 22.438C436.072 22.3782 435.97 22.3398 435.925 22.3216C435.88 22.3034 435.792 22.266 435.661 22.2115C435.53 22.1571 435.443 22.1154 435.402 22.0876C435.362 22.0598 435.293 22.0182 435.196 21.9637C435.098 21.9081 435.033 21.859 434.999 21.8162C434.966 21.7724 434.918 21.7169 434.859 21.6506C434.801 21.5844 434.761 21.5192 434.741 21.4519C434.72 21.3857 434.701 21.3088 434.683 21.2212C434.665 21.1336 434.656 21.0395 434.656 20.9391C434.656 20.5492 434.8 20.2361 435.087 19.9979C435.375 19.7596 435.771 19.641 436.279 19.641C436.726 19.641 437.173 19.7233 437.616 19.8889V20.5139C437.187 20.3024 436.756 20.1977 436.327 20.1977C436.024 20.1977 435.798 20.2607 435.648 20.3889C435.499 20.5171 435.424 20.687 435.424 20.8974C435.424 21.1218 435.499 21.2927 435.648 21.4092C435.797 21.5267 436.064 21.656 436.449 21.7981C437.11 22.0406 437.565 22.2607 437.813 22.4583C438.063 22.6549 438.187 22.9487 438.187 23.3376C438.187 23.7457 438.016 24.0801 437.674 24.3387C437.332 24.5972 436.863 24.7276 436.266 24.7276C435.716 24.7286 435.226 24.6186 434.791 24.3985ZM441.699 24.625H441.054L441.007 24.2265C440.617 24.5481 440.228 24.7083 439.84 24.7083C439.514 24.7083 439.261 24.6207 439.083 24.4434C438.904 24.2671 438.814 24.0438 438.814 23.7724C438.814 23.6303 438.839 23.4947 438.892 23.3633C438.944 23.2329 439.03 23.1058 439.15 22.9818C439.27 22.8579 439.451 22.7586 439.693 22.6827C439.935 22.6068 440.226 22.5694 440.566 22.5694H440.987V22.3836C440.987 22.0769 440.93 21.8675 440.816 21.7543C440.703 21.6421 440.513 21.5855 440.246 21.5855C439.92 21.5855 439.519 21.7201 439.044 21.9915V21.4412C439.532 21.2169 440.012 21.1036 440.483 21.1036C440.941 21.1036 441.258 21.1977 441.433 21.3868C441.61 21.5737 441.698 21.859 441.698 22.2383V24.625H441.699ZM440.993 23.0502H440.633C439.891 23.0502 439.519 23.2724 439.519 23.718C439.519 23.8739 439.569 23.9861 439.668 24.0577C439.768 24.1293 439.892 24.1645 440.042 24.1645C440.232 24.1645 440.415 24.1186 440.592 24.0267C440.768 23.9359 440.902 23.8301 440.992 23.7105V23.0502H440.993ZM442.802 26V21.6068C443.001 21.4551 443.236 21.3333 443.508 21.2415C443.78 21.1506 444.047 21.1036 444.309 21.1036C445.25 21.1036 445.721 21.6795 445.721 22.8301C445.721 23.4263 445.599 23.8825 445.354 24.1977C445.11 24.5139 444.76 24.672 444.302 24.672C443.985 24.672 443.72 24.5919 443.507 24.4327V26H442.802ZM443.501 21.8397V23.9241C443.593 24.0107 443.706 24.0759 443.844 24.1197C443.982 24.1635 444.103 24.1848 444.207 24.1848C444.456 24.1848 444.652 24.0876 444.794 23.8932C444.937 23.6977 445.007 23.344 445.007 22.8312C445.007 22.4145 444.935 22.1079 444.787 21.9167C444.64 21.7233 444.448 21.6271 444.213 21.6271C443.947 21.6271 443.71 21.6977 443.501 21.8397ZM447.341 21.1389V24.6239H446.635V21.3098L447.341 21.1389ZM446.526 20.1282C446.526 20.0043 446.572 19.8964 446.665 19.8013C446.758 19.7073 446.866 19.6603 446.988 19.6603C447.11 19.6603 447.218 19.7073 447.311 19.8013C447.404 19.8953 447.45 20.0043 447.45 20.1282C447.45 20.2521 447.404 20.3611 447.311 20.4551C447.218 20.5481 447.111 20.5951 446.988 20.5951C446.866 20.5951 446.758 20.5481 446.665 20.4551C446.572 20.3611 446.526 20.2521 446.526 20.1282ZM449.985 24.2254C450.311 24.2254 450.671 24.1058 451.065 23.8686V24.391C450.703 24.6026 450.302 24.7073 449.863 24.7073C449.311 24.7073 448.905 24.5491 448.645 24.2329C448.384 23.9167 448.254 23.4744 448.254 22.906C448.254 22.3643 448.387 21.9284 448.654 21.6004C448.922 21.2703 449.301 21.1047 449.795 21.1047C450.23 21.1047 450.566 21.2468 450.807 21.5321C451.047 21.8162 451.167 22.2329 451.167 22.7831V23.0374H448.954C448.954 23.4455 449.038 23.7457 449.205 23.937C449.372 24.1303 449.632 24.2254 449.985 24.2254ZM449.774 21.5652C449.562 21.5652 449.384 21.6496 449.238 21.8194C449.093 21.9893 449.002 22.2415 448.967 22.5759H450.522C450.504 22.2372 450.425 21.984 450.284 21.8173C450.144 21.6485 449.974 21.5652 449.774 21.5652ZM452.065 21.6143C452.622 21.2746 453.2 21.1047 453.797 21.1047C454.2 21.1047 454.487 21.188 454.659 21.3526C454.832 21.5182 454.917 21.7789 454.917 22.1357V24.625H454.212V22.2949C454.212 22.0427 454.159 21.8729 454.055 21.7863C453.951 21.6987 453.799 21.656 453.6 21.656C453.329 21.656 453.053 21.7393 452.772 21.9039V24.6261H452.065V21.6143ZM456.692 21.2703H457.765L457.595 21.7383H456.692V23.5534C456.692 24.0118 456.887 24.2415 457.276 24.2415C457.425 24.2415 457.577 24.2094 457.731 24.1453V24.5855C457.518 24.6677 457.264 24.7094 456.971 24.7094C456.631 24.7094 456.383 24.6122 456.224 24.4167C456.066 24.2222 455.986 23.9669 455.986 23.6496V20.8173L456.692 20.3013V21.2703ZM459.147 21.1389V24.6239H458.441V21.3098L459.147 21.1389ZM458.333 20.1282C458.333 20.0043 458.379 19.8964 458.471 19.8013C458.564 19.7073 458.671 19.6603 458.793 19.6603C458.916 19.6603 459.024 19.7073 459.116 19.8013C459.209 19.8953 459.255 20.0043 459.255 20.1282C459.255 20.2521 459.209 20.3611 459.116 20.4551C459.024 20.5481 458.916 20.5951 458.793 20.5951C458.671 20.5951 458.563 20.5481 458.471 20.4551C458.379 20.3611 458.333 20.2521 458.333 20.1282ZM463.954 21.3793V21.9284C463.614 21.6998 463.27 21.5855 462.922 21.5855C462.745 21.5855 462.601 21.6197 462.487 21.6891C462.375 21.7575 462.318 21.8675 462.318 22.0182C462.318 22.1613 462.38 22.2746 462.504 22.359C462.629 22.4444 462.825 22.5299 463.092 22.6165C463.241 22.6667 463.354 22.7062 463.428 22.734C463.503 22.7618 463.601 22.8077 463.723 22.8718C463.845 22.9359 463.938 23 463.999 23.0641C464.06 23.1282 464.115 23.2126 464.165 23.3184C464.214 23.4242 464.238 23.5406 464.238 23.6688C464.238 23.985 464.113 24.2372 463.863 24.4252C463.611 24.6132 463.275 24.7073 462.855 24.7073C462.383 24.7073 461.993 24.6068 461.68 24.4038V23.8675C462.078 24.1058 462.442 24.2244 462.773 24.2244C463.27 24.2244 463.52 24.0598 463.52 23.7297C463.52 23.6656 463.505 23.6058 463.476 23.5513C463.447 23.4968 463.413 23.4519 463.374 23.4167C463.336 23.3825 463.273 23.344 463.187 23.2991C463.101 23.2564 463.028 23.2244 462.969 23.2041C462.91 23.1838 462.818 23.1506 462.691 23.1047C462.506 23.0363 462.358 22.9765 462.25 22.9263C462.14 22.875 462.032 22.8109 461.924 22.7308C461.815 22.6506 461.735 22.5545 461.686 22.4455C461.637 22.3355 461.611 22.2051 461.611 22.0534C461.611 21.8611 461.656 21.6966 461.747 21.5588C461.837 21.4199 461.956 21.3216 462.101 21.2628C462.245 21.203 462.378 21.1613 462.498 21.1389C462.618 21.1154 462.737 21.1036 462.855 21.1036C463.239 21.1036 463.605 21.1955 463.954 21.3793ZM467.704 24.625H467.06L467.011 24.2265C466.621 24.5481 466.233 24.7083 465.844 24.7083C465.518 24.7083 465.266 24.6207 465.087 24.4434C464.908 24.2671 464.819 24.0438 464.819 23.7724C464.819 23.6303 464.845 23.4947 464.897 23.3633C464.95 23.2329 465.035 23.1058 465.155 22.9818C465.275 22.8579 465.456 22.7586 465.698 22.6827C465.94 22.6068 466.232 22.5694 466.57 22.5694H466.991V22.3836C466.991 22.0769 466.934 21.8675 466.822 21.7543C466.708 21.6421 466.518 21.5855 466.251 21.5855C465.924 21.5855 465.524 21.7201 465.049 21.9915V21.4412C465.539 21.2169 466.017 21.1036 466.489 21.1036C466.946 21.1036 467.262 21.1977 467.439 21.3868C467.615 21.5737 467.703 21.859 467.703 22.2383V24.625H467.704ZM467 23.0502H466.64C465.897 23.0502 465.526 23.2724 465.526 23.718C465.526 23.8739 465.576 23.9861 465.675 24.0577C465.774 24.1293 465.899 24.1645 466.048 24.1645C466.238 24.1645 466.421 24.1186 466.598 24.0267C466.775 23.9359 466.908 23.8301 466.998 23.7105V23.0502H467ZM470.552 21.2703L470.382 21.7383H469.479V23.5534C469.479 24.0118 469.674 24.2415 470.063 24.2415C470.213 24.2415 470.364 24.2094 470.518 24.1453V24.5855C470.305 24.6677 470.052 24.7094 469.756 24.7094C469.418 24.7094 469.168 24.6122 469.01 24.4167C468.851 24.2222 468.772 23.9669 468.772 23.6496V20.8173L469.479 20.3013V21.2703H470.552Z" fill="#3F1F78"/>
<path d="M550.195 27.998C548.584 27.998 546.972 27.9922 545.361 27.9999C543.664 28.0077 542.394 27.2649 541.547 25.7851C539.913 22.9283 538.286 20.0666 536.655 17.2078C535.818 15.7396 535.826 14.2637 536.655 12.8014C538.287 9.92417 539.925 7.0528 541.573 4.18628C542.403 2.74041 543.661 2.00827 545.314 2.00536C548.601 1.99954 551.887 1.99663 555.174 2.00633C556.786 2.01117 558.037 2.71811 558.85 4.12422C560.546 7.05668 562.232 9.99496 563.885 12.9526C564.677 14.3714 564.601 15.8211 563.797 17.2311C562.216 20.0065 560.633 22.7799 559.054 25.5562C558.718 26.1478 558.338 26.6986 557.796 27.1204C557.036 27.7129 556.179 28.0009 555.221 27.998C553.545 27.9932 551.871 27.997 550.196 27.997L550.195 27.998ZM548.357 16.4204C549.735 16.4262 551.114 16.4485 552.493 16.4282C552.898 16.4223 553.001 16.5503 552.985 16.9421C552.958 17.5492 552.992 18.1601 552.999 18.7691C552.992 19.8145 552.989 20.8608 552.973 21.9062C552.97 22.1437 553.072 22.2136 553.287 22.2126C554.193 22.2077 555.1 22.2068 556.006 22.2136C556.229 22.2155 556.313 22.136 556.311 21.9042C556.297 20.4079 556.295 18.9116 556.29 17.4153C556.289 16.1828 556.287 14.9503 556.286 13.7178C556.288 13.3493 556.29 12.9808 556.292 12.6113C556.296 11.0791 556.293 9.54695 556.314 8.01477C556.317 7.70834 556.185 7.68119 555.944 7.6841C555.083 7.69379 554.222 7.70446 553.361 7.68022C553.029 7.67052 552.97 7.79367 552.973 8.09526C552.986 9.64392 552.97 11.1926 552.985 12.7412C552.989 13.0933 552.935 13.2436 552.529 13.2358C550.999 13.2077 549.469 13.2116 547.938 13.2339C547.574 13.2397 547.49 13.1379 547.495 12.7791C547.515 11.2149 547.503 9.64974 547.503 8.08459C547.503 7.88386 547.566 7.67149 547.218 7.68022C546.31 7.70155 545.401 7.69185 544.492 7.6841C544.28 7.68216 544.172 7.72967 544.175 7.97695C544.192 9.12124 544.194 10.2665 544.201 11.4108C544.165 12.5075 544.142 13.6053 544.214 14.702C544.203 14.7495 544.184 14.7961 544.184 14.8436C544.181 17.1826 544.182 19.5216 544.174 21.8596C544.173 22.1418 544.289 22.2184 544.546 22.2155C545.391 22.2058 546.236 22.198 547.08 22.2194C547.411 22.2281 547.514 22.1302 547.51 21.7879C547.493 20.3042 547.502 18.8195 547.502 17.3358C547.502 16.7585 547.786 16.4537 548.355 16.4214L548.357 16.4204Z" fill="#3F1F78"/>
<path d="M583.892 14.9852C583.892 16.9557 583.884 18.9252 583.9 20.8957C583.903 21.2341 583.817 21.333 583.481 21.3195C582.779 21.2923 582.076 21.2952 581.375 21.3185C581.076 21.3282 581.003 21.237 581.005 20.9413C581.021 19.5206 581.004 18.099 581.019 16.6783C581.022 16.3709 580.954 16.2604 580.628 16.2652C579.288 16.2837 577.947 16.2846 576.607 16.2652C576.276 16.2604 576.215 16.3758 576.218 16.6793C576.232 18.0845 576.213 19.4896 576.232 20.8938C576.237 21.2361 576.139 21.3311 575.807 21.3195C575.09 21.2943 574.371 21.303 573.653 21.3166C573.408 21.3214 573.324 21.2555 573.324 20.9946C573.332 16.9731 573.331 12.9526 573.325 8.93117C573.325 8.68195 573.397 8.5937 573.651 8.59855C574.401 8.6131 575.151 8.61795 575.901 8.59661C576.202 8.58788 576.23 8.72268 576.229 8.97093C576.22 10.3276 576.232 11.6842 576.218 13.0409C576.215 13.3425 576.274 13.454 576.602 13.4491C577.942 13.4288 579.283 13.4307 580.623 13.4482C580.936 13.4521 581.024 13.3667 581.02 13.0486C581.002 11.7085 581.024 10.3683 581.004 9.02814C581 8.69358 581.083 8.58304 581.425 8.59758C582.11 8.62473 582.798 8.6257 583.482 8.59758C583.826 8.58304 583.902 8.69649 583.899 9.02911C583.884 11.0151 583.892 13.0021 583.892 14.9881L583.892 14.9852Z" fill="#3F1F78"/>
<path d="M590.383 21.5251C587.767 21.5221 585.707 19.3907 585.705 16.6842C585.703 13.9893 587.768 11.8481 590.384 11.8336C592.959 11.819 595.077 14.0077 595.081 16.6871C595.086 19.3684 592.989 21.527 590.384 21.5251H590.383ZM590.429 14.3675C589.722 14.3646 589.21 14.6409 588.826 15.1675C588.222 15.9986 588.244 17.4376 588.869 18.2503C589.511 19.0862 590.746 19.2501 591.553 18.6071C592.547 17.8168 592.677 15.9423 591.811 15.0007C591.42 14.575 590.949 14.3558 590.429 14.3684V14.3675Z" fill="#3F1F78"/>
<path d="M597.473 16.6793C597.473 16.0975 597.464 15.5166 597.478 14.9357C597.484 14.6826 597.44 14.5546 597.145 14.5585C596.801 14.5624 596.344 14.7243 596.138 14.48C595.924 14.2259 596.089 13.7682 596.069 13.4007C596.067 13.3687 596.069 13.3357 596.069 13.3037C596.075 12.9817 595.976 12.5997 596.115 12.3543C596.262 12.0935 596.671 12.2884 596.963 12.2379C597.553 12.1352 597.824 11.8491 597.869 11.2382C597.873 11.1742 597.869 11.1092 597.873 11.0442C597.907 10.6476 597.696 10.1191 597.962 9.89023C598.186 9.69629 598.692 9.83205 599.073 9.83108C599.801 9.82914 600.165 10.1912 600.165 10.9172C600.165 11.6697 600.533 12.0459 601.269 12.0459C601.804 12.0459 602.071 12.3162 602.071 12.8566C602.071 13.325 602.061 13.7934 602.075 14.2618C602.081 14.4916 602.007 14.5779 601.776 14.5711C601.329 14.5575 600.882 14.576 600.436 14.5634C600.231 14.5575 600.159 14.6235 600.162 14.8359C600.173 15.8046 600.147 16.7743 600.179 17.7421C600.205 18.5325 600.721 18.9698 601.58 18.869C602.065 18.8127 602.098 18.9921 602.078 19.3752C602.052 19.8581 602.049 20.3449 602.079 20.8278C602.1 21.1595 601.967 21.2632 601.669 21.3321C600.146 21.6812 598.659 21.1866 597.967 20.0743C597.646 19.5555 597.509 18.9776 597.49 18.3744C597.472 17.81 597.487 17.2447 597.487 16.6793C597.483 16.6793 597.479 16.6793 597.475 16.6793H597.473Z" fill="#3F1F78"/>
<path d="M609.525 21.4126C608.041 21.4155 606.908 21.0518 606.053 20.02C605.586 19.4586 605.376 18.7894 605.265 18.0786C605.234 17.8769 605.277 17.7994 605.5 17.7858C606.191 17.7421 606.189 17.7305 606.39 18.4054C606.969 20.3517 608.778 20.8482 610.573 20.3294C611.902 19.9444 612.605 18.5858 612.248 17.235C612.092 16.6425 611.68 16.274 611.199 15.9733C610.489 15.5282 609.689 15.3033 608.89 15.0831C608.134 14.8756 607.413 14.5915 606.741 14.1735C604.971 13.0709 605.165 10.6495 606.415 9.54792C608.383 7.8121 611.934 8.2029 612.93 11.0316C612.962 11.1218 612.991 11.2139 613.014 11.307C613.202 12.0712 613.173 12.0857 612.404 12.0585C612.106 12.0479 612.127 11.8646 612.091 11.6852C611.864 10.5768 611.243 9.79326 610.146 9.53337C608.968 9.25603 607.853 9.42573 606.98 10.378C606.147 11.2886 606.307 12.6588 607.308 13.3657C608.096 13.9214 609.015 14.1396 609.918 14.3975C610.672 14.6128 611.39 14.9008 612.051 15.3372C613.973 16.6085 613.527 19.4973 612.147 20.5282C611.302 21.1595 610.363 21.43 609.525 21.4116V21.4126Z" fill="#3F1F78"/>
<path d="M622.551 12.5007C621.294 13.8351 620.092 15.1258 618.872 16.3981C618.656 16.6221 618.652 16.7326 618.87 16.9596C620.161 18.3007 621.434 19.6593 622.712 21.015C622.773 21.0799 622.873 21.1255 622.863 21.2846C622.289 21.334 621.792 21.3806 621.314 20.8288C620.212 19.5546 619.018 18.3608 617.856 17.1399C617.742 17.0187 617.651 16.8568 617.424 16.7918C617.424 18.1649 617.427 19.5138 617.42 20.8637C617.42 21.0101 617.516 21.2409 617.327 21.2894C617.103 21.3476 616.849 21.3272 616.615 21.2923C616.484 21.2729 616.532 21.1032 616.532 20.9985C616.53 16.977 616.536 12.9546 616.522 8.93311C616.521 8.52 616.764 8.61407 616.989 8.60437C617.238 8.5937 617.437 8.56849 617.433 8.95735C617.415 11.3313 617.424 13.7061 617.424 16.08V16.6192C617.906 16.2313 618.241 15.8056 618.609 15.4158C619.36 14.6235 620.111 13.8312 620.857 13.0341C621.484 12.363 621.48 12.3601 622.551 12.5037V12.5007Z" fill="#3F1F78"/>
<path d="M631.293 13.7711C632.678 12.3291 634.12 11.9684 635.611 12.6501C636.846 13.2145 637.506 14.2288 637.61 15.5535C637.751 17.3717 637.635 19.1996 637.665 21.0227C637.673 21.4659 637.362 21.2846 637.164 21.3088C636.941 21.336 636.742 21.3544 636.747 20.9878C636.766 19.3412 636.774 17.6946 636.748 16.049C636.73 14.894 636.235 13.9941 635.167 13.5034C634.127 13.0263 633.136 13.1931 632.256 13.8991C631.594 14.4295 631.291 15.1646 631.288 16.018C631.284 17.6481 631.274 19.2792 631.296 20.9083C631.301 21.2739 631.172 21.3427 630.859 21.3185C630.593 21.2972 630.347 21.3806 630.351 20.9267C630.373 18.2309 630.361 15.536 630.363 12.8402C630.363 12.6617 630.292 12.4455 630.615 12.4387C630.88 12.4329 631.023 12.4891 631.065 12.781C631.11 13.0962 631.206 13.4036 631.293 13.7721V13.7711Z" fill="#3F1F78"/>
<path d="M644.069 21.4106C642.408 21.3941 641.23 20.535 640.919 19.157C640.885 19.0057 640.707 18.7196 641.031 18.7119C641.284 18.706 641.635 18.4888 641.804 18.9301C642.368 20.4031 643.917 20.9801 645.256 20.2169C645.826 19.892 646.15 19.3975 646.132 18.7187C646.114 18.0544 645.672 17.7266 645.13 17.4978C644.569 17.2602 643.97 17.1593 643.381 17.0265C643.007 16.9421 642.648 16.8209 642.295 16.6677C640.678 15.9685 640.829 14.1726 641.566 13.3182C642.372 12.3824 643.463 12.1933 644.581 12.4009C645.668 12.6026 646.511 13.2261 646.834 14.3811C646.879 14.543 647.051 14.8116 646.772 14.8436C646.519 14.8717 646.122 15.0773 645.98 14.6652C645.485 13.2261 644.136 13.0855 643.129 13.3493C642.275 13.5733 641.789 14.3636 642.004 15.1345C642.127 15.5738 642.472 15.7716 642.839 15.9346C643.425 16.1944 644.058 16.2934 644.68 16.4301C645.101 16.5232 645.514 16.6512 645.892 16.8577C646.62 17.2563 647.036 17.8575 647.03 18.7254C647.024 19.6961 646.593 20.4234 645.802 20.9384C645.251 21.2981 644.634 21.4368 644.071 21.4087L644.069 21.4106Z" fill="#3F1F78"/>
<path d="M626.395 16.8694C626.395 18.2231 626.378 19.5769 626.405 20.9296C626.413 21.3282 626.225 21.3282 625.947 21.3175C625.691 21.3078 625.466 21.3699 625.47 20.9452C625.49 18.2386 625.489 15.5312 625.47 12.8246C625.467 12.4203 625.658 12.4309 625.932 12.4435C626.179 12.4542 626.417 12.3776 626.407 12.8091C626.377 14.1619 626.396 15.5156 626.396 16.8694H626.395Z" fill="#3F1F78"/>
<path d="M626.003 8.89529C626.377 8.90305 626.691 9.23566 626.688 9.62162C626.685 10.0182 626.383 10.3227 625.991 10.3247C625.576 10.3276 625.262 10.0018 625.279 9.58768C625.295 9.20657 625.63 8.88753 626.003 8.89529Z" fill="#3F1F78"/>
<defs>
<clipPath id="clip0_11502_28088">
<rect width="67" height="30" fill="white" transform="translate(213.03)"/>
</clipPath>
</defs>
</svg>
