<svg width="298" height="62" viewBox="0 0 298 62" fill="none" xmlns="http://www.w3.org/2000/svg">
<path fill-rule="evenodd" clip-rule="evenodd" d="M51.1343 9.68882C51.1343 10.2897 51.8429 10.676 52.9953 11.2626C54.8921 12.1711 55.7725 13.2799 55.7653 14.732C55.7367 17.3716 53.482 19.0813 50.0249 19.0813C48.5432 19.067 47.1188 18.7523 46.3458 18.4017L46.8039 15.5404L47.2405 15.7406C48.3142 16.2199 49.0156 16.4202 50.3326 16.4202C51.2846 16.4202 52.301 16.0268 52.3153 15.1755C52.3153 14.6176 51.8787 14.2098 50.6046 13.5875C49.352 12.9794 47.6843 11.9636 47.7129 10.1323C47.7272 7.65724 50.0177 5.91895 53.2744 5.91895C54.5557 5.91895 55.5864 6.20508 56.2377 6.45545L55.7868 9.20954L55.4862 9.07362C54.8921 8.8161 54.1047 8.55857 53.0311 8.58719C51.7284 8.58719 51.1486 9.14516 51.1343 9.68882ZM40.9846 18.8954L43.046 6.14792H46.3457L44.2843 18.8954H40.9846ZM64.6903 6.14792H62.1421C61.3548 6.14792 60.7607 6.37683 60.4171 7.20663L55.5213 18.8954H58.9784C58.9784 18.8954 59.5511 17.3216 59.6727 16.9854H63.9101C64.0031 17.4361 64.3038 18.8954 64.3038 18.8954H67.3601L64.6903 6.14792ZM60.6175 14.3816C60.8895 13.6519 61.9346 10.812 61.9346 10.812C61.9289 10.8233 61.9701 10.7097 62.0322 10.5387C62.1273 10.2764 62.2715 9.87884 62.3712 9.58874L62.6002 10.6904C62.6002 10.6904 63.2229 13.7449 63.3589 14.3816H60.6175ZM35.0008 14.8394L38.2289 6.14792H41.7147L36.5326 18.8811H33.0468L30.1049 7.80752C29.0886 7.21379 27.9362 6.7345 26.6406 6.40545L26.6979 6.14792H32.0017C32.7175 6.17654 33.3044 6.40545 33.4905 7.22094L34.6501 13.0796L35.0008 14.8394Z" fill="#3F1F78"/>
<path d="M110.614 4C108.92 4 107.261 4.50502 105.857 5.41951C110.344 9.06383 110.413 15.9498 105.857 19.5737C107.261 20.495 108.934 20.9932 110.614 20.9932C115.37 21 119.228 17.1919 119.228 12.4966C119.235 7.81493 115.37 4 110.614 4Z" fill="#3F1F78"/>
<path d="M105.298 5.8153C100.928 9.21393 100.915 15.7996 105.298 19.171C109.681 15.7996 109.66 9.21393 105.298 5.8153Z" fill="#3F1F78"/>
<path d="M99.9743 4.00682C101.668 4.00682 103.327 4.50502 104.737 5.42633C100.23 9.06383 100.202 15.9362 104.731 19.5805C103.327 20.495 101.668 21 99.9743 21C95.2249 21 91.3604 17.1919 91.3604 12.4966C91.3604 7.81493 95.2249 4 99.9743 4.00682Z" fill="#3F1F78"/>
<path d="M134.137 15.7779V12.1678C134.137 10.8083 133.263 9.8931 131.857 9.88109C131.041 9.82825 130.261 10.2198 129.821 10.9043C129.419 10.2414 128.683 9.84747 127.906 9.88109C127.228 9.84747 126.582 10.1717 126.209 10.7362V10.0252H124.948V15.7755H126.221V12.5905C126.221 11.5913 126.778 11.0629 127.64 11.0629C128.477 11.0629 128.901 11.6033 128.901 12.5785V15.7779H130.174V12.5905C130.174 11.5913 130.755 11.0629 131.593 11.0629C132.455 11.0629 132.866 11.6033 132.866 12.5785V15.7779H134.137ZM152.977 10.0276H150.917V8.28379H149.644V10.0276H148.468V11.1709H149.644V13.7939C149.644 15.1294 150.164 15.9244 151.656 15.9244C152.212 15.9268 152.759 15.7707 153.231 15.4801L152.868 14.4088C152.529 14.6082 152.147 14.721 151.752 14.7331C151.123 14.7331 150.915 14.3487 150.915 13.7699V11.1709H152.975V10.0276H152.977ZM163.733 9.8835C163.106 9.86428 162.52 10.1885 162.205 10.7266V10.03H160.956V15.7803H162.217V12.5545C162.217 11.6033 162.629 11.0749 163.454 11.0749C163.723 11.0701 163.992 11.1205 164.243 11.219L164.631 10.0396C164.343 9.93634 164.038 9.8835 163.733 9.8835ZM147.473 10.484C146.759 10.0636 145.938 9.85467 145.108 9.8835C143.641 9.8835 142.694 10.5801 142.694 11.7234C142.694 12.6626 143.396 13.239 144.694 13.4192L145.287 13.5033C145.977 13.5993 146.306 13.7795 146.306 14.1037C146.306 14.5481 145.846 14.8003 144.984 14.8003C144.292 14.8195 143.612 14.6082 143.057 14.1998L142.464 15.175C143.198 15.6842 144.079 15.946 144.974 15.922C146.647 15.922 147.618 15.139 147.618 14.0461C147.618 13.0349 146.853 12.5064 145.594 12.3263L145.001 12.2422C144.456 12.1702 144.018 12.0621 144.018 11.6778C144.018 11.2574 144.43 11.0052 145.122 11.0052C145.756 11.0148 146.378 11.1854 146.928 11.4976L147.473 10.484ZM181.254 9.8835C180.627 9.86428 180.041 10.1885 179.726 10.7266V10.03H178.477V15.7803H179.738V12.5545C179.738 11.6033 180.15 11.0749 180.975 11.0749C181.244 11.0701 181.513 11.1205 181.764 11.219L182.152 10.0396C181.861 9.93634 181.559 9.8835 181.254 9.8835ZM165.006 12.9028C165.006 14.6466 166.231 15.922 168.097 15.922C168.855 15.9605 169.598 15.7155 170.181 15.2351L169.576 14.2238C169.14 14.5529 168.608 14.7355 168.061 14.7403C167.054 14.7283 166.315 14.0053 166.315 12.9004C166.315 11.7931 167.056 11.0725 168.061 11.0605C168.608 11.0677 169.14 11.2478 169.576 11.5769L170.181 10.5657C169.598 10.0877 168.852 9.84266 168.097 9.87869C166.231 9.8835 165.006 11.1589 165.006 12.9028ZM176.814 10.0276H175.553V10.7242C175.117 10.1669 174.435 9.85227 173.723 9.88109C172.099 9.88109 170.825 11.1445 170.825 12.9004C170.825 14.6562 172.099 15.9196 173.723 15.9196C174.435 15.9508 175.117 15.6362 175.553 15.0765V15.7731H176.814V10.0276ZM172.123 12.9028C172.123 11.8915 172.788 11.0629 173.88 11.0629C174.923 11.0629 175.625 11.8579 175.625 12.9028C175.625 13.9476 174.921 14.7427 173.88 14.7427C172.788 14.7427 172.123 13.914 172.123 12.9028ZM156.906 9.8835C155.209 9.8835 154.021 11.1109 154.021 12.9028C154.021 14.7307 155.258 15.922 156.991 15.922C157.855 15.9532 158.702 15.665 159.368 15.115L158.751 14.1878C158.271 14.5697 157.678 14.7811 157.066 14.7883C156.253 14.7883 155.514 14.416 155.333 13.3808H159.637C159.649 13.2246 159.661 13.0685 159.661 12.9004C159.646 11.1109 158.53 9.8835 156.906 9.8835ZM156.882 11.0004C157.695 11.0004 158.216 11.5048 158.349 12.3959H155.342C155.475 11.5673 155.984 11.0004 156.882 11.0004ZM188.516 7.71693H187.255V10.7242C186.819 10.1669 186.136 9.85227 185.425 9.88109C183.8 9.88109 182.527 11.1445 182.527 12.9004C182.527 14.6562 183.8 15.9196 185.425 15.9196C186.136 15.9508 186.819 15.6362 187.255 15.0765V15.7731H188.516V7.71693ZM189.988 15.2471C190.038 15.2471 190.087 15.2567 190.133 15.2759C190.176 15.2951 190.218 15.3215 190.251 15.3552C190.285 15.3888 190.312 15.4272 190.331 15.4705C190.37 15.5617 190.37 15.6626 190.331 15.7539C190.312 15.7971 190.285 15.8356 190.251 15.8692C190.218 15.9028 190.176 15.9292 190.133 15.9484C190.087 15.9677 190.038 15.9773 189.988 15.9773C189.837 15.9797 189.7 15.8908 189.639 15.7539C189.6 15.6626 189.6 15.5617 189.639 15.4705C189.678 15.3816 189.748 15.3119 189.837 15.2759C189.888 15.2567 189.937 15.2471 189.988 15.2471ZM189.988 15.8956C190.026 15.8956 190.063 15.8884 190.099 15.874C190.133 15.8596 190.164 15.838 190.188 15.8139C190.3 15.7034 190.3 15.5233 190.188 15.4104C190.162 15.384 190.133 15.3648 190.099 15.3504C190.065 15.3359 190.026 15.3287 189.988 15.3287C189.949 15.3287 189.91 15.3359 189.874 15.3504C189.729 15.4128 189.661 15.5785 189.721 15.7251C189.736 15.7587 189.755 15.7875 189.782 15.8139C189.808 15.8404 189.84 15.8596 189.874 15.874C189.913 15.8884 189.949 15.8956 189.988 15.8956ZM190.009 15.4416C190.046 15.4392 190.082 15.4488 190.111 15.4705C190.135 15.4897 190.147 15.5185 190.147 15.5497C190.147 15.5761 190.138 15.6002 190.118 15.6194C190.096 15.6386 190.067 15.6506 190.038 15.653L190.15 15.7803H190.063L189.959 15.653H189.925V15.7803H189.852V15.4416H190.009ZM189.925 15.5041V15.5954H190.009C190.026 15.5954 190.041 15.593 190.055 15.5833C190.067 15.5761 190.072 15.5617 190.072 15.5497C190.072 15.5353 190.067 15.5233 190.055 15.5161C190.041 15.5089 190.026 15.5041 190.009 15.5041H189.925ZM183.822 12.9028C183.822 11.8915 184.488 11.0629 185.579 11.0629C186.623 11.0629 187.325 11.8579 187.325 12.9028C187.325 13.9476 186.62 14.7427 185.579 14.7427C184.49 14.7427 183.822 13.914 183.822 12.9028ZM141.242 10.0276H139.981V10.7242C139.545 10.1669 138.862 9.85227 138.15 9.88109C136.526 9.88109 135.253 11.1445 135.253 12.9004C135.253 14.6562 136.526 15.9196 138.15 15.9196C138.862 15.9508 139.545 15.6362 139.981 15.0765V15.7731H141.242V10.0276ZM136.55 12.9028C136.55 11.8915 137.216 11.0629 138.308 11.0629C139.351 11.0629 140.053 11.8579 140.053 12.9028C140.053 13.9476 139.351 14.7427 138.308 14.7427C137.216 14.7427 136.548 13.914 136.55 12.9028Z" fill="#3F1F78"/>
<g clip-path="url(#clip0_11430_28420)">
<path d="M252.238 8.19859V17.338C252.238 17.4827 252.123 17.5913 251.968 17.5913H249.983C249.829 17.5913 249.713 17.4827 249.713 17.338V8.19859C249.713 8.05381 249.829 7.94522 249.983 7.94522H251.968C252.123 7.96332 252.238 8.0719 252.238 8.19859ZM267.736 7.96332H265.52C265.404 7.96332 265.308 8.03571 265.269 8.1443L263.515 13.5555L261.587 8.1443C261.549 8.03571 261.452 7.98142 261.337 7.98142H259.775C259.66 7.98142 259.563 8.05381 259.525 8.1443L257.597 13.5555L255.843 8.1443C255.804 8.03571 255.708 7.96332 255.592 7.96332H253.376C253.298 7.96332 253.202 7.99951 253.164 8.07191C253.106 8.1443 253.106 8.21669 253.125 8.28908L256.402 17.4466C256.441 17.5551 256.537 17.6094 256.653 17.6094H258.426C258.542 17.6094 258.638 17.537 258.677 17.4466L260.585 12.1077L262.493 17.4466C262.532 17.5551 262.628 17.6094 262.744 17.6094H264.517C264.633 17.6094 264.729 17.537 264.768 17.4466L268.045 8.28908C268.064 8.21669 268.064 8.1262 268.006 8.07191C267.91 7.99951 267.833 7.96332 267.736 7.96332ZM271.09 7.96332H269.105C268.951 7.96332 268.835 8.0719 268.835 8.21669V17.3561C268.835 17.5008 268.951 17.6094 269.105 17.6094H271.09C271.245 17.6094 271.36 17.5008 271.36 17.3561V8.21669C271.36 8.0719 271.225 7.96332 271.09 7.96332ZM248.576 17.2837C248.691 17.4104 248.595 17.5913 248.422 17.5913H245.993C245.896 17.5913 245.8 17.5551 245.742 17.4827L245.337 17.0122C244.489 17.5189 243.487 17.8266 242.427 17.8266C239.458 17.8266 237.049 15.5644 237.049 12.7773C237.049 9.99027 239.458 7.72805 242.427 7.72805C245.395 7.72805 247.805 9.99027 247.805 12.7773C247.805 13.7727 247.496 14.7138 246.957 15.5101L248.576 17.2837ZM243.737 15.2567L242.677 14.0442C242.562 13.9175 242.658 13.7184 242.831 13.7184H245.067C245.183 13.4288 245.241 13.1031 245.241 12.7773C245.241 11.2752 244.046 9.97217 242.407 9.97217C240.769 9.97217 239.574 11.2752 239.574 12.7773C239.574 14.2794 240.769 15.5644 242.407 15.5644C242.889 15.5825 243.333 15.4558 243.737 15.2567ZM230.899 17.2475C230.957 17.6275 230.822 17.7904 230.707 17.7904C230.572 17.7904 230.398 17.6275 230.186 17.338C229.974 17.0303 229.897 16.6864 230.013 16.5236C230.071 16.415 230.225 16.3607 230.398 16.415C230.726 16.5236 230.861 17.0122 230.899 17.2475ZM228.991 18.0619C229.396 18.3876 229.531 18.7858 229.319 19.0573C229.203 19.202 229.01 19.2925 228.76 19.2925C228.528 19.2925 228.297 19.2201 228.124 19.0754C227.757 18.7677 227.642 18.261 227.892 17.9895C227.989 17.8809 228.143 17.8266 228.336 17.8266C228.548 17.8266 228.779 17.9171 228.991 18.0619ZM228.297 21.229C230.071 21.229 231.998 21.8081 234.138 23.5817C234.35 23.7627 234.639 23.5455 234.446 23.3102C232.345 20.8308 230.418 20.3603 228.49 19.9621C226.119 19.4735 224.904 18.2248 224.056 16.8493C223.883 16.5779 223.806 16.6322 223.806 16.976C223.786 17.4104 223.825 17.9714 223.921 18.5324C223.825 18.5324 223.729 18.5324 223.632 18.5324C220.259 18.5324 217.502 15.9625 217.502 12.7773C217.502 9.61022 220.24 7.02223 223.632 7.02223C227.025 7.02223 229.762 9.59212 229.762 12.7773C229.762 12.9945 229.743 13.2298 229.724 13.4469C229.28 13.3746 228.393 13.3565 227.777 13.4107C227.545 13.4288 227.584 13.5374 227.757 13.5555C229.781 13.8994 231.169 15.0757 231.497 17.2113C231.497 17.2656 231.574 17.2837 231.593 17.2294C232.422 15.9263 232.904 14.4061 232.904 12.7592C232.904 7.96332 228.76 4.0542 223.632 4.0542C218.505 4.0542 214.36 7.94522 214.36 12.7592C214.36 17.5551 218.505 21.4643 223.632 21.4643C224.982 21.4824 226.331 21.229 228.297 21.229Z" fill="#3F1F78"/>
</g>
<path d="M75.2749 47.987L73.5281 52.4217C73.5281 52.4826 73.4658 52.5435 73.4658 52.6087L73.4034 52.7304L73.341 52.6087C73.341 52.5478 73.2828 52.487 73.2828 52.4217L71.536 47.987H69.2444L72.2555 55.6217L70.9911 58.5174H73.2828L77.5 47.987H75.2749Z" fill="#3F1F78"/>
<path d="M58.4018 48.4217C57.9817 48.113 57.4993 47.9304 56.8962 47.8696C55.8731 47.7478 54.9082 48.1174 54.3052 48.8565V47.9956H52.2589V55.6304H54.3052V51.6261C54.3052 50.7043 54.484 50.5174 54.6088 50.2696C54.85 49.8391 55.3324 49.5913 55.8731 49.6522C56.4138 49.6522 56.9586 49.9 57.1998 50.3304C57.3787 50.6391 57.3787 51.0087 57.3787 51.2522C57.3787 51.9304 57.3787 55.6261 57.3787 55.6261H59.4291V51.0087C59.4249 49.7739 59.0672 48.9739 58.4018 48.4217Z" fill="#3F1F78"/>
<path d="M48.3412 48.0522C47.318 47.6826 46.2325 47.7435 45.2094 48.2391C44.4857 48.5478 43.9451 49.1 43.5209 49.7783C43.159 50.3956 42.9802 51.0696 42.9802 51.8739C42.9802 52.6739 43.159 53.3522 43.5209 53.9696C43.8827 54.587 44.3651 55.0174 44.9682 55.387C45.5712 55.6957 46.2949 55.8783 46.9562 55.8783C47.318 55.8783 47.6799 55.8174 48.0417 55.7565C48.3411 55.6957 48.6448 55.5739 48.9442 55.387C49.5473 55.0174 50.0297 54.587 50.3915 54.0304C50.7534 53.413 50.9322 52.7391 50.9322 51.9348C50.8698 50.0826 49.9049 48.6652 48.3412 48.0522ZM48.8818 51.8696C48.8818 52.5478 48.6406 53.1 48.2205 53.4696C47.9211 53.7783 47.4969 53.9 46.8938 53.9C46.3531 53.9 45.9289 53.713 45.5671 53.4696C45.147 53.1 44.964 52.5478 44.9058 51.8696C44.9058 51.1304 45.147 50.4522 45.6877 50.0217C45.9871 49.7739 46.349 49.6522 46.8314 49.6522C47.3139 49.6522 47.6757 49.7739 47.9752 50.0217C48.6406 50.4522 48.9442 51.1304 48.8818 51.8696Z" fill="#3F1F78"/>
<path d="M40.6262 48.4217C40.2644 48.113 39.7237 47.9304 39.1206 47.8696C39 47.8696 38.8794 47.8696 38.7588 47.8696C37.9145 47.8696 37.2532 48.2391 36.6502 48.9783L36.5296 49.1H36.2883C36.1095 48.8522 35.9265 48.6087 35.6853 48.4826C35.3234 48.113 34.841 47.9304 34.2379 47.8652C33.2731 47.7435 32.4912 48.0522 31.8299 48.787V47.987H29.7795V55.6217H31.8299V51.5565C31.8299 50.6956 31.9505 50.5087 32.0711 50.2652C32.3123 49.8348 32.7948 49.587 33.2772 49.587C33.7597 49.587 34.2421 49.8348 34.4833 50.2652C34.6622 50.5739 34.6622 50.9435 34.6622 51.313V55.5609H36.7708V51.4956C36.7708 50.7565 36.8914 50.4478 37.012 50.2043C37.2532 49.7739 37.7357 49.587 38.2181 49.587C38.7006 49.587 39.1206 49.8956 39.3619 50.2652C39.4825 50.513 39.5407 50.8174 39.5407 51.0652C39.5407 51.187 39.5407 51.2478 39.5407 51.3739V55.6217H41.5911V51.0043C41.5911 50.5739 41.5329 50.2043 41.4705 49.8348C41.3499 49.2217 41.0504 48.7261 40.6262 48.4217Z" fill="#3F1F78"/>
<path d="M67.1981 53.2869C66.8987 53.5956 66.175 54.1478 65.2101 54.2087C64.4282 54.2087 63.7628 54.0261 63.3427 53.5304C63.1639 53.2826 62.9809 53.0391 62.9226 52.7304H68.6454V52.6696C68.7037 52.3609 68.7037 52.0522 68.7037 51.8087C68.7037 51.5609 68.6454 51.1913 68.5248 50.7C68.2836 49.8391 67.8012 49.1609 67.1399 48.6043C66.4162 48.0522 65.6926 47.8652 65.5137 47.8652C64.0081 47.6174 62.3196 48.2956 61.4753 49.713C60.8722 50.7 60.8722 51.6826 60.9346 51.9913C60.9346 52.3609 60.997 53.5304 61.8995 54.5174C62.9226 55.6869 64.4324 55.7478 64.9106 55.8087C66.961 55.8696 68.346 54.5782 68.6454 54.2696L67.1981 53.2869ZM63.6463 50.0826C63.9458 49.8348 64.3076 49.713 64.79 49.713C65.2725 49.713 65.6343 49.8348 65.9338 50.0826C66.2332 50.3304 66.4744 50.6348 66.595 51.0696H62.9185C63.1015 50.6391 63.3427 50.3304 63.6463 50.0826Z" fill="#3F1F78"/>
<path d="M15.564 43C10.9225 43 7.25008 46.8174 7.25008 51.5C7.25008 56.1826 10.9849 60 15.564 60C20.143 60 23.8778 56.1826 23.8778 51.5C23.9402 46.8174 20.143 43 15.564 43ZM15.564 54.6391C13.8754 54.6391 12.4322 53.2217 12.4322 51.5C12.4322 49.7739 13.8172 48.3609 15.564 48.3609C17.3107 48.3609 18.6957 49.7783 18.6957 51.5C18.6375 53.2217 17.3107 54.6391 15.564 54.6391Z" fill="#3F1F78"/>
<path d="M7.25008 45.5261V57.9043H4.29718L0.5 45.5261H7.25008Z" fill="#3F1F78"/>
<path d="M170.378 43C171.794 43 173.142 43.2947 174.351 43.8231C174.541 43.9007 174.732 43.994 174.921 44.0873L174.092 44.7551L172.849 43.5903L170.707 45.2984L169.445 44.0716L165.506 47.2549L168.028 49.7547L167.044 50.5308L169.532 53.0306L168.547 53.8066L172.107 57.3623L174.213 55.6228L176.046 57.487C175.683 57.7355 175.285 57.9848 174.854 58.2011C173.541 58.869 172.02 59.2561 170.396 59.2561C165.403 59.2561 161.343 55.608 161.343 51.1202C161.325 46.6647 165.386 43 170.378 43ZM168.719 50.6241L170.878 48.8846L172.813 50.8255L170.653 52.565L168.719 50.6241ZM170.257 53.9783L172.399 52.224L174.351 54.1649L172.191 55.9044L170.257 53.9783ZM167.183 47.3169L169.342 45.5774L171.277 47.5183L169.117 49.2578L167.183 47.3169ZM171.138 46.3848L172.745 45.0804L174.197 46.5243L172.59 47.8444L171.138 46.3848ZM174.006 52.3635L175.613 51.0591L177.065 52.5187L175.457 53.8239L174.006 52.3635ZM175.423 55.2984L177.03 53.994L178.48 55.4379L176.874 56.7572L175.423 55.2984ZM176.079 48.5899L177.15 47.7206L178.117 48.684L177.046 49.5533L176.079 48.5899ZM174.697 45.7178L175.769 44.8327L176.737 45.811L175.665 46.6804L174.697 45.7178ZM177.444 51.4628L178.515 50.5935L179.5 51.5561L178.412 52.4254L177.444 51.4628ZM172.624 49.3048L174.232 48.0004L175.683 49.4443L174.076 50.7487L172.624 49.3048Z" fill="#3F1F78"/>
<path d="M106.239 48.6005H106.157L104.627 53.8833H103.377L101.5 46.3781H102.798L104.095 51.9779H104.176L105.682 46.3781H106.714L108.324 51.9779H108.406L109.587 46.3781H110.944L109.066 53.8833H107.814L106.239 48.6005Z" fill="#3F1F78"/>
<path d="M112.589 50.6885H115.241C115.184 49.5773 114.593 49.1331 113.967 49.1331C113.261 49.1331 112.716 49.6301 112.589 50.6885ZM116.168 52.6789V53.4838C115.647 53.7587 114.953 53.9709 114.118 53.9709C112.172 53.9709 111.373 52.8696 111.373 51.1978C111.373 49.588 112.265 48.424 114.003 48.424C115.451 48.424 116.344 49.2817 116.344 51.0071V51.3993H112.566C112.566 52.669 113.134 53.2304 114.328 53.2304C114.953 53.2287 115.532 53.0273 116.168 52.6789Z" fill="#3F1F78"/>
<path d="M119.038 53.1214C119.408 53.2692 119.814 53.2915 120.105 53.2915C120.962 53.2915 121.61 52.8036 121.61 51.0897C121.61 49.7449 121.077 49.3114 120.302 49.3114C119.838 49.3114 119.502 49.4287 119.039 49.6607V53.1214H119.038ZM119.05 48.8772C119.397 48.7088 119.988 48.4851 120.614 48.4851C122.051 48.4851 122.827 49.3957 122.827 51.0897C122.827 53.0694 121.784 54.0328 120.105 54.0328C119.49 54.0328 118.54 53.8529 117.845 53.5136V46.1248L119.05 45.8606V48.8772Z" fill="#3F1F78"/>
<path d="M128.042 52.2909H128.1L130.579 46.3733H132.016V53.8793H130.765V48.438H130.661L128.296 53.8793H127.555L125.191 48.5652H125.087V53.8793H124.045V46.3733H125.447L128.042 52.2909Z" fill="#3F1F78"/>
<path d="M137.128 51.197C137.128 49.768 136.492 49.1645 135.704 49.1645C134.939 49.1645 134.278 49.768 134.278 51.197C134.278 52.6475 134.881 53.2296 135.704 53.2296C136.526 53.2287 137.128 52.6475 137.128 51.197ZM133.062 51.197C133.062 49.3436 134.175 48.4231 135.704 48.4231C137.234 48.4231 138.345 49.3436 138.345 51.197C138.345 53.0067 137.291 53.9709 135.704 53.9709C134.117 53.9709 133.062 53.0067 133.062 51.197Z" fill="#3F1F78"/>
<path d="M139.262 49.2066C139.784 48.9201 140.885 48.4223 142.217 48.4223C143.607 48.4223 144.128 48.9201 144.128 50.0099V53.843H142.924V50.2542C142.924 49.4179 142.472 49.2702 141.881 49.2702C141.418 49.2702 140.827 49.4609 140.467 49.6516V53.8438H139.262V49.2066Z" fill="#3F1F78"/>
<path d="M146.677 50.6885H149.331C149.273 49.5773 148.682 49.1331 148.057 49.1331C147.349 49.1331 146.805 49.6301 146.677 50.6885ZM150.258 52.6789V53.4838C149.737 53.7587 149.042 53.9709 148.207 53.9709C146.262 53.9709 145.462 52.8696 145.462 51.1978C145.462 49.588 146.354 48.424 148.092 48.424C149.541 48.424 150.433 49.2817 150.433 51.0071V51.3993H146.656C146.656 52.669 147.223 53.2304 148.417 53.2304C149.041 53.2287 149.621 53.0273 150.258 52.6789Z" fill="#3F1F78"/>
<path d="M155.245 48.4231H156.485L154.387 53.7158C153.807 55.1771 153.102 55.939 151.77 55.939V55.0714C152.558 55.0714 153.044 54.4993 153.322 53.7158L151.098 48.4231H152.373L153.855 52.319H153.925L155.245 48.4231Z" fill="#3F1F78"/>
<path d="M114.014 58.7625V58.3051C114.444 58.5033 114.853 58.6031 115.24 58.6031C115.563 58.6031 115.811 58.5495 115.983 58.4405C116.156 58.3324 116.243 58.1871 116.243 58.0021C116.243 57.818 116.172 57.6793 116.029 57.5877C115.888 57.4961 115.623 57.3821 115.235 57.2476C115.1 57.2013 115.014 57.1716 114.976 57.1576C114.938 57.1436 114.863 57.1147 114.752 57.0726C114.641 57.0305 114.567 56.9983 114.533 56.9768C114.498 56.9553 114.44 56.9231 114.358 56.881C114.275 56.8381 114.22 56.8001 114.191 56.7671C114.162 56.7332 114.123 56.6903 114.073 56.6391C114.023 56.588 113.989 56.5376 113.972 56.4856C113.955 56.4344 113.938 56.375 113.923 56.3073C113.907 56.2396 113.9 56.1669 113.9 56.0893C113.9 55.788 114.022 55.5461 114.265 55.362C114.509 55.1779 114.845 55.0863 115.276 55.0863C115.655 55.0863 116.034 55.1498 116.41 55.2778V55.7607C116.046 55.5973 115.681 55.5164 115.317 55.5164C115.06 55.5164 114.868 55.5651 114.741 55.6641C114.615 55.7632 114.551 55.8945 114.551 56.0571C114.551 56.2305 114.615 56.3626 114.741 56.4526C114.867 56.5434 115.094 56.6433 115.42 56.7531C115.98 56.9405 116.366 57.1105 116.577 57.2633C116.789 57.4152 116.894 57.6422 116.894 57.9427C116.894 58.2581 116.749 58.5165 116.459 58.7162C116.169 58.916 115.772 59.0168 115.265 59.0168C114.799 59.0176 114.383 58.9325 114.014 58.7625ZM119.871 58.9375H119.325L119.285 58.6296C118.954 58.8781 118.625 59.0019 118.295 59.0019C118.019 59.0019 117.805 58.9342 117.653 58.7972C117.501 58.6609 117.425 58.4884 117.425 58.2787C117.425 58.1689 117.447 58.0641 117.491 57.9625C117.536 57.8618 117.608 57.7636 117.71 57.6678C117.812 57.572 117.965 57.4952 118.171 57.4366C118.376 57.378 118.623 57.3491 118.911 57.3491H119.267V57.2055C119.267 56.9685 119.219 56.8067 119.123 56.7192C119.027 56.6325 118.866 56.5888 118.639 56.5888C118.363 56.5888 118.023 56.6928 117.62 56.9025V56.4773C118.034 56.304 118.441 56.2164 118.841 56.2164C119.228 56.2164 119.497 56.2891 119.646 56.4352C119.796 56.5797 119.87 56.8001 119.87 57.0932V58.9375H119.871ZM119.273 57.7206H118.968C118.339 57.7206 118.023 57.8923 118.023 58.2366C118.023 58.3571 118.065 58.4438 118.15 58.4991C118.234 58.5544 118.339 58.5817 118.467 58.5817C118.627 58.5817 118.783 58.5462 118.932 58.4752C119.082 58.405 119.196 58.3233 119.272 58.2308V57.7206H119.273ZM120.807 60V56.6053C120.975 56.4881 121.174 56.3939 121.405 56.3229C121.636 56.2528 121.862 56.2164 122.084 56.2164C122.882 56.2164 123.281 56.6614 123.281 57.5506C123.281 58.0112 123.177 58.3637 122.97 58.6073C122.763 58.8516 122.466 58.9738 122.078 58.9738C121.809 58.9738 121.585 58.9119 121.404 58.7889V60H120.807ZM121.4 56.7853V58.3959C121.477 58.4628 121.573 58.5132 121.69 58.547C121.807 58.5809 121.91 58.5974 121.998 58.5974C122.209 58.5974 122.375 58.5222 122.496 58.372C122.616 58.2209 122.676 57.9477 122.676 57.5514C122.676 57.2294 122.614 56.9925 122.489 56.8447C122.365 56.6953 122.202 56.621 122.002 56.621C121.777 56.621 121.577 56.6755 121.4 56.7853ZM124.655 56.2437V58.9367H124.056V56.3758L124.655 56.2437ZM123.964 55.4627C123.964 55.3669 124.003 55.2836 124.082 55.2101C124.161 55.1374 124.252 55.1011 124.355 55.1011C124.459 55.1011 124.55 55.1374 124.629 55.2101C124.708 55.2827 124.747 55.3669 124.747 55.4627C124.747 55.5585 124.708 55.6427 124.629 55.7153C124.55 55.7872 124.46 55.8235 124.355 55.8235C124.252 55.8235 124.161 55.7872 124.082 55.7153C124.003 55.6427 123.964 55.5585 123.964 55.4627ZM126.897 58.6287C127.173 58.6287 127.478 58.5363 127.812 58.353V58.7567C127.505 58.9202 127.166 59.0011 126.793 59.0011C126.325 59.0011 125.981 58.8789 125.76 58.6345C125.539 58.3902 125.428 58.0484 125.428 57.6092C125.428 57.1906 125.542 56.8538 125.768 56.6003C125.995 56.3452 126.317 56.2173 126.735 56.2173C127.104 56.2173 127.389 56.3271 127.593 56.5475C127.797 56.7671 127.898 57.0891 127.898 57.5142V57.7107H126.022C126.022 58.0261 126.093 58.2581 126.235 58.4058C126.376 58.5553 126.597 58.6287 126.897 58.6287ZM126.718 56.5731C126.538 56.5731 126.386 56.6383 126.263 56.7696C126.14 56.9008 126.063 57.0957 126.033 57.3541H127.352C127.336 57.0924 127.269 56.8967 127.15 56.7679C127.031 56.6375 126.887 56.5731 126.718 56.5731ZM128.66 56.6111C129.132 56.3485 129.622 56.2173 130.128 56.2173C130.47 56.2173 130.713 56.2817 130.859 56.4088C131.006 56.5368 131.078 56.7382 131.078 57.0139V58.9375H130.48V57.137C130.48 56.9421 130.435 56.8109 130.347 56.744C130.259 56.6763 130.13 56.6433 129.961 56.6433C129.732 56.6433 129.497 56.7077 129.259 56.8348V58.9383H128.66V56.6111ZM132.583 56.3452H133.493L133.348 56.7068H132.583V58.1095C132.583 58.4636 132.748 58.6411 133.078 58.6411C133.204 58.6411 133.333 58.6164 133.464 58.5668V58.907C133.283 58.9705 133.068 59.0027 132.819 59.0027C132.531 59.0027 132.32 58.9276 132.186 58.7765C132.052 58.6263 131.984 58.429 131.984 58.1838V55.9952L132.583 55.5965V56.3452ZM134.664 56.2437V58.9367H134.066V56.3758L134.664 56.2437ZM133.974 55.4627C133.974 55.3669 134.013 55.2836 134.091 55.2101C134.17 55.1374 134.261 55.1011 134.364 55.1011C134.468 55.1011 134.56 55.1374 134.638 55.2101C134.717 55.2827 134.756 55.3669 134.756 55.4627C134.756 55.5585 134.717 55.6427 134.638 55.7153C134.56 55.7872 134.468 55.8235 134.364 55.8235C134.261 55.8235 134.169 55.7872 134.091 55.7153C134.013 55.6427 133.974 55.5585 133.974 55.4627ZM138.739 56.4294V56.8538C138.451 56.6771 138.16 56.5888 137.865 56.5888C137.715 56.5888 137.592 56.6152 137.496 56.6689C137.401 56.7217 137.353 56.8067 137.353 56.9231C137.353 57.0338 137.405 57.1213 137.511 57.1865C137.616 57.2525 137.782 57.3186 138.009 57.3854C138.135 57.4242 138.231 57.4548 138.293 57.4763C138.357 57.4977 138.441 57.5332 138.544 57.5828C138.648 57.6323 138.726 57.6818 138.777 57.7314C138.829 57.7809 138.876 57.8461 138.918 57.9278C138.96 58.0096 138.981 58.0996 138.981 58.1986C138.981 58.443 138.875 58.6378 138.662 58.7831C138.449 58.9284 138.164 59.0011 137.808 59.0011C137.408 59.0011 137.077 58.9235 136.812 58.7666V58.3522C137.149 58.5363 137.458 58.6279 137.739 58.6279C138.16 58.6279 138.372 58.5008 138.372 58.2457C138.372 58.1961 138.359 58.1499 138.334 58.1078C138.31 58.0657 138.281 58.031 138.248 58.0038C138.215 57.9774 138.163 57.9477 138.089 57.913C138.017 57.88 137.955 57.8552 137.905 57.8395C137.855 57.8238 137.777 57.7982 137.669 57.7627C137.512 57.7099 137.386 57.6637 137.295 57.6249C137.202 57.5852 137.11 57.5357 137.019 57.4738C136.926 57.4119 136.859 57.3376 136.817 57.2534C136.775 57.1683 136.753 57.0676 136.753 56.9504C136.753 56.8018 136.792 56.6746 136.869 56.5681C136.945 56.4608 137.046 56.3849 137.168 56.3395C137.291 56.2932 137.404 56.261 137.505 56.2437C137.607 56.2255 137.708 56.2164 137.808 56.2164C138.134 56.2164 138.444 56.2874 138.739 56.4294ZM141.919 58.9375H141.373L141.332 58.6296C141.001 58.8781 140.672 59.0019 140.342 59.0019C140.066 59.0019 139.852 58.9342 139.7 58.7972C139.548 58.6609 139.473 58.4884 139.473 58.2787C139.473 58.1689 139.495 58.0641 139.539 57.9625C139.584 57.8618 139.656 57.7636 139.758 57.6678C139.86 57.572 140.013 57.4952 140.218 57.4366C140.424 57.378 140.671 57.3491 140.958 57.3491H141.314V57.2055C141.314 56.9685 141.266 56.8067 141.171 56.7192C141.075 56.6325 140.913 56.5888 140.687 56.5888C140.41 56.5888 140.07 56.6928 139.668 56.9025V56.4773C140.083 56.304 140.489 56.2164 140.889 56.2164C141.276 56.2164 141.544 56.2891 141.694 56.4352C141.844 56.5797 141.918 56.8001 141.918 57.0932V58.9375H141.919ZM141.322 57.7206H141.017C140.387 57.7206 140.072 57.8923 140.072 58.2366C140.072 58.3571 140.115 58.4438 140.199 58.4991C140.283 58.5544 140.388 58.5817 140.515 58.5817C140.676 58.5817 140.831 58.5462 140.981 58.4752C141.131 58.405 141.245 58.3233 141.321 58.2308V57.7206H141.322ZM144.334 56.3452L144.189 56.7068H143.424V58.1095C143.424 58.4636 143.589 58.6411 143.919 58.6411C144.046 58.6411 144.174 58.6164 144.305 58.5668V58.907C144.124 58.9705 143.91 59.0027 143.659 59.0027C143.372 59.0027 143.161 58.9276 143.026 58.7765C142.892 58.6263 142.825 58.429 142.825 58.1838V55.9952L143.424 55.5965V56.3452H144.334Z" fill="#3F1F78"/>
<path d="M215.495 61.9984C214.131 61.9984 212.766 61.9937 211.402 62C209.965 62.0062 208.889 61.4063 208.172 60.211C206.788 57.9036 205.41 55.5922 204.029 53.2832C203.32 52.0974 203.327 50.9053 204.029 49.7242C205.411 47.4003 206.799 45.0811 208.194 42.7658C208.897 41.598 209.962 41.0067 211.362 41.0043C214.145 40.9996 216.928 40.9973 219.712 41.0051C221.077 41.009 222.136 41.58 222.825 42.7157C224.261 45.0842 225.689 47.4575 227.088 49.8464C227.759 50.9922 227.695 52.1632 227.014 53.302C225.675 55.5437 224.334 57.7838 222.998 60.0262C222.713 60.504 222.391 60.9488 221.933 61.2896C221.288 61.7681 220.563 62.0007 219.751 61.9984C218.333 61.9945 216.915 61.9976 215.496 61.9976L215.495 61.9984ZM213.938 52.6472C215.106 52.6519 216.274 52.67 217.441 52.6535C217.784 52.6488 217.872 52.7522 217.858 53.0686C217.835 53.5589 217.864 54.0524 217.87 54.5443C217.864 55.3886 217.861 56.2337 217.848 57.0781C217.845 57.2699 217.932 57.3263 218.114 57.3256C218.881 57.3216 219.649 57.3209 220.416 57.3263C220.605 57.3279 220.676 57.2637 220.674 57.0765C220.663 55.8679 220.661 54.6594 220.657 53.4508C220.656 52.4553 220.654 51.4598 220.653 50.4643C220.655 50.1667 220.657 49.8691 220.658 49.5707C220.662 48.3331 220.66 47.0956 220.677 45.8581C220.68 45.6106 220.568 45.5887 220.364 45.591C219.635 45.5988 218.905 45.6074 218.177 45.5879C217.895 45.58 217.845 45.6795 217.848 45.9231C217.859 47.1739 217.845 48.4248 217.858 49.6756C217.861 49.9599 217.816 50.0813 217.472 50.0751C216.177 50.0524 214.88 50.0555 213.584 50.0735C213.276 50.0782 213.204 49.996 213.208 49.7062C213.225 48.4428 213.216 47.1786 213.216 45.9145C213.216 45.7523 213.269 45.5808 212.974 45.5879C212.205 45.6051 211.435 45.5973 210.665 45.591C210.486 45.5894 210.395 45.6278 210.398 45.8275C210.412 46.7518 210.413 47.6768 210.42 48.601C210.389 49.4869 210.369 50.3735 210.43 51.2593C210.421 51.2977 210.405 51.3353 210.405 51.3737C210.403 53.2629 210.403 55.1521 210.396 57.0405C210.395 57.2684 210.494 57.3303 210.712 57.3279C211.427 57.3201 212.143 57.3138 212.857 57.331C213.138 57.3381 213.225 57.259 213.221 56.9825C213.207 55.7841 213.215 54.585 213.215 53.3866C213.215 52.9203 213.456 52.6741 213.937 52.648L213.938 52.6472Z" fill="#3F1F78"/>
<path d="M244.032 51.488C244.032 53.0796 244.025 54.6704 244.038 56.2619C244.041 56.5353 243.968 56.6152 243.683 56.6042C243.089 56.5823 242.494 56.5846 241.9 56.6034C241.647 56.6112 241.585 56.5376 241.587 56.2987C241.6 55.1513 241.585 54.003 241.598 52.8556C241.601 52.6073 241.543 52.518 241.267 52.5219C240.133 52.5368 238.997 52.5376 237.862 52.5219C237.582 52.518 237.53 52.6112 237.533 52.8564C237.545 53.9913 237.529 55.1262 237.545 56.2603C237.549 56.5368 237.466 56.6136 237.185 56.6042C236.577 56.5838 235.969 56.5909 235.361 56.6018C235.153 56.6058 235.082 56.5525 235.082 56.3418C235.089 53.0937 235.088 49.8464 235.083 46.5983C235.083 46.397 235.144 46.3257 235.359 46.3296C235.994 46.3413 236.629 46.3453 237.264 46.328C237.519 46.321 237.543 46.4299 237.542 46.6304C237.535 47.7261 237.545 48.8219 237.533 49.9176C237.53 50.1612 237.58 50.2513 237.858 50.2474C238.993 50.2309 240.129 50.2325 241.263 50.2466C241.528 50.2497 241.603 50.1808 241.599 49.9239C241.584 48.8415 241.603 47.759 241.586 46.6766C241.582 46.4064 241.653 46.3171 241.942 46.3288C242.522 46.3507 243.105 46.3515 243.685 46.3288C243.976 46.3171 244.04 46.4087 244.038 46.6774C244.025 48.2814 244.031 49.8863 244.031 51.4904L244.032 51.488Z" fill="#3F1F78"/>
<path d="M249.528 56.7702C247.313 56.7679 245.568 55.0463 245.567 52.8603C245.565 50.6837 247.314 48.9542 249.529 48.9425C251.71 48.9308 253.503 50.6985 253.507 52.8626C253.511 55.0283 251.736 56.7718 249.529 56.7702H249.528ZM249.567 50.9891C248.969 50.9868 248.535 51.21 248.21 51.6353C247.698 52.3065 247.717 53.4689 248.246 54.1252C248.79 54.8004 249.836 54.9327 250.52 54.4135C251.361 53.7751 251.471 52.2611 250.738 51.5006C250.407 51.1567 250.008 50.9797 249.567 50.9899V50.9891Z" fill="#3F1F78"/>
<path d="M255.533 52.8564C255.533 52.3864 255.525 51.9173 255.537 51.4481C255.542 51.2437 255.504 51.1403 255.254 51.1434C254.963 51.1465 254.576 51.2773 254.402 51.08C254.221 50.8748 254.361 50.5051 254.343 50.2082C254.342 50.1824 254.343 50.1557 254.343 50.1299C254.348 49.8699 254.265 49.5613 254.382 49.3631C254.507 49.1524 254.854 49.3098 255.1 49.2691C255.6 49.1861 255.83 48.955 255.868 48.4616C255.872 48.4099 255.868 48.3574 255.872 48.3049C255.9 47.9846 255.722 47.5577 255.946 47.3729C256.136 47.2162 256.564 47.3259 256.887 47.3251C257.504 47.3235 257.812 47.6159 257.812 48.2023C257.812 48.8101 258.124 49.114 258.747 49.114C259.2 49.114 259.426 49.3323 259.426 49.7688C259.426 50.1471 259.418 50.5254 259.43 50.9037C259.435 51.0894 259.372 51.1591 259.176 51.1536C258.798 51.1426 258.42 51.1575 258.042 51.1473C257.868 51.1426 257.807 51.1959 257.81 51.3674C257.819 52.1499 257.797 52.9331 257.824 53.7148C257.846 54.3531 258.283 54.7064 259.011 54.6249C259.421 54.5795 259.449 54.7244 259.432 55.0338C259.41 55.4238 259.408 55.817 259.434 56.2071C259.451 56.475 259.339 56.5588 259.086 56.6144C257.797 56.8963 256.537 56.4969 255.951 55.5985C255.679 55.1795 255.563 54.7127 255.547 54.2255C255.532 53.7696 255.544 53.313 255.544 52.8564C255.541 52.8564 255.538 52.8564 255.534 52.8564H255.533Z" fill="#3F1F78"/>
<path d="M265.739 56.6794C264.482 56.6817 263.523 56.388 262.798 55.5546C262.403 55.1011 262.226 54.5607 262.131 53.9866C262.105 53.8237 262.141 53.761 262.33 53.75C262.915 53.7148 262.913 53.7054 263.084 54.2505C263.575 55.8225 265.106 56.2235 266.626 55.8045C267.752 55.4935 268.347 54.3962 268.045 53.3052C267.913 52.8266 267.564 52.529 267.157 52.2862C266.555 51.9267 265.877 51.7449 265.201 51.5672C264.561 51.3995 263.95 51.17 263.382 50.8325C261.882 49.9419 262.046 47.9862 263.105 47.0964C264.772 45.6944 267.779 46.01 268.622 48.2948C268.649 48.3676 268.674 48.442 268.693 48.5172C268.853 49.1344 268.828 49.1461 268.177 49.1242C267.925 49.1156 267.943 48.9676 267.912 48.8227C267.72 47.9274 267.194 47.2946 266.264 47.0846C265.267 46.8606 264.322 46.9977 263.583 47.7669C262.878 48.5023 263.013 49.609 263.862 50.18C264.528 50.6288 265.307 50.8051 266.071 51.0134C266.711 51.1873 267.318 51.4199 267.878 51.7724C269.506 52.7992 269.128 55.1325 267.959 55.9651C267.243 56.475 266.449 56.6935 265.739 56.6786V56.6794Z" fill="#3F1F78"/>
<path d="M276.77 49.4814C275.706 50.5591 274.688 51.6016 273.654 52.6292C273.472 52.8102 273.468 52.8994 273.652 53.0827C274.746 54.166 275.824 55.2633 276.906 56.3582C276.958 56.4107 277.042 56.4475 277.034 56.576C276.548 56.6159 276.127 56.6535 275.723 56.2079C274.789 55.1787 273.778 54.2145 272.794 53.2284C272.697 53.1305 272.62 52.9997 272.428 52.9472C272.428 54.0563 272.431 55.1458 272.424 56.2361C272.424 56.3543 272.506 56.5407 272.346 56.5799C272.156 56.6269 271.941 56.6105 271.743 56.5823C271.632 56.5666 271.672 56.4295 271.672 56.3449C271.671 53.0968 271.676 49.8479 271.664 46.5998C271.664 46.2662 271.869 46.3421 272.059 46.3343C272.27 46.3257 272.439 46.3053 272.436 46.6194C272.42 48.5368 272.428 50.4549 272.428 52.3723V52.8078C272.836 52.4945 273.12 52.1507 273.432 51.8358C274.068 51.1959 274.704 50.556 275.335 49.9122C275.866 49.3702 275.863 49.3678 276.77 49.4837V49.4814Z" fill="#3F1F78"/>
<path d="M284.173 50.5074C285.345 49.3427 286.567 49.0514 287.83 49.602C288.876 50.0578 289.435 50.8771 289.522 51.947C289.642 53.4156 289.543 54.892 289.569 56.3645C289.576 56.7225 289.312 56.576 289.145 56.5956C288.956 56.6175 288.787 56.6324 288.791 56.3363C288.807 55.0064 288.815 53.6764 288.793 52.3473C288.777 51.4144 288.358 50.6876 287.454 50.2912C286.573 49.9059 285.734 50.0406 284.989 50.6108C284.428 51.0392 284.171 51.6329 284.168 52.3222C284.165 53.6388 284.157 54.9562 284.176 56.2721C284.18 56.5674 284.07 56.623 283.805 56.6034C283.58 56.5862 283.372 56.6535 283.375 56.287C283.394 54.1096 283.384 51.9329 283.386 49.7555C283.386 49.6114 283.325 49.4367 283.599 49.4312C283.823 49.4265 283.945 49.472 283.98 49.7077C284.018 49.9623 284.099 50.2106 284.173 50.5082V50.5074Z" fill="#3F1F78"/>
<path d="M294.993 56.6778C293.585 56.6645 292.588 55.9705 292.325 54.8576C292.296 54.7354 292.145 54.5043 292.42 54.498C292.634 54.4933 292.931 54.3179 293.074 54.6743C293.552 55.864 294.864 56.3301 295.998 55.7136C296.48 55.4513 296.754 55.0518 296.739 54.5035C296.724 53.967 296.35 53.7023 295.891 53.5174C295.415 53.3255 294.908 53.2441 294.409 53.1368C294.093 53.0686 293.789 52.9707 293.49 52.847C292.12 52.2823 292.248 50.8317 292.872 50.1416C293.555 49.3858 294.479 49.2331 295.426 49.4007C296.346 49.5636 297.06 50.0672 297.334 51.0001C297.372 51.1309 297.518 51.3478 297.281 51.3737C297.067 51.3964 296.731 51.5625 296.611 51.2296C296.192 50.0672 295.049 49.9537 294.196 50.1667C293.473 50.3476 293.061 50.986 293.244 51.6087C293.348 51.9635 293.64 52.1233 293.95 52.2548C294.447 52.4647 294.983 52.5446 295.509 52.6551C295.866 52.7303 296.216 52.8337 296.536 53.0005C297.153 53.3224 297.505 53.808 297.5 54.509C297.494 55.293 297.13 55.8805 296.46 56.2964C295.993 56.587 295.47 56.699 294.994 56.6762L294.993 56.6778Z" fill="#3F1F78"/>
<path d="M280.025 53.0099C280.025 54.1033 280.01 55.1967 280.034 56.2893C280.04 56.6112 279.881 56.6112 279.645 56.6026C279.429 56.5948 279.238 56.6449 279.241 56.3019C279.258 54.1158 279.258 51.929 279.241 49.743C279.239 49.4164 279.401 49.425 279.633 49.4352C279.842 49.4438 280.044 49.3819 280.036 49.7304C280.01 50.8231 280.026 51.9165 280.026 53.0099H280.025Z" fill="#3F1F78"/>
<path d="M279.693 46.5693C280.01 46.5755 280.276 46.8442 280.273 47.1559C280.271 47.4763 280.015 47.7222 279.683 47.7238C279.331 47.7261 279.065 47.463 279.08 47.1285C279.094 46.8207 279.377 46.563 279.693 46.5693Z" fill="#3F1F78"/>
<defs>
<clipPath id="clip0_11430_28420">
<rect width="57" height="25" fill="white" transform="translate(214.36)"/>
</clipPath>
</defs>
</svg>
