<svg width="80" height="80" viewBox="0 0 80 80" fill="none" xmlns="http://www.w3.org/2000/svg">
<g clip-path="url(#clip0_2213_135513)">
<path d="M40 80C17.95 80 0 62.05 0 40C0 17.95 17.95 0 40 0C62.05 0 80 17.95 80 40C80 62.05 62.05 80 40 80Z" fill="url(#paint0_radial_2213_135513)"/>
<path d="M40 74C21.2575 74 6 58.7425 6 40C6 21.2575 21.2575 6 40 6C58.7425 6 74 21.2575 74 40C74 58.7425 58.7425 74 40 74Z" fill="url(#paint1_radial_2213_135513)"/>
<g clip-path="url(#clip1_2213_135513)">
<path d="M63.8208 23.2372H56.9516C47.5455 16.1291 40.0009 11.8379 40.0009 11.8379C40.0009 11.8379 32.448 16.1291 23.0502 23.2372H13.8418V34.2823C13.8418 37.4863 14.1877 40.6985 15.0443 43.8119C18.3554 55.8372 27.6709 62.517 40.0009 68.0766C54.6206 61.4874 64.9986 51.966 66.16 36.9345V23.229H63.8208V23.2372Z" fill="url(#paint2_radial_2213_135513)"/>
<path d="M39.8863 71.7014L38.6498 71.0919C27.6293 66.1253 15.8347 59.1078 11.8647 44.6939C10.9916 41.5146 10.5469 38.0141 10.5469 34.283V19.9433H21.9462C30.9981 13.1894 38.065 9.15349 38.3697 8.97229L40.0005 8.0498L41.6314 8.97229C41.9361 9.14526 49.0113 13.1894 58.0549 19.9433H69.4542V37.1987C68.3011 51.9997 59.1092 63.086 41.3513 71.0836L39.8863 71.6931V71.7014ZM17.1361 26.5325V34.283C17.1361 37.4623 17.4902 40.2956 18.215 42.9396C20.7436 52.1232 26.9879 58.4159 39.8863 64.4533C54.506 57.5511 61.8931 48.738 62.865 36.8116V26.5242H55.8475L54.9662 25.8571C48.3853 20.8822 42.6774 17.2829 40.0005 15.6603C37.3237 17.2829 31.6158 20.8822 25.0349 25.8571L24.1535 26.5242H17.1361V26.5325Z" fill="url(#paint3_radial_2213_135513)"/>
<path d="M49.0687 47.3552V40.173L52.0833 37.8091V28.2685H47.2155V36.1536H43.7232V26.4072H36.3598V36.1536H32.8675V28.2685H27.9998V37.8091L31.0143 40.173V47.3552L26.2207 55.847C27.8186 57.2967 29.6636 58.6804 31.7639 60.0229H39.8397H47.9156C50.0324 58.6227 51.9268 57.1566 53.5823 55.6082L49.0687 47.3552Z" fill="url(#paint4_radial_2213_135513)"/>
<path fill-rule="evenodd" clip-rule="evenodd" d="M40.1983 8.16168L40.0005 8.0498L38.3697 8.97229C38.3549 8.9811 38.3241 8.99902 38.2779 9.02593C37.3731 9.55237 30.558 13.5177 21.9462 19.9433H10.5469V19.9929L17.1361 26.5821V26.5325V26.5242H24.1536L25.0349 25.8571C31.6158 20.8822 37.3237 17.2829 40.0005 15.6603C40.0647 15.6992 40.1307 15.7393 40.1983 15.7805V8.16168Z" fill="url(#paint5_linear_2213_135513)"/>
<path fill-rule="evenodd" clip-rule="evenodd" d="M39.8848 71.6995L39.8855 71.6999L41.3506 71.0838C59.1085 63.0862 68.3004 51.9999 69.4535 37.1989V26.583H62.8643V36.8118C61.8924 48.7382 54.5052 57.5513 39.8855 64.4534C39.8852 64.4533 39.885 64.4532 39.8848 64.4531V71.6995Z" fill="url(#paint6_linear_2213_135513)"/>
</g>
<path d="M57.9832 7L60.2421 14.7243L67.9664 16.9832L60.2421 19.2421L57.9832 26.9664L55.7243 19.2421L48 16.9832L55.7243 14.7243L57.9832 7Z" fill="white"/>
<path d="M20.5 24L21.9708 29.0292L27 30.5L21.9708 31.9708L20.5 37L19.0292 31.9708L14 30.5L19.0292 29.0292L20.5 24Z" fill="white"/>
<path d="M52.0672 62L52.9875 65.1469L56.1345 66.0672L52.9875 66.9875L52.0672 70.1345L51.1469 66.9875L48 66.0672L51.1469 65.1469L52.0672 62Z" fill="white"/>
</g>
<defs>
<radialGradient id="paint0_radial_2213_135513" cx="0" cy="0" r="1" gradientUnits="userSpaceOnUse" gradientTransform="translate(40 40) rotate(90) scale(42.3333)">
<stop offset="0.828125" stop-color="#8E0055"/>
<stop offset="1" stop-color="#FF6854"/>
</radialGradient>
<radialGradient id="paint1_radial_2213_135513" cx="0" cy="0" r="1" gradientUnits="userSpaceOnUse" gradientTransform="translate(40 40) rotate(90) scale(35.9833)">
<stop offset="0.395" stop-color="#001E2F"/>
<stop offset="0.775" stop-color="#006382"/>
<stop offset="1" stop-color="#1EFFBB"/>
</radialGradient>
<radialGradient id="paint2_radial_2213_135513" cx="0" cy="0" r="1" gradientUnits="userSpaceOnUse" gradientTransform="translate(40.1986 26.5815) rotate(90.2729) scale(41.4956 38.6028)">
<stop offset="0.095" stop-color="#FFF177"/>
<stop offset="0.465" stop-color="#F0B828"/>
<stop offset="0.76" stop-color="#7E3F1B"/>
<stop offset="0.89" stop-color="#3F290A"/>
</radialGradient>
<radialGradient id="paint3_radial_2213_135513" cx="0" cy="0" r="1" gradientUnits="userSpaceOnUse" gradientTransform="translate(40.0006 17.4981) rotate(90.0001) scale(54.2033 42.8362)">
<stop stop-color="#FEFEEA"/>
<stop offset="0.315" stop-color="#EEE69A"/>
<stop offset="0.572536" stop-color="#DDDE9B"/>
<stop offset="0.75" stop-color="#BB9C4C"/>
<stop offset="1" stop-color="#ECD89F"/>
</radialGradient>
<radialGradient id="paint4_radial_2213_135513" cx="0" cy="0" r="1" gradientUnits="userSpaceOnUse" gradientTransform="translate(40.0001 39.8758) rotate(89.9996) scale(20.0932 14.6268)">
<stop stop-color="#9F3100"/>
<stop offset="1" stop-color="#250B00"/>
</radialGradient>
<linearGradient id="paint5_linear_2213_135513" x1="10.9587" y1="19.9928" x2="40.1984" y2="8.46177" gradientUnits="userSpaceOnUse">
<stop stop-color="white"/>
<stop offset="0.604534" stop-color="#FFF4B8"/>
<stop offset="1" stop-color="#FEFCD4" stop-opacity="0"/>
</linearGradient>
<linearGradient id="paint6_linear_2213_135513" x1="40.2952" y1="71.4693" x2="69.9837" y2="26.2606" gradientUnits="userSpaceOnUse">
<stop stop-color="#FAF4D8"/>
<stop offset="1" stop-color="#C0A05C" stop-opacity="0"/>
</linearGradient>
<clipPath id="clip0_2213_135513">
<rect width="80" height="80" fill="white"/>
</clipPath>
<clipPath id="clip1_2213_135513">
<rect width="63.9" height="63.9" fill="white" transform="translate(8.05078 8.0498)"/>
</clipPath>
</defs>
</svg>
