<svg width="80" height="80" viewBox="0 0 80 80" fill="none" xmlns="http://www.w3.org/2000/svg">
<g clip-path="url(#clip0_2213_135511)">
<path d="M40 80C17.95 80 0 62.05 0 40C0 17.95 17.95 0 40 0C62.05 0 80 17.95 80 40C80 62.05 62.05 80 40 80Z" fill="url(#paint0_radial_2213_135511)"/>
<path d="M40 74C21.2575 74 6 58.7425 6 40C6 21.2575 21.2575 6 40 6C58.7425 6 74 21.2575 74 40C74 58.7425 58.7425 74 40 74Z" fill="url(#paint1_radial_2213_135511)"/>
<rect x="2.66602" y="29.333" width="18" height="26.6667" rx="2.66667" fill="black"/>
<rect x="58.666" y="29.333" width="18" height="26.6667" rx="2.66667" fill="black"/>
<rect x="2.66602" y="26.667" width="18" height="26.6667" rx="2.66667" fill="url(#paint2_linear_2213_135511)"/>
<rect x="58.666" y="26.667" width="18" height="26.6667" rx="2.66667" fill="url(#paint3_linear_2213_135511)"/>
<rect x="24" y="27" width="30" height="47" rx="3.67" fill="white"/>
<rect x="24" y="27" width="30" height="43" rx="3.67" fill="url(#paint4_linear_2213_135511)"/>
<g filter="url(#filter0_d_2213_135511)">
<path d="M22 30.3337C22 31.8169 24.3657 32.9689 24.731 34.3363C25.1091 35.7514 23.648 37.9294 24.3629 39.1688C25.0917 40.4257 27.7159 40.2445 28.7354 41.2649C29.7549 42.2853 29.5746 44.9087 30.8306 45.6365C32.07 46.3533 34.248 44.8912 35.6631 45.2684C37.0314 45.6347 38.1834 48.0003 39.6667 48.0003C41.1499 48.0003 42.3019 45.6347 43.6693 45.2694C45.0844 44.8912 47.2624 46.3524 48.5018 45.6374C49.7588 44.9087 49.5775 42.2844 50.5979 41.2649C51.6184 40.2454 54.2417 40.4257 54.9695 39.1698C55.6863 37.9303 54.2242 35.7524 54.6014 34.3372C54.9677 32.9689 57.3333 31.8169 57.3333 30.3337C57.3333 28.8504 54.9677 27.6984 54.6024 26.3311C54.2242 24.9159 55.6854 22.7379 54.9704 21.4985C54.2417 20.2416 51.6174 20.4228 50.5979 19.4024C49.5784 18.382 49.7588 15.7587 48.5028 15.0308C47.2633 14.314 45.0854 15.7761 43.6702 15.3989C42.3019 15.0327 41.1499 12.667 39.6667 12.667C38.1834 12.667 37.0314 15.0327 35.6641 15.398C34.2489 15.7761 32.0709 14.315 30.8315 15.0299C29.5746 15.7587 29.7559 18.3829 28.7354 19.4024C27.715 20.4219 25.0917 20.2416 24.3638 21.4976C23.647 22.7361 25.1091 24.915 24.7319 26.3301C24.3657 27.6984 22 28.8504 22 30.3337Z" fill="#05E800"/>
</g>
<path d="M39.6667 41.264C45.7033 41.264 50.597 36.3703 50.597 30.3337C50.597 24.297 45.7033 19.4033 39.6667 19.4033C33.63 19.4033 28.7363 24.297 28.7363 30.3337C28.7363 36.3703 33.63 41.264 39.6667 41.264Z" fill="white"/>
<path d="M38.5289 34.8908C38.92 34.8917 39.2945 34.7362 39.5705 34.4592L45.7391 28.2906C46.3041 27.7054 46.2875 26.7733 45.7032 26.2093C45.1328 25.6581 44.2283 25.6581 43.6578 26.2093L38.5298 31.3363L35.6756 28.482C35.1069 27.9005 34.1748 27.8904 33.5933 28.459C33.0118 29.0277 33.0016 29.9598 33.5703 30.5413C33.5777 30.5496 33.5859 30.5569 33.5933 30.5643L37.4882 34.4592C37.7643 34.7362 38.1388 34.8917 38.5289 34.8908Z" fill="black"/>
<path fill-rule="evenodd" clip-rule="evenodd" d="M17.2019 36.5972L17.2019 36.5971C17.145 36.3843 16.9822 36.0937 16.6415 35.6903C16.3707 35.3695 16.0585 35.0565 15.7022 34.6992C15.61 34.6068 15.5149 34.5115 15.4168 34.4123C14.9697 33.96 14.4642 33.4305 14.0733 32.8499C13.6789 32.264 13.334 31.5292 13.334 30.667C13.334 29.8048 13.6789 29.07 14.0733 28.484C14.4642 27.9034 14.9698 27.3739 15.417 26.9216C15.5151 26.8223 15.6102 26.727 15.7024 26.6345C16.0588 26.2772 16.3711 25.964 16.6421 25.6431C16.9826 25.24 17.1459 24.9491 17.2032 24.7356C17.2666 24.4972 17.2702 24.1447 17.1801 23.6217C17.1051 23.1861 16.9857 22.7339 16.8499 22.22C16.8223 22.1153 16.794 22.0081 16.7652 21.898C16.6057 21.287 16.4321 20.5816 16.3801 19.8952C16.3277 19.2044 16.3862 18.4007 16.8137 17.662L16.8141 17.6614C17.2435 16.9203 17.9109 16.4643 18.5398 16.161C19.1642 15.8599 19.8643 15.6567 20.4755 15.4894C20.5947 15.4568 20.7106 15.4255 20.8234 15.395C21.327 15.259 21.7691 15.1396 22.1762 14.9912C22.6741 14.8097 22.9701 14.6343 23.1362 14.4684C23.302 14.3027 23.4773 14.0073 23.6588 13.5096C23.8073 13.1024 23.9268 12.6599 24.0629 12.1559C24.0933 12.0434 24.1245 11.9278 24.1571 11.8089C24.3244 11.1976 24.5275 10.4973 24.8287 9.87259C25.1321 9.24334 25.5882 8.5757 26.3294 8.14592L26.3318 8.14453C27.0706 7.71839 27.874 7.66044 28.5645 7.71308C29.2507 7.76539 29.9558 7.939 30.5666 8.09837C30.6757 8.12685 30.782 8.15488 30.8857 8.18226C31.4006 8.31816 31.8535 8.4377 32.2897 8.51267C32.8127 8.60258 33.1653 8.59866 33.4038 8.53494L33.4038 8.53492C33.6167 8.47805 33.9073 8.3152 34.3107 7.97455C34.6315 7.70369 34.9445 7.39151 35.3017 7.0352C35.3941 6.94305 35.4895 6.84795 35.5887 6.74985C36.041 6.30269 36.5704 5.79716 37.151 5.40633C37.737 5.0119 38.4718 4.66699 39.334 4.66699C40.1962 4.66699 40.931 5.0119 41.517 5.40635C42.0976 5.7972 42.6271 6.30278 43.0794 6.75001C43.1786 6.84813 43.274 6.94325 43.3664 7.03542C43.7238 7.3918 44.0369 7.70411 44.3578 7.97512C44.7611 8.31567 45.052 8.47894 45.2655 8.53622C45.5039 8.5996 45.8563 8.60323 46.3791 8.51314C46.8145 8.4381 47.2665 8.31872 47.7803 8.18301C47.885 8.15536 47.9923 8.12703 48.1025 8.09825C48.7134 7.93876 49.4187 7.76512 50.1052 7.71306C50.7962 7.66066 51.5998 7.71926 52.3386 8.14652L52.3396 8.14707C53.0807 8.57652 53.5367 9.24392 53.8399 9.87285C54.141 10.4972 54.3442 11.1973 54.5115 11.8085C54.5442 11.9277 54.5755 12.0436 54.6059 12.1564C54.742 12.6599 54.8614 13.1021 55.0098 13.5092C55.1912 14.0071 55.3666 14.3031 55.5326 14.4692C55.6982 14.635 55.9937 14.8103 56.4914 14.9918C56.8986 15.1403 57.3411 15.2598 57.8451 15.3959C57.9576 15.4263 58.0732 15.4575 58.1921 15.4901C58.8034 15.6574 59.5037 15.8605 60.1284 16.1617C60.7576 16.4651 61.4253 16.9212 61.8551 17.6624L61.8564 17.6648C62.2826 18.4036 62.3405 19.207 62.2879 19.8975C62.2356 20.5837 62.062 21.2888 61.9026 21.8996C61.8741 22.0088 61.8461 22.115 61.8187 22.2188C61.6828 22.7337 61.5633 23.1865 61.4883 23.6227C61.3984 24.1458 61.4023 24.4983 61.466 24.7368L61.4661 24.7368C61.5229 24.9497 61.6858 25.2403 62.0264 25.6437C62.2973 25.9644 62.6095 26.2775 62.9657 26.6347C63.0579 26.7271 63.153 26.8225 63.2511 26.9217C63.6983 27.374 64.2038 27.9034 64.5947 28.484C64.9891 29.07 65.334 29.8048 65.334 30.667C65.334 31.5292 64.9891 32.264 64.5946 32.85C64.2038 33.4306 63.6982 33.9601 63.251 34.4124C63.1529 34.5116 63.0577 34.607 62.9656 34.6994C62.6092 35.0568 62.2969 35.3699 62.0259 35.6908C61.6855 36.0939 61.5222 36.3847 61.4649 36.5981C61.4014 36.8365 61.3977 37.1891 61.4878 37.7121C61.5629 38.1475 61.6823 38.5995 61.818 39.1133C61.8456 39.218 61.874 39.3253 61.9027 39.4355C62.0622 40.0464 62.2359 40.7517 62.2879 41.4382C62.3403 42.1292 62.2817 42.9329 61.8545 43.6716L61.8539 43.6726C61.4245 44.4137 60.7571 44.8697 60.1281 45.173C59.5037 45.4741 58.8037 45.6772 58.1925 45.8445C58.0733 45.8772 57.9574 45.9085 57.8447 45.9389C57.3411 46.075 56.8989 46.1944 56.4917 46.3428C55.9939 46.5243 55.6979 46.6997 55.5318 46.8656C55.366 47.0312 55.1906 47.3267 55.0092 47.8244C54.8607 48.2316 54.7412 48.6741 54.605 49.1782C54.5747 49.2907 54.5434 49.4062 54.5109 49.5251C54.3436 50.1364 54.1404 50.8367 53.8393 51.4614C53.5359 52.0907 53.0798 52.7583 52.3385 53.1881L52.3361 53.1895C51.5974 53.6156 50.794 53.6736 50.1034 53.6209C49.4172 53.5686 48.7122 53.395 48.1014 53.2356C47.9922 53.2071 47.8859 53.1791 47.7822 53.1517C47.2673 53.0158 46.8144 52.8963 46.3783 52.8213C45.8552 52.7314 45.5027 52.7353 45.2642 52.799L45.2641 52.7991C45.0513 52.8559 44.7607 53.0188 44.3573 53.3594C44.0365 53.6303 43.7235 53.9425 43.3663 54.2987C43.2738 54.3909 43.1785 54.486 43.0792 54.5841C42.627 55.0313 42.0975 55.5368 41.5169 55.9277C40.931 56.3221 40.1962 56.667 39.334 56.667C38.4718 56.667 37.737 56.3221 37.151 55.9276C36.5704 55.5368 36.0409 55.0312 35.5886 54.584C35.4893 54.4859 35.394 54.3907 35.3015 54.2986C34.9442 53.9422 34.631 53.6299 34.3101 53.3589C33.9072 53.0186 33.6164 52.8553 33.403 52.7979C33.1646 52.7344 32.812 52.7307 32.2889 52.8208C31.8534 52.8959 31.4014 53.0153 30.8876 53.151C30.7829 53.1786 30.6757 53.207 30.5655 53.2357C29.9545 53.3952 29.2492 53.5689 28.5628 53.6209C27.8718 53.6733 27.0681 53.6147 26.3293 53.1875L26.3284 53.1869C25.5873 52.7575 25.1313 52.0901 24.828 51.4611C24.5269 50.8368 24.3237 50.1367 24.1564 49.5255C24.1238 49.4062 24.0925 49.2904 24.062 49.1775C23.926 48.674 23.8066 48.2318 23.6582 47.8247C23.4767 47.3269 23.3013 47.0309 23.1354 46.8648C22.9697 46.699 22.6742 46.5236 22.1766 46.3422C21.7693 46.1937 21.3269 46.0742 20.8228 45.938C20.7103 45.9077 20.5948 45.8765 20.4759 45.8439C19.8646 45.6766 19.1643 45.4734 18.5396 45.1723C17.9103 44.8689 17.2427 44.4128 16.8129 43.6716L16.8115 43.6692C16.3854 42.9304 16.3274 42.127 16.3801 41.4364C16.4324 40.7503 16.606 40.0452 16.7654 39.4344C16.7938 39.3252 16.8219 39.219 16.8493 39.1153C16.9852 38.6004 17.1047 38.1475 17.1797 37.7113C17.2696 37.1882 17.2657 36.8357 17.2019 36.5972ZM33.726 51.5872C34.5904 51.8186 35.3932 52.6197 36.2048 53.4296C37.1926 54.4153 38.1934 55.414 39.334 55.414C40.4746 55.414 41.4753 54.4153 42.4629 53.4298C43.2743 52.6201 44.0769 51.8193 44.9407 51.5885C45.8512 51.3452 46.9871 51.6454 48.1174 51.9442C49.4482 52.2959 50.7713 52.6456 51.7101 52.1041C52.6677 51.5488 53.0294 50.208 53.3901 48.8707C53.6925 47.7494 53.9943 46.6305 54.6462 45.9792C55.2979 45.3281 56.4164 45.0263 57.5372 44.724C58.8745 44.3632 60.2151 44.0015 60.7698 43.0444C61.313 42.105 60.9628 40.7807 60.6106 39.4491C60.3118 38.3196 60.0117 37.1848 60.2542 36.275C60.4856 35.4106 61.2867 34.6077 62.0966 33.7961C63.0823 32.8083 64.081 31.8076 64.081 30.667C64.081 29.5264 63.0823 28.5256 62.0968 27.5381C61.2871 26.7266 60.4863 25.9241 60.2555 25.0603C60.0122 24.1498 60.3124 23.0139 60.6112 21.8835C60.9629 20.5528 61.3126 19.2297 60.7711 18.2909C60.2158 17.3332 58.875 16.9716 57.5377 16.6109C56.4164 16.3085 55.2975 16.0067 54.6462 15.3548C53.995 14.7031 53.6933 13.5846 53.391 12.4638C53.0302 11.1265 52.6685 9.78588 51.7113 9.2312C50.772 8.68794 49.4477 9.03819 48.1161 9.3904C46.9866 9.68914 45.8518 9.98929 44.942 9.74677C44.0776 9.51539 43.2747 8.71425 42.4631 7.90438C41.4753 6.91866 40.4746 5.92 39.334 5.92C38.1934 5.92 37.1926 6.91865 36.205 7.90416C35.3936 8.71386 34.5911 9.51468 33.7272 9.74548C32.8168 9.98878 31.6809 9.68857 30.5505 9.38982C29.2198 9.0381 27.8967 8.68841 26.9579 9.22991C26.0002 9.78517 25.6386 11.126 25.2779 12.4633C24.9755 13.5846 24.6737 14.7035 24.0218 15.3548C23.3701 16.0059 22.2516 16.3077 21.1308 16.61C19.7934 16.9708 18.4529 17.3325 17.8982 18.2896C17.355 19.2283 17.7052 20.5525 18.0573 21.8842C18.3561 23.014 18.6563 24.1491 18.4138 25.059C18.1824 25.9234 17.3812 26.7263 16.5714 27.5378C15.5856 28.5256 14.587 29.5264 14.587 30.667C14.587 31.8076 15.5856 32.8083 16.5712 33.7959C17.3809 34.6073 18.1817 35.4099 18.4125 36.2737C18.6558 37.1842 18.3556 38.3201 18.0568 39.4504C17.7051 40.7812 17.3554 42.1043 17.8969 43.0431C18.4522 44.0007 19.793 44.3624 21.1303 44.7231C22.2516 45.0255 23.3705 45.3273 24.0218 45.9792C24.6729 46.6309 24.9747 47.7494 25.277 48.8702C25.6378 50.2075 25.9994 51.5481 26.9566 52.1028C27.896 52.646 29.2202 52.2958 30.5519 51.9436C31.6814 51.6448 32.8162 51.3447 33.726 51.5872Z" fill="url(#paint5_linear_2213_135511)"/>
</g>
<defs>
<filter id="filter0_d_2213_135511" x="11.3333" y="2.00033" width="56.6673" height="56.6663" filterUnits="userSpaceOnUse" color-interpolation-filters="sRGB">
<feFlood flood-opacity="0" result="BackgroundImageFix"/>
<feColorMatrix in="SourceAlpha" type="matrix" values="0 0 0 0 0 0 0 0 0 0 0 0 0 0 0 0 0 0 127 0" result="hardAlpha"/>
<feOffset/>
<feGaussianBlur stdDeviation="5.33333"/>
<feComposite in2="hardAlpha" operator="out"/>
<feColorMatrix type="matrix" values="0 0 0 0 0.0196078 0 0 0 0 0.909804 0 0 0 0 0 0 0 0 1 0"/>
<feBlend mode="normal" in2="BackgroundImageFix" result="effect1_dropShadow_2213_135511"/>
<feBlend mode="normal" in="SourceGraphic" in2="effect1_dropShadow_2213_135511" result="shape"/>
</filter>
<radialGradient id="paint0_radial_2213_135511" cx="0" cy="0" r="1" gradientUnits="userSpaceOnUse" gradientTransform="translate(40 40) rotate(90) scale(42.3333)">
<stop offset="0.828125" stop-color="#8E0055"/>
<stop offset="1" stop-color="#FF6854"/>
</radialGradient>
<radialGradient id="paint1_radial_2213_135511" cx="0" cy="0" r="1" gradientUnits="userSpaceOnUse" gradientTransform="translate(40 40) rotate(90) scale(35.9833)">
<stop offset="0.395" stop-color="#001E2F"/>
<stop offset="0.775" stop-color="#006382"/>
<stop offset="1" stop-color="#1EFFBB"/>
</radialGradient>
<linearGradient id="paint2_linear_2213_135511" x1="11.666" y1="26.667" x2="11.666" y2="53.3337" gradientUnits="userSpaceOnUse">
<stop stop-color="white"/>
<stop offset="1" stop-color="#E13327"/>
</linearGradient>
<linearGradient id="paint3_linear_2213_135511" x1="67.666" y1="26.667" x2="67.666" y2="53.3337" gradientUnits="userSpaceOnUse">
<stop stop-color="white"/>
<stop offset="1" stop-color="#E13327"/>
</linearGradient>
<linearGradient id="paint4_linear_2213_135511" x1="39" y1="27" x2="39" y2="70" gradientUnits="userSpaceOnUse">
<stop offset="0.53125"/>
<stop offset="1" stop-color="#F03A3A"/>
</linearGradient>
<linearGradient id="paint5_linear_2213_135511" x1="39.334" y1="4.66699" x2="39.334" y2="56.667" gradientUnits="userSpaceOnUse">
<stop stop-color="white"/>
<stop offset="1" stop-color="#05E800"/>
</linearGradient>
<clipPath id="clip0_2213_135511">
<rect width="80" height="80" fill="white"/>
</clipPath>
</defs>
</svg>
