<svg width="80" height="80" viewBox="0 0 80 80" fill="none" xmlns="http://www.w3.org/2000/svg">
<g clip-path="url(#clip0_2213_135510)">
<path d="M40 80C17.95 80 0 62.05 0 40C0 17.95 17.95 0 40 0C62.05 0 80 17.95 80 40C80 62.05 62.05 80 40 80Z" fill="url(#paint0_radial_2213_135510)"/>
<path d="M40 74C21.2575 74 6 58.7425 6 40C6 21.2575 21.2575 6 40 6C58.7425 6 74 21.2575 74 40C74 58.7425 58.7425 74 40 74Z" fill="url(#paint1_radial_2213_135510)"/>
<circle cx="41.5" cy="12.5" r="8.5" fill="url(#paint2_linear_2213_135510)"/>
<g filter="url(#filter0_d_2213_135510)">
<path d="M26.2845 42.0219C25.8631 40.0004 25.4393 37.9794 25.0215 35.9571C24.8792 35.2682 24.9778 35.1122 25.6572 34.9693C28.8668 34.2965 32.0779 33.6246 35.2896 32.9614C36.387 32.7351 37.0772 33.1568 37.3036 34.2245C38.0418 37.7049 38.7667 41.1881 39.4815 44.6722C39.7041 45.7582 39.254 46.4151 38.1637 46.6449C34.9128 47.3276 31.6592 47.9908 28.4118 48.6903C27.8244 48.8165 27.6426 48.6099 27.5387 48.0873C27.138 46.0614 26.7044 44.0425 26.283 42.021L26.2845 42.0219Z" fill="url(#paint3_linear_2213_135510)"/>
<path d="M23.8311 42.5296C24.2525 44.5511 24.6581 46.5759 25.1051 48.5921C25.2327 49.1674 25.0794 49.3912 24.4878 49.5095C21.2725 50.1547 18.0639 50.8386 14.8527 51.5043C13.6789 51.749 13.0228 51.3377 12.7785 50.1784C12.0522 46.7369 11.3347 43.2949 10.6254 39.8498C10.3886 38.7015 10.8363 38.0577 12.0133 37.8098C15.1826 37.1453 18.353 36.4857 21.5236 35.8273C22.2814 35.6693 22.4177 35.7613 22.5777 36.523C22.9973 38.5236 23.4123 40.5264 23.8294 42.5274L23.8311 42.5296Z" fill="url(#paint4_linear_2213_135510)"/>
<path d="M15.3893 34.3132C13.5614 34.6943 11.734 35.0777 9.90444 35.4566C8.59099 35.7279 7.94777 35.3114 7.6765 34.0224C7.4042 32.7222 7.12946 31.4226 6.86448 30.1209C6.64063 29.0226 7.08317 28.3359 8.20623 28.098C11.9625 27.305 15.7203 26.5254 19.4793 25.7456C20.1663 25.6024 20.3205 25.7069 20.4632 26.3857C20.8755 28.3451 21.271 30.3093 21.6979 32.2657C21.8128 32.7923 21.6273 33.0204 21.1165 33.1231C19.2044 33.5091 17.2962 33.9144 15.3878 34.3123L15.3893 34.3132Z" fill="url(#paint5_linear_2213_135510)"/>
<path d="M29.2224 23.7133C31.0503 23.3322 32.8786 22.9473 34.7075 22.5711C35.9895 22.3076 36.6396 22.7264 36.9023 23.9746C37.1801 25.2949 37.4591 26.615 37.7271 27.9373C37.942 28.9986 37.4944 29.6977 36.414 29.9266C32.6373 30.7252 28.856 31.5022 25.08 32.2981C24.5287 32.4143 24.2366 32.2896 24.1216 31.6953C23.7451 29.7485 23.3209 27.8115 22.9188 25.87C22.772 25.1658 22.8476 25.0459 23.555 24.8972C25.4429 24.4986 27.3338 24.1082 29.2227 23.7145L29.2224 23.7133Z" fill="url(#paint6_linear_2213_135510)"/>
<path d="M27.2021 22.3587C26.0049 22.3875 24.8065 22.4291 23.6102 22.4377C23.3051 22.4399 22.9932 22.3607 22.6962 22.2796C21.1627 21.8557 20.6783 20.7477 21.5302 19.4226C22.7383 17.5405 24.4111 16.1346 26.4622 15.218C27.1064 14.9307 27.8561 14.7831 28.5652 14.752C30.0754 14.6855 31.1097 15.512 31.7302 17.1145C32.2316 18.4083 31.8907 19.7472 30.8199 20.6878C30.0086 21.4011 28.6796 21.9704 27.2026 22.3611L27.2021 22.3587ZM23.8978 20.1343C25.7707 20.1401 27.4474 20.0113 28.9653 19.1143C29.5922 18.744 29.6715 18.4039 29.4015 17.7743C29.0914 17.0501 28.6697 16.9022 27.7735 17.2207C26.2406 17.7648 25.0865 18.8067 23.898 20.1355L23.8978 20.1343Z" fill="url(#paint7_linear_2213_135510)"/>
<path d="M14.9942 24.8684C14.1349 24.9058 13.1786 25.0399 12.2384 24.9701C10.0992 24.8103 8.8914 23.5058 8.9109 21.5165C8.92986 19.5186 10.2236 18.1817 12.3547 18.0397C14.7747 17.8788 16.9999 18.5486 19.0275 19.7914C20.572 20.7385 20.5647 22.0656 19.0856 23.1301C18.7025 23.4056 18.2872 23.6615 17.8489 23.8369C16.9466 24.1993 16.0203 24.5015 14.9939 24.8672L14.9942 24.8684ZM17.2889 21.5107C16.9335 21.3452 16.7219 21.2339 16.5013 21.1469C15.1473 20.6128 13.7668 20.202 12.2801 20.4304C11.5558 20.5413 11.3131 20.8364 11.3098 21.4804C11.3067 22.2047 11.524 22.508 12.2542 22.5966C13.9997 22.8096 15.5878 22.2741 17.2874 21.5097L17.2889 21.5107Z" fill="url(#paint8_linear_2213_135510)"/>
</g>
<g filter="url(#filter1_d_2213_135510)">
<path d="M51.5963 53.5357C52.2053 50.7706 52.811 48.0048 53.4251 45.2408C53.6342 44.2992 53.8453 44.1595 54.7753 44.3626C59.1677 45.3249 63.5613 46.2892 67.9508 47.2647C69.4506 47.5985 70.0767 48.5138 69.7598 49.9763C68.7272 54.7441 67.6761 59.5079 66.6121 64.2671C66.2802 65.7504 65.3481 66.3191 63.8553 65.9937C59.4058 65.0206 54.9638 64.0215 50.5092 63.0713C49.7036 62.8991 49.5923 62.5384 49.7561 61.8264C50.3936 59.0676 50.9859 56.2988 51.595 53.5337L51.5963 53.5357Z" fill="url(#paint9_linear_2213_135510)"/>
<path d="M48.2426 52.7918C47.6335 55.5569 47.0028 58.3173 46.4288 61.0901C46.265 61.8814 45.9475 62.0752 45.1412 61.8907C40.7571 60.8906 36.3598 59.9427 31.9696 58.9705C30.364 58.6168 29.7745 57.7337 30.1205 56.1466C31.1463 51.4342 32.1833 46.7259 33.2324 42.0186C33.5815 40.4494 34.5033 39.8957 36.1146 40.2472C40.4519 41.1974 44.7878 42.1541 49.1233 43.1125C50.1598 43.3408 50.2785 43.5325 50.0506 44.5751C49.4511 47.313 48.8445 50.051 48.2416 52.7882L48.2426 52.7918Z" fill="url(#paint10_linear_2213_135510)"/>
<path d="M42.3021 37.7714C39.8018 37.2207 37.3008 36.6733 34.7996 36.1189C33.0045 35.72 32.4341 34.8377 32.8192 33.073C33.2094 31.2939 33.5961 29.5141 33.9963 27.7372C34.3335 26.2377 35.273 25.6276 36.8112 25.9613C41.9548 27.0804 47.0928 28.2173 52.2324 29.3545C53.1721 29.5615 53.3062 29.7789 53.1033 30.7081C52.5177 33.3905 51.9084 36.0693 51.3428 38.7561C51.1906 39.4793 50.8304 39.6602 50.1339 39.5016C47.5254 38.9098 44.9112 38.3444 42.3008 37.7694L42.3021 37.7714Z" fill="url(#paint11_linear_2213_135510)"/>
<path d="M65.5602 32.2884C68.0604 32.8391 70.5634 33.3853 73.0622 33.9426C74.8137 34.3335 75.3913 35.2226 75.0185 36.9314C74.6238 38.7388 74.2309 40.5466 73.8229 42.3511C73.4952 43.7992 72.5426 44.4219 71.0627 44.1011C65.8904 42.9774 60.7245 41.824 55.5546 40.6973C54.7998 40.5328 54.5046 40.2127 54.6948 39.4048C55.318 36.7583 55.876 34.0974 56.4642 31.4432C56.6764 30.4799 56.8383 30.3725 57.8067 30.5841C60.3918 31.1466 62.9761 31.721 65.5598 32.2901L65.5602 32.2884Z" fill="url(#paint12_linear_2213_135510)"/>
<path d="M63.7946 29.4588C62.2811 28.822 60.7589 28.2006 59.2579 27.5391C58.8751 27.3703 58.5295 27.0959 58.2036 26.8276C56.5239 25.4355 56.5408 23.7776 58.3509 22.5991C60.9197 20.9241 63.8019 20.1059 66.8824 20.1122C67.8495 20.1149 68.8701 20.3518 69.7745 20.7113C71.7006 21.4768 72.5297 23.0918 72.4052 25.4448C72.3052 27.3447 71.1263 28.8277 69.2584 29.4022C67.8428 29.8385 65.8607 29.8036 63.7939 29.4621L63.7946 29.4588ZM60.9121 24.8197C63.2512 25.8796 65.4207 26.6609 67.8232 26.392C68.8154 26.2813 69.1057 25.9005 69.1219 24.9612C69.141 23.8812 68.6967 23.4593 67.3968 23.354C65.1739 23.1729 63.145 23.8275 60.9118 24.8214L60.9121 24.8197Z" fill="url(#paint13_linear_2213_135510)"/>
<path d="M47.1159 25.7368C46.0202 25.3007 44.7488 24.931 43.6122 24.3153C41.0264 22.9132 40.249 20.6028 41.3914 18.1259C42.5379 15.6377 44.9074 14.6928 47.6525 15.7128C50.7696 16.8717 53.1761 18.96 55.0136 21.6538C56.413 23.7064 55.6581 25.362 53.2099 25.8622C52.5759 25.9914 51.9128 26.0781 51.266 26.0511C49.9343 25.9973 48.6065 25.8547 47.1179 25.7353C47.117 25.7352 47.1161 25.7359 47.1159 25.7368ZM51.8729 22.827C51.5214 22.4204 51.3193 22.1621 51.0923 21.9294C49.699 20.5004 48.2033 19.2108 46.2156 18.661C45.2475 18.3926 44.7779 18.6253 44.4119 19.4289C44.001 20.333 44.1023 20.8345 44.9658 21.3556C47.0291 22.603 49.3163 22.8258 51.8716 22.825L51.8729 22.827Z" fill="url(#paint14_linear_2213_135510)"/>
</g>
<g filter="url(#filter2_d_2213_135510)">
<path d="M39.9723 39.7345L43.6618 36.4628C44.3259 35.8739 44.0291 34.7663 43.1595 34.5883L38.3285 33.5998C38.1031 33.5536 37.887 33.4289 37.7344 33.2567L34.4627 29.5672C33.8738 28.9031 32.7662 29.1999 32.5882 30.0695L31.5996 34.9005C31.5535 35.1259 31.4287 35.342 31.2566 35.4947L27.5671 38.7663C26.903 39.3552 27.1998 40.4629 28.0694 40.6408L32.9004 41.6294C33.1258 41.6756 33.3419 41.8003 33.4946 41.9725L36.7662 45.6619C37.3551 46.3261 38.4627 46.0293 38.6407 45.1597L39.6293 40.3287C39.6754 40.1032 39.8002 39.8872 39.9723 39.7345Z" fill="white"/>
</g>
<g filter="url(#filter3_d_2213_135510)">
<path d="M36.5608 69.8781L38.775 70.6162C39.1735 70.749 39.5573 70.3653 39.4245 69.9667L38.6864 67.7525C38.652 67.6492 38.652 67.5311 38.6864 67.4278L39.4245 65.2136C39.5573 64.8151 39.1735 64.4313 38.775 64.5641L36.5608 65.3022C36.4575 65.3366 36.3394 65.3366 36.2361 65.3022L34.0219 64.5641C33.6234 64.4313 33.2396 64.8151 33.3724 65.2136L34.1105 67.4278C34.1449 67.5311 34.1449 67.6492 34.1105 67.7525L33.3724 69.9667C33.2396 70.3653 33.6234 70.749 34.0219 70.6162L36.2361 69.8781C36.3394 69.8437 36.4575 69.8437 36.5608 69.8781Z" fill="white"/>
</g>
<circle cx="13.6667" cy="50.9997" r="3.66667" fill="#FF574D"/>
</g>
<defs>
<filter id="filter0_d_2213_135510" x="6.80859" y="14.748" width="32.7285" height="39.4909" filterUnits="userSpaceOnUse" color-interpolation-filters="sRGB">
<feFlood flood-opacity="0" result="BackgroundImageFix"/>
<feColorMatrix in="SourceAlpha" type="matrix" values="0 0 0 0 0 0 0 0 0 0 0 0 0 0 0 0 0 0 127 0" result="hardAlpha"/>
<feOffset dy="2.66667"/>
<feComposite in2="hardAlpha" operator="out"/>
<feColorMatrix type="matrix" values="0 0 0 0 0 0 0 0 0 0.341667 0 0 0 0 0.239167 0 0 0 1 0"/>
<feBlend mode="normal" in2="BackgroundImageFix" result="effect1_dropShadow_2213_135510"/>
<feBlend mode="normal" in="SourceGraphic" in2="effect1_dropShadow_2213_135510" result="shape"/>
</filter>
<filter id="filter1_d_2213_135510" x="30.0254" y="15.3076" width="45.1016" height="53.4411" filterUnits="userSpaceOnUse" color-interpolation-filters="sRGB">
<feFlood flood-opacity="0" result="BackgroundImageFix"/>
<feColorMatrix in="SourceAlpha" type="matrix" values="0 0 0 0 0 0 0 0 0 0 0 0 0 0 0 0 0 0 127 0" result="hardAlpha"/>
<feOffset dy="2.66667"/>
<feComposite in2="hardAlpha" operator="out"/>
<feColorMatrix type="matrix" values="0 0 0 0 0 0 0 0 0 0.2665 0 0 0 0 0.325 0 0 0 1 0"/>
<feBlend mode="normal" in2="BackgroundImageFix" result="effect1_dropShadow_2213_135510"/>
<feBlend mode="normal" in="SourceGraphic" in2="effect1_dropShadow_2213_135510" result="shape"/>
</filter>
<filter id="filter2_d_2213_135510" x="15.8717" y="17.8717" width="39.485" height="39.486" filterUnits="userSpaceOnUse" color-interpolation-filters="sRGB">
<feFlood flood-opacity="0" result="BackgroundImageFix"/>
<feColorMatrix in="SourceAlpha" type="matrix" values="0 0 0 0 0 0 0 0 0 0 0 0 0 0 0 0 0 0 127 0" result="hardAlpha"/>
<feOffset/>
<feGaussianBlur stdDeviation="5.66667"/>
<feComposite in2="hardAlpha" operator="out"/>
<feColorMatrix type="matrix" values="0 0 0 0 0.116667 0 0 0 0 1 0 0 0 0 0.576 0 0 0 1 0"/>
<feBlend mode="normal" in2="BackgroundImageFix" result="effect1_dropShadow_2213_135510"/>
<feBlend mode="normal" in="SourceGraphic" in2="effect1_dropShadow_2213_135510" result="shape"/>
</filter>
<filter id="filter3_d_2213_135510" x="22.0124" y="53.2038" width="28.7721" height="28.7721" filterUnits="userSpaceOnUse" color-interpolation-filters="sRGB">
<feFlood flood-opacity="0" result="BackgroundImageFix"/>
<feColorMatrix in="SourceAlpha" type="matrix" values="0 0 0 0 0 0 0 0 0 0 0 0 0 0 0 0 0 0 127 0" result="hardAlpha"/>
<feOffset/>
<feGaussianBlur stdDeviation="5.66667"/>
<feComposite in2="hardAlpha" operator="out"/>
<feColorMatrix type="matrix" values="0 0 0 0 0.116667 0 0 0 0 1 0 0 0 0 0.576 0 0 0 1 0"/>
<feBlend mode="normal" in2="BackgroundImageFix" result="effect1_dropShadow_2213_135510"/>
<feBlend mode="normal" in="SourceGraphic" in2="effect1_dropShadow_2213_135510" result="shape"/>
</filter>
<radialGradient id="paint0_radial_2213_135510" cx="0" cy="0" r="1" gradientUnits="userSpaceOnUse" gradientTransform="translate(40 40) rotate(90) scale(42.3333)">
<stop offset="0.828125" stop-color="#8E0055"/>
<stop offset="1" stop-color="#FF6854"/>
</radialGradient>
<radialGradient id="paint1_radial_2213_135510" cx="0" cy="0" r="1" gradientUnits="userSpaceOnUse" gradientTransform="translate(40 40) rotate(90) scale(35.9833)">
<stop offset="0.395" stop-color="#001E2F"/>
<stop offset="0.775" stop-color="#006382"/>
<stop offset="1" stop-color="#1EFFBB"/>
</radialGradient>
<linearGradient id="paint2_linear_2213_135510" x1="34.5179" y1="5.51786" x2="46.9643" y2="20.0893" gradientUnits="userSpaceOnUse">
<stop/>
<stop offset="1" stop-color="#FF574D"/>
</linearGradient>
<linearGradient id="paint3_linear_2213_135510" x1="19.6767" y1="16.4627" x2="26.4791" y2="49.0945" gradientUnits="userSpaceOnUse">
<stop stop-color="white"/>
<stop offset="1" stop-color="#5DFF11"/>
</linearGradient>
<linearGradient id="paint4_linear_2213_135510" x1="19.6767" y1="16.4627" x2="26.4791" y2="49.0945" gradientUnits="userSpaceOnUse">
<stop stop-color="white"/>
<stop offset="1" stop-color="#5DFF11"/>
</linearGradient>
<linearGradient id="paint5_linear_2213_135510" x1="19.6767" y1="16.4627" x2="26.4791" y2="49.0945" gradientUnits="userSpaceOnUse">
<stop stop-color="white"/>
<stop offset="1" stop-color="#5DFF11"/>
</linearGradient>
<linearGradient id="paint6_linear_2213_135510" x1="19.6767" y1="16.4627" x2="26.4791" y2="49.0945" gradientUnits="userSpaceOnUse">
<stop stop-color="white"/>
<stop offset="1" stop-color="#5DFF11"/>
</linearGradient>
<linearGradient id="paint7_linear_2213_135510" x1="19.6767" y1="16.4627" x2="26.4791" y2="49.0945" gradientUnits="userSpaceOnUse">
<stop stop-color="white"/>
<stop offset="1" stop-color="#5DFF11"/>
</linearGradient>
<linearGradient id="paint8_linear_2213_135510" x1="19.6767" y1="16.4627" x2="26.4791" y2="49.0945" gradientUnits="userSpaceOnUse">
<stop stop-color="white"/>
<stop offset="1" stop-color="#5DFF11"/>
</linearGradient>
<linearGradient id="paint9_linear_2213_135510" x1="57.6963" y1="17.8555" x2="47.8648" y2="62.4907" gradientUnits="userSpaceOnUse">
<stop stop-color="#FFEB2F"/>
<stop offset="1" stop-color="white"/>
</linearGradient>
<linearGradient id="paint10_linear_2213_135510" x1="57.6963" y1="17.8555" x2="47.8648" y2="62.4907" gradientUnits="userSpaceOnUse">
<stop stop-color="#FFEB2F"/>
<stop offset="1" stop-color="white"/>
</linearGradient>
<linearGradient id="paint11_linear_2213_135510" x1="57.6963" y1="17.8555" x2="47.8648" y2="62.4907" gradientUnits="userSpaceOnUse">
<stop stop-color="#FFEB2F"/>
<stop offset="1" stop-color="white"/>
</linearGradient>
<linearGradient id="paint12_linear_2213_135510" x1="57.6963" y1="17.8555" x2="47.8648" y2="62.4907" gradientUnits="userSpaceOnUse">
<stop stop-color="#FFEB2F"/>
<stop offset="1" stop-color="white"/>
</linearGradient>
<linearGradient id="paint13_linear_2213_135510" x1="57.6963" y1="17.8555" x2="47.8648" y2="62.4907" gradientUnits="userSpaceOnUse">
<stop stop-color="#FFEB2F"/>
<stop offset="1" stop-color="white"/>
</linearGradient>
<linearGradient id="paint14_linear_2213_135510" x1="57.6963" y1="17.8555" x2="47.8648" y2="62.4907" gradientUnits="userSpaceOnUse">
<stop stop-color="#FFEB2F"/>
<stop offset="1" stop-color="white"/>
</linearGradient>
<clipPath id="clip0_2213_135510">
<rect width="80" height="80" fill="white"/>
</clipPath>
</defs>
</svg>
