<?xml version="1.0" standalone="no"?>
<!DOCTYPE svg PUBLIC "-//W3C//DTD SVG 1.1//EN" "http://www.w3.org/Graphics/SVG/1.1/DTD/svg11.dtd" >
<svg xmlns="http://www.w3.org/2000/svg" xmlns:xlink="http://www.w3.org/1999/xlink" version="1.1">
<metadata></metadata>
<defs>
<font id="radiance-boldradiance-bold" horiz-adv-x="1112" >
<font-face units-per-em="2048" ascent="1550" descent="-498" />
<missing-glyph horiz-adv-x="468" />
<glyph horiz-adv-x="0" />
<glyph horiz-adv-x="682" />
<glyph unicode=" "  horiz-adv-x="468" />
<glyph unicode="&#x09;" horiz-adv-x="468" />
<glyph unicode="&#xa0;" horiz-adv-x="468" />
<glyph unicode="!" horiz-adv-x="628" d="M154 142q0 67 47 114t112.5 47t113.5 -47t48 -114t-48 -112.5t-113.5 -45.5t-112.5 45.5t-47 112.5zM174 1358h277l-2 -174v-76l-9 -600v-31h-256l2 55l-8 605q0 98 -4 221z" />
<glyph unicode="&#x22;" horiz-adv-x="858" d="M100 1483h265l-41 -549h-183zM496 1483h264l-41 -549h-182z" />
<glyph unicode="#" horiz-adv-x="1200" d="M61 375v184h224l55 264h-201v181h230l63 339h186l-63 -339h219l66 339h188l-65 -339h186v-181h-215l-53 -264h194v-184h-225l-72 -357h-186l67 357h-219l-67 -357h-189l68 357h-191zM471 559h221l53 264h-221z" />
<glyph unicode="$" horiz-adv-x="1122" d="M184 92l15 240q113 -88 297 -88q80 0 124 37.5t44 107.5q0 96 -190 205t-223.5 199t-33.5 161q0 129 69.5 217.5t198.5 122.5v156h179v-137q129 -4 235 -33v-229q-96 70 -248 69q-70 0 -110.5 -34t-40.5 -84t29.5 -87.5t59 -59t94.5 -61.5t94.5 -61.5t106.5 -93.5 t77 -212t-81 -233.5t-225 -127.5v-158h-180v139q-164 6 -291 45z" />
<glyph unicode="%" horiz-adv-x="1716" d="M82 1032.5q0 149.5 99.5 253t241.5 103.5t240.5 -101.5t98.5 -252.5t-99.5 -253t-240.5 -102t-240.5 101.5t-99.5 251zM248 0l999 1374h223l-1001 -1374h-221zM276 1032q0 -76 41 -124t104.5 -48t104.5 49t41 123t-42 123t-104 49t-103.5 -48t-41.5 -124zM956 337 q0 151 98.5 253t239.5 102t240.5 -102.5t99.5 -252t-99 -251.5t-240.5 -102t-240 101t-98.5 252zM1149 335q0 -75 40 -123t105 -48t106.5 49t41.5 123t-42 122t-105.5 48t-104.5 -48t-41 -123z" />
<glyph unicode="&#x26;" horiz-adv-x="1499" d="M102 379q0 213 281 377q-135 131 -135 275t102.5 233.5t250.5 89.5t245.5 -88t97.5 -219q0 -86 -50 -158t-151 -148q106 -98 238 -243q142 152 197 258h264q-158 -229 -314 -410q52 -56 83.5 -71t46 -23t42 -12t43.5 -6.5t68 -2.5v-243q-162 0 -256 34.5t-203 133.5 q-184 -174 -413 -174q-190 0 -313.5 111.5t-123.5 285.5zM360 391q0 -82 61 -139t161 -57t227 122q-143 170 -291 306q-158 -98 -158 -232zM473 1049q0 -78 121 -181q143 76 143 179q0 53 -35.5 91t-93.5 38t-96.5 -36t-38.5 -91z" />
<glyph unicode="'" horiz-adv-x="464" d="M100 1481h265q-2 -14 -43 -549h-181q-6 53 -19 253.5t-22 295.5z" />
<glyph unicode="(" horiz-adv-x="749" d="M92 573q0 315 121 573.5t348 428.5q10 -6 55.5 -91t53.5 -91q-315 -307 -315 -821t313 -824l-107 -178q-229 172 -349 430t-120 573z" />
<glyph unicode=")" horiz-adv-x="749" d="M76 -252q315 312 315 824t-315 821q8 6 53 91t53 91q227 -170 349 -427.5t122 -573.5t-120 -574t-349 -430z" />
<glyph unicode="*" horiz-adv-x="1050" d="M106 963v204q92 -18 291 -32q-162 219 -176 233q114 63 176 105q12 -37 117 -273q55 115 115 273q119 -70 180 -105q-43 -43 -180 -233q233 18 293 34v-208q-145 23 -291 36q45 -66 180 -237q-29 -16 -90.5 -49t-89.5 -49q-10 29 -51 123t-64 147q-76 -154 -119 -273 q-119 70 -180 105q39 45 180 233q-185 -14 -291 -34z" />
<glyph unicode="+" d="M96 428v203h342v358h234v-358h342v-203h-342v-358h-234v358h-342z" />
<glyph unicode="," horiz-adv-x="561" d="M90 -264q98 201 98 393q0 90 -16 158q121 20 268 47q14 -60 14 -168t-54 -250.5t-138 -253.5z" />
<glyph unicode="-" horiz-adv-x="737" d="M78 379v237h579v-237h-579z" />
<glyph unicode="." horiz-adv-x="561" d="M117 147.5q0 71.5 52 124t123 52.5t122 -52t51 -122t-52.5 -123.5t-122.5 -53.5t-121.5 51.5t-51.5 123z" />
<glyph unicode="/" horiz-adv-x="718" d="M12 -74q288 956 451 1510h244q-432 -1452 -449 -1510h-246z" />
<glyph unicode="0" horiz-adv-x="1167" d="M90 683q0 300 129 497.5t363 197.5q160 0 326.5 -144t166.5 -554q0 -299 -129.5 -497.5t-365.5 -198.5t-363 199.5t-127 499.5zM371 679q0 -228 54 -352t156.5 -124t158 125t55.5 351t-55.5 352t-158 126t-156.5 -125t-54 -353z" />
<glyph unicode="1" horiz-adv-x="1048" d="M180 1167q254 100 453 199h127q-2 -56 -2 -246v-909q0 -164 4 -211h-277q4 84 4 213v852q-164 -66 -270 -115q-33 190 -39 217z" />
<glyph unicode="2" horiz-adv-x="1105" d="M137 0v152q238 211 408 446q70 96 101.5 161.5t31.5 154.5t-65 151.5t-161 62.5t-173.5 -29.5t-122.5 -76.5v276q123 78 342 78t342 -116.5t123 -316.5t-183 -427q-94 -119 -256 -283h238q135 0 250 11v-244h-875z" />
<glyph unicode="3" horiz-adv-x="1118" d="M170 33v239q106 -66 240 -66t189.5 67t55.5 148t-60 127t-163 46q-43 0 -94 -6v217q28 -4 98 -4t137.5 51t67.5 123t-50 123t-172 51t-241 -76v238q136 63 322 63t300.5 -95t114.5 -255q0 -227 -235 -309q274 -84 274 -344q0 -178 -131 -283.5t-356 -105.5 q-170 0 -297 51z" />
<glyph unicode="4" horiz-adv-x="1105" d="M41 356v125l713 887h96v-819q162 0 221 4v-199q-49 2 -221 2v-194q0 -82 8 -162h-270q6 53 6 160v196h-553zM299 549h295q0 264 2 395q-57 -76 -162.5 -216t-134.5 -179z" />
<glyph unicode="5" horiz-adv-x="1105" d="M133 39v248q115 -74 249 -74t210 58.5t76 154.5t-76 156.5t-212 60.5t-206 -22q2 27 26 258t40 483q102 -4 176 -4h301q23 0 188 6v-240q-111 4 -182 4h-272q-4 -33 -14.5 -145.5t-14.5 -144.5q45 10 98 10q199 0 320 -116t121 -306t-145.5 -318t-360.5 -128 q-174 0 -322 59z" />
<glyph unicode="6" horiz-adv-x="1122" d="M84 432q0 473 362 803q33 31 82.5 72t77.5 65l365 -2q-164 -94 -342 -274.5t-199 -266.5q115 49 193 50q195 0 309.5 -136.5t114.5 -320.5t-150.5 -313t-340.5 -129t-331 135t-141 317zM338 434q0 -94 64.5 -164.5t164.5 -70.5t158.5 68.5t58.5 159.5t-65.5 161.5 t-157.5 70.5t-157.5 -65.5t-65.5 -159.5z" />
<glyph unicode="7" horiz-adv-x="1087" d="M94 1362q51 -4 209 -4h533q47 0 114.5 1t87.5 1q-61 -127 -90 -193l-430 -970q-10 -23 -43 -97.5t-43 -99.5h-291q23 37 138 265t389 855h-387q-109 0 -177 -6q-4 166 -10 248z" />
<glyph unicode="8" horiz-adv-x="1128" d="M102 371q0 111 63.5 203t176.5 141q-197 102 -197 295q0 160 123 263t305 103t300 -103.5t118 -248.5q0 -180 -194 -303q111 -49 174 -138t63 -202q0 -174 -134 -284.5t-332 -110.5t-332 107.5t-134 277.5zM367 404q0 -82 56 -137.5t146 -55.5t147.5 55.5t57.5 137.5 t-65.5 138t-165.5 76q-76 -18 -126 -75t-50 -139zM395 993q0 -72 56.5 -122t138.5 -62q63 16 107 67.5t44 119.5t-48 117.5t-125 49.5t-125 -49t-48 -121z" />
<glyph unicode="9" horiz-adv-x="1118" d="M74 948q0 184 150 313.5t340 129.5t331 -135.5t141 -317.5q0 -473 -362 -803q-33 -31 -82 -71.5t-78 -65.5l-364 2q164 94 342 274.5t198 266.5q-115 -49 -192 -49q-195 0 -309.5 136t-114.5 320zM336 944q0 -92 65.5 -162.5t157.5 -70.5t157.5 65.5t65.5 159.5 t-64.5 164.5t-164.5 70.5t-158.5 -67.5t-58.5 -159.5z" />
<glyph unicode=":" horiz-adv-x="571" d="M121 132q0 69 48 117t117 48t117 -48t48 -117t-48.5 -117t-116.5 -48t-116.5 48t-48.5 117zM121 794.5q0 69.5 48 118t117 48.5t117 -48.5t48 -118t-48.5 -116.5t-116.5 -47t-116.5 47t-48.5 116.5z" />
<glyph unicode=";" horiz-adv-x="606" d="M90 -264q98 201 98 393q0 90 -16 158q121 20 268 47q14 -60 14 -168t-54 -250.5t-138 -253.5zM127 794q0 69 48 118t117 49t117 -49.5t48 -117.5t-48.5 -115.5t-116.5 -47.5t-116.5 47t-48.5 116z" />
<glyph unicode="&#x3c;" horiz-adv-x="1134" d="M98 483v90q242 123 910 476v-244q-389 -180 -588 -277l588 -272v-246q-336 178 -910 473z" />
<glyph unicode="=" d="M98 219v205h918v-205h-918zM98 633v203h918v-203h-918z" />
<glyph unicode="&#x3e;" horiz-adv-x="1134" d="M182 20v246q78 41 167 88t196.5 101.5t167.5 85.5q-414 213 -531 274v244q702 -391 840 -473v-92q-702 -391 -840 -474z" />
<glyph unicode="?" horiz-adv-x="933" d="M147 1022v252q109 100 284 100t293 -84t118 -262q0 -63 -31 -122.5t-58.5 -88.5t-96.5 -91t-88 -120.5t-19 -179.5h-252q2 117 14.5 175.5t45.5 96.5t88 100t89.5 106.5t34.5 70.5q0 84 -57.5 126t-121.5 42t-130.5 -36t-112.5 -85zM272 142q0 64 48.5 112.5t114 48.5 t113.5 -47t48 -112.5t-48 -111.5t-115 -47t-114 46t-47 111z" />
<glyph unicode="@" horiz-adv-x="1779" d="M82 456q0 340 242.5 575t580.5 235t564.5 -186.5t226.5 -501.5q0 -223 -115 -369t-307 -146q-94 0 -164 45.5t-74 129.5q-96 -160 -260 -160q-121 0 -197.5 95t-76.5 252t105.5 291t271.5 134q123 0 178 -88q10 53 10 76l211 -15q-8 -79 -18 -137q-52 -282 -52 -346 q0 -104 82 -104q94 0 149.5 85t55.5 236q0 248 -157.5 396.5t-427.5 148.5t-449.5 -190.5t-179.5 -463t171 -443.5t427 -171q170 0 276 41l1 -21l-1 -153q-139 -29 -276 -29q-336 0 -566.5 222t-230.5 562zM725 450q0 -86 36 -131t97 -45q125 1 160 105l18 233 q-16 27 -55 41.5t-63 14.5q-80 0 -136.5 -66t-56.5 -152z" />
<glyph unicode="A" horiz-adv-x="1388" d="M12 0q80 158 172 367l453 1030h94l477 -1061q59 -135 168 -336h-319q-8 23 -123 307h-520l-123 -307h-279zM496 512h352l-178 451z" />
<glyph unicode="B" horiz-adv-x="1191" d="M152 0q6 123 6 362v611q0 330 -4 403h415q184 0 312.5 -89t128.5 -247q0 -96 -49.5 -170.5t-131.5 -107.5q119 -37 191 -130t72 -224q0 -188 -145.5 -298t-362.5 -110h-432zM436 195h133q113 0 176.5 57.5t63.5 158.5t-61.5 162.5t-165.5 61.5h-146v-440zM436 819h119 q82 0 133 50.5t51 133.5t-51 134t-143 51h-109v-369z" />
<glyph unicode="C" horiz-adv-x="1280" d="M92 684q0 309 208 513t529 204q158 0 330 -58v-282q-121 96 -321 96t-331.5 -136t-131.5 -336t132.5 -334t328.5 -134t331 86v-274q-141 -51 -338 -52q-330 0 -533.5 199t-203.5 508z" />
<glyph unicode="D" horiz-adv-x="1411" d="M152 0q6 129 6 371v665q0 229 -6 340h471q297 0 494.5 -191.5t197.5 -493.5t-203.5 -496.5t-490.5 -194.5h-469zM436 229h156q199 0 320.5 130t121.5 331t-125 329t-319 128h-154v-918z" />
<glyph unicode="E" horiz-adv-x="1050" d="M152 0q6 66 6 346v682q0 217 -6 348h493q188 0 291 6l-43 -239q-78 4 -354 4h-105v-324h127q236 0 320 4v-233q-84 4 -320 4h-127v-369h176q240 0 320 4v-237q-80 4 -316 4h-462z" />
<glyph unicode="F" horiz-adv-x="1013" d="M152 0q6 139 6 360v656q0 221 -6 360h446q250 0 340 6l-43 -239q-63 4 -324 4h-135v-363h127q213 0 295 4v-237q-61 4 -295 4h-127v-199q0 -256 4 -356h-288z" />
<glyph unicode="G" horiz-adv-x="1388" d="M92 682q0 315 209 516t549 201q178 0 340 -53v-269q-158 84 -330 84q-223 0 -354 -133t-131 -336t128 -342t331 -139q86 0 137 27v139q0 180 -6 264h274q-6 -143 -6 -344v-248q-186 -74 -397 -74q-328 0 -536 196t-208 511z" />
<glyph unicode="H" horiz-adv-x="1474" d="M154 0q4 78 4 301v719q0 276 -4 356h286q-6 -104 -6 -418v-127h606v201q0 213 -6 344h287q-6 -199 -6 -356v-797q0 -20 6 -223h-287q6 104 6 293v315h-606v-315q0 -213 6 -293h-286z" />
<glyph unicode="I" horiz-adv-x="602" d="M158 0q6 129 6 365v626q0 244 -6 385h286q-4 -68 -4 -385v-626q0 -272 4 -365h-286z" />
<glyph unicode="J" horiz-adv-x="622" d="M-184 -201q72 -41 169 -41t148 61.5t51 168.5v1032q0 266 -6 356h289q-4 -131 -4 -356v-993q0 -227 -118 -364.5t-331 -137.5q-100 0 -198 24v250z" />
<glyph unicode="K" horiz-adv-x="1323" d="M152 0q4 88 4 348v680q0 254 -4 348h288q-4 -96 -4 -346v-289l305 400q49 63 166 235h312q-25 -29 -70 -92t-68 -90l-374 -475l399 -483q90 -111 203 -236h-375q-82 121 -131 180l-367 451v-283q0 -244 4 -348h-288z" />
<glyph unicode="L" horiz-adv-x="1021" d="M152 0q6 229 6 371v633q0 229 -6 372h286q-4 -168 -4 -196v-947h213q184 0 320 5v-242q-84 4 -326 4h-489z" />
<glyph unicode="M" horiz-adv-x="1699" d="M92 0q4 53 14.5 170t14.5 180l72 1032h210l457 -823l455 823h205l59 -1054q8 -182 25 -328h-279q-4 158 -12 301l-33 567l-391 -700h-64l-399 700l-35 -563q-4 -68 -7 -175t-5 -130h-287z" />
<glyph unicode="N" horiz-adv-x="1472" d="M152 0q4 80 4 293v731q0 240 -4 373h98l797 -875v502q0 227 -7 352h283q-8 -166 -8 -346v-737q0 -213 4 -305h-100l-797 882v-583q0 -170 6 -287h-276z" />
<glyph unicode="O" horiz-adv-x="1630" d="M92 690q0 305 207 507t515 202t516 -205t208 -510t-207 -507t-516 -202t-516 205t-207 510zM375 687q0 -208 125 -345t315.5 -137t314 137t123.5 344t-124.5 345t-314.5 138t-314.5 -137t-124.5 -345z" />
<glyph unicode="P" horiz-adv-x="1144" d="M152 0q6 119 6 360v689q0 221 -6 327h401q233 0 371.5 -120.5t138.5 -323.5t-134 -323t-378 -120h-115v-137q0 -229 6 -352h-290zM436 698h96q111 0 179.5 65t68.5 167t-66.5 167.5t-181.5 65.5h-96v-465z" />
<glyph unicode="Q" horiz-adv-x="1630" d="M90 694q0 299 207 502t516 203t517 -205t208 -508q0 -209 -102.5 -366.5t-266.5 -231.5q203 -197 457 -197q76 0 135 17l35 -201q-121 -35 -231 -35q-195 0 -351.5 81t-312.5 243q-39 -8 -98 -8q-307 0 -510 203.5t-203 502.5zM375 687q0 -206 125 -344t314 -138t314 137 t125 343t-124.5 345t-314.5 139t-314.5 -138t-124.5 -344z" />
<glyph unicode="R" horiz-adv-x="1271" d="M152 0q6 80 6 365v667q0 272 -6 344h417q219 0 356.5 -107.5t137.5 -310.5q0 -264 -246 -350l189 -293q76 -117 239 -315h-352l-318 532h-139v-170q0 -244 6 -362h-290zM436 731h115q96 0 163.5 55.5t67.5 156.5t-65.5 157.5t-161.5 56.5h-119v-426z" />
<glyph unicode="S" horiz-adv-x="1062" d="M92 55q6 27 64 242q121 -106 286 -107q96 0 155.5 43t59.5 114t-51 123t-136 104t-125 80t-120 106.5t-80 251.5q0 172 125.5 281.5t305.5 109.5t317 -62v-239q-115 84 -264 84q-92 0 -143.5 -38t-51.5 -102t46 -109t136 -103t131 -89.5t124 -113t83 -259.5 q0 -177 -139 -289t-351 -112t-372 84z" />
<glyph unicode="T" horiz-adv-x="1245" d="M49 1139v239q96 -2 344 -2h467q264 0 340 2q-6 -117 -12 -239q-141 6 -332 6h-94q-2 -98 -2 -350v-439q0 -252 8 -356h-293q6 143 6 356v430q0 258 -4 359h-96q-190 0 -332 -6z" />
<glyph unicode="U" horiz-adv-x="1419" d="M147 1376h289q-6 -92 -6 -370v-471q0 -156 75 -237t206 -81t204.5 83t73.5 237v469q0 272 -4 370h285q-2 -94 -2 -372v-467q0 -264 -150.5 -410.5t-409.5 -146.5t-407.5 150.5t-148.5 406.5v467q-1 288 -5 372z" />
<glyph unicode="V" horiz-adv-x="1368" d="M8 1376h316l370 -905l373 905h291q-6 -12 -56.5 -110.5t-78.5 -161.5l-504 -1131h-70l-497 1117q-86 190 -144 286z" />
<glyph unicode="W" horiz-adv-x="1910" d="M-25 1376h283q55 -156 168 -470t168 -472q14 25 39 70q23 63 92.5 266t108.5 313q-78 209 -117 293h284q169 -461 304 -844l49 -98q106 303 313 942h266q-380 -1026 -518 -1380h-172q-47 131 -142.5 391t-142.5 389l-290 -780h-170q-459 1217 -523 1380z" />
<glyph unicode="X" horiz-adv-x="1255" d="M14 0q119 152 463 692q-27 45 -224.5 349.5t-219.5 334.5h332q64 -115 150.5 -259t117.5 -197q268 446 272 456h309q-125 -162 -442 -663l246 -387q137 -213 223 -326h-332q-6 12 -104 176q-164 264 -189 303l-202 -332q-57 -93 -69.5 -117t-16.5 -30h-314z" />
<glyph unicode="Y" horiz-adv-x="1292" d="M12 1376h332q38 -85 158.5 -283t154.5 -257l217 364q49 82 99 176h307q-8 -12 -56 -82.5t-81 -124.5l-359 -571v-283q1 -184 7 -315h-285q4 213 4 315v281l-326 522q-90 147 -172 258z" />
<glyph unicode="Z" horiz-adv-x="1171" d="M49 0l295 532q297 532 342 613h-254q-260 0 -328 -4l-12 239q92 -4 354 -4h660q-117 -221 -158 -291l-485 -854h315q240 0 318 5v-240q-78 4 -318 4h-729z" />
<glyph unicode="[" horiz-adv-x="770" d="M156 -397q4 111 4 223v1503q0 111 -4 225h385q111 0 155 2v-204q-86 4 -151 4h-158v-1555h160q106 0 149 4v-206q-35 4 -127 4h-413z" />
<glyph unicode="\" horiz-adv-x="722" d="M14 1436h244q288 -956 451 -1510h-246q-74 252 -224.5 755t-224.5 755z" />
<glyph unicode="]" horiz-adv-x="770" d="M76 -195q43 -4 151 -4h158v1555h-158q-70 0 -151 -4v204q43 -2 149 -2h391q-4 -55 -4 -217v-1517q0 -164 4 -217h-391q-109 0 -149 -4v206z" />
<glyph unicode="^" horiz-adv-x="1044" d="M66 883q23 29 213 286.5t206 280.5h72q352 -475 422 -567h-258q-152 240 -207 336q-13 -23 -201 -336h-247z" />
<glyph unicode="_" horiz-adv-x="946" d="M14 -117h918v-135h-918v135z" />
<glyph unicode="`" horiz-adv-x="905" d="M92 1415h270q14 -27 104.5 -167t100.5 -158h-237z" />
<glyph unicode="a" horiz-adv-x="1019" d="M72 285q0 190 158 255.5t417 65.5v29q0 72 -57.5 115t-163.5 43t-223 -72q-42 93 -84 180q139 92 363 92t320.5 -109.5t96.5 -340.5v-221q0 -203 41 -322h-258l-12 104q-106 -127 -287 -127q-137 0 -224 84t-87 224zM326 291q0 -59 37 -94t89 -35t107 25.5t92 66.5v176 l-141 -6q-86 -4 -135 -39t-49 -94z" />
<glyph unicode="b" horiz-adv-x="1208" d="M23 1323l63 152h313q-8 -82 -8 -160v-412q129 92 281 92q213 0 338 -143t125 -357t-130.5 -360.5t-338.5 -146.5q-168 0 -301 104l-117 -92h-117v1323h-108zM391 299q103 -94 227 -94t186 77.5t62 206.5t-70.5 204t-189.5 75t-215 -104v-365z" />
<glyph unicode="c" horiz-adv-x="978" d="M68 485q0 217 154.5 361.5t381.5 144.5q127 0 254 -47v-252q-102 70 -231 70t-214 -80t-85 -198t80.5 -195.5t204.5 -77.5t249 68v-244q-117 -47 -260 -47q-227 0 -380.5 140t-153.5 357z" />
<glyph unicode="d" horiz-adv-x="1198" d="M72 493q0 214 125 357t335 143q150 0 275 -86v389h-111l64 152h317q-10 -123 -10 -193v-1058q0 -25 6 -197h-215q-33 74 -49 113q-106 -123 -295 -123t-315.5 144.5t-126.5 358.5zM330 482q0 -130 70.5 -204.5t189.5 -74.5t217 108v373q-104 92 -225 92t-186.5 -82 t-65.5 -212z" />
<glyph unicode="e" horiz-adv-x="1044" d="M68 481q0 223 123 367.5t347 144.5t335.5 -136t111.5 -316q0 -44 -10 -105h-653q16 -241 294 -241q140 0 312 86v-205q-156 -92 -342 -92q-238 0 -378 137t-140 360zM315 588h422q-2 90 -55 145t-148 55t-151.5 -60t-67.5 -140z" />
<glyph unicode="f" horiz-adv-x="757" d="M59 762v211h164v94q0 197 94.5 302.5t266.5 105.5q104 0 231 -31l-39 -209q-55 29 -132 29t-117 -52.5t-40 -134.5v-104h242l-41 -211h-201v-555q0 -154 5 -207h-273q4 180 4 207v555h-164z" />
<glyph unicode="g" horiz-adv-x="1075" d="M45 473q0 215 122 365.5t308 150.5q84 0 166 -31.5t127 -87.5v103h264q-4 -12 -20.5 -75.5t-18.5 -76.5l4 -710q0 -297 -125 -429.5t-401 -132.5q-215 0 -338 41q29 97 68 195q98 -25 266 -25t229.5 72t61.5 252q-109 -98 -264 -98q-197 0 -323 136t-126 351zM307 479 q0 -127 64.5 -204.5t175.5 -77.5t209 90v389q-76 102 -196 102t-186.5 -86t-66.5 -213z" />
<glyph unicode="h" horiz-adv-x="1198" d="M41 1311q20 49 61 151h310q-8 -68 -9 -207v-399q119 133 299 133t273.5 -116.5t93.5 -325.5v-371q0 -109 6 -176h-282q6 94 6 289v209q0 272 -181 272q-139 0 -215 -154v-442q0 -45 7 -174h-281q6 82 6 221v1090h-94z" />
<glyph unicode="i" horiz-adv-x="546" d="M131 973h285q-6 -80 -6 -207v-559q0 -139 6 -207h-283q8 68 8 207v553q0 152 -10 213zM133 1258q0 62 43.5 105.5t105.5 43.5t105 -43.5t43 -105.5t-43 -105t-105 -43t-105.5 43t-43.5 105z" />
<glyph unicode="j" horiz-adv-x="563" d="M-129 -240h119q160 0 160 260v738q0 141 -9 215h283q-6 -74 -6 -211v-647q0 -429 -128 -501.5t-235 -72.5h-184v219zM133 1258q0 62 43.5 105.5t105.5 43.5t105 -43.5t43 -105.5t-43 -105t-105 -43t-105.5 43t-43.5 105z" />
<glyph unicode="k" horiz-adv-x="1140" d="M37 1311q20 43 61 151h303q-4 -98 -4 -207v-682l377 400h322q-293 -281 -457 -445q25 -27 209 -229.5t280 -298.5h-340q-66 72 -195.5 211t-195.5 211v-219q0 -141 4 -203h-274q6 70 6 211v1100h-96z" />
<glyph unicode="l" horiz-adv-x="552" d="M35 1311l63 151h303q-8 -40 -8 -194v-1061q0 -166 6 -207h-268q4 41 4 207v1104h-100z" />
<glyph unicode="m" horiz-adv-x="1718" d="M33 819l65 154h301l7 -131q118 150 300 150t252 -163q119 162 308 162q154 0 241.5 -102.5t87.5 -288.5v-397q0 -117 7 -203h-281q4 84 4 219v361q0 188 -135 188q-117 0 -189 -145v-420q1 -68 5 -203h-279q4 72 4 219v365q0 184 -137 184q-123 0 -188 -145v-402 q0 -164 2 -221h-275q2 76 2 205v614h-102z" />
<glyph unicode="n" horiz-adv-x="1177" d="M37 819q7 10 36 81t29 73h291q8 -48 8 -123q113 141 306 141q348 0 348 -446v-307q0 -178 6 -238h-277q4 70 4 242v342q0 88 -49 136t-125 48q-143 0 -213 -152v-374q0 -178 5 -242h-275q6 98 6 242v577h-100z" />
<glyph unicode="o" horiz-adv-x="1142" d="M74 488q0 210 146.5 356.5t353 146.5t351 -148.5t144.5 -359.5t-146.5 -354t-354.5 -143t-351 146t-143 356zM334 482q0 -110 67.5 -189.5t170 -79.5t170 80t67.5 194.5t-68.5 193.5t-170.5 79t-169 -84t-67 -194z" />
<glyph unicode="p" horiz-adv-x="1212" d="M31 821q57 137 63 152h309q-4 -70 -4 -105q113 125 305 125t310.5 -141t118.5 -353t-126 -360.5t-335 -148.5q-154 0 -275 82v-506q-47 -6 -134 -19.5t-126 -19.5q2 74 2 240v1054h-108zM399 299q99 -94 221 -94t186 71.5t64 211.5t-66.5 215t-170.5 75 q-68 0 -131.5 -31.5t-102.5 -72.5v-375z" />
<glyph unicode="q" horiz-adv-x="1210" d="M72 490q0 214 122.5 356.5t321.5 142.5q147 0 287 -94v78h270q-8 -127 -8 -242v-946q0 -145 6 -246h-274q6 102 6 252v318q-111 -123 -297 -123t-310 145t-124 359zM336 487.5q0 -120.5 65.5 -201.5t176.5 -81q59 0 122.5 24.5t102.5 67.5v395q-88 78 -210 78t-189.5 -81 t-67.5 -201.5z" />
<glyph unicode="r" horiz-adv-x="806" d="M51 819q20 54 64 154h260q16 -170 18 -201q125 221 289 221q59 0 111 -28q-10 -52 -52 -252q-55 23 -108 23t-118.5 -42.5t-96.5 -93.5l2 -133v-258q0 -117 6 -209h-281q4 139 5 211v608h-99z" />
<glyph unicode="s" horiz-adv-x="856" d="M76 43q8 37 23.5 109.5t23.5 109.5q119 -90 244 -90q66 0 102.5 26.5t36.5 67.5t-54 72.5t-140.5 74t-144.5 113t-58 188.5t94.5 197.5t238.5 79.5t289 -47v-217q-127 74 -235 74q-57 0 -90 -21.5t-33 -58.5t41 -67.5t99 -59.5t116.5 -64.5t99.5 -100t41 -153.5 q0 -141 -101 -220t-291 -79t-302 66z" />
<glyph unicode="t" horiz-adv-x="800" d="M51 762v211h144v203l270 61q-4 -111 -4 -188v-76h266q-12 -82 -35 -211h-231v-363q0 -192 136 -192h1q45 0 94 26q20 -111 39 -196q-87 -53 -231 -53t-224.5 100t-80.5 295v383h-144z" />
<glyph unicode="u" horiz-adv-x="1132" d="M35 819l63 154h308q-4 -135 -5 -205v-184q0 -209 32 -296t134 -87q143 0 183 155v432q0 131 -5 185h281q-6 -76 -6 -180v-582q0 -127 20 -211h-237q-4 23 -14.5 68t-14.5 65q-84 -147 -282 -147q-162 0 -261.5 102t-99.5 313v418h-96z" />
<glyph unicode="v" horiz-adv-x="1032" d="M6 973h316q0 -2 57 -152l156 -405l155 411q8 23 51 146h283q-86 -164 -106 -209l-353 -787h-100l-352 787q-50 111 -107 209z" />
<glyph unicode="w" horiz-adv-x="1490" d="M6 973h301q12 -51 58 -178l135 -377l207 555h112q16 -47 104.5 -268.5t108.5 -284.5l127 387q53 164 53 166h273q-53 -117 -103 -244l-280 -745h-92l-258 612l-250 -612h-99l-299 757q-31 78 -98 232z" />
<glyph unicode="x" horiz-adv-x="1005" d="M10 0q72 90 189.5 266t148.5 219q-16 27 -82.5 131.5t-102.5 162.5t-138 194h305q74 -123 184 -297q14 22 64 96t127 201h280q-59 -73 -326 -479q31 -49 93.5 -146.5t109.5 -173.5t119 -174h-293q-31 51 -96.5 151.5t-95.5 149.5q-160 -246 -195 -301h-291z" />
<glyph unicode="y" horiz-adv-x="1097" d="M8 973h316q16 -48 111 -286t132 -335q10 29 56.5 145.5t82.5 211t85 264.5h296q-186 -414 -319 -732q-133 -319 -152.5 -361t-58.5 -107.5t-99.5 -120.5t-174.5 -55h-187l25 213q119 0 153 12q61 8 148 215q6 12 8 18q-12 29 -117.5 258.5t-197.5 431t-107 228.5z" />
<glyph unicode="z" horiz-adv-x="946" d="M47 0q76 125 226.5 374t226.5 371h-252q-109 0 -156 -4q-4 156 -4 234q45 -2 166 -2h647q-299 -500 -448 -748h260q74 0 180 4v-231q-43 2 -154 2h-692z" />
<glyph unicode="{" horiz-adv-x="798" d="M59 487v203q190 4 191 213l-6 230q0 184 81 293.5t240 121.5q33 2 79 5t85 3q4 -131 8 -200l-24 2q-231 0 -232 -217l6 -221q0 -129 -48 -215.5t-132 -112.5q18 -8 39 -29q141 -68 141 -303l-6 -240q0 -123 60.5 -169t193.5 -46q-6 -105 -6 -200q-37 0 -179 8t-224 119.5 t-82 300.5l6 246q0 98 -49 152t-142 56z" />
<glyph unicode="|" horiz-adv-x="516" d="M152 -438v1994h215v-1994h-215z" />
<glyph unicode="}" horiz-adv-x="808" d="M61 -195l29 -2q121 0 173 55.5t52 182.5v37l-4 186q2 252 181 328q-84 25 -133.5 112t-49.5 216l6 221q0 119 -54 168t-163 49q-25 0 -37 -2l9 200q57 2 168 -8q152 -14 234.5 -124.5t82.5 -286.5l-6 -222q0 -221 188 -225v-203q-188 -4 -188 -206l6 -248 q0 -180 -81 -294t-238 -126q-43 -4 -101 -6l-59 -2q-14 63 -15 200z" />
<glyph unicode="~" d="M68 362q4 133 94 232.5t233 99.5q61 0 152.5 -43t118.5 -43q55 0 75 78h279q-4 -135 -94 -233.5t-236 -98.5q-90 0 -167 43t-109 43t-52 -22.5t-20 -55.5h-274z" />
<glyph unicode="&#xa2;" d="M174 544q0 188 114.5 317.5t293.5 160.5v192h145v-186q94 -4 158 -27v-243q-79 45 -183 46t-182 -68.5t-78 -188.5t74 -187.5t186 -67.5t187 42l10 -236q-80 -29 -172 -30v-179h-147v185q-184 31 -295 156.5t-111 313.5z" />
<glyph unicode="&#xa3;" d="M66 0v203q125 12 187 109.5t66 301.5h-176v170h187q29 592 510 592q106 0 202 -30l-30 -222q-61 33 -154 33q-238 0 -258 -287q-6 -24 -6 -86h303l-31 -170h-282q-6 -147 -48 -255.5t-108 -155.5q160 6 211 6h158q115 0 213 4v-217q-55 4 -207 4h-737z" />
<glyph unicode="&#xa5;" d="M25 1358h305q74 -157 229 -443q205 358 242 443h282q-16 -27 -112 -194t-285 -484h262v-133h-262v-119h262v-131h-262v-86q0 -96 6 -211h-286q6 117 6 209v88h-256v131h256v119h-256v133h258q-142 250 -242 426t-147 252z" />
<glyph unicode="&#xa8;" horiz-adv-x="899" d="M100 1251.5q0 55.5 40 95t96 39.5t96.5 -39.5t40.5 -95t-40 -95.5t-96 -40t-96.5 40t-40.5 95.5zM526 1251.5q0 55.5 41 95t96.5 39.5t95.5 -39.5t40 -95t-40 -95.5t-95.5 -40t-96.5 40t-41 95.5z" />
<glyph unicode="&#xa9;" horiz-adv-x="1564" d="M100 671q0 284 199 484.5t481.5 200.5t481 -201t198.5 -485t-197.5 -482t-482 -198t-482.5 198.5t-198 482.5zM244 673q0 -230 155.5 -390t381.5 -160t382 159.5t156 389.5t-156.5 389.5t-380.5 159.5t-381 -159t-157 -389zM449 671q0 161 110.5 272.5t271.5 111.5 q84 0 164 -25v-188q-61 37 -148 37t-145.5 -59.5t-58.5 -145.5q0 -27 6 -47q12 -70 65.5 -114t135.5 -44t147 39l11 -189q-90 -29 -185 -28q-160 0 -267 109.5t-107 270.5z" />
<glyph unicode="&#xab;" horiz-adv-x="1386" d="M115 457v41q469 375 542 432v-246q-43 -35 -129 -103.5t-129 -103.5q59 -47 260 -201v-247zM655 457v41q180 145 541 432v-246q-43 -35 -129 -103.5t-129 -103.5q201 -154 260 -201v-247z" />
<glyph unicode="&#xad;" horiz-adv-x="737" d="M78 379v237h579v-237h-579z" />
<glyph unicode="&#xae;" horiz-adv-x="976" d="M121 1114.5q0 151.5 105.5 257t255 105.5t255 -106.5t105.5 -257.5t-105.5 -256t-256.5 -105t-255 105.5t-104 257zM203 1114q0 -119 81 -202t197.5 -83t197.5 83t81 202t-81 202t-197.5 83t-197.5 -83t-81 -202zM346 932q2 25 2 84v201q0 66 -2 88h115q143 0 143 -109 q0 -39 -22.5 -66.5t-59.5 -37.5q40 -48 74.5 -99t42.5 -61h-96q-39 74 -84 145h-29v-145h-84zM430 1133h33q6 0 14 4q55 6 55 53q0 57 -69 57h-33v-114z" />
<glyph unicode="&#xb4;" horiz-adv-x="899" d="M270 1087l207 326h271l-240 -326h-238z" />
<glyph unicode="&#xb8;" horiz-adv-x="911" d="M248 -459q6 69 6 133q66 -27 115 -26q86 0 98 53q4 12 4 18q0 70 -119 70q-40 0 -63 -6q40 71 57 117q37 78 45 94h141q-8 -14 -22 -44t-23 -44q172 -29 172 -185q0 -99 -73.5 -151.5t-169.5 -52.5t-168 24z" />
<glyph unicode="&#xbb;" horiz-adv-x="1386" d="M190 29v247l261 203l-258 205v248q49 -43 542 -432v-41zM731 29v247l260 203l-258 205v248l541 -432v-41z" />
<glyph unicode="&#x2c6;" horiz-adv-x="888" d="M127 1085l274 334h82q18 -25 139 -167t140 -167h-215l-107 150l-108 -150h-205z" />
<glyph unicode="&#x2da;" horiz-adv-x="833" d="M203 1262q0 84 61.5 140t152.5 56t153.5 -56t62.5 -139t-62.5 -140.5t-153.5 -57.5t-152.5 56.5t-61.5 140.5zM342 1261.5q0 -32.5 20.5 -57t54.5 -24.5t55.5 22.5t21.5 57t-21.5 57t-54.5 22.5t-54.5 -22.5t-21.5 -55z" />
<glyph unicode="&#x2dc;" horiz-adv-x="888" d="M121 1102q2 90 49.5 163t153.5 83q61 0 130.5 -43t102.5 -43q53 0 57 73h152q-2 -90 -47.5 -167.5t-133.5 -76.5q-87 1 -151 43t-92 42q-4 0 -16 -5q-41 -10 -43 -69h-162z" />
<glyph unicode="&#x400;" horiz-adv-x="1052" d="M150 -2q8 84 8 186l-2 160v682q0 215 -6 346h493q188 0 291 6l-43 -239q-78 6 -253 6t-206 -2v-322h127q236 0 320 4v-235q-127 6 -320 6h-127v-371h176q240 0 320 4v-235q-80 4 -316 4h-462zM203 1780h278q85 -117 219 -307h-243q-168 205 -254 307z" />
<glyph unicode="&#x401;" horiz-adv-x="1050" d="M152 0q8 90 8 188l-2 158v682q0 217 -6 348h493q188 0 291 6l-43 -239q-78 4 -354 4h-105v-324h127q236 0 320 4v-233q-84 4 -320 4h-127v-369h176q240 0 320 4v-237q-80 4 -316 4h-462zM184 1644q0 56 40 95t95.5 39t95.5 -39t40 -95t-40 -96.5t-95.5 -40.5t-95.5 40.5 t-40 96.5zM608 1644q0 56 40 95t96 39t96.5 -39t40.5 -95t-40.5 -96.5t-96.5 -40.5t-96 40.5t-40 96.5z" />
<glyph unicode="&#x402;" horiz-adv-x="1581" d="M51 1133v245q96 -2 334 -2h573q244 0 324 4q-4 -123 -12 -247q-143 6 -316 6h-196v-314q70 18 168 19q276 0 411.5 -132t135.5 -318t-116 -298t-296 -112q-106 0 -178 22q4 39 11 119t11 119q49 -23 111 -23t117 49t55 123q0 102 -80 152.5t-223 50.5q-76 0 -127 -14 v-238q0 -258 6 -344h-301q6 147 6 365v774h-98q-178 0 -320 -6z" />
<glyph unicode="&#x403;" horiz-adv-x="1009" d="M160 0q2 96 2 352v672q0 221 -2 352h495q231 0 320 2q-13 -96 -29 -248q-82 6 -262 7h-242v-867q0 -217 4 -270h-286zM412 1448q45 78 184 328h287q-23 -33 -230 -328h-241z" />
<glyph unicode="&#x404;" horiz-adv-x="1277" d="M96 678q0 309 206 512t519 203q186 0 350 -62v-274q-127 94 -337 94q-160 0 -281 -90t-162 -236h238q188 0 317 6v-239q-86 4 -317 4h-240q23 -164 146 -269.5t305 -105.5t331 88v-266q-150 -59 -358 -59q-311 0 -514 192.5t-203 501.5z" />
<glyph unicode="&#x405;" horiz-adv-x="1062" d="M92 55q6 27 64 242q123 -106 293 -107q92 0 150 43t58 114t-52 124t-133 101t-122 78t-123 109t-82 250q0 172 124 283t335 111q154 0 289 -62v-239q-119 84 -277 84q-84 0 -133 -39t-49 -103t50 -112t126 -96t108 -69.5t134 -111.5t102 -274t-138 -297t-347 -113 t-377 84z" />
<glyph unicode="&#x406;" horiz-adv-x="602" d="M158 0q6 129 6 365v626q0 244 -6 385h286q-4 -68 -4 -385v-626q0 -272 4 -365h-286z" />
<glyph unicode="&#x407;" horiz-adv-x="602" d="M-45 1644q0 56 39 95t94 39t96 -39t41 -95t-41 -96.5t-96 -40.5t-94 40.5t-39 96.5zM158 0q6 129 6 365v626q0 244 -6 385h286q-4 -68 -4 -385v-626q0 -272 4 -365h-286zM379 1644q0 56 40 95t96 39t95 -39t39 -95t-39 -96.5t-95 -40.5t-96 40.5t-40 96.5z" />
<glyph unicode="&#x408;" horiz-adv-x="598" d="M-184 -201q72 -41 169 -41t148 62.5t51 167.5v1032q0 266 -6 356h289q-4 -131 -4 -356v-993q0 -227 -119 -364.5t-328 -137.5q-102 0 -200 24v250z" />
<glyph unicode="&#x409;" horiz-adv-x="1980" d="M49 0v240q29 -6 62 -7q76 0 142 103.5t132 355t113 684.5h751l-2 -327v-175h109q268 0 406.5 -110.5t138.5 -319t-141.5 -326.5t-393.5 -118h-397q6 141 6 399v744h-268q-33 -262 -79 -469t-82 -314.5t-118.5 -241.5t-290.5 -134q-55 0 -88 16zM1247 225h107 q125 0 195.5 58.5t70.5 162.5t-79 156.5t-200 52.5h-94v-430z" />
<glyph unicode="&#x40a;" horiz-adv-x="2031" d="M139 0q6 117 6 301v719q0 238 -6 356h287q-4 -104 -4 -418v-127h590l2 181q0 213 -6 364h284l-2 -356v-154h109q248 0 393 -105.5t145 -316.5t-139 -327.5t-391 -116.5h-401q6 133 6 377v231h-590v-315q0 -213 4 -293h-287zM1284 223h102q123 0 200 58.5t77 158.5 t-82 153.5t-207 53.5h-90v-424z" />
<glyph unicode="&#x40b;" horiz-adv-x="1531" d="M49 1159v219q100 -2 361 -2h487l303 2l-12 -219q-141 6 -285 6h-149v-301q117 125 292 125t269 -114.5t94 -313.5v-385q0 -109 6 -176h-280q4 78 4 276v275q0 92 -49.5 155.5t-139.5 63.5q-55 0 -108.5 -38t-87.5 -99v-332q0 -231 6 -301h-283q4 57 4 231v760 q0 121 -2 174h-243q-85 0 -187 -6z" />
<glyph unicode="&#x40c;" horiz-adv-x="1320" d="M152 0q4 88 4 346v682q0 254 -4 348h286q-4 -98 -4 -346v-291q368 469 473 637h310l-512 -659l602 -717h-373q-90 129 -133 178l-37 43q-86 100 -330 410v-283q0 -244 4 -348h-286zM526 1419l113 426h244q-33 -92 -150 -426h-207z" />
<glyph unicode="&#x40d;" horiz-adv-x="1474" d="M152 1376h282q-6 -125 -6 -352v-502l797 875h98q-4 -133 -4 -373v-731q0 -213 4 -293h-276q6 117 6 287v583l-797 -882h-100q4 92 4 305v737q0 180 -8 346zM418 1782h274q63 -86 213 -303h-237q-6 8 -117 143t-133 160z" />
<glyph unicode="&#x40e;" horiz-adv-x="1234" d="M72 1411h319q37 -115 256 -643q175 487 234 643h299q-2 -4 -245 -564t-272.5 -615.5t-96.5 -143.5t-210 -88h-188l25 215q102 0 132 3t50 18.5t39.5 45t32 53t32 67.5t29.5 65q-401 874 -436 944zM309 1788h201q2 -59 37 -92t86 -33t90 36t41 89h199q-4 -135 -98.5 -225 t-229.5 -90t-228.5 91t-97.5 224z" />
<glyph unicode="&#x40f;" horiz-adv-x="1447" d="M156 1376h293q-8 -164 -9 -346v-790h559v792q0 215 -8 344h291q-6 -106 -6 -342v-1034h-424v-96q0 -176 6 -299h-266l4 303v92h-432v1032q0 205 -8 344z" />
<glyph unicode="&#x410;" horiz-adv-x="1388" d="M12 0q80 158 172 367l453 1030h94l477 -1061q59 -135 168 -336h-319q-8 23 -123 307h-520l-123 -307h-279zM496 512h352l-178 451z" />
<glyph unicode="&#x411;" horiz-adv-x="1196" d="M164 0v1376h516q242 0 336 2l-19 -245q-92 8 -288 8h-269v-281h125q268 0 403.5 -107.5t135.5 -315.5t-138.5 -322.5t-390.5 -114.5h-411zM440 217h123q123 0 198 60.5t75 156.5t-75 154.5t-212 58.5h-109v-430z" />
<glyph unicode="&#x412;" horiz-adv-x="1191" d="M152 0q6 123 6 362v611q0 330 -4 403h415q184 0 312.5 -89t128.5 -249q0 -94 -49.5 -168.5t-131.5 -107.5q115 -33 189 -127t74 -219q0 -197 -144.5 -306.5t-363.5 -109.5h-432zM436 195h133q113 0 176.5 57.5t63.5 158.5t-62.5 162.5t-164.5 61.5h-146v-440zM436 819 h119q82 0 133 50.5t51 133.5t-51 134t-143 51h-109v-369z" />
<glyph unicode="&#x413;" horiz-adv-x="1009" d="M160 0q2 96 2 352v672q0 221 -2 352h495q231 0 320 2q-13 -96 -29 -248q-82 6 -262 7h-242v-867q0 -217 4 -270h-286z" />
<glyph unicode="&#x414;" horiz-adv-x="1523" d="M63 -395q10 178 11 616h114q283 385 379 1157h729v-1157h154q0 -410 14 -616h-266q10 390 10 395h-889q0 -214 11 -395h-267zM485 223q362 0 543 -2v934h-260q-74 -592 -283 -932z" />
<glyph unicode="&#x415;" horiz-adv-x="1050" d="M152 0q6 66 6 346v682q0 217 -6 348h493q188 0 291 6l-43 -239q-78 4 -354 4h-105v-324h127q236 0 320 4v-233q-84 4 -320 4h-127v-369h176q240 0 320 4v-237q-80 4 -316 4h-462z" />
<glyph unicode="&#x416;" horiz-adv-x="1957" d="M39 0q88 118 217 390t221 327q-63 35 -153 186q-8 16 -120 221t-147 252h320q115 -238 146.5 -299t41.5 -81.5t52.5 -100.5t82.5 -100h127v243q0 154 -4 338h279q-4 -225 -4 -338v-243h145q67 35 191.5 298t134.5 283h319q-54 -74 -166 -287t-156 -277t-93 -93 q93 -61 221 -337t213 -382h-344q-98 197 -156 319l-43 93q-59 129 -119 178h-147v-211q0 -121 4 -379h-279q4 213 4 379v211h-129q-74 -64 -185.5 -309.5t-129.5 -280.5h-344z" />
<glyph unicode="&#x417;" horiz-adv-x="1118" d="M170 33v239q106 -66 258 -65q104 0 165.5 62.5t61.5 146.5t-61.5 131t-157.5 47q-47 0 -98 -6v217q28 -4 98 -4t137.5 51t67.5 126t-54.5 123t-142.5 48q-145 0 -266 -76v238q136 63 322 63t300.5 -95t114.5 -259q0 -223 -235 -305q129 -39 201.5 -128t72.5 -208 q0 -182 -129 -289.5t-327 -107.5t-328 51z" />
<glyph unicode="&#x418;" horiz-adv-x="1474" d="M152 1376h282q-6 -125 -6 -352v-502l797 875h98q-4 -133 -4 -373v-731q0 -213 4 -293h-276q6 117 6 287v583l-797 -882h-100q4 92 4 305v737q0 180 -8 346z" />
<glyph unicode="&#x419;" horiz-adv-x="1476" d="M152 1376h284q-8 -125 -8 -352v-502l797 875h100q-6 -199 -6 -373v-731q0 -174 6 -293h-278q6 78 6 287v583l-797 -882h-100q6 137 6 305v737q0 190 -10 346zM410 1767h204q0 -59 34 -93t94 -34t95 34t35 93h207q-4 -139 -97.5 -229t-239.5 -90t-239 91t-93 228z" />
<glyph unicode="&#x41a;" horiz-adv-x="1308" d="M160 0q2 92 2 332v710q0 242 -2 334h280q-2 -92 -2 -338v-243h144q75 0 154 141.5t138.5 273t77.5 166.5h324q-47 -61 -129 -223t-164 -288t-158 -160q66 -35 115.5 -104t145.5 -247t128.5 -236.5t79.5 -117.5h-356q-51 100 -197 412q-37 80 -70.5 123t-74.5 43h-158 v-172q0 -289 2 -406h-280z" />
<glyph unicode="&#x41b;" horiz-adv-x="1423" d="M39 0v238q27 -6 61 -7q76 0 140.5 101.5t131.5 357t111 686.5h777v-1028l4 -348h-285q6 145 6 414v741h-293q-79 -602 -196.5 -885.5t-351.5 -283.5q-76 0 -105 14z" />
<glyph unicode="&#x41c;" horiz-adv-x="1695" d="M92 0q4 53 14.5 170t14.5 180l72 1032h210l457 -823l455 823h205l59 -1054q8 -182 25 -328h-279q-4 158 -12 301l-33 567l-391 -700h-64l-399 700l-35 -563q-4 -68 -7 -175t-5 -130h-287z" />
<glyph unicode="&#x41d;" horiz-adv-x="1474" d="M154 0q4 78 4 301v719q0 276 -4 356h286q-6 -104 -6 -418v-127h606v201q0 213 -6 344h287q-6 -199 -6 -356v-797q0 -20 6 -223h-287q6 104 6 293v315h-606v-315q0 -213 6 -293h-286z" />
<glyph unicode="&#x41e;" horiz-adv-x="1630" d="M92 690q0 305 207 507t515 202t516 -206t208 -510t-207 -506t-516 -202t-516 205t-207 510zM375 687q0 -208 125 -345t315.5 -137t314 137t123.5 344t-124.5 345t-314.5 138t-314.5 -137t-124.5 -345z" />
<glyph unicode="&#x41f;" horiz-adv-x="1447" d="M156 0q8 197 8 346v1030h1118v-1034q0 -266 6 -342h-293q8 180 9 344v797h-562v-797q0 -215 7 -344h-293z" />
<glyph unicode="&#x420;" horiz-adv-x="1144" d="M152 0q6 119 6 360v689q0 221 -6 327h401q233 0 371.5 -120.5t138.5 -323.5t-134 -323t-378 -120h-115v-137q0 -229 6 -352h-290zM436 698h96q111 0 179.5 65t68.5 167t-66.5 167.5t-181.5 65.5h-96v-465z" />
<glyph unicode="&#x421;" horiz-adv-x="1280" d="M92 685q0 306 209 511t516 205q166 0 342 -58v-282q-123 96 -323 96t-330.5 -136t-130.5 -335t132.5 -334t326.5 -135t333 86v-274q-147 -51 -356 -52q-313 0 -516 201t-203 507z" />
<glyph unicode="&#x422;" horiz-adv-x="1249" d="M49 1139v239q96 -2 344 -2h467q264 0 340 2q-6 -117 -12 -239q-141 6 -332 6h-94q-2 -98 -2 -350v-439q0 -252 8 -356h-293q6 143 6 356v430q0 258 -4 359h-96q-190 0 -332 -6z" />
<glyph unicode="&#x423;" horiz-adv-x="1206" d="M20 1376h328q20 -84 148.5 -368.5t134.5 -298.5q6 23 102 263t144 404h311q-119 -263 -275.5 -623t-175.5 -399q-88 -201 -184 -280.5t-219 -79.5t-176 4v233l73 -2q66 0 102 6.5t65.5 35t41 49t45.5 90.5q-430 899 -465 966z" />
<glyph unicode="&#x424;" horiz-adv-x="1617" d="M98 684q0 248 157 404.5t419 185.5q0 70 -6 149h280q-4 -57 -4 -149q266 -33 420 -187.5t154 -401.5t-156 -398.5t-418 -182.5q0 -94 2 -147h-278q6 84 6 147q-270 33 -423 182.5t-153 397.5zM381 687q0 -144 75 -240t218 -119v723q-143 -25 -218 -122.5t-75 -241.5z M942 328q141 23 217 119t76 240t-76 241.5t-217 122.5v-723z" />
<glyph unicode="&#x425;" horiz-adv-x="1255" d="M14 0q119 152 463 692q-27 45 -224.5 349.5t-219.5 334.5h332q64 -115 150.5 -259t117.5 -197q268 446 272 456h309q-125 -162 -442 -663l246 -387q137 -213 223 -326h-332q-6 12 -104 176q-164 264 -189 303l-202 -332q-57 -93 -69.5 -117t-16.5 -30h-314z" />
<glyph unicode="&#x426;" horiz-adv-x="1507" d="M158 1376h291q-6 -209 -7 -268v-875h557v799q0 201 -6 344h291q-6 -106 -6 -342v-809h156v-274q0 -240 6 -346h-264l4 303v92h-1016v1032q0 188 -6 344z" />
<glyph unicode="&#x427;" horiz-adv-x="1300" d="M119 1376h289q-7 -112 -7 -310t59 -321t386 -18v365q0 168 -6 284h286q-4 -74 -4 -284v-910l8 -182h-292q8 147 8 268v224q-139 -41 -244 -41q-219 0 -328.5 93t-132.5 279q-12 96 -15 296t-7 257z" />
<glyph unicode="&#x428;" horiz-adv-x="1980" d="M160 1376h282q-8 -160 -8 -346v-788h420v788q0 203 -6 346h276q-8 -96 -8 -344v-790h424v790q0 184 -10 344h280q-4 -72 -4 -344v-1032h-1638v1030q0 207 -8 346z" />
<glyph unicode="&#x429;" horiz-adv-x="2039" d="M160 1376h282q-8 -164 -8 -344v-792h420v792q0 201 -6 344h274q-6 -109 -6 -342v-794h422v794q0 150 -8 342h280q-6 -106 -6 -342v-801h164v-282q0 -240 6 -346h-264l4 303v92h-1546v1032q0 205 -8 344z" />
<glyph unicode="&#x42a;" horiz-adv-x="1490" d="M23 1380q94 -4 339 -4h394v-510h104q250 0 395.5 -105.5t145.5 -316.5t-139.5 -327.5t-391.5 -116.5h-405q4 221 4 414v733h-250q-92 0 -174 -8q-4 66 -22 241zM756 223h102q123 0 192.5 57.5t69.5 153.5q0 213 -274 213h-90v-424z" />
<glyph unicode="&#x42b;" horiz-adv-x="1703" d="M160 0q6 156 6 395v617q0 233 -6 364h289q-6 -96 -7 -364v-146h109q246 0 392.5 -106.5t146.5 -316.5t-139.5 -326.5t-391.5 -116.5h-399zM442 223h105q123 0 192.5 57.5t69.5 157.5t-78 154.5t-196 54.5h-93v-424zM1255 0q4 86 5 365v626q0 291 -5 385h287 q-6 -100 -6 -385v-626q0 -272 6 -365h-287z" />
<glyph unicode="&#x42c;" horiz-adv-x="1196" d="M164 0l6 1012q0 297 -6 364h289q-6 -96 -7 -364v-146h107q248 0 393.5 -105.5t145.5 -316.5t-139.5 -327.5t-389.5 -116.5h-399zM446 223h105q121 0 191.5 57.5t70.5 157.5t-79 154.5t-195 54.5h-93v-424z" />
<glyph unicode="&#x42d;" horiz-adv-x="1263" d="M106 43v266q150 -88 332 -88t305 105.5t146 269.5h-240q-231 0 -317 -4v239q129 -6 317 -6h238q-41 145 -162 235.5t-281 90.5q-211 0 -338 -94v274q164 61 351 62q313 0 519 -203t206 -512t-203 -501.5t-514 -192.5q-209 0 -359 59z" />
<glyph unicode="&#x42e;" horiz-adv-x="2078" d="M174 0q4 82 4 309v703q0 274 -4 364h287q-6 -96 -6 -364v-185h239q41 252 216 411t421 159q279 0 463 -209t184 -514t-182 -501t-452 -196t-448.5 174.5t-207.5 444.5h-233v-289q0 -219 6 -307h-287zM963 680q0 -207 100 -336t269 -129t267.5 128t98.5 335t-100.5 344 t-267.5 137t-267 -136t-100 -343z" />
<glyph unicode="&#x42f;" horiz-adv-x="1304" d="M57 0q164 199 240 315l188 293q-246 86 -245 353q0 201 138 308t355 107h418q-6 -72 -6 -344v-667q0 -285 6 -365h-291q6 118 6 362v170h-139l-317 -532h-353zM520 943q0 -101 67.5 -156.5t164.5 -55.5h114v426h-118q-98 0 -163 -56.5t-65 -157.5z" />
<glyph unicode="&#x430;" horiz-adv-x="1019" d="M72 276q0 131 96.5 230.5t478.5 99.5v29q0 70 -57.5 114t-136.5 44q-129 0 -250 -72q-42 93 -84 180q139 92 364 92t320.5 -110.5t95.5 -339.5v-221q0 -203 41 -322h-258l-12 104q-106 -127 -283 -127q-139 0 -227 84t-88 215zM326 285q0 -55 38 -89t90 -34t106 26.5 t91 65.5v176l-141 -6q-184 -6 -184 -139z" />
<glyph unicode="&#x431;" horiz-adv-x="1128" d="M88 616q0 346 135 523.5t412 238.5q143 31 315 84v-256q-135 -31 -377 -92q-225 -59 -258 -283q102 103 300 103t313.5 -131t115.5 -342t-131 -344t-353 -133t-347 173t-125 459zM352 486q0 -110 61.5 -196.5t156 -86.5t162 75.5t67.5 184.5t-60.5 179.5t-172.5 70.5 t-199 -82q-15 -35 -15 -145z" />
<glyph unicode="&#x432;" horiz-adv-x="1052" d="M125 973h307q242 0 358.5 -63.5t116.5 -196.5q0 -70 -42 -124t-111 -77q102 -20 159.5 -79.5t57.5 -141.5q0 -131 -103.5 -211t-308.5 -80h-430q4 80 4 262v453q0 111 -8 258zM393 174h154q158 0 158 123q0 51 -43.5 81t-112.5 30h-156v-234zM393 563h105q150 0 149 117 q0 53 -40 85t-115 32h-99v-234z" />
<glyph unicode="&#x433;" horiz-adv-x="876" d="M129 0q4 92 4 346v291l-4 336h485q180 0 222 4q-8 -74 -27 -250q-102 4 -209 4h-184v-385q0 -162 4 -346h-291z" />
<glyph unicode="&#x434;" horiz-adv-x="1224" d="M43 -375q4 102 4 144v432h82q117 133 182.5 316t104.5 456h626v-772h119v-432q0 -41 4 -144h-239q2 55 2 183.5t2 189.5h-651q0 -264 4 -373h-240zM406 201h387v555h-191q-41 -350 -196 -555z" />
<glyph unicode="&#x435;" horiz-adv-x="1044" d="M68 482q0 224 123.5 367.5t345.5 143.5q115 0 204.5 -40t166.5 -139.5t77 -270.5q0 -46 -10 -107h-653q16 -241 294 -241q140 0 312 86v-205q-156 -92 -340 -92q-240 0 -380 137t-140 361zM315 588h422q-2 88 -53.5 144t-148.5 56t-154 -62t-66 -138z" />
<glyph unicode="&#x436;" horiz-adv-x="1548" d="M27 0q43 51 81 119t63.5 109.5t36.5 61t28.5 49.5t26.5 43t23.5 32.5t25 29t22.5 20.5t25.5 17t27.5 13q-47 16 -97 88.5t-119 195.5t-122 195h285q33 -82 119 -238.5t125 -156.5h53v133q0 197 -2 262h270q-2 -66 -2 -262v-133h53q23 0 54.5 46t51 77.5t43 75.5t39 74 t35 71t25.5 51h279q-75 -107 -155.5 -256t-112 -178.5t-68.5 -42.5q51 -16 110.5 -100.5t132 -211.5t115.5 -184h-301q-2 4 -17.5 38t-30.5 66.5t-83.5 169t-114.5 136.5h-53v-152q0 -195 2 -258h-272q2 84 2 258v152h-53q-33 0 -111 -137.5t-139 -272.5h-301z" />
<glyph unicode="&#x437;" horiz-adv-x="933" d="M109 37v217q55 -31 139 -50.5t151 -19.5q180 0 181 115q0 102 -197 102q-102 0 -133 -6v193q18 -2 118 -2q182 0 181 102q1 102 -145 102t-263 -55l-22 203q127 57 310 57t286.5 -76.5t103.5 -205.5q0 -70 -47 -125.5t-119 -77.5q88 -20 141.5 -80.5t53.5 -146.5 q0 -131 -114 -215t-292 -84t-333 53z" />
<glyph unicode="&#x438;" horiz-adv-x="1157" d="M113 971h258q-6 -98 -6 -299v-262q377 381 569 573h108q-4 -98 -4 -317v-471q0 -147 4 -195h-254q4 66 5 242v295q-341 -341 -549 -545h-127q4 168 4 248v505q0 94 -8 226z" />
<glyph unicode="&#x439;" horiz-adv-x="1159" d="M113 971h258q-6 -98 -6 -299v-262q377 381 569 573h108q-4 -98 -4 -317v-471q0 -147 4 -195h-254q4 66 5 242v295q-341 -341 -549 -545h-127q4 168 4 248v505q0 94 -8 226zM272 1407h201q2 -59 37 -92t86 -33t90 36t41 89h199q-4 -135 -98.5 -225t-229.5 -90t-228.5 91 t-97.5 224z" />
<glyph unicode="&#x43a;" horiz-adv-x="1091" d="M129 0q4 63 4 240v495l-2 238h279q-2 -59 -2 -240v-155h51q29 0 90 94.5t114.5 186t67.5 114.5h285q-49 -66 -119 -182q-90 -158 -132 -210.5t-103 -68.5q63 -20 111 -81.5t130 -212.5t141 -218h-315q-14 25 -54 94.5t-110 192.5t-106 123h-51v-121q0 -215 2 -289h-281z " />
<glyph unicode="&#x43b;" horiz-adv-x="1179" d="M43 -6v239q20 -12 47 -12q106 0 186 220.5t117 531.5h662q-2 -121 -2 -361v-370q0 -90 8 -242h-281q10 88 11 307v451h-189q-49 -381 -175 -577.5t-306 -196.5z" />
<glyph unicode="&#x43c;" horiz-adv-x="1292" d="M86 0q4 51 13.5 456.5t9.5 516.5h217q27 -39 141.5 -210t175.5 -261q193 295 305 471h219q0 -76 9.5 -482.5t13.5 -490.5h-246q-2 86 -5 284.5t-5 282.5q-147 -201 -254 -348h-80q-82 119 -242 352q-6 -289 -6 -571h-266z" />
<glyph unicode="&#x43d;" horiz-adv-x="1161" d="M127 0q6 68 6 190v611q0 45 -4 172h266q-4 -57 -4 -168v-205h379v197q0 41 -4 176h268l-4 -172v-574q0 -80 4 -227h-268q4 127 4 229v172h-379v-170q0 -164 4 -231h-268z" />
<glyph unicode="&#x43e;" horiz-adv-x="1142" d="M74 487q0 211 147 357.5t353 146.5t350.5 -148.5t144.5 -358.5t-145.5 -354t-353.5 -144t-352 145t-144 356zM334 482q0 -110 67.5 -189.5t170 -79.5t170 78.5t67.5 194.5t-68.5 195t-170.5 79t-169 -84t-67 -194z" />
<glyph unicode="&#x43f;" horiz-adv-x="1161" d="M125 0q6 129 6 291v682h893v-748q0 -115 8 -225h-280q4 205 4 291v448h-355v-448q0 -186 7 -291h-283z" />
<glyph unicode="&#x440;" horiz-adv-x="1171" d="M131 -444v1343q207 96 441 96t372.5 -137t138.5 -358t-137 -368.5t-356 -147.5q-109 0 -197 39v-467h-262zM393 250q84 -45 162 -45q123 0 198.5 82t75.5 206t-77.5 202.5t-198.5 78.5q-78 0 -160 -31v-493z" />
<glyph unicode="&#x441;" horiz-adv-x="909" d="M70 484q0 220 151.5 364.5t372.5 144.5q102 0 219 -39v-252q-109 64 -215 64t-189 -83t-83 -199t79 -195.5t193 -79.5t213 59q25 -230 25 -231q-109 -53 -256 -53q-221 0 -365.5 140t-144.5 360z" />
<glyph unicode="&#x442;" horiz-adv-x="995" d="M51 739v236q59 -2 230 -2h462q162 0 215 2q-8 -156 -12 -236q-147 4 -215 4h-90v-491q0 -201 4 -252h-283q4 74 5 252v491h-76q-172 0 -240 -4z" />
<glyph unicode="&#x443;" horiz-adv-x="1097" d="M8 973h316q16 -48 111 -286t132 -335q10 29 56.5 145.5t82.5 211t85 264.5h296q-20 -43 -211.5 -489.5t-203.5 -475.5q-92 -209 -144 -278q-98 -133 -245 -133h-187l25 213q119 0 153 12q61 8 148 215q6 12 8 18q-12 29 -117.5 258.5t-197.5 431t-107 228.5z" />
<glyph unicode="&#x444;" horiz-adv-x="1398" d="M70 488q0 212 135 348.5t375 156.5q0 256 -11 418h258q-10 -389 -10 -418q229 -20 369.5 -155.5t140.5 -349.5t-140 -350t-370 -154q2 -49 2 -200t10 -226h-260q4 41 6.5 200t4.5 226q-238 18 -374 155t-136 349zM328 488q0 -110 71.5 -187.5t180.5 -85.5v545 q-109 -10 -180.5 -86t-71.5 -186zM817 215q104 8 174 86t70 188.5t-69 186.5t-175 84v-545z" />
<glyph unicode="&#x445;" horiz-adv-x="1015" d="M20 0q41 51 167 236t171 249q-16 27 -82.5 131.5t-102.5 162.5t-138 194h305q74 -123 184 -297q14 22 64 96t127 201h280q-97 -122 -325 -479q31 -49 93 -146.5t109 -173.5t119 -174h-293q-33 51 -96 151.5t-96 149.5q-160 -246 -195 -301h-291z" />
<glyph unicode="&#x446;" horiz-adv-x="1200" d="M123 973h285q-8 -201 -9 -291v-453h342v453q0 182 -4 291h285q-6 -102 -6 -287v-471h119l2 -281q0 -115 4 -303h-254l4 369h-762v682q0 152 -6 291z" />
<glyph unicode="&#x447;" horiz-adv-x="1099" d="M92 973h275l-9 -185v-106q0 -164 185 -164q111 0 164 47v232q0 104 -7 176h273q-2 -53 -2 -189v-626l6 -158h-277q7 111 7 322q-88 -39 -213 -39q-188 0 -294 88t-106 247v179q0 127 -2 176z" />
<glyph unicode="&#x448;" horiz-adv-x="1613" d="M121 973h274q-6 -150 -6 -291v-449h279v508q0 139 -4 232h276q-8 -135 -8 -289v-451h293v449q0 127 -8 291h276q-6 -100 -6 -287v-686h-1362v743q0 154 -4 230z" />
<glyph unicode="&#x449;" horiz-adv-x="1660" d="M121 975h274q-6 -150 -6 -293v-449h281v449q0 74 -4 291h274q-8 -135 -8 -287v-453h293v451q0 129 -6 291h274q-6 -100 -6 -289v-467h104v-325q0 -152 6 -267h-256q6 55 7 373h-1221v684q0 152 -6 291z" />
<glyph unicode="&#x44a;" horiz-adv-x="1275" d="M66 975q111 -2 333 -2h258q-2 -66 -2 -238v-71h131q176 0 293 -85t117 -242t-108.5 -247t-311.5 -90h-385q2 59 2 236v522h-133q-51 0 -174 -4q-8 74 -20 221zM655 193h88q195 0 195 139t-209 139h-74v-278z" />
<glyph unicode="&#x44b;" horiz-adv-x="1458" d="M135 0q4 129 4 612v129q0 109 -4 232h262l-4 -236v-73h111q188 0 305 -78t117 -242t-109.5 -254t-308.5 -90h-373zM393 193h53q221 0 222 141q0 137 -228 137h-47v-278zM1047 973h282q-6 -86 -6 -283v-516q0 -96 6 -174h-280q6 92 6 217v565q0 123 -8 191z" />
<glyph unicode="&#x44c;" horiz-adv-x="1003" d="M135 0q4 129 4 612v129q0 109 -4 232h262l-4 -236v-73h111q188 0 305 -78t117 -242t-109.5 -254t-308.5 -90h-373zM393 193h53q211 0 211 141q0 80 -58 108.5t-159 28.5h-47v-278z" />
<glyph unicode="&#x44d;" horiz-adv-x="962" d="M88 39v225q104 -80 248 -80t221.5 59.5t93.5 164.5h-166q-166 0 -227 -2v184q33 -2 168 -2h221q-25 88 -102.5 141t-186.5 53q-158 0 -266 -80v232q139 53 285 53q231 0 381.5 -142.5t150.5 -362.5t-151.5 -359t-380.5 -139q-174 0 -289 55z" />
<glyph unicode="&#x44e;" horiz-adv-x="1597" d="M131 0l4 219v524q0 147 -4 230h285q-6 -84 -6 -238v-143h182q31 182 155.5 291.5t315.5 109.5t326 -148.5t135 -355t-135.5 -356t-326.5 -149.5t-314 110.5t-154 290.5h-184v-168q0 -111 6 -217h-285zM842 487.5q0 -122.5 57 -199.5t149.5 -77t149.5 77t57 199.5 t-56 199.5t-149 77t-150.5 -77t-57.5 -199.5z" />
<glyph unicode="&#x44f;" horiz-adv-x="1071" d="M27 0q89 100 163 204t142 175q-92 31 -151.5 108.5t-59.5 174.5q0 143 105.5 227t312.5 84h403q-2 -63 -2 -264v-500q0 -156 4 -209h-272q8 80 8 197v143h-131l-189 -340h-333zM377 652q0 -54 45 -88t113 -34h145v254h-139q-70 0 -117 -39t-47 -93z" />
<glyph unicode="&#x450;" horiz-adv-x="1048" d="M66 478q0 224 123.5 368.5t345.5 144.5q152 0 300 -99.5t148 -350.5q0 -46 -10 -107h-654q8 -119 82 -181.5t209 -62.5t316 86v-202q-150 -92 -340 -92q-240 0 -380 136t-140 360zM190 1413h273l205 -326h-240zM313 586h422q-2 88 -54.5 144t-148.5 56t-153 -62t-66 -138 z" />
<glyph unicode="&#x451;" horiz-adv-x="1044" d="M68 486q0 226 124.5 373t346.5 147q115 0 205 -41t166.5 -143t76.5 -273q0 -46 -10 -107h-655q16 -245 294 -245q138 0 314 86v-205q-158 -94 -342 -94q-240 0 -380 138t-140 364zM176 1251.5q0 55.5 40 95t96 39.5t96.5 -39.5t40.5 -95t-40.5 -95.5t-96.5 -40t-96 40 t-40 95.5zM317 594h420q-2 90 -53 147.5t-148 57.5t-153.5 -64.5t-65.5 -140.5zM602 1251.5q0 55.5 41 95t96.5 39.5t95 -39.5t39.5 -95t-39.5 -95.5t-95 -40t-96.5 40t-41 95.5z" />
<glyph unicode="&#x452;" horiz-adv-x="1165" d="M33 1098v180l108 -2q0 82 -14 172h297q-10 -63 -10 -172h94q145 0 213 2v-180q-63 2 -205 2h-102v-236q128 123 290 123t255.5 -146.5t93.5 -400.5t-109.5 -463.5t-273.5 -308.5q-34 34 -164 174q281 207 280 615q0 150 -43 225.5t-116 75.5q-100 0 -213 -119v-387 q0 -170 6 -252h-287q8 59 8 242v858q-74 0 -108 -2z" />
<glyph unicode="&#x453;" horiz-adv-x="874" d="M121 0q10 145 10 375v248l-6 350h438q211 0 268 4q-16 -154 -26 -242l-285 8h-117v-370q1 -219 9 -373h-291zM328 1087q135 217 204 326h271q-138 -189 -240 -326h-235z" />
<glyph unicode="&#x454;" horiz-adv-x="964" d="M47 482q0 220 150.5 362.5t380.5 142.5q147 0 286 -53v-232q-113 80 -266 80q-90 0 -177 -57t-114 -137h221q135 0 170 2v-184q-61 2 -227 2h-168q16 -104 92.5 -164t222.5 -60t250 80v-225q-115 -55 -290 -55q-229 0 -380 139t-151 359z" />
<glyph unicode="&#x455;" horiz-adv-x="856" d="M76 43q8 37 23.5 109.5t23.5 109.5q119 -90 248 -90q61 0 98 26.5t37 63.5t-39 65.5t-83 50.5q-159 78 -217 149t-58 192t98 196.5t272 75.5q111 0 252 -47v-217q-127 74 -242 74q-55 0 -85.5 -22.5t-30.5 -59.5t41 -66.5t99 -57.5t116.5 -64.5t99.5 -103.5t41 -157 q0 -137 -103 -215t-291 -78t-300 66z" />
<glyph unicode="&#x456;" horiz-adv-x="561" d="M131 973h285q-6 -80 -6 -207v-559q0 -139 6 -207h-283q8 68 8 207v553q0 152 -10 213zM133 1258q0 62 43.5 105.5t105.5 43.5t105 -43.5t43 -105.5t-43 -105t-105 -43t-105.5 43t-43.5 105z" />
<glyph unicode="&#x457;" horiz-adv-x="604" d="M-47 1251.5q0 55.5 40 95t96 39.5t96 -39.5t40 -95t-40 -95.5t-96 -40t-96 40t-40 95.5zM154 973h284q-6 -80 -6 -207v-559q0 -139 6 -207h-282q8 68 8 207v553q0 137 -10 213zM379 1251.5q0 55.5 41 95t96 39.5t95 -39.5t40 -95t-40 -95.5t-95 -40t-96 40t-41 95.5z" />
<glyph unicode="&#x458;" horiz-adv-x="561" d="M-129 -240h119q160 0 160 260v738q0 141 -9 215h283q-6 -74 -6 -211v-647q0 -429 -128 -501.5t-235 -72.5h-184v219zM133 1258q0 62 43.5 105.5t105.5 43.5t105 -43.5t43 -105.5t-43 -105t-105 -43t-105.5 43t-43.5 105z" />
<glyph unicode="&#x459;" horiz-adv-x="1640" d="M53 -6v239q18 -12 47 -12q94 0 174 223.5t117 528.5h643l-2 -168v-92l2 -51q37 2 105 2q203 0 315.5 -82t112.5 -241t-109.5 -250t-316.5 -91h-381q4 127 4 387v371h-162q-109 -776 -459 -776q-29 0 -59 6zM1034 188h80q88 0 139.5 39t51.5 102.5t-51.5 101.5t-123.5 38 t-96 -2v-279z" />
<glyph unicode="&#x45a;" horiz-adv-x="1617" d="M135 0q6 68 6 199v526q0 150 -6 248h273q-4 -115 -5 -266v-105h363v111q0 129 -4 260h262q-4 -94 -4 -256v-55q35 2 104 2q205 0 317.5 -84t112.5 -241t-109.5 -248t-318.5 -91h-364q2 55 2 223v178h-361v-206q0 -88 5 -195h-273zM1020 195h80q94 0 146 35.5t52 97.5 t-54 98.5t-126 36.5t-98 -2v-266z" />
<glyph unicode="&#x45b;" horiz-adv-x="1175" d="M33 1096v184h698v-184h-698zM41 1311q20 49 61 151h310q-8 -68 -9 -207v-399q119 133 299 133t273.5 -116.5t93.5 -325.5v-371q0 -109 6 -176h-282q6 94 6 289v209q0 272 -189 272q-61 0 -117.5 -43t-89.5 -111v-442q0 -45 7 -174h-281q6 82 6 221v1090h-94z" />
<glyph unicode="&#x45c;" horiz-adv-x="1091" d="M129 0q4 63 4 240v495l-2 238h279q-2 -59 -2 -240v-155h51q29 0 90 94.5t114.5 186t67.5 114.5h285q-49 -66 -119 -182q-90 -158 -132 -210.5t-103 -68.5q63 -20 111 -81.5t130 -212.5t141 -218h-315q-14 25 -54 94.5t-110 192.5t-106 123h-51v-121q0 -215 2 -289h-281z M428 1087q70 109 205 326h270q-108 -150 -237 -326h-238z" />
<glyph unicode="&#x45d;" horiz-adv-x="1150" d="M131 973h268q-4 -51 -4 -199v-373q311 360 502 580h143q-2 -92 -2 -305v-494q0 -137 2 -182h-266l4 199v338q-319 -357 -485 -545h-160l2 188v592q0 78 -4 201zM274 1413h271q27 -41 205 -328h-238q-136 189 -238 328z" />
<glyph unicode="&#x45e;" horiz-adv-x="1116" d="M8 973h316q16 -48 111 -286t132 -335q10 29 56.5 145.5t82.5 211t85 264.5h296q-20 -43 -211.5 -490t-237.5 -553t-87 -153q-119 -180 -268 -180h-187l25 213q119 0 153 12q61 8 148 215q6 12 8 18q-12 29 -117.5 258.5t-197.5 431t-107 228.5zM250 1409h201 q2 -59 36.5 -92t86.5 -33t90 36t41 89h198q-4 -135 -98 -225t-229 -90t-228.5 91t-97.5 224z" />
<glyph unicode="&#x45f;" horiz-adv-x="1167" d="M127 973h287q-6 -154 -6 -256v-477h342v477q0 55 -5 256h287q-6 -104 -6 -252v-721h-299v-98q0 -195 6 -297h-291q6 131 7 297v98h-316v717q0 131 -6 256z" />
<glyph unicode="&#x2000;" horiz-adv-x="922" />
<glyph unicode="&#x2001;" horiz-adv-x="1845" />
<glyph unicode="&#x2002;" horiz-adv-x="922" />
<glyph unicode="&#x2003;" horiz-adv-x="1845" />
<glyph unicode="&#x2004;" horiz-adv-x="615" />
<glyph unicode="&#x2005;" horiz-adv-x="461" />
<glyph unicode="&#x2006;" horiz-adv-x="307" />
<glyph unicode="&#x2007;" horiz-adv-x="307" />
<glyph unicode="&#x2008;" horiz-adv-x="230" />
<glyph unicode="&#x2009;" horiz-adv-x="369" />
<glyph unicode="&#x200a;" horiz-adv-x="102" />
<glyph unicode="&#x2010;" horiz-adv-x="737" d="M78 379v237h579v-237h-579z" />
<glyph unicode="&#x2011;" horiz-adv-x="737" d="M78 379v237h579v-237h-579z" />
<glyph unicode="&#x2012;" horiz-adv-x="737" d="M78 379v237h579v-237h-579z" />
<glyph unicode="&#x2013;" horiz-adv-x="1028" d="M39 387v219h952v-219h-952z" />
<glyph unicode="&#x2014;" horiz-adv-x="1945" d="M-8 387v219h1962v-219h-1962z" />
<glyph unicode="&#x2018;" horiz-adv-x="524" d="M113 1032q0 223 143 463q10 0 87 -26.5t85 -26.5q-68 -190 -68 -322t23 -221l-250 -45q-20 88 -20 178z" />
<glyph unicode="&#x2019;" horiz-adv-x="524" d="M96 891q68 181 68 315t-21 230l246 45q23 -86 23 -164q0 -227 -144 -479z" />
<glyph unicode="&#x201a;" horiz-adv-x="524" d="M49 -264q98 201 98 393q0 90 -16 158q121 20 268 47q15 -60 15 -168t-54.5 -250.5t-138.5 -253.5z" />
<glyph unicode="&#x201c;" horiz-adv-x="937" d="M129 984q0 108 54.5 251t138.5 254l172 -74q-98 -201 -99 -393q0 -90 17 -158q-121 -20 -269 -47q-14 59 -14 167zM547 984q0 108 54 251t138 254l172 -74q-98 -201 -98 -393q0 -90 16 -158q-121 -20 -268 -47q-14 59 -14 167z" />
<glyph unicode="&#x201d;" horiz-adv-x="937" d="M49 893q98 201 98 393q0 90 -16 158q121 20 268 47q15 -59 15 -167t-54.5 -251t-138.5 -254zM467 893q98 201 98 393q0 90 -16 158q121 20 268 47q14 -59 14 -167t-54 -251t-138 -254z" />
<glyph unicode="&#x201e;" horiz-adv-x="937" d="M49 -264q98 201 98 393q0 90 -16 158q121 20 268 47q15 -60 15 -168t-54.5 -250.5t-138.5 -253.5zM467 -264q98 201 98 393q0 90 -16 158q121 20 268 47q14 -60 14 -168t-54 -250.5t-138 -253.5z" />
<glyph unicode="&#x2026;" horiz-adv-x="1976" d="M162 147.5q0 71.5 51 124t123 52.5t123 -52t51 -122t-52 -123.5t-123 -53.5t-122 51.5t-51 123zM813 147.5q0 71.5 52.5 124t124 52.5t121.5 -52t50 -122t-51 -123.5t-123 -53.5t-123 51.5t-51 123zM1468 147.5q0 71.5 52.5 124t124 52.5t122 -52t50.5 -122t-51.5 -123.5 t-123 -53.5t-123 51.5t-51.5 123z" />
<glyph unicode="&#x202f;" horiz-adv-x="369" />
<glyph unicode="&#x2039;" horiz-adv-x="847" d="M117 467v41q180 145 540 432v-246q-43 -35 -129 -103.5t-129 -103.5q201 -154 260 -200v-248z" />
<glyph unicode="&#x203a;" horiz-adv-x="847" d="M201 39v248l260 202l-258 205v248q49 -43 542 -432v-41z" />
<glyph unicode="&#x205f;" horiz-adv-x="461" />
<glyph unicode="&#x20ac;" d="M61 479v133h136q-2 23 -2 64t2 61h-136v137h150q53 244 202.5 372t366.5 128q131 0 267 -45v-252q-103 76 -237 76t-220 -77t-107 -202h420q-4 -47 -12 -137h-426q-2 -20 -2 -62t2 -63h422q-2 -41 -10 -133h-394q23 -125 107 -200.5t198 -75.5q158 0 261 71 q4 -76 16 -243q-121 -45 -287 -45q-229 0 -375.5 126t-191.5 367h-150z" />
<glyph unicode="&#x2122;" horiz-adv-x="1470" d="M59 1233v143h512v-143h-178v-332q0 -117 2 -160h-172q6 88 6 158v334h-170zM645 741q4 55 7 145t9.5 252t8.5 242h121q35 -59 105.5 -174.5t104.5 -173.5l203 348h125l27 -639h-158q0 317 -10 369q-113 -172 -166 -256h-43q-27 41 -79 125t-79 127l-2 -70 q-8 -136 -8 -295h-166z" />
<glyph unicode="&#x25fc;" horiz-adv-x="975" d="M0 0v975h975v-975h-975z" />
</font>
</defs>
</svg>
