<?xml version="1.0" standalone="no"?>
<!DOCTYPE svg PUBLIC "-//W3C//DTD SVG 1.1//EN" "http://www.w3.org/Graphics/SVG/1.1/DTD/svg11.dtd" >
<svg xmlns="http://www.w3.org/2000/svg" xmlns:xlink="http://www.w3.org/1999/xlink" version="1.1">
<metadata></metadata>
<defs>
<font id="radianceradiance" horiz-adv-x="849" >
<font-face units-per-em="2048" ascent="1532" descent="-516" />
<missing-glyph horiz-adv-x="450" />
<glyph horiz-adv-x="0" />
<glyph horiz-adv-x="0" />
<glyph unicode="&#xd;" horiz-adv-x="450" />
<glyph unicode=" "  horiz-adv-x="450" />
<glyph unicode="&#x09;" horiz-adv-x="450" />
<glyph unicode="&#xa0;" horiz-adv-x="450" />
<glyph unicode="!" horiz-adv-x="598" d="M242 85q0 42 29.5 72.5t70.5 30.5t71.5 -30.5t30.5 -72.5t-30.5 -71.5t-71.5 -29.5t-70.5 29.5t-29.5 71.5zM266 1358h160l-2 -213q0 -84 -7 -387t-11 -373h-119q-4 70 -11.5 373t-7.5 387z" />
<glyph unicode="&#x22;" horiz-adv-x="698" d="M117 1460h157q-20 -419 -22 -481h-111zM426 1460h160q-23 -462 -23 -481h-112z" />
<glyph unicode="#" horiz-adv-x="1230" d="M82 401v119h242l63 330h-227v117h250l69 372h131l-69 -372h264l69 372h132l-72 -372h217v-117h-240l-63 -330h229v-119h-252l-73 -383h-129l69 383h-264l-70 -383h-131l74 383h-219zM451 520h266l65 330h-266z" />
<glyph unicode="$" horiz-adv-x="1073" d="M174 96l29 158q104 -96 291 -96q111 0 174 56t63 157q0 133 -209 247q-68 37 -97.5 53.5t-83.5 56.5t-100 99t-46 174t76.5 202t211.5 116v147h115v-139q137 -10 233 -43v-156q-88 80 -260 80q-98 0 -159.5 -52t-61.5 -154t83 -152t115 -70t82 -49t67.5 -41t58.5 -40.5 t58 -51.5t50 -67.5t33 -139.5q0 -133 -85 -227t-230 -119v-162h-115v154q-156 2 -293 59z" />
<glyph unicode="%" horiz-adv-x="1615" d="M98 1038q0 148 88 245t221.5 97t221.5 -94t88 -243.5t-89 -246t-221 -96.5t-220.5 95t-88.5 243zM225 1040q0 -106 50.5 -170.5t131.5 -64.5t132 67.5t51 168t-52.5 166t-132.5 65.5t-130 -63t-50 -169zM264 0l950 1370h138l-955 -1370h-133zM899 326q0 150 90 245 t220 95t219.5 -94.5t89.5 -242.5t-89.5 -244.5t-220.5 -96.5t-220 94t-89 244zM1026 325q0 -103 49 -168t132 -65t133.5 65t50.5 169t-50.5 167.5t-132.5 63.5t-132 -64.5t-50 -167.5z" />
<glyph unicode="&#x26;" horiz-adv-x="1462" d="M111 373q0 121 75.5 217t225.5 180q-84 84 -122 147.5t-38 151.5q0 119 93 201t231 82t227.5 -80t89.5 -186t-61.5 -180.5t-188.5 -153.5q154 -143 348 -355q181 205 244 330h170q-125 -193 -320 -424q168 -174 279 -176l18 -135q-119 0 -207 45t-198 156 q-217 -211 -449 -211q-186 0 -301.5 111.5t-115.5 279.5zM274 383q0 -117 80 -193.5t197 -76.5q158 0 330 176q-164 186 -385 395q-221 -129 -222 -301zM406 1071q0 -100 145 -233q195 106 194 233q0 68 -47 116t-122.5 48t-122.5 -46t-47 -118z" />
<glyph unicode="'" horiz-adv-x="391" d="M117 1460h157q-8 -84 -22 -481h-111q-10 289 -24 481z" />
<glyph unicode="(" horiz-adv-x="632" d="M119 547q0 645 332 1038q23 -14 61.5 -45t52.5 -41q-150 -211 -209 -434t-59 -514t56 -513t210 -439l-112 -84q-178 207 -255 458.5t-77 573.5z" />
<glyph unicode=")" horiz-adv-x="632" d="M86 1499l115 86q332 -393 331 -1038q0 -322 -76.5 -573.5t-254.5 -458.5l-113 84q156 219 211 439t55 512t-59 515t-209 434z" />
<glyph unicode="*" horiz-adv-x="940" d="M102 1044v121q207 -16 279 -18l-72 108q-29 45 -90 125l103 64q8 -20 69 -144l60 -114q121 246 124 258l105 -64q-98 -135 -164 -233q233 12 281 18v-123q-174 16 -277 21q68 -106 164 -234l-106 -57q-20 43 -65.5 133t-59.5 123q-52 -95 -89.5 -174.5t-39.5 -83.5 l-109 64q88 113 164 229q-84 -3 -277 -19z" />
<glyph unicode="+" horiz-adv-x="1075" d="M92 451v129h373v397h145v-397h373v-129h-373v-402h-145v402h-373z" />
<glyph unicode="," horiz-adv-x="452" d="M84 -250q92 154 92 311q0 78 -10 132q18 4 162 32q14 -51 14 -125q0 -215 -170 -395z" />
<glyph unicode="-" horiz-adv-x="686" d="M92 424v137h502v-137h-502z" />
<glyph unicode="." horiz-adv-x="450" d="M137 90q0 43 33 76t75 33t72.5 -31t30.5 -74t-31.5 -74.5t-74.5 -32.5t-74 29.5t-31 73.5z" />
<glyph unicode="/" horiz-adv-x="667" d="M27 -72l469 1504h147q-272 -881 -467 -1504h-149z" />
<glyph unicode="0" horiz-adv-x="1101" d="M98 680q0 322 121 509t331 187t332 -190.5t122 -508t-122 -506.5t-333 -189t-331 188t-120 510zM268 677q0 -263 73 -411.5t208 -148.5t210 150.5t75 410.5t-75 409.5t-210 149.5t-208 -148.5t-73 -411.5z" />
<glyph unicode="1" horiz-adv-x="960" d="M170 1192q188 82 389 184h92v-1165q0 -100 4 -211h-168q2 82 2 213v983q-211 -92 -290 -135z" />
<glyph unicode="2" horiz-adv-x="1091" d="M106 0q0 152 174.5 315.5t348.5 330t174 335.5q0 127 -82 190.5t-191 63.5q-221 0 -378 -170v174q125 141 383 141q113 0 193.5 -36.5t125.5 -78.5t74.5 -114.5t29.5 -182.5t-101 -259.5t-222 -259t-222.5 -204.5t-101.5 -126h477q68 0 168 20l31 8l-59 -147h-822z" />
<glyph unicode="3" horiz-adv-x="1079" d="M176 25v151q102 -59 248 -59t231.5 71.5t85.5 192.5t-90 186.5t-233 65.5q-63 0 -99 -2v131h35l52 -2q141 0 221 67t80 175t-67 171.5t-179 63.5q-160 0 -285 -94v157q152 74 316 74t272 -95t108 -255q0 -111 -65.5 -192.5t-181.5 -122.5q129 -31 207.5 -120t78.5 -210 q0 -176 -127 -286.5t-340 -110.5q-150 0 -268 43z" />
<glyph unicode="4" horiz-adv-x="1103" d="M63 395v90q63 86 182.5 242t155.5 205l338 446h88v-858q109 0 220 4v-131q-49 2 -220 2v-225q0 -78 11 -170h-181q8 81 9 166v229h-603zM244 520h422l4 586l-213 -295q-61 -87 -213 -291z" />
<glyph unicode="5" horiz-adv-x="1054" d="M139 37v156q115 -78 261 -78t242.5 80.5t96.5 210.5t-88 209t-266 79q-129 0 -199 -28l23 192q45 381 51 506q135 -4 219 -4h205q82 0 197 4v-145q-123 4 -213 4h-273q-18 -147 -47 -414q43 12 103 12q213 0 337.5 -109.5t124.5 -296.5t-136 -312.5t-359 -125.5 q-152 0 -279 60z" />
<glyph unicode="6" horiz-adv-x="1087" d="M84 432q0 442 369 778q41 36 176 162l250 -2q-190 -111 -370.5 -288t-244.5 -355q127 131 303 131t301 -126t125 -309t-131 -310t-324 -127q-194 0 -324 126t-130 320zM242 427q0 -126 86 -218t219 -92t211 90t78 213t-88 216t-210 93t-209 -88t-87 -214z" />
<glyph unicode="7" horiz-adv-x="1019" d="M88 1362q57 -2 225 -2h625l-610 -1360h-183q12 16 56 98l57 109l457 1012h-447q-82 0 -159 -5q-2 12 -4.5 37t-4.5 37z" />
<glyph unicode="8" horiz-adv-x="1101" d="M106 362q0 117 73 209.5t190 137.5q-104 47 -164 128t-60 183q0 154 115 254t287 100t284.5 -101.5t112.5 -244.5q0 -104 -60.5 -186t-164.5 -129q127 -47 197.5 -136.5t70.5 -207.5q0 -168 -124.5 -276.5t-320.5 -108.5t-316 104.5t-120 273.5zM274 370 q0 -108 77 -180.5t195 -72.5t196.5 71.5t78.5 181.5t-84 180.5t-215 92.5q-104 -16 -176 -90.5t-72 -182.5zM311 1020q0 -96 70 -160.5t188 -85.5q94 18 151.5 85t57.5 160t-65.5 156.5t-168 63.5t-168 -61.5t-65.5 -157.5z" />
<glyph unicode="9" horiz-adv-x="1081" d="M80 948q0 182 131 310t325 126q194 0 323 -126q130 -126 130 -320q0 -442 -368 -778q-31 -27 -88.5 -81t-88.5 -81l-249 2q190 111 370 288t244 355q-127 -131 -303 -131t-303 127q-123 127 -123 309zM238 950q0 -123 88 -216t210 -93t208.5 88t86.5 214t-86 218t-219 92 t-210.5 -90t-77.5 -213z" />
<glyph unicode=":" horiz-adv-x="452" d="M125 83q0 44 29.5 74.5t72.5 30.5t74 -30.5t31 -74.5t-31 -73.5t-74 -29.5t-72.5 29.5t-29.5 73.5zM125 774q0 43 29.5 75t72.5 32t74 -32t31 -75t-31 -72.5t-74 -29.5t-72.5 29.5t-29.5 72.5z" />
<glyph unicode=";" horiz-adv-x="473" d="M84 -250q92 154 92 311q0 78 -10 132q18 4 162 32q14 -51 14 -125q0 -215 -170 -395zM125 774q0 43 29.5 75t72.5 32t75 -32t32 -75t-32 -72.5t-75 -29.5t-72.5 29.5t-29.5 72.5z" />
<glyph unicode="&#x3c;" horiz-adv-x="1120" d="M109 479v88q287 143 395 197l144 72l321 161v-141q-57 -29 -169 -82t-169 -80l-352 -170l352 -172l338 -159v-146q-313 162 -860 432z" />
<glyph unicode="=" horiz-adv-x="1075" d="M92 276v132h891v-132h-891zM92 627v127h891v-127h-891z" />
<glyph unicode="&#x3e;" horiz-adv-x="1120" d="M168 51v146q114 51 262 127q285 139 412 200l-674 334v143q405 -204 840 -430v-90q-274 -139 -422 -215z" />
<glyph unicode="?" horiz-adv-x="937" d="M182 1081v172q104 119 279 119q111 0 196.5 -47t122.5 -115t37 -160t-37 -147t-114 -121l-58 -49q-90 -78 -114.5 -143t-24.5 -217h-141q0 162 30.5 240.5t139.5 185.5l65 63q63 61 86 94t23 85t-27 95.5t-82 70t-102 26.5q-164 0 -279 -152zM301 90q0 43 33 76t76 33 t73.5 -31t30.5 -74t-31.5 -74.5t-75.5 -32.5t-75 29.5t-31 73.5z" />
<glyph unicode="@" horiz-adv-x="1638" d="M80 419q0 321 221 544t536.5 223t517 -183.5t201.5 -478.5q0 -211 -104 -341t-266 -130q-180 0 -187 185q-45 -80 -119.5 -129.5t-158.5 -49.5q-117 0 -196 90.5t-79 252.5t105.5 284.5t277.5 122.5q115 0 170 -98q12 74 13 92l155 -29q-2 -8 -10 -79.5t-14 -109.5 t-19.5 -136.5t-21.5 -149.5q0 -139 100 -139t167 97t67 257q0 254 -164 412.5t-433 158.5t-453.5 -193t-184.5 -478t172 -455t432 -170q188 0 287 55q2 -10 4 -25.5t4 -25.5l6 -57q-39 -14 -135.5 -28.5t-165.5 -14.5q-301 0 -513 202.5t-212 523.5zM584 414q0 -118 46 -179 t128 -61q135 0 219 113l14 379q-61 51 -157 51t-173 -92.5t-77 -210.5z" />
<glyph unicode="A" horiz-adv-x="1277" d="M18 0q63 135 142 334l430 1057h84l461 -1119q43 -102 125 -272h-193q-8 25 -168 418h-541q-147 -373 -161 -418h-179zM408 549h440l-219 577z" />
<glyph unicode="B" horiz-adv-x="1083" d="M160 0q6 143 6 365v632q0 195 -4 379h319q186 0 294 -94t108 -242q0 -96 -52.5 -172.5t-136.5 -113.5q129 -35 208 -131.5t79 -223.5q0 -179 -126 -289t-343 -110h-352zM330 133h172q147 0 230 70.5t83 193.5t-81 197t-212 74h-192v-535zM330 793h155q106 0 171 62.5 t65 165.5t-68.5 163.5t-187.5 60.5h-135v-452z" />
<glyph unicode="C" horiz-adv-x="1263" d="M100 676q0 301 203 510t514 209q172 0 350 -66v-168q-143 92 -342 92q-244 0 -399.5 -162.5t-155.5 -405.5t154.5 -405.5t394.5 -162.5q201 0 350 96v-164q-166 -69 -360 -69h-6q-305 0 -504 197.5t-199 498.5z" />
<glyph unicode="D" horiz-adv-x="1349" d="M162 0q4 205 4 383v676q0 154 -4 317h370q309 0 511 -190.5t202 -494.5t-204 -497.5t-515 -193.5h-364zM328 135h192q252 0 404.5 156.5t152.5 400.5t-156.5 395.5t-402.5 151.5h-190v-1104z" />
<glyph unicode="E" horiz-adv-x="962" d="M164 0v37l4 297v706q0 143 -4 336h311q254 0 361 4l-25 -145q-101 4 -281 4t-200 -2v-451h143q233 0 322 2v-141q-176 4 -322 4h-143v-514h198q240 0 322 2v-141q-80 2 -315 2h-371z" />
<glyph unicode="F" horiz-adv-x="927" d="M164 0q4 205 4 360v654q0 154 -4 362h342q233 0 332 4l-25 -145q-74 4 -297 4h-186v-473h184q180 0 264 4v-143q-143 4 -264 4h-184v-279q0 -231 2 -352h-168z" />
<glyph unicode="G" horiz-adv-x="1386" d="M100 672q0 310 200 516.5t531 206.5q190 0 365 -68v-166q-145 92 -356 92q-254 0 -412 -156.5t-158 -404.5t149.5 -412.5t405.5 -164.5q158 0 250 49v293q0 174 -4 262h166q-4 -140 -4 -486l-2 -174q-201 -82 -414 -82q-313 0 -515 192.5t-202 502.5z" />
<glyph unicode="H" horiz-adv-x="1413" d="M162 0q4 168 4 313v713q0 178 -4 350h170q-4 -137 -4 -473v-115h757v261q0 168 -4 327h168q-4 -119 -4 -350v-770q0 -109 4 -256h-168q4 160 4 297v358h-757v-358q0 -209 4 -297h-170z" />
<glyph unicode="I" horiz-adv-x="509" d="M170 0q4 184 4 330v678q0 156 -4 368h170q-4 -110 -4 -368v-680q0 -225 4 -328h-170z" />
<glyph unicode="J" horiz-adv-x="552" d="M-129 -219q51 -35 148 -35t148.5 64.5t51.5 179.5v1036q0 250 -4 350h170q-2 -182 -2 -350v-1053q0 -170 -94 -268t-260 -98q-80 0 -158 24v150z" />
<glyph unicode="K" horiz-adv-x="1159" d="M162 0q4 188 4 281v815q0 63 -4 280h170q-2 -115 -2 -278v-393l360 446q127 150 182 225h189q-16 -18 -48 -57t-48 -57l-476 -555l478 -531q102 -115 166 -176h-226q-53 68 -133 160l-444 522v-399q0 -154 2 -283h-170z" />
<glyph unicode="L" horiz-adv-x="919" d="M164 0q4 319 4 383v608q0 164 -4 385h168l-2 -180v-1059h254q139 0 282 4v-145q-86 4 -295 4h-407z" />
<glyph unicode="M" horiz-adv-x="1652" d="M117 0q4 53 14 170t14 180l74 1039h98l519 -969l510 969h100l59 -1061q8 -182 25 -328h-178q0 145 -9 301l-34 758q-158 -295 -449 -871h-57l-455 871l-47 -748q-10 -160 -14 -311h-170z" />
<glyph unicode="N" horiz-adv-x="1458" d="M162 0q4 176 4 295v749q0 104 -4 347h98l873 -1092v733q0 205 -9 344h179q-10 -125 -11 -332v-761q0 -195 2 -283h-104l-868 1096v-811q0 -158 6 -285h-166z" />
<glyph unicode="O" horiz-adv-x="1589" d="M100 684q0 303 200 507t495 204t494.5 -205t199.5 -505t-199.5 -504t-495.5 -204t-495 202t-199 505zM270 686q0 -248 148 -409.5t376 -161.5t375.5 162.5t147.5 407.5t-148.5 407.5t-372.5 162.5t-375 -160.5t-151 -408.5z" />
<glyph unicode="P" horiz-adv-x="1026" d="M162 0q4 184 4 360v721q0 139 -4 295h293q229 0 354 -116t125 -308t-129 -311t-361 -119h-114v-180q0 -246 4 -342h-172zM330 651h114q143 0 231.5 80t88.5 217t-86 218t-234 81h-114v-596z" />
<glyph unicode="Q" horiz-adv-x="1589" d="M98 695q0 292 200 496t494 204t495.5 -205t201.5 -504q0 -240 -131 -415t-340 -228q104 -104 234 -160.5t230 -56.5t158 16l19 -125q-85 -24 -169 -24h-7q-193 0 -340.5 70.5t-306.5 242.5q-57 -4 -99 -4q-260 0 -449.5 200.5t-189.5 492.5zM268 685q0 -245 148 -407.5 t376 -162.5t376.5 161.5t148.5 405.5t-149.5 408.5t-374.5 164.5t-375 -162.5t-150 -407.5z" />
<glyph unicode="R" horiz-adv-x="1136" d="M162 0q4 92 4 367v684q0 248 -4 325h295q205 0 340 -99t135 -290q0 -143 -76 -253.5t-205 -151.5l189 -236q115 -164 286 -346h-231l-377 532h-188v-172q0 -180 4 -360h-172zM330 659h188q96 0 171 94.5t75 221.5t-87 198.5t-222 71.5h-125v-586z" />
<glyph unicode="S" horiz-adv-x="997" d="M106 49q4 16 15.5 76.5t21.5 97.5q117 -117 308 -117q117 0 187.5 61.5t70.5 168.5q0 158 -239 293t-279.5 229t-40.5 170q0 168 111 268.5t275 100.5t293 -51v-175q-92 92 -274 93q-104 0 -171 -55.5t-67 -145.5t55.5 -151.5t170.5 -133.5q69 -35 135.5 -83 t136.5 -118.5t70 -230.5t-120 -265.5t-308 -105.5t-351 74z" />
<glyph unicode="T" horiz-adv-x="1153" d="M45 1235v141h762q236 0 313 2l-24 -143q-176 4 -297 4h-144v-885q0 -268 4 -354h-170q2 90 3 354v639q0 174 -3 246h-143q-217 0 -301 -4z" />
<glyph unicode="U" horiz-adv-x="1370" d="M141 1376h178q-6 -92 -6 -379v-465q0 -199 103.5 -305t275.5 -106t271.5 108.5t99.5 307.5v460q0 295 -2 379h174q-2 -100 -2 -381v-467q0 -264 -147.5 -404t-400.5 -140t-396.5 144t-143.5 400v467q0 193 -4 381z" />
<glyph unicode="V" horiz-adv-x="1286" d="M18 1376h199l428 -1153l430 1153h193q-109 -236 -111 -241l-444 -1160h-135l-439 1131q-59 156 -121 270z" />
<glyph unicode="W" horiz-adv-x="1929" d="M27 1376h184l348 -1108h23l290 877l-79 231h182l362 -1108h17q29 115 332 1108h178l-453 -1384h-145l-310 934l-317 -934h-145z" />
<glyph unicode="X" horiz-adv-x="1163" d="M27 0q113 154 200 291l260 399l-247 391q-84 131 -195 295h199q57 -102 123 -207l217 -350q35 57 207 328q106 174 141 229h188q-113 -152 -200 -291l-250 -385l250 -399q57 -92 202 -301h-196q-55 100 -117 197l-236 372l-256 -407q-74 -125 -100 -162h-190z" />
<glyph unicode="Y" horiz-adv-x="1165" d="M23 1376h190q48 -98 188 -327.5t187 -309.5l262 443q27 45 111 194h184q-10 -16 -36 -55t-38 -59l-407 -668v-262q0 -144 4 -332h-168q4 172 4 334v262l-318 520q-18 31 -82.5 131.5t-80.5 128.5z" />
<glyph unicode="Z" horiz-adv-x="1124" d="M76 0q42 77 164 281l548 958h-348q-246 0 -323 -4l-25 143q98 -2 375 -2h584l-723 -1239h428q225 0 303 2v-141q-78 2 -305 2h-678z" />
<glyph unicode="[" horiz-adv-x="636" d="M158 -428q4 131 4 231v1506q0 102 -4 233h282q98 0 142 2v-127q-78 4 -131 4h-146v-1728h148q55 0 129 4v-129q-45 4 -80 4h-344z" />
<glyph unicode="\" horiz-adv-x="675" d="M31 1432h147q207 -657 469 -1504h-151z" />
<glyph unicode="]" horiz-adv-x="636" d="M57 -303q78 -4 131 -4h146v1728h-146q-57 0 -131 -4v127q39 -2 127 -2h297q-4 -123 -4 -217v-1536q0 -98 4 -217h-297q-57 0 -127 -4v129z" />
<glyph unicode="^" horiz-adv-x="1069" d="M127 764q16 29 180 317l182 318h86q39 -68 166 -290t199 -345h-149q-10 23 -35 69t-53.5 101t-36.5 70l-136 256l-135 -256q-25 -45 -67.5 -129t-57.5 -111h-143z" />
<glyph unicode="_" horiz-adv-x="952" d="M12 -154h928v-73h-928v73z" />
<glyph unicode="`" horiz-adv-x="862" d="M35 1376h170q8 -16 160 -295h-129z" />
<glyph unicode="a" horiz-adv-x="942" d="M76 279q0 289 405 307q129 6 224 6v37q0 98 -71.5 156.5t-189.5 58.5t-245 -94l-60 122q143 94 325 94t279 -84.5t97 -248.5v-334q0 -186 34 -299h-149l-10 111q-66 -63 -157 -97t-173 -34q-135 0 -222 82.5t-87 216.5zM215 281q0 -78 55.5 -128.5t129.5 -50.5t161.5 37 t143.5 92v244l-201 -6q-289 -10 -289 -188z" />
<glyph unicode="b" horiz-adv-x="1107" d="M29 1415l49 86h217l-8 -110v-521q137 98 280 99q238 0 364 -141.5t126 -354.5t-134.5 -347t-359.5 -134q-133 0 -280 86v-47l-146 -37v1421h-108zM287 209q154 -98 270 -98q330 0 330 364q0 176 -92.5 265.5t-235.5 89.5t-272 -125v-496z" />
<glyph unicode="c" horiz-adv-x="1013" d="M78 469q0 211 143.5 353.5t372.5 142.5q168 0 297 -74v-154q-119 97 -287 97t-272.5 -104.5t-104.5 -263.5t102.5 -257t278.5 -98q88 0 166 32.5t117 69.5v-150q-102 -79 -313 -79t-355.5 137t-144.5 348z" />
<glyph unicode="d" horiz-adv-x="1114" d="M82 471q0 211 129 353.5t350 142.5q143 0 270 -84v479h-110l53 86h221l-14 -178v-1239l-145 -37v139q-47 -63 -121 -102t-154 -39q-231 0 -355 134t-124 345zM231 466q0 -175 94.5 -265t231.5 -90t274 122v512q-143 102 -264 103q-168 0 -252 -103.5t-84 -278.5z" />
<glyph unicode="e" horiz-adv-x="991" d="M68 467q0 221 116.5 360.5t325.5 139.5q115 0 200 -38t132 -101.5t69.5 -136.5t22.5 -143t-2 -93h-725q8 -166 100.5 -256t244.5 -90t331 110v-131q-137 -102 -342 -102t-339 130t-134 351zM209 569h596q-4 121 -77 194t-212 73t-216 -85t-91 -182z" />
<glyph unicode="f" horiz-adv-x="622" d="M57 815v129h146v154q0 176 77.5 280.5t227.5 104.5q63 0 162 -25l-19 -137q-45 29 -129 29t-128 -70t-44 -178v-158h236l-21 -129h-215v-610q0 -147 2 -205h-151q2 84 2 205v610h-146z" />
<glyph unicode="g" horiz-adv-x="999" d="M37 457q0 221 126 364.5t318 143.5q76 0 159 -35t128 -90v104h180l-37 -147q0 -399 9 -795q0 -221 -118 -345t-333 -124t-317 33l36 121q98 -23 260 -23t241 75t79 216v133q-116 -102 -300 -102t-307.5 125t-123.5 346zM193 454q0 -169 83.5 -262.5t219.5 -93.5t272 97 v538q-86 117 -264 117q-137 0 -224 -113.5t-87 -282.5z" />
<glyph unicode="h" horiz-adv-x="1136" d="M55 1380l49 97h205q-6 -47 -6 -207v-471q137 162 327 162t288 -111t98 -309v-346q0 -141 4 -195h-168q4 133 4 330v248q0 256 -264 256q-86 0 -168 -59.5t-121 -153.5v-433q0 -86 4 -188h-166q4 106 4 193v1187h-90z" />
<glyph unicode="i" horiz-adv-x="458" d="M145 1247q0 41 29 71t70 30t70.5 -30t29.5 -71t-29.5 -69.5t-70.5 -28.5t-70 28.5t-29 69.5zM147 0q7 68 7 209v526q0 147 -7 209h168q-6 -68 -6 -209v-526q0 -147 6 -209h-168z" />
<glyph unicode="j" horiz-adv-x="471" d="M-131 -377h127q166 0 166 268v844q0 147 -6 209h161q-6 -68 -6 -209v-850q0 -82 -2 -98q-16 -143 -99 -216t-214 -73h-127v125zM145 1247q0 41 29 71t70 30t70.5 -30t29.5 -71t-29.5 -69.5t-70.5 -28.5t-70 28.5t-29 69.5z" />
<glyph unicode="k" horiz-adv-x="1007" d="M59 1391q20 29 45 86h199q-4 -115 -4 -205v-733q57 57 212 216.5t187 188.5h238q-109 -82 -182 -149l-301 -277l405 -395q86 -86 127 -123h-201l-483 473v-276q0 -135 2 -197h-166q4 115 4 213v1178h-82z" />
<glyph unicode="l" horiz-adv-x="481" d="M55 1380l49 97h207q-8 -42 -8 -181v-1011q0 -242 6 -285h-166q4 86 4 285v1095h-92z" />
<glyph unicode="m" horiz-adv-x="1593" d="M45 858q27 39 51 86h187l12 -143q127 160 306 160t247 -181q131 180 317 181q137 0 217 -91.5t80 -263.5v-411q0 -80 4 -195h-166q2 72 3 229v338q0 258 -181 258q-76 0 -139 -51t-102 -143v-436q0 -84 4 -195h-166q2 70 2 229v346q0 250 -182 250q-74 0 -139.5 -51 t-102.5 -143v-398q0 -166 2 -233h-164q2 88 2 199v659h-92z" />
<glyph unicode="n" horiz-adv-x="1134" d="M53 858q27 39 51 86h181q4 -35 14 -145q137 162 342 162q362 0 363 -418v-320q0 -158 4 -223h-166q2 86 2 233v345q0 127 -69 187t-173 60t-184 -56t-119 -148v-388q0 -160 2 -233h-164q4 147 4 233v625h-88z" />
<glyph unicode="o" horiz-adv-x="1091" d="M80 470q0 206 135 348.5t331 142.5t330 -143.5t134 -348.5t-133.5 -345t-332 -140t-331.5 140t-133 346zM240 460q0 -142 86 -243.5t221 -101.5t219 101t84 255t-86 254t-220 100t-219 -111.5t-85 -253.5z" />
<glyph unicode="p" horiz-adv-x="1110" d="M39 858l49 86h217l-8 -110q123 133 323 133t313.5 -139.5t113.5 -346.5t-124 -348t-350 -141q-133 0 -280 86v-547l-146 -35v1362h-108zM297 209q154 -98 270 -98q160 0 241 85t81 279t-85 283.5t-210 89.5q-168 0 -297 -125v-514z" />
<glyph unicode="q" horiz-adv-x="1112" d="M80 466q0 208 122 349t304 141t315 -100v88h166l-10 -176v-1018q0 -10 6 -256h-168q4 147 4 250v383q-117 -143 -306 -143t-311 137t-122 345zM244 476q0 -156 85 -259.5t222 -103.5q66 0 144.5 24.5t125.5 67.5v555q-116 74 -239 74q-166 0 -252 -101t-86 -257z" />
<glyph unicode="r" horiz-adv-x="694" d="M57 858l49 86h177l10 -182q51 96 122 149.5t139 53.5t114 -19l-31 -153q-51 26 -100 26q-49 1 -95 -27q-92 -54 -143 -112q4 -127 4 -188v-283q0 -82 4 -209h-166q4 143 4 215v643h-88z" />
<glyph unicode="s" horiz-adv-x="768" d="M76 45q14 92 26 152q109 -98 246 -99q82 0 134.5 38t52.5 92t-32 90t-62.5 53.5t-86.5 46.5q-105 54 -174 113.5t-69 172.5t84 185t227 72q92 0 225 -39v-152q-101 70 -199 70t-144 -34t-46 -93t52.5 -97t117.5 -70q108 -54 181 -116t73 -184t-90 -195.5t-242 -73.5 t-274 68z" />
<glyph unicode="t" horiz-adv-x="690" d="M43 815v129h156v70q0 109 -2 155l157 29q-2 -59 -2 -186v-68h273q-6 -43 -23 -129h-250v-496q0 -106 31 -157t97 -51t122 34q17 -86 27 -122q-72 -41 -178 -41q-252 0 -252 303v530h-156z" />
<glyph unicode="u" horiz-adv-x="1013" d="M53 858l51 86h195q-2 -130 -2 -382t43 -349.5t184 -97.5q92 0 153.5 58t80.5 149v383q0 164 -2 239h166q-4 -70 -4 -231v-518q0 -127 20 -195h-141l-31 125q-84 -141 -277 -141q-156 0 -254 95t-98 316v463h-84z" />
<glyph unicode="v" horiz-adv-x="921" d="M14 944h179q18 -55 71 -188l203 -533l203 533q12 33 33.5 95t33.5 93h168q-35 -72 -90 -201l-311 -761h-82l-318 766q-53 126 -90 196z" />
<glyph unicode="w" horiz-adv-x="1402" d="M14 944h174q31 -119 66 -213l172 -487l227 700h107q47 -133 241 -717l187 586q31 90 39 131h164q-14 -37 -84 -225l-263 -737h-83l-256 745l-250 -745h-90l-269 741q-42 114 -82 221z" />
<glyph unicode="x" horiz-adv-x="872" d="M20 0q72 96 148 209l182 262q-139 207 -171 256t-87 124t-67 93h184q49 -84 110 -176l123 -190l127 190q16 25 101 176h180q-59 -82 -143 -207l-179 -264l211 -311q57 -88 113 -162h-174l-244 362q-162 -244 -235 -362h-179z" />
<glyph unicode="y" horiz-adv-x="964" d="M16 944h181l288 -747l222 548q37 92 69 199h172q-334 -797 -442 -1018l-43 -90q-100 -227 -266 -227h-125q2 8 47 112h82q74 0 151 179l58 133q-66 152 -197 456t-197 455z" />
<glyph unicode="z" horiz-adv-x="811" d="M51 0l486 815h-297q-53 0 -148 -4l-8 133h684l-485 -817h286q76 0 195 4v-133q-43 2 -139 2h-574z" />
<glyph unicode="{" horiz-adv-x="688" d="M72 504v119q176 6 176 219l-8 354q-1 346 372 346l17 -131q-125 -2 -183.5 -63.5t-58.5 -194.5l8 -338q0 -102 -43 -164.5t-112 -81.5v-12q70 -18 112.5 -78.5t42.5 -163.5l-8 -344q0 -141 59.5 -199.5t180.5 -60.5q-7 -40 -15 -133q-172 0 -272 85t-100 265l8 363 q0 207 -176 213z" />
<glyph unicode="|" horiz-adv-x="471" d="M166 -436v1995h139v-1995h-139z" />
<glyph unicode="}" horiz-adv-x="688" d="M59 -289q139 0 190.5 66.5t51.5 234.5l-8 303q0 203 156 240v12q-70 18 -113 82t-43 166l6 338q0 152 -64.5 205t-175.5 53l17 131l28 2q152 0 248.5 -93t96.5 -255l-9 -330q0 -121 41 -180t133 -63v-119q-90 -2 -132 -53.5t-42 -155.5l9 -367q0 -172 -94.5 -261 t-266.5 -89q-20 0 -29 133z" />
<glyph unicode="~" horiz-adv-x="1075" d="M70 432q35 102 106.5 161.5t151.5 59.5t214 -79.5t187 -79.5q102 0 170 135l107 -54q-33 -102 -108 -160.5t-162 -58.5t-216 79t-182 79q-100 0 -166 -133z" />
<glyph unicode="&#xa2;" horiz-adv-x="1073" d="M168 591q0 175 108.5 306t278.5 158v188h107v-178q121 -8 196 -39v-147q-78 53 -180 55q-152 2 -252 -90t-100 -249t94 -249t252 -90q96 0 184 55l23 -139q-109 -41 -220 -47v-172h-106v178q-176 25 -280.5 155t-104.5 305z" />
<glyph unicode="&#xa3;" horiz-adv-x="1073" d="M96 0v115q242 49 242 532h-158v117h162q0 610 432 610q102 0 199 -31l-17 -143q-57 39 -163 39q-268 0 -289 -358l-4 -117h331l-22 -117h-313q0 -393 -174 -524q147 4 249 4h160q92 0 215 4v-133q-55 2 -194 2h-656z" />
<glyph unicode="&#xa5;" horiz-adv-x="1073" d="M47 1360h182l308 -576q254 446 311 576h176l-401 -692h286v-97h-295v-149h295v-98h-295v-101q0 -84 4 -223h-167q4 143 4 223v101h-295v98h295v149h-295v97h289z" />
<glyph unicode="&#xa8;" d="M145 1224q0 36 27 61.5t61.5 25.5t62.5 -25.5t28 -61.5t-27 -61.5t-63 -25.5t-62.5 25.5t-26.5 61.5zM524 1224q0 36 28 61.5t64 25.5t61 -25.5t25 -61.5t-25.5 -61.5t-61.5 -25.5t-63.5 25.5t-27.5 61.5z" />
<glyph unicode="&#xa9;" horiz-adv-x="1503" d="M98 655q0 274 189 468t463 194t463.5 -193.5t189.5 -467.5t-188.5 -467t-463.5 -193t-464 192.5t-189 466.5zM199 656q0 -243 158.5 -409.5t393.5 -166.5t393.5 167t158.5 409t-161 407.5t-392.5 165.5t-391 -165t-159.5 -408zM420 651q0 162 103.5 275.5t262.5 113.5 q94 0 177 -32v-113q-61 45 -172 45t-185 -81t-74 -205t72 -202.5t174 -78.5t180 45l19 -105q-96 -41 -199 -41q-156 0 -257 108.5t-101 270.5z" />
<glyph unicode="&#xab;" horiz-adv-x="1171" d="M96 385v115l475 366v-164l-323 -256l323 -233v-162zM526 385v115l475 366v-164l-323 -256l323 -233v-162z" />
<glyph unicode="&#xad;" horiz-adv-x="686" d="M92 424v137h502v-137h-502z" />
<glyph unicode="&#xae;" horiz-adv-x="1015" d="M117 1036q0 166 112.5 281t275.5 115t278.5 -116t115.5 -281t-113.5 -279.5t-279.5 -114.5t-277.5 114.5t-111.5 280.5zM184 1035q0 -142 92.5 -238.5t230.5 -96.5t230 97.5t92 239t-92 238.5t-230 97t-230.5 -97.5t-92.5 -239.5zM377 827q2 33 2 95v233q0 72 -2 98h115 q72 0 110.5 -30.5t38.5 -77.5t-28.5 -79t-75.5 -44q41 -47 135 -195h-78q-59 111 -115 181h-37v-181h-65zM442 1053h39q96 0 97 80q0 43 -21.5 59t-75.5 16h-39v-155z" />
<glyph unicode="&#xb4;" d="M395 1079l160 295h170q-42 -59 -201 -295h-129z" />
<glyph unicode="&#xb8;" d="M233 -410l15 88q53 -26 101 -26t77 21.5t29 60.5q0 84 -133 84q-25 0 -37 -2l39 84q9 16 38 88h103l-47 -101q162 -20 162 -149q0 -78 -59.5 -124t-140.5 -46t-147 22z" />
<glyph unicode="&#xbb;" horiz-adv-x="1171" d="M178 51v162l324 233l-324 256v164l475 -366v-115zM608 51v162l324 233l-324 256v164l475 -366v-115z" />
<glyph unicode="&#x2c6;" d="M158 1073l221 297h90q43 -57 121 -162.5t100 -134.5h-129l-139 191l-139 -191h-125z" />
<glyph unicode="&#x2da;" d="M233 1238q0 77 54.5 126t136.5 49t137 -49t55 -125t-54 -127t-136 -51t-137.5 50t-55.5 127zM332 1242q0 -42 23.5 -73.5t67.5 -31.5t69.5 27.5t25.5 72.5t-25.5 73.5t-66.5 28.5t-67.5 -27.5t-26.5 -69.5z" />
<glyph unicode="&#x2dc;" d="M143 1114q0 78 40.5 135.5t108.5 57.5t140 -48t100 -49q70 0 72 86h101q0 -78 -36.5 -135t-104.5 -57t-144 47t-105 47q-63 0 -67 -84h-105z" />
<glyph unicode="&#x400;" horiz-adv-x="968" d="M160 -6v37l4 297v706q0 143 -4 336h311q254 0 360 4l-24 -145q-101 4 -281 4t-200 -2v-451h143q233 0 322 2v-141q-176 4 -322 4h-143v-514h198q240 0 322 2v-141q-80 2 -316 2h-370zM213 1733h186l185 -256h-140z" />
<glyph unicode="&#x401;" horiz-adv-x="962" d="M164 0v37l4 297v706q0 143 -4 336h311q254 0 361 4l-25 -145q-101 4 -281 4t-200 -2v-451h143q233 0 322 2v-141q-176 4 -322 4h-143v-514h198q240 0 322 2v-141q-80 2 -315 2h-371zM203 1637q0 36 26.5 61.5t61.5 25.5t61.5 -25.5t26.5 -61.5t-26.5 -62.5t-61.5 -26.5 t-61.5 26.5t-26.5 62.5zM582 1638q0 36 26.5 61t63.5 25t62.5 -25.5t25.5 -61.5t-25.5 -62.5t-62.5 -26.5t-63.5 27t-26.5 63z" />
<glyph unicode="&#x402;" horiz-adv-x="1454" d="M45 1235v141h762q236 0 313 2q-12 -82 -24 -143q-176 4 -297 4h-144v-448q78 4 131 4q289 0 422 -106.5t133 -315.5q0 -166 -104 -275.5t-281 -109.5q-90 0 -163 26l43 146q82 -29 106 -29q100 0 174 70.5t74 179.5q0 139 -104.5 198.5t-305.5 59.5q-68 0 -125 -6v-279 q0 -268 4 -354h-170q2 90 3 354v639q0 174 -3 246h-143q-217 0 -301 -4z" />
<glyph unicode="&#x403;" horiz-adv-x="892" d="M178 0v1376h703l-56 -153q-74 6 -168 6h-313v-1047q0 -129 4 -182h-170zM436 1425l119 301h201l-183 -301h-137z" />
<glyph unicode="&#x404;" horiz-adv-x="1251" d="M109 675q0 300 206.5 510t509.5 210q172 0 351 -66v-168q-145 92 -345 92t-351.5 -130t-192.5 -337h315q233 0 322 2v-141q-176 4 -322 4h-321q10 -229 162.5 -381.5t368.5 -152.5t366 96v-164q-168 -70 -367 -69q-305 0 -503.5 197.5t-198.5 497.5z" />
<glyph unicode="&#x405;" horiz-adv-x="997" d="M106 49q4 16 15.5 76.5t21.5 97.5q117 -117 308 -117q117 0 187.5 61.5t70.5 168.5q0 158 -239 293t-279.5 229t-40.5 170q0 168 111 268.5t275 100.5t293 -51v-175q-92 92 -274 93q-104 0 -171 -55.5t-67 -145.5t55.5 -151.5t170.5 -133.5q69 -35 135.5 -83 t136.5 -118.5t70 -230.5t-120 -265.5t-308 -105.5t-351 74z" />
<glyph unicode="&#x406;" horiz-adv-x="509" d="M170 0q4 184 4 330v678q0 156 -4 368h170q-4 -110 -4 -368v-680q0 -225 4 -328h-170z" />
<glyph unicode="&#x407;" horiz-adv-x="509" d="M-23 1637q0 36 27 61.5t61.5 25.5t62.5 -25.5t28 -61.5t-28 -62.5t-62.5 -26.5t-61.5 26.5t-27 62.5zM170 0q4 184 4 330v678q0 156 -4 368h170q-4 -110 -4 -368v-680q0 -225 4 -328h-170zM356 1638q0 36 28 61t64 25t61.5 -25.5t25.5 -61.5t-25.5 -62.5t-61.5 -26.5 t-64 27t-28 63z" />
<glyph unicode="&#x408;" horiz-adv-x="552" d="M-129 -219q51 -35 148 -35t148.5 64.5t51.5 179.5v1036q0 250 -4 350h170q-2 -182 -2 -350v-1053q0 -170 -94 -268t-260 -98q-80 0 -158 24v150z" />
<glyph unicode="&#x409;" horiz-adv-x="1828" d="M49 -6v174q25 -4 41 -4q117 0 187.5 141t132.5 453t86 618h596q-4 -115 -5 -348v-194h103q557 0 557 -412q0 -201 -132 -311.5t-398 -110.5h-283l2 1028q0 140 -2 197h-299q-12 -221 -91 -583t-170 -508t-265 -146q-31 0 -60 6zM1087 156h136q170 0 262 66.5t92 193.5 q0 264 -381 264h-109v-524z" />
<glyph unicode="&#x40a;" horiz-adv-x="1953" d="M135 0q4 168 4 313v713q0 178 -4 350h170q-4 -137 -4 -473v-115h729l2 220q2 90 -4 368h170q-4 -111 -4 -368v-191h100q545 0 545 -403q0 -197 -129 -305.5t-391 -108.5h-289v655h-729v-358q0 -209 4 -297h-170zM1180 152h127q170 0 274.5 66.5t104.5 189.5 q-1 258 -404 258h-102v-514z" />
<glyph unicode="&#x40b;" horiz-adv-x="1413" d="M45 1235v141l1075 2l-24 -143q-176 4 -203 4h-238v-422q135 143 315 143t281 -107.5t101 -283.5v-374q0 -141 4 -195h-168q4 133 4 406v190q0 115 -74 176.5t-171 61.5t-172 -50.5t-120 -130.5v-299q0 -268 4 -354h-170q2 90 3 354v639q0 174 -3 246h-239q-121 0 -205 -4 z" />
<glyph unicode="&#x40c;" horiz-adv-x="1206" d="M178 0v1376h160v-626h231q68 0 152 168l225 458h191q-68 -100 -201 -385l-45 -94q-92 -176 -184 -211q86 -39 176 -215q166 -365 239 -471h-184l-213 436q-82 166 -147 166h-240v-602h-160zM537 1425l118 301h201l-182 -301h-137z" />
<glyph unicode="&#x40d;" horiz-adv-x="1462" d="M162 1376h178q-8 -139 -8 -344v-733l872 1092h99q-4 -242 -5 -347v-749q0 -119 5 -295h-166q6 127 6 285v811l-869 -1096h-104q2 88 2 283v761q0 207 -10 332zM477 1735h174q66 -86 174 -246h-127q-90 105 -221 246z" />
<glyph unicode="&#x40e;" horiz-adv-x="1212" d="M145 1376h187l299 -768l301 768h178l-510 -1157q-41 -94 -102.5 -156.5t-165.5 -62.5h-129q14 39 49 117h84q78 0 158 184l59 137zM311 1731h150q0 -78 40 -123t119.5 -45t118.5 46t39 122h150q0 -135 -82 -218t-226 -83t-226.5 82.5t-82.5 218.5z" />
<glyph unicode="&#x40f;" horiz-adv-x="1374" d="M172 1376h172q-6 -276 -6 -332v-888h682v893q0 225 -4 327h170q-6 -276 -6 -329v-1047h-410v-59q0 -141 4 -318h-174q4 184 4 330v47h-426v1049q0 174 -6 327z" />
<glyph unicode="&#x410;" horiz-adv-x="1275" d="M18 0q63 135 142 334l430 1057h84l461 -1119q43 -102 125 -272h-193q-8 25 -168 418h-541q-147 -373 -161 -418h-179zM408 549h440l-219 577z" />
<glyph unicode="&#x411;" horiz-adv-x="1126" d="M178 0v1376h785l-37 -149q-113 12 -219 12h-369v-434h137q281 0 413 -98.5t132 -296.5t-129 -304t-391 -106h-322zM338 139h168q168 0 268 70t100 192q0 263 -395 263h-141v-525z" />
<glyph unicode="&#x412;" horiz-adv-x="1083" d="M160 0q6 143 6 365v632q0 195 -4 379h319q186 0 294 -94t108 -242q0 -96 -52.5 -172.5t-136.5 -113.5q129 -35 208 -131.5t79 -223.5q0 -179 -126 -289t-343 -110h-352zM330 133h172q147 0 230 70.5t83 193.5t-81 197t-212 74h-192v-535zM330 793h155q106 0 171 62.5 t65 165.5t-68.5 163.5t-187.5 60.5h-135v-452z" />
<glyph unicode="&#x413;" horiz-adv-x="892" d="M178 0v1376h703l-56 -153q-74 6 -168 6h-313v-1047q0 -129 4 -182h-170z" />
<glyph unicode="&#x414;" horiz-adv-x="1347" d="M41 -377l14 510h66q283 387 409 1247h594v-1247h142q4 -344 20 -510h-176l14 377h-919q0 -221 12 -377h-176zM307 137l656 -4v1116h-308q-74 -702 -348 -1112z" />
<glyph unicode="&#x415;" horiz-adv-x="962" d="M164 0v37l4 297v706q0 143 -4 336h311q254 0 361 4l-25 -145q-101 4 -281 4t-200 -2v-451h143q233 0 322 2v-141q-176 4 -322 4h-143v-514h198q240 0 322 2v-141q-80 2 -315 2h-371z" />
<glyph unicode="&#x416;" horiz-adv-x="1810" d="M63 1376h191l225 -458q84 -168 152 -168h170v626h151v-626h205q68 0 152 168l225 458h190q-64 -95 -200 -385l-45 -94q-92 -176 -185 -211q86 -39 176 -215q166 -365 240 -471h-184l-213 436q-80 164 -148 164h-213v-600h-151v600h-178q-68 0 -148 -164l-213 -436h-184 q49 69 196 377l43 94q92 180 177 211q-94 43 -185 215q-170 371 -246 479z" />
<glyph unicode="&#x417;" horiz-adv-x="1079" d="M176 25v151q102 -59 248 -59t231.5 71.5t85.5 192.5t-90 186.5t-233 65.5q-63 0 -99 -2v131h35l52 -2q141 0 221 67t80 175t-67 171.5t-179 63.5q-160 0 -285 -94v157q152 74 316 74t272 -95t108 -255q0 -111 -65.5 -192.5t-181.5 -122.5q129 -31 207.5 -120t78.5 -210 q0 -176 -127 -286.5t-340 -110.5q-150 0 -268 43z" />
<glyph unicode="&#x418;" horiz-adv-x="1458" d="M162 1376h178q-8 -139 -8 -344v-733l872 1092h99q-4 -242 -5 -347v-749q0 -119 5 -295h-166q6 127 6 285v811l-869 -1096h-104q2 88 2 283v761q0 207 -10 332z" />
<glyph unicode="&#x419;" horiz-adv-x="1492" d="M172 1376h178q-8 -139 -8 -344v-733l872 1092h99q-4 -242 -4 -347v-749q0 -119 4 -295h-166q6 127 6 285v811l-868 -1096h-105q2 88 2 283v761q0 207 -10 332zM422 1729h153q0 -78 43.5 -122t129.5 -44t130 45t44 121h155q0 -137 -86.5 -220.5t-241.5 -83.5t-241 82 t-86 222z" />
<glyph unicode="&#x41a;" horiz-adv-x="1206" d="M178 0v1376h160v-626h231q68 0 152 168l225 458h191q-68 -100 -201 -385l-45 -94q-92 -176 -184 -211q86 -39 176 -215q166 -365 239 -471h-184l-213 436q-82 166 -147 166h-240v-602h-160z" />
<glyph unicode="&#x41b;" horiz-adv-x="1286" d="M29 -6v170q25 -4 41 -4q115 0 183.5 140t128.5 460t85 616h643v-1376h-154v1247h-348q-26 -297 -96 -631t-164 -480t-270 -146q-31 0 -49 4z" />
<glyph unicode="&#x41c;" horiz-adv-x="1652" d="M117 0q4 53 14 170t14 180l74 1039h98l519 -969l510 969h100l59 -1061q8 -182 25 -328h-178q0 145 -9 301l-34 758q-158 -295 -449 -871h-57l-455 871l-47 -748q-10 -160 -14 -311h-170z" />
<glyph unicode="&#x41d;" horiz-adv-x="1413" d="M162 0q4 168 4 313v713q0 178 -4 350h170q-4 -137 -4 -473v-115h757v261q0 168 -4 327h168q-4 -119 -4 -350v-770q0 -109 4 -256h-168q4 160 4 297v358h-757v-358q0 -209 4 -297h-170z" />
<glyph unicode="&#x41e;" horiz-adv-x="1589" d="M100 684q0 303 200 507t495 204t494.5 -205t199.5 -505t-199.5 -504t-495.5 -204t-495 202t-199 505zM270 686q0 -248 148 -409.5t376 -161.5t375.5 162.5t147.5 407.5t-148.5 407.5t-372.5 162.5t-375 -160.5t-151 -408.5z" />
<glyph unicode="&#x41f;" horiz-adv-x="1370" d="M172 0q6 276 6 330v1046h1014l-2 -1048q0 -225 4 -328h-170q6 276 6 330v903h-692v-905q0 -225 4 -328h-170z" />
<glyph unicode="&#x420;" horiz-adv-x="1026" d="M162 0q4 184 4 360v721q0 139 -4 295h293q229 0 354 -116t125 -308t-129 -311t-361 -119h-114v-180q0 -246 4 -342h-172zM330 651h114q143 0 231.5 80t88.5 217t-86 218t-234 81h-114v-596z" />
<glyph unicode="&#x421;" horiz-adv-x="1263" d="M100 676q0 301 203 510t514 209q172 0 350 -66v-168q-143 92 -342 92q-244 0 -399.5 -162.5t-155.5 -405.5t154.5 -405.5t394.5 -162.5q201 0 350 96v-164q-168 -70 -366 -69q-305 0 -504 197.5t-199 498.5z" />
<glyph unicode="&#x422;" horiz-adv-x="1153" d="M45 1235v141h762q236 0 313 2l-24 -143q-176 4 -297 4h-144v-885q0 -268 4 -354h-170q2 90 3 354v639q0 174 -3 246h-143q-217 0 -301 -4z" />
<glyph unicode="&#x423;" horiz-adv-x="1179" d="M43 1376h203q26 -110 282 -628l84 -170q2 0 63.5 129t144.5 327.5t130 341.5h199l-471 -1059q-80 -178 -172 -254.5t-223 -76.5q-57 0 -88 8v158q31 -8 71 -9q86 0 136.5 51.5t117.5 190.5z" />
<glyph unicode="&#x424;" horiz-adv-x="1533" d="M115 671.5q0 239.5 148.5 380t414.5 156.5q0 96 -6 168h194l-6 -168q264 -18 411.5 -158.5t147.5 -378t-145.5 -371.5t-413.5 -150q0 -113 4 -187h-194l8 187q-270 16 -416.5 149t-146.5 372.5zM301 674q0 -176 95.5 -274.5t281.5 -108.5v778q-186 -14 -281.5 -116.5 t-95.5 -278.5zM860 291q184 10 278.5 109.5t94.5 274.5t-94.5 276.5t-278.5 115.5v-776z" />
<glyph unicode="&#x425;" horiz-adv-x="1155" d="M27 0q113 154 200 291l260 399l-247 391q-84 131 -195 295h199q57 -102 123 -207l217 -350q35 57 207 328q106 174 141 229h188q-113 -152 -200 -291l-250 -385l250 -399q57 -92 202 -301h-196q-55 100 -117 197l-236 372l-256 -407q-74 -125 -100 -162h-190z" />
<glyph unicode="&#x426;" horiz-adv-x="1406" d="M174 1376h170q-4 -184 -4 -329v-906h682v908q0 225 -4 327h170q-4 -184 -4 -329v-906h145v-190q0 -225 4 -328h-170q4 184 4 330v47h-989v1049q0 225 -4 327z" />
<glyph unicode="&#x427;" horiz-adv-x="1241" d="M166 1376h170q-6 -276 -6 -350q0 -193 78.5 -260.5t271.5 -67.5q88 0 201 15v344q0 217 -4 319h170q-4 -184 -5 -319v-729q0 -225 5 -328h-170q4 184 4 330v225q-106 -14 -197 -14q-264 0 -389 123.5t-125 394.5q0 215 -4 317z" />
<glyph unicode="&#x428;" horiz-adv-x="1845" d="M180 1376h170q-6 -276 -6 -332v-888h508v888q0 229 -2 332h170q-6 -137 -6 -334v-886h473v891q0 125 -8 329h170q-2 -92 -2 -332v-1044h-1463v1047q0 227 -4 329z" />
<glyph unicode="&#x429;" horiz-adv-x="1880" d="M180 1376h170q-6 -276 -6 -327v-893h508v893q0 225 -2 327h170q-6 -137 -6 -329v-891h473v895q0 121 -8 325h170q-2 -92 -2 -327v-893h159v-205q0 -225 4 -328h-170q4 184 5 330v47h-1461v1051q0 223 -4 325z" />
<glyph unicode="&#x42a;" horiz-adv-x="1396" d="M6 1378h641v-561h96q547 0 547 -403q0 -197 -129 -305.5t-391 -108.5h-305v1249h-268q-84 0 -146 -10zM647 152h129q166 0 257 65.5t91 190.5q0 154 -109 206t-265 52h-103v-514z" />
<glyph unicode="&#x42b;" horiz-adv-x="1509" d="M178 0l4 1008q0 156 -4 368h170q-4 -111 -4 -368v-191h100q226 0 385.5 -87.5t159.5 -315.5q0 -197 -129 -305.5t-391 -108.5h-291zM344 152h131q166 0 257 65.5t91 190.5q0 258 -372 258h-107v-514zM1159 0q4 184 4 330v678q0 156 -4 368h170q-4 -110 -4 -368v-680 q0 -225 4 -328h-170z" />
<glyph unicode="&#x42c;" horiz-adv-x="1126" d="M184 0l4 1008q0 156 -4 368h170q-4 -111 -4 -368v-191h101q227 0 385.5 -88t158.5 -315q0 -197 -129 -305.5t-391 -108.5h-291zM350 152h131q166 0 257 65.5t91 190.5q1 258 -372 258h-107v-514z" />
<glyph unicode="&#x42d;" horiz-adv-x="1222" d="M78 49v164q149 -96 365 -96t369 152.5t163 381.5h-322q-145 0 -321 -4v141q88 -2 321 -2h316q-41 207 -192.5 337t-351.5 130t-345 -92v168q178 66 350 66q303 0 510 -210t207 -510t-198.5 -497.5t-504.5 -197.5q-199 0 -366 69z" />
<glyph unicode="&#x42e;" horiz-adv-x="2015" d="M203 0q4 184 4 330v678q0 156 -4 368h170q-4 -111 -4 -368v-230h297q29 268 198.5 441.5t428.5 173.5t433.5 -210t174.5 -514t-173.5 -496.5t-440.5 -192.5t-437 183t-186 470h-295v-305q0 -225 4 -328h-170zM834 672q0 -240 123.5 -388.5t323.5 -148.5t324 148.5 t124 386t-125 402.5t-322 165t-322.5 -162.5t-125.5 -402.5z" />
<glyph unicode="&#x42f;" horiz-adv-x="1136" d="M82 0q147 168 278 354l189 269q-281 90 -281 364q0 190 135.5 289.5t339.5 99.5h295q-4 -78 -4 -325v-684q0 -274 4 -367h-172q4 180 4 360v213h-188l-369 -573h-231zM436 976q0 -126 89 -201t212 -75h133v545h-125q-135 0 -222 -71.5t-87 -197.5z" />
<glyph unicode="&#x430;" horiz-adv-x="942" d="M76 279q0 289 405 307q129 6 224 6v37q0 98 -71.5 156.5t-189.5 58.5t-245 -94l-60 122q143 94 325 94t279 -84.5t97 -248.5v-334q0 -186 34 -299h-149l-10 111q-66 -63 -157 -97t-173 -34q-135 0 -222 82.5t-87 216.5zM215 281q0 -78 55.5 -128.5t129.5 -50.5t161.5 37 t143.5 92v244l-201 -6q-289 -10 -289 -188z" />
<glyph unicode="&#x431;" horiz-adv-x="1052" d="M86 612q0 209 51 361.5t133 234.5q104 104 459 195q35 8 88 25.5t70 21.5v-152q-256 -32 -423 -108t-214 -361q49 39 137 68t184 29q193 0 295.5 -125t102.5 -340t-117 -348t-327 -133t-324.5 157.5t-114.5 474.5zM242 596q0 -236 78.5 -372t208.5 -136t222.5 110.5 t92.5 269.5t-79 257t-241 98q-66 0 -143.5 -30.5t-136.5 -77.5q-2 -18 -2 -119z" />
<glyph unicode="&#x432;" horiz-adv-x="946" d="M135 0v944h283q182 0 272 -70.5t90 -183.5q0 -145 -157 -203q115 -14 178 -73.5t63 -145.5q0 -121 -91 -194.5t-275 -73.5h-363zM285 113h217q104 0 155.5 44.5t51.5 114.5t-53.5 108t-139.5 38h-231v-305zM285 541h149q88 0 139.5 34.5t51.5 103.5t-51.5 110.5 t-155.5 41.5h-133v-290z" />
<glyph unicode="&#x433;" horiz-adv-x="800" d="M135 0v944h637l-53 -156h-408v-788h-176z" />
<glyph unicode="&#x434;" horiz-adv-x="1099" d="M27 -336q4 115 4 146v296h63q135 133 196.5 317.5t104.5 520.5h504v-838h137v-296q0 -31 4 -146h-135q2 59 2 150v180h-747v-180q0 -89 2 -150h-135zM258 106h492v703h-252q-66 -478 -240 -703z" />
<glyph unicode="&#x435;" horiz-adv-x="991" d="M68 467q0 221 116.5 360.5t325.5 139.5q115 0 200 -38t132 -101.5t69.5 -136.5t22.5 -143t-2 -93h-725q8 -166 100.5 -256t244.5 -90t331 110v-131q-137 -102 -342 -102t-339 130t-134 351zM209 569h596q-4 121 -77 194t-212 73t-216 -85t-91 -182z" />
<glyph unicode="&#x436;" horiz-adv-x="1351" d="M41 944h180l154 -317q55 -113 104 -113h94v432h164v-432h94q49 0 105 113l154 317h180q-45 -64 -137 -264l-31 -66q-66 -125 -127 -147q59 -25 121 -145q115 -248 164 -322h-181l-145 299q-57 113 -103 113h-92v-412h-168v412h-92q-45 0 -102 -113l-146 -299h-180 q51 73 133 258l31 64q61 119 121 147q-61 18 -127 145q-117 256 -168 330z" />
<glyph unicode="&#x437;" horiz-adv-x="847" d="M102 899q133 70 290 70t252 -73t95 -187q0 -76 -44 -133.5t-122 -79.5q186 -51 187 -228q0 -123 -101 -205.5t-263 -82.5t-287 61v143q135 -66 262 -65q213 0 213 155q0 147 -254 148q-49 0 -94 -4v133q27 -2 123 -2t150 39t54.5 140t-197.5 101q-100 0 -214 -59z" />
<glyph unicode="&#x438;" horiz-adv-x="1079" d="M98 942h148q-8 -135 -8 -336v-354l641 694h96q-4 -233 -4 -338v-321q0 -115 4 -287h-141q4 82 4 279v419l-631 -698h-101q2 86 3 276v342q0 201 -11 324z" />
<glyph unicode="&#x439;" horiz-adv-x="1079" d="M98 942h148q-8 -135 -8 -336v-354l641 694h96q-4 -233 -4 -338v-321q0 -115 4 -287h-141q4 82 4 279v419l-631 -698h-101q2 86 3 276v342q0 201 -11 324zM242 1384h149q0 -78 40 -122.5t120 -44.5t119 46t39 121h149q0 -135 -82 -218t-226 -83t-226 83t-82 218z" />
<glyph unicode="&#x43a;" horiz-adv-x="909" d="M135 0v944h160v-430h94q49 0 105 113l155 317h178q-35 -50 -137 -264l-31 -66q-61 -121 -127 -145q59 -25 123 -147q113 -248 164 -322h-182l-145 299q-57 113 -103 113h-94v-412h-160z" />
<glyph unicode="&#x43b;" horiz-adv-x="1011" d="M23 -12v159q12 -4 26 -4q121 0 204 218.5t124 582.5h508q-4 -115 -4 -342v-352q0 -107 4 -250h-160q12 59 12 248v563h-241q-47 -395 -163 -611t-265 -216q-4 0 -45 4z" />
<glyph unicode="&#x43c;" horiz-adv-x="1204" d="M137 0q4 164 4 305v297q0 174 -4 342h170l299 -491l289 491h166q-4 -115 -4 -342v-352q0 -106 4 -250h-139l2 309v408l-283 -453h-80l-282 453v-408q0 -223 4 -309h-146z" />
<glyph unicode="&#x43d;" horiz-adv-x="1044" d="M131 0q4 164 4 254v506q0 16 -4 184h154q-4 -76 -4 -184v-203h477v203q0 106 -2 184h155l-4 -184v-510q0 -106 4 -250h-155q2 78 2 254v174h-477v-170q0 -172 4 -258h-154z" />
<glyph unicode="&#x43e;" horiz-adv-x="1091" d="M80 470q0 206 135 348.5t331 142.5t330 -143.5t134 -348.5t-133.5 -345t-332 -140t-331.5 140t-133 346zM240 460q0 -142 86 -243.5t221 -101.5t219 101t84 255t-86 254t-220 100t-219 -111.5t-85 -253.5z" />
<glyph unicode="&#x43f;" horiz-adv-x="1032" d="M125 0q6 270 6 322v622h766v-625q0 -219 4 -319h-156q4 180 5 322v483h-469v-486q0 -219 4 -319h-160z" />
<glyph unicode="&#x440;" horiz-adv-x="1026" d="M129 -473v1384q172 57 326 58q233 0 362 -130.5t129 -352.5t-137 -364t-344 -142q-82 -1 -180 30v-483h-156zM285 143q90 -33 172 -32q150 0 249 104t99 266t-103.5 260.5t-252.5 98.5q-70 -1 -164 -21v-676z" />
<glyph unicode="&#x441;" horiz-adv-x="872" d="M82 464q0 212 134 358.5t345 146.5q135 0 242 -60v-153q-133 86 -228 86q-143 0 -247.5 -107.5t-104.5 -264.5t99.5 -260.5t235.5 -103.5t230 87l52 -125q-129 -88 -301 -88q-209 0 -333 136t-124 348z" />
<glyph unicode="&#x442;" horiz-adv-x="888" d="M47 807v137h666q82 0 157 2l-24 -139l-158 4h-149v-465q0 -262 4 -346h-166q2 88 2 346v465h-119q-131 0 -213 -4z" />
<glyph unicode="&#x443;" horiz-adv-x="964" d="M16 944h181l288 -747l222 548q37 92 69 199h172q-334 -797 -442 -1018l-43 -90q-100 -227 -266 -227h-125q2 8 47 112h82q74 0 151 179l58 133q-66 152 -197 456t-197 455z" />
<glyph unicode="&#x444;" horiz-adv-x="1300" d="M82 474q0 208 131 341t365 152l-13 409h170l-12 -409q231 -18 363.5 -152.5t132.5 -339.5t-130 -339t-366 -154l12 -455h-170l13 455q-231 18 -363.5 151t-132.5 341zM231 475q0 -139 101 -239.5t246 -114.5v706q-150 -16 -248.5 -114.5t-98.5 -237.5zM723 121 q145 14 239.5 114.5t94.5 239.5t-94.5 238.5t-239.5 113.5v-706z" />
<glyph unicode="&#x445;" horiz-adv-x="952" d="M68 0q72 96 147 209l182 262q-139 207 -171 256t-87 124t-67 93h184q49 -84 111 -176l122 -190l127 190q16 25 101 176h180q-59 -82 -143 -207l-179 -264l211 -311q57 -88 113 -162h-174l-244 362q-162 -244 -235 -362h-178z" />
<glyph unicode="&#x446;" horiz-adv-x="1079" d="M119 944h164q-6 -270 -7 -321v-492h443v494q0 219 -4 319h166q-4 -180 -4 -321v-492h139l2 -133q0 -204 4 -320h-166q4 180 4 322h-737v625q0 219 -4 319z" />
<glyph unicode="&#x447;" horiz-adv-x="974" d="M111 635v309h149q-12 -135 -12 -309q0 -154 258 -154q128 0 199 37v197q0 119 -7 229h144v-625q0 -219 2 -319h-146q4 180 4 375q-96 -20 -229 -21q-362 0 -362 281z" />
<glyph unicode="&#x448;" horiz-adv-x="1402" d="M117 946h164q-4 -180 -5 -321v-482h349v482q0 219 -2 319h165q-6 -270 -6 -321v-480h334v484q0 119 -8 319h166q-2 -90 -2 -321v-625h-1153v627q0 219 -2 319z" />
<glyph unicode="&#x449;" horiz-adv-x="1452" d="M117 946h164q-4 -180 -5 -321v-484h349v484q0 219 -2 319h165q-6 -270 -6 -321v-482h334v486q0 170 -6 319h164q-2 -90 -2 -321v-486h108v-225q0 -180 4 -242h-165q6 51 6 328h-1106v627q0 219 -2 319z" />
<glyph unicode="&#x44a;" horiz-adv-x="1183" d="M76 946h504v-354h108q395 0 395 -293q0 -143 -93 -221t-281 -78h-269v840h-170q-94 0 -153 -4zM580 135h122q109 0 176.5 43t67.5 123q0 164 -262 164h-104v-330z" />
<glyph unicode="&#x44b;" horiz-adv-x="1253" d="M150 944h145q-6 -87 -6 -352h131q395 0 395 -293q0 -141 -94 -220t-283 -79h-286l2 594q0 141 -4 350zM289 135h145q109 0 176.5 43t67.5 123q0 164 -262 164h-127v-330zM946 0q4 180 4 322v264q0 150 -4 358h166q-4 -106 -4 -358v-267q0 -219 4 -319h-166z" />
<glyph unicode="&#x44c;" horiz-adv-x="927" d="M150 944h145q-6 -87 -6 -352h131q395 0 395 -293q0 -141 -94 -220t-283 -79h-286l2 594q0 141 -4 350zM289 135h145q223 0 223 173q0 87 -65.5 122t-175.5 35h-127v-330z" />
<glyph unicode="&#x44d;" horiz-adv-x="923" d="M61 63v150q39 -37 117 -69.5t166 -32.5q166 0 267.5 87t113.5 234h-459v129h449q-31 119 -129 191.5t-252 72.5t-273 -96v154q129 74 297 73q229 0 372.5 -138t143.5 -349t-144 -348t-356 -137t-313 79z" />
<glyph unicode="&#x44e;" horiz-adv-x="1435" d="M135 0q4 180 4 322v266q0 147 -4 356h166q-4 -106 -4 -379h215q23 182 134.5 293t293.5 111t298 -145.5t116 -346.5t-115 -349t-301 -148t-299 122.5t-131 309.5h-211v-93q0 -219 4 -319h-166zM666 474q0 -159 71.5 -254t190.5 -95t189.5 95t70.5 254t-69.5 254 t-189.5 95t-191.5 -95t-71.5 -254z" />
<glyph unicode="&#x44f;" horiz-adv-x="960" d="M25 0q106 112 159 188l148 203q-80 31 -135.5 106.5t-55.5 159.5q0 129 86 208t250 79h348v-751q0 -139 4 -193h-159q10 98 10 180v178h-215l-223 -358h-217zM276 649q0 -70 61.5 -111.5t143.5 -41.5h199v327h-186q-90 0 -154 -52t-64 -122z" />
<glyph unicode="&#x450;" horiz-adv-x="997" d="M63 461q0 221 117 360.5t326 139.5q115 0 200 -38t132 -101.5t69.5 -137.5t22.5 -144t-2 -91h-725q8 -166 100.5 -256.5t244.5 -90.5t331 111v-131q-137 -102 -342 -102t-339.5 130t-134.5 351zM205 563h596q-4 121 -77 193.5t-212 72.5t-216 -85t-91 -181zM260 1374h170 l158 -297h-129z" />
<glyph unicode="&#x451;" horiz-adv-x="991" d="M68 478q0 228 117.5 369.5t326.5 141.5q152 0 251 -68.5t137 -162.5t38 -182t-2 -109h-727q8 -170 99 -262t247 -92t332 110v-133q-145 -104 -347 -104t-337 132t-135 360zM211 582h596q-4 125 -76 198.5t-212 73.5t-217 -86t-91 -186zM217 1224q0 36 26.5 61.5 t61.5 25.5t62.5 -25.5t27.5 -61.5t-26.5 -61.5t-62.5 -25.5t-62.5 25.5t-26.5 61.5zM596 1224q0 36 27.5 61.5t63.5 25.5t61.5 -25.5t25.5 -61.5t-25.5 -61.5t-61.5 -25.5t-63.5 25.5t-27.5 61.5z" />
<glyph unicode="&#x452;" horiz-adv-x="1071" d="M35 1137v141l125 -4q0 94 -10 176h184q-10 -57 -10 -143v-33h82q150 0 217 4v-141q-59 4 -199 4h-100v-326q147 141 308 141t257 -141t96 -403q0 -514 -391 -717l-84 133q324 176 324 588q0 186 -61.5 293.5t-176.5 107.5t-272 -151v-412q0 -197 2 -254h-176 q10 86 10 236v905q-86 0 -125 -4z" />
<glyph unicode="&#x453;" horiz-adv-x="796" d="M121 0q8 154 8 375v569h637l-53 -139q-195 8 -426 8v-442l8 -371h-174zM375 1079l157 295h170q-158 -236 -200 -295h-127z" />
<glyph unicode="&#x454;" horiz-adv-x="927" d="M37 469q0 211 143.5 349t372.5 138q168 0 297 -73v-154q-118 96 -272 96t-252.5 -72.5t-128.5 -191.5h448v-129h-459q12 -147 113.5 -234t267.5 -87q88 0 166 32.5t117 69.5v-150q-102 -79 -313 -79t-355.5 137t-144.5 348z" />
<glyph unicode="&#x455;" horiz-adv-x="768" d="M76 45q14 92 26 152q109 -98 246 -99q82 0 134.5 38t52.5 92t-32 90t-62.5 53.5t-86.5 46.5q-105 54 -174 113.5t-69 172.5t84 185t227 72q92 0 225 -39v-152q-101 70 -199 70t-144 -34t-46 -93t52.5 -97t117.5 -70q108 -54 181 -116t73 -184t-90 -195.5t-242 -73.5 t-274 68z" />
<glyph unicode="&#x456;" horiz-adv-x="458" d="M145 1247q0 41 29 71t70 30t70.5 -30t29.5 -71t-29.5 -69.5t-70.5 -28.5t-70 28.5t-29 69.5zM147 0q7 68 7 209v526q0 147 -7 209h168q-6 -68 -6 -209v-526q0 -147 6 -209h-168z" />
<glyph unicode="&#x457;" horiz-adv-x="458" d="M-49 1224q0 36 26.5 61.5t61.5 25.5t62.5 -25.5t27.5 -61.5t-26.5 -61.5t-62.5 -25.5t-62.5 25.5t-26.5 61.5zM147 0q7 68 7 209v526q0 147 -7 209h168q-6 -68 -6 -209v-526q0 -147 6 -209h-168zM330 1224q0 36 27.5 61.5t63.5 25.5t61.5 -25.5t25.5 -61.5t-25.5 -61.5 t-61.5 -25.5t-63.5 25.5t-27.5 61.5z" />
<glyph unicode="&#x458;" horiz-adv-x="471" d="M-131 -377h127q166 0 166 268v844q0 147 -6 209h161q-6 -68 -6 -209v-850q0 -82 -2 -98q-16 -143 -99 -216t-214 -73h-127v125zM145 1247q0 41 29 71t70 30t70.5 -30t29.5 -71t-29.5 -69.5t-70.5 -28.5t-70 28.5t-29 69.5z" />
<glyph unicode="&#x459;" horiz-adv-x="1472" d="M41 -12v159q12 -4 29 -4q94 0 180 221.5t125 579.5h469q-4 -94 -4 -158l4 -200q61 6 117 6q211 0 312 -78t101 -216t-97 -218t-304 -80h-289v811h-188q-29 -223 -88.5 -425t-114.5 -276t-97 -100t-108 -26q-2 0 -47 4zM844 127h125q115 0 184.5 46t69.5 123t-68 121 t-199 44q-55 0 -112 -6v-328z" />
<glyph unicode="&#x45a;" horiz-adv-x="1499" d="M145 0q4 164 5 305v297q0 174 -5 342h166q-4 -156 -4 -383h443q0 174 -5 383h146q-4 -106 -4 -358q59 6 114 6q416 0 416 -293q0 -299 -401 -299h-268v428h-441v-139q0 -203 4 -289h-166zM887 139h125q129 0 199.5 41t70.5 115q0 154 -283 154q-57 -1 -112 -7v-303z" />
<glyph unicode="&#x45b;" horiz-adv-x="1093" d="M18 1137v141h144v113h-80l49 86h195q-6 -45 -7 -199h285v-141h-285v-338q137 162 328 162t288 -111t97 -309v-346q0 -141 4 -195h-168q4 133 4 330v248q0 256 -264 256q-86 0 -168 -59.5t-121 -153.5v-433q0 -86 5 -188h-166q4 106 4 193v944h-144z" />
<glyph unicode="&#x45c;" horiz-adv-x="909" d="M135 0v944h160v-430h94q49 0 105 113l155 317h178q-51 -74 -168 -330q-61 -121 -127 -145q59 -25 123 -147l29 -64q104 -212 135 -258h-182l-145 299q-57 113 -103 113h-94v-412h-160zM403 1079l158 295h170q-158 -236 -201 -295h-127z" />
<glyph unicode="&#x45d;" horiz-adv-x="1069" d="M137 0v944h166q-4 -37 -4 -133v-578l506 711h166v-944h-168q6 137 6 190v508l-506 -698h-166zM297 1374h170l158 -297h-129z" />
<glyph unicode="&#x45e;" horiz-adv-x="999" d="M16 944h181l288 -747l222 548q37 92 69 199h172q-354 -844 -485 -1108q-100 -227 -266 -227h-125q2 8 47 112h82q74 0 151 179l58 133q-66 152 -197 456t-197 455zM201 1384h149q0 -78 40 -122.5t120 -44.5t119 46t39 121h149q0 -135 -82 -218t-226 -83t-226 83t-82 218z " />
<glyph unicode="&#x45f;" horiz-adv-x="1054" d="M129 944h170q-4 -184 -4 -248v-540h442v540q0 80 -4 248h170q-4 -184 -4 -248v-696h-283v-45q0 -240 5 -332h-175q4 184 5 330v47h-318v696q0 80 -4 248z" />
<glyph unicode="&#x2000;" horiz-adv-x="867" />
<glyph unicode="&#x2001;" horiz-adv-x="1735" />
<glyph unicode="&#x2002;" horiz-adv-x="867" />
<glyph unicode="&#x2003;" horiz-adv-x="1735" />
<glyph unicode="&#x2004;" horiz-adv-x="578" />
<glyph unicode="&#x2005;" horiz-adv-x="433" />
<glyph unicode="&#x2006;" horiz-adv-x="289" />
<glyph unicode="&#x2007;" horiz-adv-x="289" />
<glyph unicode="&#x2008;" horiz-adv-x="216" />
<glyph unicode="&#x2009;" horiz-adv-x="347" />
<glyph unicode="&#x200a;" horiz-adv-x="96" />
<glyph unicode="&#x2010;" horiz-adv-x="686" d="M92 424v137h502v-137h-502z" />
<glyph unicode="&#x2011;" horiz-adv-x="686" d="M92 424v137h502v-137h-502z" />
<glyph unicode="&#x2012;" horiz-adv-x="686" d="M92 424v137h502v-137h-502z" />
<glyph unicode="&#x2013;" horiz-adv-x="958" d="M20 436v123h918v-123h-918z" />
<glyph unicode="&#x2014;" horiz-adv-x="1843" d="M-6 436v123h1855v-123h-1855z" />
<glyph unicode="&#x2018;" horiz-adv-x="425" d="M122 1190q0 125 79 266q25 -2 104 -10q-39 -121 -39 -238t25 -217l-144 -35q-25 109 -25 234z" />
<glyph unicode="&#x2019;" horiz-adv-x="425" d="M121 965q37 104 37 227t-23 229l141 33q27 -102 27 -188q0 -150 -80 -312z" />
<glyph unicode="&#x201a;" horiz-adv-x="425" d="M121 -279q37 117 37 221t-27 234l145 35q27 -106 27 -188q0 -166 -80 -312z" />
<glyph unicode="&#x201c;" horiz-adv-x="747" d="M121 1145q0 170 78 311l106 -10q-39 -121 -39 -238t25 -217l-146 -35q-25 109 -24 189zM442 1155q0 156 82 301l103 -10q-37 -107 -37 -231t24 -224l-145 -35q-27 94 -27 199z" />
<glyph unicode="&#x201d;" horiz-adv-x="747" d="M119 965q37 107 37 217t-27 237l147 35q27 -102 27 -188q0 -152 -82 -312zM440 965q39 123 39 225t-26 229l145 35q27 -90 27 -222t-78 -278z" />
<glyph unicode="&#x201e;" horiz-adv-x="747" d="M119 -279q37 117 37 221t-27 234l147 35q27 -106 27 -188q0 -168 -82 -312zM438 -279q41 138 41 232t-26 221l145 37q27 -98 27 -199q0 -160 -78 -301z" />
<glyph unicode="&#x2026;" horiz-adv-x="1935" d="M227 90q0 43 33 76t76 33t73.5 -31t30.5 -74t-32.5 -74.5t-75.5 -32.5t-74 29.5t-31 73.5zM860 90q0 43 33 76t75 33t72.5 -31t30.5 -74t-31.5 -74.5t-74.5 -32.5t-74 29.5t-31 73.5zM1497 90q0 43 33 76t76 33t73.5 -31t30.5 -74t-31.5 -74.5t-75.5 -32.5t-75 29.5 t-31 73.5z" />
<glyph unicode="&#x202f;" horiz-adv-x="347" />
<glyph unicode="&#x2039;" horiz-adv-x="735" d="M100 385v115l475 366v-164l-323 -256l323 -233v-162z" />
<glyph unicode="&#x203a;" horiz-adv-x="735" d="M188 51v162l324 233l-324 256v164l476 -366v-115z" />
<glyph unicode="&#x205f;" horiz-adv-x="433" />
<glyph unicode="&#x20ac;" horiz-adv-x="1073" d="M72 489v97h135q-2 31 -2 88t2 86h-135v96h149q43 246 178.5 382t335.5 136q117 0 254 -53v-166q-100 80 -241.5 80t-234.5 -100.5t-122 -278.5h498l-23 -96h-493q-2 -29 -2 -87t2 -87h485l-20 -97h-449q29 -170 123 -271t233 -101t238 82l33 -154q-131 -61 -285 -61 q-209 0 -342 131t-170 374h-147z" />
<glyph unicode="&#x2122;" horiz-adv-x="1484" d="M59 1280v96h512v-96h-202v-379q0 -117 2 -160h-121q6 88 6 158v381h-197zM645 741q4 55 8 156l17 483h98l233 -407q59 104 228 407h100l19 -483q4 -98 8 -156h-117q0 100 -2 146l-8 321q-68 -122 -207 -354h-43l-203 352q-6 -215 -8 -319l-2 -146h-121z" />
<glyph unicode="&#x25fc;" horiz-adv-x="945" d="M0 0v945h945v-945h-945z" />
</font>
</defs>
</svg>
