<svg width="40" height="40" viewBox="0 0 40 40" fill="none" xmlns="http://www.w3.org/2000/svg">
<path fill-rule="evenodd" clip-rule="evenodd" d="M15.1136 10.3685L10.1947 10.4687C9.92944 11.4407 10.1932 10.9488 10.1938 11.9636L10.1929 13.801C10.1528 14.3316 10.0121 14.6022 10.0124 15.3117C10.0124 15.5507 9.95938 16.0986 10.0749 16.2859C10.2797 16.6173 10.2746 16.8976 10.3609 17.3765C10.4375 17.8019 10.5211 17.757 10.3279 18.0778L10.2378 18.8902L10.6582 19.2983L10.6612 20.0121C10.4109 20.2398 10.6908 20.0778 10.1618 20.4565L10.2091 22.612L10.73 22.9874L10.6211 24.8251C10.0717 25.2163 10.1896 25.6904 10.2073 26.1774L10.2743 28.01L10.1537 28.9491C11.3848 29.2567 11.1151 29.1613 12.5223 29.1613C13.766 29.1613 13.6055 29.1738 14.8345 29.0258L14.8663 29.2338C15.0567 29.2217 15.2534 29.2113 15.4411 29.1931C15.9642 29.1426 15.7552 29.0825 15.9354 29.0177C16.0657 28.9708 17.4675 29.2939 17.695 29.3426C17.8208 29.2029 17.7567 29.2594 17.9321 29.1467C18.0267 29.3456 18.4324 29.8019 18.5974 30.0002L19.1052 29.5272L19.9932 29.8694L20.2534 29.6521C20.3549 29.7713 20.4166 29.9208 20.5977 29.9443C20.8615 29.9785 20.9043 29.5451 21.486 29.5341L24.8591 29.4223C24.9025 29.3807 24.9282 29.3563 24.9746 29.3111L25.1471 29.1717C25.3687 29.3043 25.4633 29.4318 25.7672 29.4119C26.6974 29.3507 26.2106 29.6354 27.4112 29.5715C27.6181 29.5605 27.5669 29.51 27.7492 29.4461L28.139 29.3863C28.0543 29.1607 28.0001 29.1925 27.8315 29.024L29.9684 29.4529C29.9396 26.9559 29.945 23.9089 29.977 21.34L29.4025 21.3825C29.4232 21.2157 29.6738 21.2784 29.6935 20.9431C29.7184 20.5204 29.7139 19.0736 29.6519 18.7645C29.6202 18.6063 29.2151 18.1456 29.1067 18.0023C29.2354 17.6542 29.2483 17.6774 29.4872 17.3938C29.4672 17.2071 29.4232 17.1571 29.3423 16.9446L29.9684 16.741C29.9752 16.3834 30.0157 14.9485 29.9923 14.4948L29.7387 12.0451L29.9324 11.4327L29.9408 10.8034C29.3998 10.4939 29.4708 10.4598 29.095 10.4621C28.7582 10.4645 28.304 10.4467 27.9809 10.3733C27.5663 10.279 27.6776 10.2121 27.2229 10.6756L27.0166 10.2294C26.3675 10.1815 24.2857 10.0011 23.7905 10.0011C23.1576 10.0011 23.2492 10.0483 23.0354 10.7618L22.127 10.8545L22.0061 10.4645L21.1827 10.4553L21.2699 10.3599C21.4309 10.2077 21.3743 10.2689 21.5004 10.0005H18.1896C18.08 10.2017 17.88 10.3545 17.6441 10.4324C17.3145 10.5412 17.4776 10.3658 17.2693 10.5513C17.1133 10.6901 17.0863 10.6815 16.8405 10.6765C16.5142 10.6699 16.1794 10.6595 15.8534 10.6461C15.7031 10.6399 15.5375 10.6551 15.3929 10.6212C15.1702 10.5689 15.2354 10.5115 15.1136 10.3685Z" fill="black"/>
<path fill-rule="evenodd" clip-rule="evenodd" d="M13.8178 21.9446C14.0139 22.0662 14.1402 22.1863 14.33 22.3379L15.8669 23.7529C16.1875 24.0558 17.0082 24.8789 17.3237 25.2434C17.539 25.4922 17.6324 25.5189 17.7908 25.7642C17.7327 25.7856 17.0148 25.9494 16.5971 26.092C15.7276 26.389 14.9357 26.8649 14.1788 26.6099C14.0657 26.5718 13.5501 26.0831 13.3139 25.9176C13.174 25.8198 13.0408 25.7273 12.88 25.6158C12.4193 25.296 12.2872 25.5162 12.8992 24.1001C13.0594 23.7297 13.1947 23.3961 13.3471 23.0332C13.4803 22.716 13.6636 22.2035 13.8178 21.944V21.9446ZM24.8597 13.3953C25.1758 13.5044 25.9423 13.9393 26.13 14.1732C26.2881 14.37 26.2423 14.3881 26.1839 14.672L25.8723 17.0938C25.4405 17.1096 25.5654 17.0585 25.2977 16.8801C24.8489 16.581 23.3088 15.4514 22.8142 15.0558L21.8633 14.2969C21.9333 14.2318 21.839 14.2659 21.9974 14.2249L23.4052 13.9101C24.1384 13.7276 24.2522 13.6797 24.8597 13.3959V13.3953ZM12.239 13.8828C12.5615 13.7029 12.7333 13.8397 13.2773 13.4485C13.4232 13.3435 13.7585 13.3539 13.9624 13.3816C14.1734 13.4104 14.6594 13.8126 14.8824 13.9488C15.0115 14.0272 15.5914 14.4672 15.686 14.6194L15.9726 15.0787C16.3675 15.098 16.298 15.0751 16.7962 15.4372L21.5639 18.5611C22.589 19.2683 23.7854 19.991 24.8163 20.7038L27.7549 22.6134C27.6702 22.7945 27.5708 23.4193 27.5154 23.669C27.2609 24.8162 26.9408 25.3019 26.4226 26.4051C25.6779 26.4342 25.0902 26.4286 24.3627 26.417C24.127 26.4131 24.1851 26.4621 24.0564 26.3385C23.6303 25.9285 22.8558 25.029 22.4249 24.6143C22.2761 24.4711 22.1423 24.3367 21.995 24.1806C20.804 22.9205 21.3678 23.3001 21.1348 22.9865L18.7381 20.7371C18.1878 20.2059 17.6923 19.634 17.1235 19.0356C16.9773 18.8819 16.904 18.7371 16.7519 18.5974L16.7097 18.5596C16.669 18.5201 16.6845 18.5365 16.6468 18.4934L15.9507 17.7077C15.8279 17.595 15.8399 17.5989 15.7498 17.4975L15.1237 16.8563C14.986 16.713 14.8788 16.5644 14.7477 16.4098L14.1492 15.7796C14.0603 15.6898 13.9956 15.6631 13.9079 15.5721C13.6234 15.2778 13.3839 14.9963 13.0965 14.7023C12.8663 14.4672 12.3061 14.0151 12.2399 13.8834L12.239 13.8828ZM15.1136 10.3685L10.1947 10.4687C9.92944 11.4407 10.1932 10.9488 10.1938 11.9636L10.1929 13.801C10.1528 14.3316 10.0121 14.6022 10.0124 15.3117C10.0124 15.5507 9.95938 16.0986 10.0749 16.2859C10.2797 16.6173 10.2746 16.8976 10.3609 17.3765C10.4375 17.8019 10.5211 17.757 10.3279 18.0778L10.2378 18.8902L10.6582 19.2983L10.6612 20.0121C10.4109 20.2398 10.6908 20.0778 10.1618 20.4565L10.2091 22.612L10.73 22.9874L10.6211 24.8251C10.0717 25.2163 10.1896 25.6904 10.2073 26.1774L10.2743 28.01L10.1537 28.9491C11.3848 29.2567 11.1151 29.1613 12.5223 29.1613C13.766 29.1613 13.6055 29.1738 14.8345 29.0258L14.8663 29.2338C15.0567 29.2217 15.2534 29.2113 15.4411 29.1931C15.9642 29.1426 15.7552 29.0825 15.9354 29.0177C16.0657 28.9708 17.4675 29.2939 17.695 29.3426C17.8208 29.2029 17.7567 29.2594 17.9321 29.1467C18.0267 29.3456 18.4324 29.8019 18.5974 30.0002L19.1052 29.5272L19.9932 29.8694L20.2534 29.6521C20.3549 29.7713 20.4166 29.9208 20.5977 29.9443C20.8615 29.9785 20.9043 29.5451 21.486 29.5341L24.8591 29.4223C24.9025 29.3807 24.9282 29.3563 24.9746 29.3111L25.1471 29.1717C25.3687 29.3043 25.4633 29.4318 25.7672 29.4119C26.6974 29.3507 26.2106 29.6354 27.4112 29.5715C27.6181 29.5605 27.5669 29.51 27.7492 29.4461L28.139 29.3863C28.0543 29.1607 28.0001 29.1925 27.8315 29.024L29.9684 29.4529C29.9396 26.9559 29.945 23.9089 29.977 21.34L29.4025 21.3825C29.4232 21.2157 29.6738 21.2784 29.6935 20.9431C29.7184 20.5204 29.7139 19.0736 29.6519 18.7645C29.6202 18.6063 29.2151 18.1456 29.1067 18.0023C29.2354 17.6542 29.2483 17.6774 29.4872 17.3938C29.4672 17.2071 29.4232 17.1571 29.3423 16.9446L29.9684 16.741C29.9752 16.3834 30.0157 14.9485 29.9923 14.4948L29.7387 12.0451L29.9324 11.4327L29.9408 10.8034C29.3998 10.4939 29.4708 10.4598 29.095 10.4621C28.7582 10.4645 28.304 10.4467 27.9809 10.3733C27.5663 10.279 27.6776 10.2121 27.2229 10.6756L27.0166 10.2294C26.3675 10.1815 24.2857 10.0011 23.7905 10.0011C23.1576 10.0011 23.2492 10.0483 23.0354 10.7618L22.127 10.8545L22.0061 10.4645L21.1827 10.4553L21.2699 10.3599C21.4309 10.2077 21.3743 10.2689 21.5004 10.0005H18.1896C18.08 10.2017 17.88 10.3545 17.6441 10.4324C17.3145 10.5412 17.4776 10.3658 17.2693 10.5513C17.1133 10.6901 17.0863 10.6815 16.8405 10.6765C16.5142 10.6699 16.1794 10.6595 15.8534 10.6461C15.7031 10.6399 15.5375 10.6551 15.3929 10.6212C15.1702 10.5689 15.2351 10.5115 15.1133 10.3685H15.1136Z" fill="white"/>
</svg>
