<svg width="78" height="48" viewBox="0 0 78 48" fill="none" xmlns="http://www.w3.org/2000/svg">
<path d="M17.4872 22.7938H13V37.0416H17.4872C21.4135 37.0416 24.5978 33.8513 24.5978 29.9177C24.5978 25.984 21.4135 22.7938 17.4872 22.7938ZM17.4872 33.4767H16.5582V26.3528H17.4872C19.4503 26.3528 21.0396 27.945 21.0396 29.9118C21.0396 31.8787 19.4503 33.4708 17.4872 33.4708V33.4767Z" fill="white"/>
<path d="M36.7564 28.103C36.7564 25.1528 34.3667 22.7587 31.422 22.7587H29.6458H26.0935V37.0065H29.6458V33.4474H29.6867L33.2391 37.0065H36.7506V35.4904L34.0103 32.745C35.6404 31.8318 36.7506 30.105 36.7506 28.103H36.7564ZM29.6458 26.3235H31.422C32.4036 26.3235 33.1982 27.1196 33.1982 28.103C33.1982 29.0865 32.4036 29.8826 31.422 29.8826H29.6458V26.3235Z" fill="white"/>
<path d="M48.8742 24.4796C48.5937 24.1752 48.4009 23.8357 48.249 23.4845C47.3317 23.0513 46.3209 22.7938 45.24 22.7938C41.3137 22.7938 38.1294 25.984 38.1294 29.9177C38.1294 33.8513 41.3137 37.0416 45.24 37.0416C49.1663 37.0416 52.3506 33.8513 52.3506 29.9177C52.3506 28.2377 51.7488 26.7157 50.7789 25.4982C50.031 25.3635 49.3708 25.0123 48.8742 24.4796ZM45.24 33.4767C43.2769 33.4767 41.6876 31.8845 41.6876 29.9177C41.6876 27.9508 43.2769 26.3587 45.24 26.3587C47.2031 26.3587 48.7924 27.9508 48.7924 29.9177C48.7924 31.8845 47.2031 33.4767 45.24 33.4767Z" fill="white"/>
<path d="M59.1748 22.7938H56.4288C56.271 22.9811 56.1308 23.145 56.0198 23.2679C55.3596 23.9996 54.6175 24.5733 53.8463 24.9655V37.0416H57.3987V33.4826H59.1748C62.1196 33.4826 64.5092 31.0884 64.5092 28.1382C64.5092 25.1879 62.1196 22.7938 59.1748 22.7938ZM59.1748 29.9177H57.3987V26.3587H59.1748C60.1564 26.3587 60.951 27.1547 60.951 28.1382C60.951 29.1216 60.1564 29.9177 59.1748 29.9177Z" fill="white"/>
<path d="M31.9831 11.6952C33.6015 10.5772 33.9112 8.62208 32.0708 8.09525C30.1777 7.55086 27.1863 9.51769 27.1863 9.51769C27.1863 9.51769 22.109 8.4933 19.3979 11.0865C16.6986 13.6679 18.5508 15.9977 19.9063 16.3723C21.1508 16.7118 22.9269 16.2845 23.0847 14.587C23.2424 12.8894 20.7768 13.8201 21.0982 12.5206C21.4137 11.2211 25.4159 11.9587 25.4159 11.9587C25.4159 11.9587 24.037 15.6231 23.2424 16.8172C22.4478 18.0113 20.8937 18.2806 20.0699 17.9587C19.246 17.6426 18.4806 18.784 19.5382 20.107C20.6015 21.4357 23.6982 21.6465 25.5503 19.5216C27.4024 17.3967 28.4015 12.5089 28.4015 12.5089C28.4015 12.5089 30.3647 12.8016 31.9773 11.6835L31.9831 11.6952Z" fill="#FFB236"/>
<path d="M41.7404 13.9782C39.193 13.8318 37.7615 14.9616 37.4986 15.5821C37.2357 16.2026 38.042 16.4835 38.5445 17.3382C39.0469 18.1987 38.9827 19.0123 38.8483 19.0299C38.7723 19.0416 38.5561 18.6318 38.2056 18.2572C37.6914 17.6952 36.8793 17.5021 36.1957 17.824C35.8919 17.9645 35.6056 18.2162 35.4537 18.6435C35.0564 19.7909 37.1656 20.9206 39.0703 20.8972C40.975 20.8738 42.3013 19.5743 42.2604 18.3099C42.2195 17.0455 40.975 16.2494 41.4132 16.1557C41.8514 16.0621 42.4824 16.5538 42.9907 16.2845C43.6218 15.945 44.1418 14.1304 41.7404 13.9899V13.9782Z" fill="#FFB236"/>
<path d="M34.5364 18.1577C35.0038 16.6767 37.3116 14.025 33.9872 14.6279C33.9872 14.6279 33.175 13.7499 31.2294 14.0309C29.4065 14.2943 28.349 16.2962 27.9575 17.4611C27.6186 18.4738 27.2856 20.9031 29.126 20.9031C31.0658 20.9031 31.6734 19.504 32.0299 19.9782C32.3804 20.4582 32.7894 20.8796 33.7768 20.8913C34.7642 20.903 35.2024 20.4874 35.0622 20.347C34.922 20.2065 34.0806 19.5977 34.5364 18.1577ZM30.5458 18.4913C29.6285 18.3509 31.3696 15.1723 32.6375 15.8982C32.6375 15.8982 31.4222 18.626 30.5458 18.4913Z" fill="#FFB236"/>
<path d="M49.8384 17.8006C49.1548 17.4787 48.3076 17.6894 47.7934 18.2513C47.4487 18.6318 47.2267 19.0474 47.1508 19.024C46.5782 18.8601 47.9103 16.1967 47.9103 16.1967C47.9103 16.1967 50.1714 16.6006 50.6739 14.9967C51.0712 13.7206 48.6932 14.0191 48.6932 14.0191C48.6932 14.0191 50.1247 11.5021 48.3485 11.5021C46.2568 11.5021 45.1467 14.025 45.1467 14.025C44.6442 15.0084 43.7737 17.0396 43.7328 18.304C43.6919 19.5684 45.0182 20.8679 46.9287 20.8913C48.8393 20.9148 50.9777 19.7674 50.5804 18.6201C50.4285 18.1928 50.1422 17.9411 49.8384 17.8006Z" fill="#FFB236"/>
<path d="M57.7728 14.2533C56.9548 14.2006 56.0024 14.786 55.6752 15.6582C55.4824 16.1733 55.3188 16.6357 55.1027 17.2387C55.1027 17.2387 54.6995 18.2104 54.5301 18.1811C54.3606 18.1518 54.3256 17.9118 54.5651 15.8806C54.5651 15.8806 54.8047 14.0016 53.4959 14.0016C52.1872 14.0016 51.3867 15.1899 51.3925 16.1909C51.3925 16.9518 51.6788 19.2874 53.4083 20.587C52.6779 21.0201 51.749 20.7684 50.6797 20.8855C49.6339 20.9967 48.9211 22.3606 49.9552 23.4728C50.9368 24.5265 53.1045 24.2923 54.9274 22.2728C55.9265 21.1665 58.0591 18.4035 58.8829 16.2494C59.286 15.1957 59.14 14.3411 57.7786 14.2474L57.7728 14.2533Z" fill="#FFB236"/>
</svg>
