<svg width="32" height="32" viewBox="0 0 32 32" fill="none" xmlns="http://www.w3.org/2000/svg">
<path opacity="0.5" d="M16 32C24.8366 32 32 24.8366 32 16C32 7.16344 24.8366 0 16 0C7.16344 0 0 7.16344 0 16C0 24.8366 7.16344 32 16 32Z" fill="white"/>
<path fill-rule="evenodd" clip-rule="evenodd" d="M7.23917 15.8312C11.9033 13.8003 15.0137 12.459 16.5703 11.813C21.0133 9.96542 21.9386 9.64245 22.538 9.63372C22.6689 9.63081 22.9657 9.66282 23.1577 9.81994C23.3206 9.95087 23.3643 10.1284 23.3847 10.2535C23.405 10.3786 23.4312 10.6608 23.4108 10.8819C23.1693 13.4133 22.1277 19.5526 21.5982 22.3866C21.3741 23.5853 20.9318 23.9869 20.5041 24.0276C19.576 24.112 18.8689 23.4137 17.9699 22.823C16.5616 21.9007 15.7673 21.3246 14.3997 20.4255C12.8198 19.3839 13.844 18.8136 14.7431 17.8767C14.9788 17.6323 19.0726 13.908 19.1512 13.5704C19.1599 13.5268 19.1715 13.3697 19.0755 13.2882C18.9795 13.2067 18.8427 13.2329 18.7438 13.2562C18.6012 13.2882 16.3521 14.775 11.9935 17.7166C11.3563 18.156 10.7773 18.3684 10.2594 18.3568C9.68908 18.3451 8.58923 18.0338 7.77163 17.769C6.77072 17.4431 5.97349 17.2715 6.04332 16.7186C6.08697 16.4277 6.48267 16.1309 7.23917 15.8312Z" fill="#03041C"/>
</svg>
