<svg width="32" height="32" viewBox="0 0 32 32" fill="none" xmlns="http://www.w3.org/2000/svg">
<path opacity="0.5" d="M16 0C7.18545 0 0 7.18545 0 16C0 24.8145 7.18545 32 16 32C24.8145 32 32 24.8145 32 16C32 7.18545 24.8436 0 16 0Z" fill="white"/>
<path d="M25.4867 11.0807C25.6263 10.6007 25.4867 10.2632 24.8118 10.2632H22.5572C21.9928 10.2632 21.7107 10.5745 21.571 10.912C21.571 10.912 20.4161 13.7018 18.8103 15.5054C18.275 16.0407 18.0481 16.2094 17.7688 16.2094C17.6292 16.2094 17.4314 16.0407 17.4314 15.5607V11.1098C17.4314 10.5454 17.2627 10.2923 16.7827 10.2923H13.2336C12.867 10.2923 12.6692 10.5454 12.6692 10.7985C12.6692 11.3338 13.4867 11.4734 13.571 12.9978V16.3229C13.571 17.056 13.4314 17.1694 13.1492 17.1694C12.387 17.1694 10.5281 14.3796 9.42848 11.168C9.20448 10.5483 9.00666 10.2952 8.41321 10.2952H6.15866C5.50994 10.2952 5.39648 10.6065 5.39648 10.944C5.39648 11.5345 6.15866 14.4931 8.94557 18.4116C10.8045 21.088 13.4256 22.5251 15.8198 22.5251C17.2568 22.5251 17.4256 22.2138 17.4256 21.6523V19.6247C17.4256 18.976 17.5652 18.8625 18.0161 18.8625C18.3536 18.8625 18.9179 19.0312 20.2707 20.3287C21.7921 21.8502 22.0452 22.528 22.9208 22.528H25.1754C25.8241 22.528 26.1325 22.2167 25.9638 21.5709C25.7659 20.9512 25.0328 20.0203 24.0758 18.9207C23.5405 18.3011 22.7521 17.6232 22.5252 17.2858C22.1878 16.864 22.3012 16.6662 22.5252 16.2705C22.4699 16.2647 25.2045 12.3782 25.4867 11.0807Z" fill="#03041C"/>
</svg>
